<?xml version="1.0" encoding="UTF-8"?>
<svg id="Calque_2" data-name="Calque 2" xmlns="http://www.w3.org/2000/svg" viewBox="0 0 323.43 323.42">
  <defs>
    <style>
      .cls-1 {
        fill: #fff;
        stroke-width: 0px;
      }
    </style>
  </defs>
  <g id="Calque_1-2" data-name="Calque 1">
    <path class="cls-1" d="M215.84,215.02s-.07.07-.09.1c.03-.03.07-.06.11-.1h-.02ZM215.65,215.22s-.02.01-.04.01h.05s.06-.07.09-.11c-.04.03-.07.06-.1.1ZM128.43,216.25c1.79.02,3.61.04,5.47.05-1.86-.02-3.68-.04-5.47-.05ZM94.8,215.23s-.03-.01-.05-.01c-.15-.04-.29-.07-.43-.1.14.04.29.08.44.11.04.01.08.01.12.02-.03-.01-.05-.02-.08-.02ZM93.93,215.02h-.03c.13.04.27.07.41.1-.13-.03-.26-.07-.38-.1ZM17.13,234.22c26.58,52.9,81.34,89.2,144.58,89.2s118-36.3,144.59-89.2H17.13ZM295.37,175.37c-.04-.19-.09-.39-.14-.58.05.2.09.39.13.58.14.65.26,1.29.38,1.93-.11-.64-.23-1.28-.37-1.93ZM296.7,193.03c0,.19,0,.38.01.58h0c0-.19-.02-.39-.02-.58ZM299.15,171.9c.23-.13.46-.26.65-.38-.2.12-.42.24-.65.38ZM287.7,222.62c.19.15.37.31.55.48h12.99c.03-.16.05-.32.07-.48h-13.61ZM300.1,171.32s0-.13.02-.28c-.04.13-.02.27-.04.28v.02c.7,2.54,2.14,8.99,2.02,14.31.13-5.32-1.31-11.78-2-14.33ZM161.71,0C72.4,0,0,72.4,0,161.71c0,21.55,4.22,42.11,11.87,60.91h3.69c-4.44-18.55-6.38-64.81,8.61-76.96,2.73-2.21,16.57-7.88,19.92-8.11.08-.88-.12-1.82,0-2.7.04-.22-.02-.45,0-.68-4.94.98-6.41.02-6.75,0-4.73-.08-13.17.21-20.53.14h0c-7.13-.02-9.16.12-9.61-1.38-.31-.99,1.98-2.81,2.23-3.03.79-.64,1.18-1.09,1.62-1.43h.02c.42-.66.83-1.36,1.27-2.11h0c.11-.2.21-.39.32-.58.22-.37.45-.78.66-1.17,2.87-5.11,6.33-11.08,13.21-12.73,5.12-1.2,11.1-1.05,16.22,0,.51.11,1.4,1.07,4.04.68,2.52-15.13,7.41-40.61,21.62-48.63,19.48-10.97,102.57-9.61,127.99-8.11,37.72,2.23,48.39,1.79,60.45,26.68,3.17,6.51,7.7,17.79,10.14,24.66.37,1.05.93,3.29,1.56,6.02,0,.02.01.02.01.04v-.04c2.65.39,4.54-.49,5.06-.6,5.12-1.05,11.09-1.2,16.21,0,6.89,1.65,10.35,7.62,13.21,12.72.22.4.45.8.66,1.18l.33.57h0c.43.75.85,1.46,1.27,2.1v.02c.46.34.85.78,1.63,1.43.26.22,2.54,2.04,2.23,3.03-.45,1.5-2.47,1.36-9.61,1.39v-.02c-7.36.07-15.8-.21-20.53-.13-.34.01-2.13.92-7.07-.05h-.01c.34,1.69.58,2.57.92,4.26,5.97,1.6,9.69,3.81,14.4,7.93,6.01,5.28,11.38,15.96,13.51,23.64h-.01c.27.96.67.63.67.67.01.03.02.06.02.09t.01.02h0s1.58,9.75,1.58,9.75v.03s.01.07.01.11v.02h.01v.02c.03.27.05.54.08.81,0,.07,0,.13,0,.2.02.26.05.51.07.77v.07c.02.26.04.52.05.78.03.21.04.41.04.62.07.88.12,1.76.15,2.65.05.95.08,1.89.09,2.85.26,11.02-.76,22.99-2.24,32.51h10.25c7.65-18.8,11.87-39.36,11.87-60.91C323.43,72.4,251.02,0,161.71,0ZM292.89,167.36s-.03-.08-.05-.11c.01.04.03.07.04.11.08.19.16.38.23.57-.07-.19-.15-.38-.22-.57ZM291.93,165.13c-.06-.12-.12-.25-.18-.37.06.12.12.25.17.37.17.37.34.73.5,1.11-.16-.38-.32-.74-.49-1.11ZM270.82,178.04c.3.41.58.83.85,1.24-.25-.41-.54-.83-.85-1.24ZM273.87,181.42c0,.1-.01.2-.01.3-.01.35-.04.69-.07,1.03h0s.03.05.03.07c0,0,.02.02.04.04v-.02c.01-.29.02-.58.02-.88,0-.18,0-.36-.01-.54ZM273.74,144.98c-.06.11-.13.22-.2.32-.03.06-.07.11-.1.16-.03.04-.06.07-.09.11,0,0-.01.02-.02.03-.07.09-.15.18-.22.27.08-.09.16-.18.23-.27.02-.02.03-.04.05-.06.02-.03.04-.06.06-.08.1-.15.21-.31.31-.48h-.02ZM263,161.82c.07.15.13.3.2.45,1.97,1.3,3.76,2.87,5.28,4.65.6.69,1.16,1.42,1.67,2.17-1.83-2.91-4.28-5.39-7.15-7.27ZM52.87,124.04c-.04.43-.11.75-.18,1,.08-.25.15-.57.19-1,.01-.11.02-.24.04-.38-.02.14-.04.27-.05.38ZM53.55,127.41c-.09-.09-.17-.17-.25-.24.08.08.16.16.25.25l.07.06c.08.07.16.14.25.2,0,0,.01.02.02.02,0,.01.03.03.05.03.01.02.02.03.04.03.08.06.16.12.24.17.47.29,1,.5,1.53.69h.01s.08.03.11.05h.01s.02-.04.03-.05c.33-.4.68-.78,1.04-1.13-1.13.01-2.26-.01-3.4-.08ZM54.16,117.11c.14-.62.28-1.28.42-1.95-.15.68-.29,1.33-.42,1.95ZM61.65,86.22c-.03.08-.05.17-.08.26.03-.1.06-.19.09-.27h-.01ZM63.23,81.62c-.08.23-.16.47-.25.71.18-.49.36-.97.53-1.43-.1.24-.19.48-.28.72ZM62.7,83.14s-.01.01-.01.02c-.13.37-.26.76-.39,1.15-.1.3-.21.62-.31.93-.11.32-.22.64-.33.97,2.52-4.01,5.74-6.92,9.42-9.03-3.1,1.46-5.94,3.39-8.38,5.96ZM67.3,74.45c.09-.09.18-.19.28-.28.02-.02.03-.04.04-.05-.12.1-.23.22-.32.33ZM67.65,74.1s.01,0,.02-.01c.05-.06.1-.12.15-.17-.06.05-.11.11-.17.18ZM67.96,73.79s.1-.08.15-.12c.2-.18.41-.35.62-.53-.27.21-.53.43-.77.65ZM68.73,73.14c.43-.34.9-.68,1.4-1-.5.31-.97.65-1.4,1ZM74.03,70.18c.21-.08.43-.16.65-.25.18-.07.36-.15.55-.22-.42.15-.82.3-1.2.47ZM76.39,69.31c.2-.06.4-.12.61-.18.08-.03.15-.05.23-.08-.29.09-.57.17-.84.26ZM78.53,68.67c.09-.02.17-.05.27-.07.24-.06.47-.13.71-.19-.34.08-.66.16-.98.26ZM80.65,68.11c.13-.03.27-.06.42-.09.75-.18,1.55-.37,2.37-.54-.98.2-1.91.41-2.79.63ZM201.55,65.47c2.53.14,5,.3,7.39.46-2.39-.17-4.86-.33-7.39-.46ZM244.02,71.35h-.02s.01.01.02.01c.47.23.92.5,1.35.81-.43-.32-.88-.59-1.35-.82ZM255.51,93.3c-.39-1.28-.81-2.75-1.27-4.3.45,1.55.87,3.02,1.26,4.31.01.03.02.05.03.08,0-.03,0-.06-.02-.09ZM255.82,94.38c.09.32.19.69.3,1.1-.1-.41-.2-.78-.3-1.1ZM256.54,97.07c.11.43.23.9.36,1.38-.12-.48-.24-.95-.36-1.38ZM94.22,222.62h-9.34c.17.15.34.32.51.48h9.01c-.06-.16-.12-.32-.18-.48ZM45.35,166.9c-2.29,3.35-3.7,7.3-3.76,11.62,0,.5,0,1,.04,1.49.46-8.7,5.54-16.18,12.83-20.02.11-.41.24-.8.37-1.19-3.77,1.85-7.1,4.65-9.48,8.1ZM54.27,160.18s.1-.05.15-.07h0s-.1.04-.15.07ZM50.48,200c.88.72,1.8,1.37,2.77,1.96-.06-.4-.12-.81-.18-1.23-.16-1-.3-2.04-.42-3.12-1.57-.96-3.04-2.11-4.35-3.4-1.08-1.07-2.06-2.23-2.92-3.47.12.3.26.59.42.89.13.27.27.54.41.81.3.58.64,1.16,1.01,1.76.13.22.27.44.42.67,0,.02.02.05.05.08.18.28.37.57.57.87.18.28.38.56.58.85.25.4.54.78.83,1.18.57.8,1.19,1.64,1.85,2.52-.17-.05-.35-.1-.52-.17-.17-.05-.34-.12-.52-.2ZM46.79,112.56c-.15.9-.28,1.79-.41,2.69.13-.9.27-1.79.42-2.69h-.01ZM44.09,134.17h.01c.23-1.79.44-3.6.64-5.4-.21,1.8-.42,3.61-.65,5.4ZM44.09,175.04c-.02.16-.04.31-.06.46.02-.15.05-.3.07-.46.11-.71.24-1.4.4-2.07-.17.67-.3,1.36-.41,2.07ZM39.05,156.96c-.13.13-.25.26-.37.39.12-.13.25-.26.38-.39h-.01ZM36.2,160.15c-.22.27-.44.54-.64.81.21-.27.42-.54.65-.81.33-.41.67-.81,1.02-1.22-.35.41-.69.81-1.03,1.22ZM24.14,154.88c.36-.56.74-1.11,1.15-1.64-.41.53-.8,1.08-1.15,1.64ZM15.56,222.62c.03.16.07.32.11.48h0c.01.08.04.16.05.23.29-.07.55-.15.76-.23h8.43c.22-.16.44-.32.67-.48h-10.02ZM270.82,178.04c.3.41.58.83.85,1.24-.25-.41-.54-.83-.85-1.24ZM273.87,181.42c0,.1-.01.2-.01.3-.01.35-.04.69-.07,1.03h0s.03.05.03.07c0,0,.02.02.04.04v-.02c.01-.29.02-.58.02-.88,0-.18,0-.36-.01-.54ZM263,161.82c.07.15.13.3.2.45,1.97,1.3,3.76,2.87,5.28,4.65.6.69,1.16,1.42,1.67,2.17-1.83-2.91-4.28-5.39-7.15-7.27Z"/>
  </g>
</svg>