<?xml version="1.0" encoding="UTF-8"?>
<svg id="Calque_2" data-name="Calque 2" xmlns="http://www.w3.org/2000/svg" viewBox="0 0 323.43 323.42">
  <defs>
    <style>
      .cls-1, .cls-2, .cls-3, .cls-4, .cls-5, .cls-6 {
        stroke-width: 0px;
      }

      .cls-2 {
        fill: #467323;
      }

      .cls-3 {
        fill: #b1e0d3;
      }

      .cls-4 {
        fill: #999;
      }

      .cls-5 {
        fill: #fff;
      }

      .cls-6 {
        fill: #ff0;
      }
    </style>
  </defs>
  <g id="Calque_1-2" data-name="Calque 1">
    <path class="cls-5" d="M161.71,0C72.4,0,0,72.4,0,161.71s72.4,161.71,161.71,161.71,161.72-72.4,161.72-161.71S251.02,0,161.71,0ZM282.41,215.02H38.1c-1.6,0-2.9-1.3-2.9-2.9v-2.78c0-1.61,1.3-2.91,2.9-2.91h16.04c-3.29-13.74-4.71-47.97,6.38-56.97,2.02-1.63,12.27-5.83,14.75-6,.06-.65-.09-1.35,0-2,.03-.16-.02-.33,0-.5-3.66.72-4.75.01-5,0-3.5-.06-9.75.15-15.2.1h0c-5.28-.01-6.78.09-7.11-1.02-.23-.73,1.46-2.08,1.65-2.24.58-.48.87-.81,1.2-1.06h.01c.31-.49.62-1.01.94-1.56h0c.08-.15.16-.29.24-.43.16-.28.33-.58.49-.87,2.12-3.78,4.68-8.2,9.78-9.42,3.79-.89,8.21-.78,12,0,.38.08,1.04.79,3,.5,1.86-11.2,5.48-30.06,16-36,14.42-8.12,75.93-7.11,94.75-6,27.92,1.65,35.82,1.32,44.75,19.75,2.34,4.82,5.7,13.17,7.5,18.25.28.78.69,2.44,1.16,4.46,1.96.29,3.37-.37,3.75-.45,3.79-.78,8.21-.89,12,0,5.1,1.22,7.66,5.64,9.78,9.42.16.29.33.59.49.87.08.14.16.28.24.42h0c.32.56.63,1.08.94,1.56h.01c.33.26.62.59,1.2,1.07.19.16,1.88,1.51,1.65,2.24-.33,1.11-1.83,1.01-7.11,1.03h0c-5.45.04-11.7-.17-15.2-.11-.25.01-1.58.69-5.24-.03.25,1.25.43,1.9.68,3.15,4.42,1.19,7.17,2.82,10.66,5.87,4.45,3.91,8.42,11.82,10,17.5h-.01c-.19-.02-.3.02-.38.1-.02.02-.04.04-.06.07-.02.04-.03.08-.03.12-.02.11-.01.2-.02.21h-.01c-1.01.7-3.43,1.68-3.49,3-.08-.35-.16-.71-.26-1.07.09.36.18.72.25,1.07.37,1.69.58,3.37.72,5.05.18,2.24.21,4.48.25,6.75,0,.56.02,1.13.03,1.7.1,3.68.43,7.89,0,11.5,2.63,2.75,3.87,1.39,4,1.75.18.48-1.16,5.19-1.56,8.22h17.7c1.61,0,2.91,1.3,2.91,2.91v2.78c0,1.6-1.3,2.9-2.91,2.9Z"/>
    <g>
      <g>
        <path class="cls-3" d="M107.14,177.07c-.48,5.6-7.77,15.87-10,11.5-.06.08-1.06.58-1.5,1.25.93.41.95.14,1,1.25-5.79,2.67-8.9,1.49-15,0-4.92-6.56-6.83-8.87-5.5-17.75,1.82-12.14,14.89-15.92,24.5-10.25.65.38.96.47,1,.5,3.77,2.91,5.9,8.89,5.5,13.5Z"/>
        <path class="cls-2" d="M102.14,163.57h-.5s-.35-.12-1-.5c.03-.93.82-.05,1.5.5Z"/>
      </g>
      <path class="cls-1" d="M109.97,177.97c0,9.86-7.99,14.84-17.84,14.84s-17.84-4.99-17.84-14.84,7.99-17.84,17.84-17.84,17.84,7.99,17.84,17.84Z"/>
      <path class="cls-1" d="M246.24,178.44c0,9.86-7.99,16.84-17.84,16.84s-17.84-6.99-17.84-16.84,7.99-17.84,17.84-17.84,17.84,7.99,17.84,17.84Z"/>
      <path class="cls-6" d="M241.33,178.05c-.09,2.16-.83,4.15-2,5.85-2.32,3.37-6.36,5.61-10.54,5.72-.12.01-.23.01-.35.01-3.49,0-6.93-1.49-9.39-3.9-2.22-2.19-3.65-5.13-3.6-8.43.03-2.32.79-4.44,2.02-6.24,1.82-2.64,4.68-4.57,7.77-5.34.8-.21,1.62-.33,2.44-.37,4.09-.2,8.15,1.7,10.76,4.75,1.89,2.18,3.02,4.95,2.89,7.95Z"/>
      <path class="cls-6" d="M105.06,176.54c-.09,2.16-.83,4.15-2,5.85-2.32,3.37-6.36,5.61-10.54,5.72-.12.01-.23.01-.35.01-3.49,0-6.93-1.49-9.39-3.9-2.22-2.19-3.65-5.13-3.6-8.43.03-2.32.79-4.44,2.02-6.24,1.82-2.64,4.68-4.57,7.77-5.34.8-.21,1.62-.33,2.44-.37,4.09-.2,8.15,1.7,10.76,4.75,1.89,2.18,3.02,4.95,2.89,7.95Z"/>
      <path class="cls-4" d="M108.83,176.93c-.38,6.75-5.6,12.28-11.93,14.14s-13.29-.29-17.66-5.2c-4.71-5.29-5.07-13.11-.67-18.72,4.03-5.14,10.96-7.72,17.33-6.13,7.23,1.8,13.17,8.25,12.94,15.91-.04,1.45,2.21,1.45,2.25,0,.23-7.7-5.03-14.4-12-17.23s-15.41-1.06-20.82,4.4-6.76,14.27-2.45,20.97c4.07,6.33,11.82,9.83,19.25,8.71,8.38-1.27,15.53-8.24,16.01-16.85.08-1.45-2.17-1.44-2.25,0Z"/>
      <path class="cls-4" d="M245.1,178.27c-.38,6.75-5.6,12.28-11.93,14.14s-13.29-.29-17.66-5.2c-4.71-5.29-5.07-13.11-.67-18.72,4.03-5.14,10.96-7.72,17.33-6.13,7.23,1.8,13.17,8.25,12.94,15.91-.04,1.45,2.21,1.45,2.25,0,.23-7.7-5.03-14.4-12-17.23s-15.41-1.06-20.82,4.4-6.76,14.27-2.45,20.97c4.07,6.33,11.82,9.83,19.25,8.71,8.38-1.27,15.53-8.24,16.01-16.85.08-1.45-2.17-1.44-2.25,0Z"/>
      <path class="cls-5" d="M96.68,166.97c-1.6-.33-3.48.23-3.53.85-.06.72,2.45.73,4.8,2.96,1.61,1.53,1.93,2.95,2.33,2.82.53-.17.61-2.83-.78-4.73-.26-.36-1.17-1.56-2.82-1.91Z"/>
      <path class="cls-5" d="M232.64,168.75c-1.6-.33-3.48.23-3.53.85-.06.72,2.45.73,4.8,2.96,1.61,1.53,1.93,2.95,2.33,2.82.53-.17.61-2.83-.78-4.73-.26-.36-1.17-1.56-2.82-1.91Z"/>
    </g>
  </g>
</svg>