<?xml version="1.0" encoding="UTF-8"?>
<svg id="Calque_2" data-name="Calque 2" xmlns="http://www.w3.org/2000/svg" viewBox="0 0 323.43 323.42">
  <defs>
    <style>
      .cls-1 {
        fill: #fff;
        stroke-width: 0px;
      }
    </style>
  </defs>
  <g id="Calque_1-2" data-name="Calque 1">
    <path class="cls-1" d="M161.71,0C72.4,0,0,72.4,0,161.71s72.4,161.71,161.71,161.71,161.72-72.4,161.72-161.71S251.02,0,161.71,0ZM282.41,215.02H38.1c-1.6,0-2.9-1.3-2.9-2.9v-2.78c0-1.61,1.3-2.91,2.9-2.91h16.04c-3.29-13.74-4.71-47.97,6.38-56.97,2.02-1.63,12.27-5.83,14.75-6,.06-.65-.09-1.35,0-2,.03-.16-.02-.33,0-.5-3.66.72-4.75.01-5,0-3.5-.06-9.75.15-15.2.1h0c-5.28-.01-6.78.09-7.11-1.02-.23-.73,1.46-2.08,1.65-2.24.58-.48.87-.81,1.2-1.06h.01c.31-.49.62-1.01.94-1.56h0c.08-.15.16-.29.24-.43.16-.28.33-.58.49-.87,2.12-3.78,4.68-8.2,9.78-9.42,3.79-.89,8.21-.78,12,0,.38.08,1.04.79,3,.5,1.86-11.2,5.48-30.06,16-36,14.42-8.12,75.93-7.11,94.75-6,27.92,1.65,35.82,1.32,44.75,19.75,2.34,4.82,5.7,13.17,7.5,18.25.28.78.69,2.44,1.16,4.46,1.96.29,3.37-.37,3.75-.45,3.79-.78,8.21-.89,12,0,5.1,1.22,7.66,5.64,9.78,9.42.16.29.33.59.49.87.08.14.16.28.24.42h0c.32.56.63,1.08.94,1.56h.01c.33.26.62.59,1.2,1.07.19.16,1.88,1.51,1.65,2.24-.33,1.11-1.83,1.01-7.11,1.03h0c-5.45.04-11.7-.17-15.2-.11-.25.01-1.58.69-5.24-.03.25,1.25.43,1.9.68,3.15,4.42,1.19,7.17,2.82,10.66,5.87,4.45,3.91,8.42,11.82,10,17.5h-.01c-.19-.02-.3.02-.38.1-.02.02-.04.04-.06.07-.02.04-.03.08-.03.12-.02.11-.01.2-.02.21h-.01c-1.01.7-3.43,1.68-3.49,3-.08-.35-.16-.71-.26-1.07.09.36.18.72.25,1.07.37,1.69.58,3.37.72,5.05.18,2.24.21,4.48.25,6.75,0,.56.02,1.13.03,1.7.1,3.68.43,7.89,0,11.5,2.63,2.75,3.87,1.39,4,1.75.18.48-1.16,5.19-1.56,8.22h17.7c1.61,0,2.91,1.3,2.91,2.91v2.78c0,1.6-1.3,2.9-2.91,2.9Z"/>
  </g>
</svg>