<?xml version="1.0" encoding="UTF-8"?>
<svg id="Calque_2" data-name="Calque 2" xmlns="http://www.w3.org/2000/svg" viewBox="0 0 223.57 124.74">
  <defs>
    <style>
      .cls-1 {
        opacity: .09;
      }

      .cls-1, .cls-2, .cls-3, .cls-4, .cls-5, .cls-6, .cls-7, .cls-8, .cls-9, .cls-10, .cls-11, .cls-12, .cls-13, .cls-14, .cls-15, .cls-16, .cls-17, .cls-18, .cls-19 {
        stroke-width: 0px;
      }

      .cls-3 {
        fill: #467323;
      }

      .cls-4 {
        fill: #181334;
      }

      .cls-5 {
        fill: #091510;
      }

      .cls-6 {
        fill: #0a1a0d;
      }

      .cls-7 {
        fill: #0c141b;
      }

      .cls-8 {
        fill: #101529;
      }

      .cls-9 {
        fill: #ccc;
      }

      .cls-10 {
        fill: #dee24b;
      }

      .cls-11 {
        fill: #b1e0d3;
      }

      .cls-12 {
        fill: #cf9fab;
      }

      .cls-13 {
        fill: #666;
      }

      .cls-14 {
        fill: #333;
      }

      .cls-15 {
        fill: #999;
      }

      .cls-16 {
        fill: #fff;
      }

      .cls-17 {
        fill: #ff0;
      }

      .cls-18 {
        fill: #ecafb7;
      }

      .cls-19 {
        fill: #e6efd6;
      }
    </style>
  </defs>
  <g id="Calque_1-2" data-name="Calque 1">
    <path class="cls-12" d="M154.95,52.23c-15.22.02-30.39,1.75-45.62,1.07v-.97c15.41.25,30.41-.19,45.62-.1Z"/>
    <path class="cls-10" d="M109.33,52.33v.97c-3.65-.16-7.34-.35-11-.47-.11-.19-.25-.37-.42-.55.42-.01.88-.01,1.42-.02,3.66-.03,6.35.01,10,.07Z"/>
    <path class="cls-11" d="M98.33,52.83c-3.21-.11-5.33-.08-8.48-.54-.66.82-1.28.84-4.05,1.01-2.29.15-3.23-1.06-5.44-1.06,2.21,0,3.76.05,6.06.09,1.7.03,3.76-.12,5.29,0,2.94,0,3.5-.03,6.2-.05.17.18.31.36.42.55Z"/>
    <path class="cls-2" d="M207.34,68.24c-3.49-3.05-6.24-4.68-10.66-5.87-.25-1.25-.43-1.9-.68-3.15,1.33.05,0,0,1.33.02.17,0,.34.01.51.01h.1l-.84-3.52c-.15-.24-.3-.55-.45-.93-1.03-2.49-2.22-7.65-3.15-11.55,0-.02,0-.03,0-.05-.47-2.02-.88-3.68-1.16-4.46-1.8-5.08-5.16-13.43-7.5-18.25C175.9,2.06,168,2.39,140.08.74,121.26-.37,59.75-1.38,45.33,6.74c-10.52,5.94-14.14,24.8-16,36-.87,5.3-1.32,10.68-2,16-.02.17.03.34,0,.5-.09.65.06,1.35,0,2-2.48.17-12.73,4.37-14.75,6-11.19,9.08-9.64,43.84-6.29,57.33h0c.01.06.03.12.04.17.21-.05.4-.11.56-.17.39-.14.65-.31.84-.53.04-.05.09-.11.12-.17.25-.38.35-.9.48-1.63.34-1.81-.07-8.09,0-11.5.67-29.71-3.06-43.31,27.5-47.5.17-.02.34.03.5,0,21.97-2.91,51.06-2.15,73.5-2,.31,6.99-.27,13.83-1,20.75-.87,1.27-2.95.63-5,.75,6.34,3.65,6.86,2.75,13.25.5.39-.13.25-.67.25-1-1.26-.13-2.64.49-3.5-.75-.42-.92,1.59-17.31,1.5-20.25-.01-.24,0-.5.02-.76-.01.26-.02.52-.01.76,18.61.64,55.92-1.04,71.99,2h.01c3.87.74,6.5,1.67,9.99,3.5h.01c2.32,1.23,4.44,2.82,6.33,4.67.11.1.21.21.32.32.1.1.21.2.31.31,1.85,1.92,3.47,4.09,4.83,6.43.3.51.59,1.04.87,1.57.27.53.54,1.07.79,1.62.25.54.49,1.09.71,1.65.23.55.44,1.11.63,1.67.25.71.47,1.41.67,2.12.1.35.2.71.28,1.07.1.36.18.72.26,1.07.06-1.32,2.48-2.3,3.49-2.99h0s.01-.01.01-.01c.01-.01,0-.1.02-.21,0-.04.01-.08.03-.12.02-.03.04-.05.06-.07.08-.08.19-.12.38-.1h.01c-1.58-5.68-5.55-13.59-10-17.5ZM115.33,58.74h.01s.02.12.03.21c-.01-.09-.02-.16-.04-.21ZM188.58,53.24c-.74.03-1.5-.04-2.25,0-5.48.34-21.95-.93-29.5-1-.63-.01-1.25-.01-1.88-.01-7.06-.04-14.08.03-21.12.1-8.11.07-16.25.13-24.5,0-3.65-.06-6.34-.1-10-.07-.54.01-1,.01-1.42.02-2.7.02-3.26.05-6.2.05-1.53-.12-3.59.03-5.29,0-2.3-.04-3.85-.1-6.06-.09h-.03c-.28.32-.61.6-.98.85-.3.21-.63.39-.99.55-.17.08-.35.16-.54.22-.19.07-.39.14-.59.2-.3.1-.61.19-.93.26-.1.02-.21.04-.32.07-.22.05-.44.09-.66.13-.45.08-.91.15-1.39.2-.09.01-.18.02-.27.03-.47.05-.95.08-1.44.11-.17.01-.34.02-.51.03-.4.02-.79.03-1.19.04-.28.01-.57.01-.85.01-.46,0-.92,0-1.38,0-1.36,0-2.68-.03-3.84-.03-1.7,0-3.08.06-3.87.33-.38.14-.25.66-.25,1-7.41.28-15.13.68-22.5,1.5.36-.74.44-1.27.32-1.67-.01-.07-.03-.13-.06-.19,0,0,0,0-.01,0-.03-.08-.07-.14-.12-.21-.01,0-.01-.01-.01-.01-.05-.07-.11-.13-.18-.19-.11-.1-.23-.18-.36-.25-.01-.01-.03-.01-.04-.02-.05-.03-.1-.06-.16-.08-.06-.03-.12-.06-.18-.08-.1-.05-.19-.08-.3-.12-.24-.09-.5-.18-.77-.28-.15-.05-.3-.11-.45-.17-.24-.1-.47-.2-.68-.34-.07-.03-.14-.08-.2-.14-.03-.01-.06-.03-.08-.06-.08-.05-.15-.11-.22-.18-1.59-1.56-.66-.66-.5-2.5.29-3.11,5.17-24.04,6.5-28,.14-.4.27-.79.39-1.17.1-.28.19-.55.29-.82.03-.1.06-.19.09-.28.14-.39.27-.77.4-1.13.13-.36.27-.72.41-1.06.25-.6.5-1.15.78-1.68.18-.34.36-.66.57-.98.1-.16.2-.32.32-.47.1-.15.22-.3.34-.45.13-.16.26-.31.39-.46.13-.14.26-.28.41-.42.02-.03.04-.05.06-.06.1-.12.21-.22.33-.31,1.18-1.06,2.72-1.97,4.86-2.77.27-.11.54-.21.83-.3.29-.11.58-.2.89-.29.22-.08.46-.15.7-.22.21-.05.41-.11.63-.17.35-.1.7-.19,1.07-.28.2-.06.4-.11.61-.15.74-.18,1.54-.36,2.38-.53,16.95-3.44,105.07-3.49,118.25,3,4.95,2.44,6.94,11.16,8.5,16.25.93,3.01,6.23,23.99,4.75,24.75Z"/>
    <path class="cls-9" d="M186.33,53.24c-5.48.34-21.95-.93-29.5-1-.63,0-1.25,0-1.88,0-15.21-.09-30.21.35-45.62.1-3.65-.06-6.34-.1-10-.07-.54.01-1,.01-1.42.02-2.7.02-3.26.05-6.2.05-1.53-.12-3.59.03-5.29,0-2.3-.04-3.85-.1-6.06-.09h-.03c-8.54.04-13.84-1.1-24.5-.5-7.19.41-14.22,2.44-21.5,2-1.59-1.56-.66-.66-.5-2.5.29-3.11,5.17-24.04,6.5-28,8.09-12.87,25.86-10.35,39-11,9.99-.49,20.01-.89,30-1,16.15-.17,32.36.04,48.5.5.35,1.81,7.17,1.49,10.25,2.5,14.5,4.78,16.5,26.14,18.25,39Z"/>
    <path class="cls-1" d="M138.15,53.12c-10.09.09-20.19.23-30.47.06-3.65-.06-6.34-.1-10-.07-.54.01-1,.01-1.42.02-2.7.02-3.26.05-6.2.05-1.53-.12-3.59.03-5.29,0-2.3-.04-3.85-.1-6.06-.09h-.03c-8.54.04-13.84-1.1-24.5-.5-7.19.41-14.22,2.44-21.5,2-1.59-1.56-.66-.66-.5-2.5.29-3.11,5.17-24.04,6.5-28,2.36-3.75,5.54-6.19,9.19-7.79,10.17,7.02,22.07,14.04,35.79,20.21,19.07,8.58,37.57,13.7,54.49,16.61Z"/>
    <path class="cls-19" d="M218.89,92.36c.06.42.1.85.14,1.28l-1.2-7.4c.07.29.14.58.21.88.12.56.24,1.14.34,1.74.06.3.11.61.16.92.05.31.1.61.14.93.05.32.09.64.13.96.03.23.06.46.08.69Z"/>
    <path class="cls-19" d="M219.04,93.68c.06.64.11,1.28.15,1.94-.04-.67-.1-1.33-.16-1.98,0,.01,0,.03,0,.04Z"/>
    <path class="cls-8" d="M217.69,124.57h-.96c.33-3,1.79-8.08,1.6-8.58-.13-.36-1.37,1-4-1.75.43-3.61.1-7.82,0-11.5h.01c1.09.14,1.91-.14,2.51-.74.35-.34.63-.78.84-1.3,1.59-3.83-.15-11.86-.86-14.45h0s0-.12.03-.22c0-.04.01-.08.03-.12.02-.03.04-.05.06-.07.08-.08.19-.12.38-.1.2.71.5.47.5.5.07.29.14.58.21.88.12.56.24,1.15.34,1.74.06.3.11.61.16.92s.1.61.14.93c.05.32.09.64.13.96.03.23.06.46.08.69.06.42.1.85.14,1.28,0,.01.01.03.01.04.02.2.03.39.05.59,0,.05.01.1.01.15.04.4.07.79.09,1.2.02.15.03.3.03.46.05.65.09,1.3.11,1.96.04.7.06,1.4.07,2.11.19,8.3-.59,17.31-1.71,24.42Z"/>
    <path class="cls-14" d="M108.83,81.99c-.87,1.27-2.95.63-5,.75-5.57.35-19.89.06-25.5-.5-2.57-.25-5.15-.59-7.75-.5-11.01-13.52-18.36-15.45-35.25-13.5-.16.02-.33-.02-.5,0h-.02c-.2.06-.4.12-.6.19-.22.07-.44.14-.66.23-.21.08-.42.16-.64.26-.18.07-.36.15-.54.23-2.15.99-4.37,2.49-6.43,4.26-.61.52-1.2,1.06-1.77,1.63-.19.19-.38.37-.57.57-.75.76-1.45,1.55-2.11,2.36-.33.4-.64.8-.93,1.2-1.19,1.63-2.14,3.27-2.73,4.82-2.38,6.28-1.72,16.1-4,15.75.49,5.3,2.76,10.36,6.5,14.25-4.59,1.9-8.43,4.85-12,8.25.34-1.81-.07-8.09,0-11.5.67-29.71-3.06-43.31,27.5-47.5.17-.02.34.03.5,0,21.97-2.91,51.06-2.15,73.5-2,.31,6.99-.27,13.83-1,20.75Z"/>
    <path class="cls-14" d="M208.07,124.57h-47.69c1.9-1.38,4.87-3.27,8.7-5.83,11.87-.15,29.48-2.89,38.99,5.83Z"/>
    <path class="cls-8" d="M151.33,86.24c-16.3-.82-32.68-.61-49-.5-4.23.03-29.82-.63-31.25,0-1.23.55-.62,2.92-.75,4-.85-.37-.82-4.02.25-4.5,2.94.39,6.03-.3,7.75-3,5.61.56,19.93.85,25.5.5,6.34,3.65,6.86,2.75,13.25.5.39-.13.25-.67.25-1,7.52.77,20.92-.57,29.5,0,.19,3.81,3.64,2.18,4.5,4Z"/>
    <path class="cls-18" d="M197.34,66.74c-.19.33-.41.61-.66.84.24-.23.46-.51.65-.84h.01Z"/>
    <path class="cls-7" d="M153.33,94.24c-.56.02-.96-.93-1.25-1-2.62-.58-46.46.44-53.75.5-3.73.03-26.01-.57-27.25,0-1.19.56-.48,1.78-.75,2.5-.26.74-.23,2.04-1,2.5.63-2.32,1.58-6.9,1.5-9,1.74.38,26.7.03,32.5,0,16.01-.07,32-1.16,48,0-.89,5.63-.66.51,2,4.5Z"/>
    <path class="cls-12" d="M151.33,89.74c-16-1.16-31.99-.07-48,0-5.8.03-30.76.38-32.5,0-.17-.03-.37.06-.5,0,.13-1.08-.48-3.45.75-4,1.43-.63,27.02.03,31.25,0,16.32-.11,32.7-.32,49,.5,1.11,2.34.12,2.76,0,3.5Z"/>
    <path class="cls-4" d="M216.85,102c-.6.6-1.42.88-2.51.74-.02-.57-.03-1.14-.04-1.7-.04-2.27-.07-4.51-.25-6.75-.13-1.68-.34-3.36-.71-5.05.06-1.32,2.48-2.3,3.49-2.99h0s.01-.01.01-.01c.8,2.94,2.95,12.93.01,15.76Z"/>
    <g>
      <path class="cls-14" d="M214.33,114.24c-1.18,9.9-2.04,3.29-14-.25-.42-1.27,10.27-7.25,7.5-24.75-1.89-11.95-13.88-20.53-25.5-21-25.75,2.02-30.37,13.08-35.5,14-8.58-.57-21.98.77-29.5,0-1.26-.13-2.64.49-3.5-.75-.42-.92,1.59-17.31,1.5-20.25h.01c18.61.64,55.92-1.04,71.99,2h.01c3.87.74,6.5,1.67,9.99,3.5-.19.33-.41.61-.65.84.25-.23.47-.51.66-.84,2.32,1.23,4.44,2.82,6.33,4.67.11.1.21.21.32.32.1.1.21.2.31.31,1.85,1.92,3.47,4.09,4.83,6.43.3.51.59,1.04.87,1.57.27.53.54,1.07.79,1.62.25.54.49,1.09.71,1.65.22.55.43,1.11.63,1.67.25.71.47,1.41.67,2.12.1.35.2.71.28,1.07.09.36.18.72.25,1.07.37,1.69.58,3.37.72,5.05.18,2.24.21,4.48.25,6.75,0,.56.02,1.13.03,1.7.1,3.68.43,7.89,0,11.5Z"/>
      <path class="cls-14" d="M197.34,66.74c-.19.33-.41.61-.66.84.24-.23.46-.51.65-.84h.01Z"/>
    </g>
    <path class="cls-13" d="M158.08,105.24h-91.5c-.31-.16,1.83-3.07,2.75-6.5.77-.46.74-1.76,1-2.5.27-.72-.44-1.94.75-2.5,1.24-.57,23.52.03,27.25,0,7.29-.06,51.13-1.08,53.75-.5.29.07.69,1.02,1.25,1,.08.12-.07.38,0,.5,1.83,3.18,2.9,7.27,4.75,10.5Z"/>
    <path class="cls-7" d="M197.33,80.99c-.94-1.35-2.08-2.51-3.36-3.5-.32-.25-.65-.48-.99-.7-.33-.23-.68-.44-1.04-.64-.35-.21-.72-.4-1.09-.58-.73-.36-1.5-.68-2.29-.96-.79-.28-1.6-.52-2.42-.71-.4-.09-.8-.18-1.21-.25-.02-.01-.04-.01-.06-.01-.84-.16-1.69-.27-2.54-.35-1.52-.14-3.07-.15-4.61-.04-.31.02-.62.04-.93.07-.06,0-.13.01-.2.03-.29.02-.58.06-.88.1-.69.08-1.37.2-2.05.34-.3.06-.6.13-.89.2-.31.07-.61.14-.91.23-.65.16-1.29.36-1.92.58-.35.12-.69.25-1.03.39-.21.07-.41.16-.62.25-.34.14-.68.29-1.01.45-.43.21-.84.42-1.24.65-.41.22-.8.46-1.18.7-.51.33-1,.68-1.47,1.04-.23.18-.46.37-.68.56-.22.19-.43.39-.64.59-.23.22-.45.45-.66.68-.15.16-.3.33-.45.51-1.31,1.57-2.25,3.37-2.67,5.37-.05.21-.08.42-.11.64-.01.03-.01.07-.02.1-.03.2-.05.4-.07.6-.01.12-.02.25-.03.37-.02.44-.02.88,0,1.33.01.1.01.2.02.31.01.1.01.2.03.3.01.16.03.33.06.5.02.18.05.36.08.54.03.22.08.44.13.66.05.2.09.39.15.59.05.19.11.38.16.57.13.41.28.82.44,1.24.09.23.19.47.3.71.11.26.23.52.36.78,0,.01.01.02.02.03.1.22.22.43.33.64.13.25.27.5.41.74.58.99,1.27,2.01,2.08,3.06,0,.01.01.01.01.01.13.16.26.33.39.49.4.51.84,1.02,1.3,1.54.18.2.34.4.5.6.03.05.06.09.1.13.13.15.25.31.36.47.01.02.03.04.04.06.87,1.17,1.62,2.31,3,3.24,1.24.83,2.47,1.49,3.73,1.95.03.02.07.04.11.05,11.18,4.22,22.54-4.64,23.16-12,.16-1.9-.15-3.64-.5-5.5.12.16.23.31.34.47.23.31.44.62.63.92.37.56.7,1.1.98,1.58.09.16.19.31.27.46.12.19.22.37.32.53h0s.02.04.02.05.01.02.03.03v.03c.27.46.47.79.59.89.03.03.05.04.07.04,1.65.17,4.66-7.01-.75-14.75ZM162.58,113.74c-8.69-3.22-58.49-3.64-71-3.5-11.35.13-24.74-.74-34.25,5,5.33,1.77,3.24,2.53,7.5,3.5,4.93,1.13,85.18,1.14,89.5,0,2.03-2.36,6.52-3.09,9.5-3q.25-.37.5-.75c-.09-.26-1.45-1.14-1.75-1.25ZM152.83,121.49c-11.47-.54-83.46-1.73-87.75-.75-2.12.49-2.2,2.21-1.49,3.83h88.09c.36-.94.62-1.87.65-2.33.01-.04.65.15.5-.75ZM60.81,96.26c-.02.46-.06.93-.1,1.4v.02c-.02.25-.05.51-.08.77,0,.11-.02.23-.04.34v.02c-.01.09-.02.17-.04.26-.04.31-.08.63-.13.95s-.11.64-.16.96c-.12.74-.27,1.49-.43,2.26,11.18-11.1,4.47-29.73-10.75-32.5-8.7-1.58-16.45.43-21.55,4.85-.25.21-.49.44-.72.66-5.7,5.47-7.6,14.18-2.98,24.24.56,1.21,2.65,2.15,3.25,5.75.02-.08.04-.16.07-.24.08-.22.18-.38.29-.49.2-.2.45-.25.73-.2.03,0,.06,0,.1.02.05.01.11.03.17.05.14.05.29.11.45.2.08.03.15.08.23.12.41.24.87.55,1.34.86.14.09.29.18.43.27.08.05.15.09.23.14.29.18.58.34.88.47.02,0,.03.03.05.03h0c.13.06.26.11.38.15.13.05.26.09.39.12-.49-.65-.95-1.27-1.37-1.86-.22-.3-.43-.59-.62-.88-.23-.33-.45-.65-.65-.97-.2-.29-.38-.58-.55-.86-.23-.37-.44-.73-.63-1.08-.15-.27-.29-.55-.42-.82-.11-.22-.21-.43-.31-.65-.01-.01-.02-.03-.02-.04t0-.01c-.11-.25-.22-.51-.31-.76-.1-.26-.19-.51-.27-.77-.12-.36-.22-.71-.3-1.08-.05-.17-.09-.35-.12-.52-.1-.48-.18-.97-.23-1.48-.03-.22-.05-.45-.06-.68-.02-.18-.03-.38-.03-.57-.07-1.65.06-3.51.39-5.72,1.82-12.14,14.9-15.92,24.5-10.25.65.38.96.47,1,.5h.5c.17.14.34.28.51.43.17.14.33.28.49.43.15.13.29.26.43.39.63.6,1.2,1.2,1.72,1.81.13.15.25.3.37.45.24.3.47.6.69.91.16.23.32.46.46.69.15.23.29.47.43.7,0,0,0,.01,0,.01.16.28.32.57.46.86.02.03.03.06.05.09.11.22.22.45.32.68.15.34.29.68.42,1.02.09.25.17.49.25.74.02.05.03.1.05.15,0,.02,0,.03.02.05.07.26.14.53.22.8.11.42.2.85.28,1.28.05.26.09.53.13.79.04.35.08.71.12,1.06,0,.05,0,.09.01.13.03.34.05.68.06,1.02.01.25.02.49.02.74.01.17.01.33.01.5v.02c0,.42-.02.84-.05,1.27ZM38.08,117.24c-8.66.03-17.85,2.13-24.95,7.33h44.77c-6.09-5.83-10.24-7.36-19.82-7.33Z"/>
    <path class="cls-7" d="M218.33,115.99c-.13-.36-1.37,1-4-1.75-1.18,9.9-2.04,3.29-14-.25-.42-1.27,10.27-7.25,7.5-24.75-1.89-11.95-13.88-20.53-25.5-21-25.75,2.02-30.37,13.08-35.5,14,.19,3.81,3.64,2.18,4.5,4,1.11,2.34.12,2.76,0,3.5-.89,5.63-.66.51,2,4.5.08.12-.07.38,0,.5,1.83,3.18,2.9,7.27,4.75,10.5h-91.5c-.31-.16,1.83-3.07,2.75-6.5.63-2.32,1.58-6.9,1.5-9-.17-.03-.37.06-.5,0-.85-.37-.82-4.02.25-4.5,2.94.39,6.03-.3,7.75-3-2.57-.25-5.15-.59-7.75-.5-11.01-13.52-18.36-15.45-35.25-13.5-.16.02-.33-.02-.5,0h-.02c-.2.06-.4.12-.6.19-.22.07-.44.14-.66.23-.21.08-.42.16-.64.26-.18.07-.36.15-.54.23-2.15.99-4.37,2.49-6.43,4.26-.61.52-1.2,1.06-1.77,1.63-.19.19-.38.37-.57.57-.75.76-1.45,1.55-2.11,2.36-.33.4-.64.8-.93,1.2-1.19,1.63-2.14,3.27-2.73,4.82-2.38,6.28-1.72,16.1-4,15.75.49,5.3,2.76,10.36,6.5,14.25-4.59,1.9-8.43,4.85-12,8.25-.13.73-.23,1.25-.48,1.63-.03.06-.08.12-.12.17-.19.22-.45.39-.84.53h6.24c7.1-5.2,16.29-7.3,24.95-7.33,9.58-.03,13.73,1.5,19.82,7.33h5.69c-.71-1.62-.63-3.34,1.49-3.83,4.29-.98,76.28.21,87.75.75.15.9-.49.71-.5.75-.03.46-.29,1.39-.65,2.33h8.7c1.9-1.38,4.87-3.27,8.7-5.83,11.87-.15,29.48-2.89,38.99,5.83h8.66c.33-3,1.79-8.08,1.6-8.58ZM48.33,104.24c-.06.08-1.06.58-1.5,1.25.93.41.95.14,1,1.25-.74.34-1.44.64-2.11.89-.22.08-.44.16-.65.23-.64.23-1.26.41-1.87.55-.2.05-.39.09-.59.13h-.02c-.17.04-.33.07-.49.09-.07.01-.14.03-.21.03-.18.03-.37.05-.56.07-.07.01-.15.02-.23.02-.22.02-.44.03-.67.05-.42.02-.84.01-1.26-.01-.16,0-.33-.01-.49-.02-.42-.03-.84-.06-1.28-.12-.28-.03-.56-.07-.85-.12-.56-.1-1.15-.21-1.76-.34-.62-.13-1.27-.28-1.96-.45-.13-.03-.26-.07-.39-.12-.12-.04-.25-.09-.38-.15h0s-.03-.02-.05-.03c-.3-.13-.59-.29-.88-.47-.08-.05-.15-.09-.23-.14-.14-.09-.29-.18-.43-.27-.47-.31-.93-.62-1.34-.86-.08-.04-.15-.09-.23-.12-.16-.09-.31-.15-.45-.2-.06-.02-.12-.04-.17-.05-.04-.01-.07-.02-.1-.02-.28-.05-.53,0-.73.2-.11.11-.21.27-.29.49-.03.08-.05.16-.07.24-.6-3.6-2.69-4.54-3.25-5.75-4.62-10.06-2.72-18.77,2.98-24.24.23-.22.47-.45.72-.66,5.1-4.42,12.85-6.43,21.55-4.85,15.22,2.77,21.93,21.4,10.75,32.5.16-.77.31-1.52.43-2.26.05-.32.11-.64.16-.96s.09-.64.13-.95c.02-.09.03-.17.04-.26v-.02c.02-.11.03-.23.04-.34.03-.26.06-.52.08-.77v-.02c.04-.47.08-.94.1-1.4.02-.4.03-.8.03-1.2h0c0-.2.01-.4.01-.59,0-.25-.01-.49-.02-.74-.01-.34-.03-.68-.06-1.02-.01-.04-.01-.08-.01-.13-.04-.35-.08-.71-.12-1.06-.04-.26-.08-.53-.13-.79-.08-.43-.17-.86-.28-1.28-.08-.27-.15-.54-.22-.8-.01-.02-.02-.03-.02-.05-.02-.05-.03-.1-.05-.15-.08-.25-.16-.49-.25-.74-.13-.34-.27-.68-.42-1.02-.1-.23-.21-.46-.32-.68-.02-.03-.03-.06-.05-.09-.14-.29-.3-.58-.46-.86,0,0,0-.01,0-.01-.14-.23-.28-.47-.43-.7-.15-.23-.3-.46-.46-.69-.22-.31-.45-.61-.69-.91-.12-.15-.24-.3-.37-.45-.52-.61-1.09-1.21-1.72-1.81-.14-.13-.28-.26-.43-.39-.16-.15-.32-.29-.49-.43-.17-.15-.34-.29-.51-.43h-.5c1.52,1.17,2.77,2.84,3.7,4.72.23.46.43.93.61,1.41.15.35.28.71.39,1.08.59,1.82.88,3.72.84,5.46,0,.14,0,.28-.01.41l-.03.42c-.48,5.6-7.77,15.87-10,11.5ZM163.83,115.74c-2.98-.09-7.47.64-9.5,3-4.32,1.14-84.57,1.13-89.5,0-4.26-.97-2.17-1.73-7.5-3.5,9.51-5.74,22.9-4.87,34.25-5,12.51-.14,62.31.28,71,3.5.3.11,1.66.99,1.75,1.25q-.25.38-.5.75ZM198.08,95.74s-.04-.01-.07-.04c-.12-.1-.32-.43-.59-.89v-.04s-.02-.01-.03-.02c0-.01-.01-.03-.02-.04h0c-.1-.17-.2-.35-.32-.54-.08-.15-.18-.3-.27-.46-.28-.48-.61-1.02-.98-1.58-.2-.3-.41-.61-.63-.92-.11-.16-.22-.31-.34-.47.35,1.86.66,3.6.5,5.5-.62,7.36-11.98,16.22-23.16,12-.04-.01-.08-.03-.11-.05-1.26-.46-2.49-1.12-3.73-1.95-1.38-.93-2.13-2.07-3-3.24-.01-.02-.03-.04-.04-.06-.11-.16-.23-.32-.36-.47-.04-.04-.07-.08-.1-.13-.16-.2-.32-.4-.5-.6-.46-.52-.9-1.03-1.3-1.54-.13-.16-.26-.33-.39-.49,0,0-.01,0-.01-.01-.81-1.05-1.5-2.07-2.08-3.06-.14-.24-.28-.49-.41-.74-.11-.21-.23-.42-.33-.64,0,0-.02-.02-.02-.03-.13-.26-.25-.52-.36-.78-.11-.24-.21-.48-.3-.71-.16-.42-.31-.83-.44-1.24-.05-.19-.11-.38-.16-.57-.06-.2-.1-.39-.15-.59-.05-.22-.1-.44-.13-.66-.03-.18-.06-.36-.08-.54-.03-.17-.05-.34-.06-.5-.02-.1-.02-.2-.03-.3-.01-.11-.01-.21-.02-.31-.02-.45-.02-.89,0-1.33.01-.12.02-.25.03-.37.02-.2.04-.4.07-.6.01-.03.01-.07.02-.1.03-.22.06-.43.11-.64.42-2,1.36-3.8,2.67-5.37.15-.18.3-.35.45-.51.21-.23.43-.46.66-.68.2-.2.42-.4.64-.59.22-.19.45-.38.68-.56.47-.37.96-.71,1.47-1.04.38-.24.77-.48,1.18-.7.4-.23.81-.44,1.24-.65.33-.16.67-.31,1.01-.45.21-.09.41-.18.62-.25.34-.14.68-.27,1.03-.39.63-.22,1.27-.42,1.92-.58.3-.09.6-.17.91-.23.3-.08.59-.15.89-.2.68-.14,1.36-.26,2.05-.34.29-.05.59-.09.88-.1.07-.02.14-.03.2-.03.31-.04.62-.06.93-.07,1.54-.11,3.09-.1,4.61.04.86.07,1.71.19,2.54.35.02,0,.04,0,.06.01.41.07.81.16,1.21.25.82.19,1.63.43,2.42.71.79.27,1.56.59,2.29.96.37.18.74.37,1.09.58.36.2.71.41,1.04.64.34.22.67.45.99.7,1.28.99,2.42,2.15,3.36,3.5,5.41,7.74,2.4,14.92.75,14.75Z"/>
    <path class="cls-9" d="M163.83,115.74c-2.98-.09-7.47.64-9.5,3h-89.5c-4.26-.97-2.17-1.73-7.5-3.5,4.48-1.35,9.09-2.94,13.75-3.5,4.39-.52,69.63.03,76.5.5,4.24.3,12.7,1.52,16.25,3.5Z"/>
    <path class="cls-14" d="M152.33,122.24c-.03.46-.29,1.39-.65,2.33h-87.11c-.52-1.33-.77-2.62.01-2.83q43.88.25,87.75.5Z"/>
    <path class="cls-5" d="M164.33,114.99q-.25.38-.5.75c-3.55-1.98-12.01-3.2-16.25-3.5-6.87-.47-72.11-1.02-76.5-.5-4.66.56-9.27,2.15-13.75,3.5,9.51-5.74,22.89-4.87,34.25-5,12.51-.14,62.31.28,71,3.5.3.11,1.66.99,1.75,1.25Z"/>
    <path class="cls-14" d="M152.33,122.24q-43.87-.25-87.75-.5c-.78.21-.53,1.5-.01,2.83h-.98c-.71-1.62-.63-3.34,1.49-3.83,4.29-.98,76.28.21,87.75.75.15.9-.49.71-.5.75Z"/>
    <path class="cls-6" d="M154.33,118.74c-4.32,1.14-84.57,1.13-89.5,0h89.5Z"/>
    <path class="cls-14" d="M57.9,124.57H13.13c7.1-5.2,16.29-7.3,24.95-7.33,9.58-.03,13.73,1.5,19.82,7.33Z"/>
    <g>
      <path class="cls-11" d="M58.33,92.74c-.48,5.6-7.77,15.87-10,11.5-.06.08-1.06.58-1.5,1.25.93.41.95.14,1,1.25-5.79,2.67-8.9,2.49-15,1-4.92-6.56-6.83-9.87-5.5-18.75,1.82-12.14,14.89-15.92,24.5-10.25.65.38.96.47,1,.5,3.77,2.91,5.9,8.89,5.5,13.5Z"/>
      <path class="cls-3" d="M53.33,79.24h-.5s-.35-.12-1-.5c.03-.93.82-.05,1.5.5Z"/>
    </g>
    <path class="cls-13" d="M29.33,42.74c-.87,5.3-1.32,10.68-2,16-3.66.72-4.75.01-5,0,1.95-13.7-24.57,4.73-8-16.5,3.79-.89,8.21-.78,12,0,.38.08,1.04.79,3,.5Z"/>
    <path class="cls-8" d="M22.33,58.74c-3.5-.06-9.75.15-15.2.1h0c-5.28,0-6.78.09-7.11-1.02-.23-.73,1.46-2.08,1.65-2.24.58-.48.87-.81,1.2-1.06h.01c.31-.49.62-1.01.94-1.56h0c.08-.15.16-.29.24-.43.16-.28.33-.58.49-.87,2.12-3.78,4.68-8.2,9.78-9.42-16.57,21.23,9.95,2.8,8,16.5Z"/>
    <path class="cls-13" d="M193.49,43.2c.87,5.3,1.83,10.7,2.51,16.02,3.66.72,4.99.05,5.24.04-1.95-13.7,24.57,4.73,8-16.5-3.79-.89-8.21-.78-12,0-.38.08-1.79.74-3.75.45Z"/>
    <path class="cls-8" d="M201.24,59.26c3.5-.06,9.75.15,15.2.1h0c5.28,0,6.78.09,7.11-1.02.23-.73-1.46-2.08-1.65-2.24-.58-.48-.87-.81-1.2-1.06h-.01c-.31-.49-.62-1.01-.94-1.56h0c-.08-.15-.16-.29-.24-.43-.16-.28-.33-.58-.49-.87-2.12-3.78-4.68-8.2-9.78-9.42,16.57,21.23-9.95,2.8-8,16.5Z"/>
    <path class="cls-19" d="M175.33,12.24c-5.83.14-11.66-.33-17.5-.5-16.14-.46-32.35-.67-48.5-.5-9.99.11-20.01.51-30,1-13.14.65-30.91-1.87-39,11,2.63-7.77,3.39-11.28,16.75-14,16.95-3.44,105.07-3.49,118.25,3Z"/>
    <path class="cls-8" d="M80.33,52.24c-3.72,4.29-16.58,1.9-19.75,3-.38.14-.25.66-.25,1-7.41.28-15.13.68-22.5,1.5,1.52-3.17-1.99-2.51-3.5-4,7.28.44,14.31-1.59,21.5-2,10.66-.6,15.96.54,24.5.5Z"/>
    <path class="cls-9" d="M188.58,53.24c-.74.03-1.5-.04-2.25,0-1.75-12.86-3.75-34.22-18.25-39-3.08-1.01-9.9-.69-10.25-2.5,5.84.17,11.67.64,17.5.5,4.95,2.44,6.94,11.16,8.5,16.25.93,3.01,6.23,23.99,4.75,24.75Z"/>
    <circle class="cls-2" cx="43.32" cy="93.64" r="17.84"/>
    <circle class="cls-2" cx="179.59" cy="94.12" r="17.84"/>
    <path class="cls-17" d="M192.52,93.73c-.09,2.16-.83,4.15-2,5.85-2.32,3.37-6.36,5.61-10.54,5.72-.12.01-.23.01-.35.01-3.49,0-6.93-1.49-9.39-3.9-2.22-2.19-3.65-5.13-3.6-8.43.03-2.32.79-4.44,2.02-6.24,1.82-2.64,4.68-4.57,7.77-5.34.8-.21,1.62-.33,2.44-.37,4.09-.2,8.15,1.7,10.76,4.75,1.89,2.18,3.02,4.95,2.89,7.95Z"/>
    <path class="cls-17" d="M56.26,92.21c-.09,2.16-.83,4.15-2,5.85-2.32,3.37-6.36,5.61-10.54,5.72-.12.01-.23.01-.35.01-3.49,0-6.93-1.49-9.39-3.9-2.22-2.19-3.65-5.13-3.6-8.43.03-2.32.79-4.44,2.02-6.24,1.82-2.64,4.68-4.57,7.77-5.34.8-.21,1.62-.33,2.44-.37,4.09-.2,8.15,1.7,10.76,4.75,1.89,2.18,3.02,4.95,2.89,7.95Z"/>
    <path class="cls-15" d="M60.03,92.6c-.38,6.75-5.6,12.28-11.93,14.14s-13.29-.29-17.66-5.2c-4.71-5.29-5.07-13.11-.67-18.72,4.03-5.14,10.96-7.72,17.33-6.13,7.23,1.8,13.17,8.25,12.94,15.91-.04,1.45,2.21,1.45,2.25,0,.23-7.7-5.03-14.4-12-17.23s-15.41-1.06-20.82,4.4-6.76,14.27-2.45,20.97c4.07,6.33,11.82,9.83,19.25,8.71,8.38-1.27,15.53-8.24,16.01-16.85.08-1.45-2.17-1.44-2.25,0Z"/>
    <path class="cls-15" d="M196.29,93.94c-.38,6.75-5.6,12.28-11.93,14.14s-13.29-.29-17.66-5.2c-4.71-5.29-5.07-13.11-.67-18.72,4.03-5.14,10.96-7.72,17.33-6.13,7.23,1.8,13.17,8.25,12.94,15.91-.04,1.45,2.21,1.45,2.25,0,.23-7.7-5.03-14.4-12-17.23s-15.41-1.06-20.82,4.4-6.76,14.27-2.45,20.97c4.07,6.33,11.82,9.83,19.25,8.71,8.38-1.27,15.53-8.24,16.01-16.85.08-1.45-2.17-1.44-2.25,0Z"/>
    <path class="cls-8" d="M6.89,124.57c-.16.06-.35.12-.56.17-.01-.05-.03-.11-.04-.16h0s.6-.01.6-.01Z"/>
    <path class="cls-16" d="M47.88,82.65c-1.6-.33-3.48.23-3.53.85-.06.72,2.45.73,4.8,2.96,1.61,1.53,1.93,2.95,2.33,2.82.53-.17.61-2.83-.78-4.73-.26-.36-1.17-1.56-2.82-1.91Z"/>
    <path class="cls-16" d="M183.83,84.42c-1.6-.33-3.48.23-3.53.85-.06.72,2.45.73,4.8,2.96,1.61,1.53,1.93,2.95,2.33,2.82.53-.17.61-2.83-.78-4.73-.26-.36-1.17-1.56-2.82-1.91Z"/>
    <path class="cls-16" d="M177.14,29.06c1.02-.64.08-5.19-2.68-8.33-1.67-1.9-4.02-3.29-9.32-4.52-6.98-1.62-12.61-1.46-14.68-1.41-14.67.35-24.27-.59-24.28-.28-.01.33,11.11.75,27.11,3.39,7.4,1.22,11.49,2.2,15.81,5.08,4.62,3.09,7.03,6.71,8.05,6.07Z"/>
  </g>
</svg>