<?xml version="1.0" encoding="UTF-8"?>
<svg id="Calque_2" data-name="Calque 2" xmlns="http://www.w3.org/2000/svg" viewBox="0 0 36.23 36.23">
  <defs>
    <style>
      .cls-1, .cls-2, .cls-3 {
        stroke-width: 0px;
      }

      .cls-4 {
        opacity: 0;
        stroke: red;
        stroke-miterlimit: 10;
      }

      .cls-4, .cls-3 {
        fill: #fff;
      }

      .cls-2 {
        fill: #ccc;
      }
    </style>
  </defs>
  <g id="Calque_1-2" data-name="Calque 1">
    <rect class="cls-4" x=".5" y=".5" width="35.23" height="35.23" rx="3.31" ry="3.31"/>
    <g>
      <path class="cls-1" d="M16.04,9.95c1.66,0,3.33,0,4.99,0,.82,0,1.48.27,2.03.89.95,1.07,1.94,2.11,2.89,3.18.26.29.56.44.94.49,1.85.27,3.7.55,5.55.84,1.42.22,2.08.99,2.08,2.42,0,1.03,0,2.07,0,3.1,0,1.41-.89,2.32-2.31,2.29-.6-.01-.91.09-1.17.74-.99,2.4-3.8,3.13-5.85,1.61-.68-.5-1.16-1.17-1.39-2-.07-.25-.17-.35-.45-.35-3.43.01-6.85.01-10.28,0-.3,0-.38.12-.46.37-.86,2.64-3.95,3.61-6.07,1.92-.66-.52-1.11-1.18-1.34-1.99-.06-.23-.17-.32-.4-.3-.3.02-.61.01-.91,0-1.25-.04-2.14-.9-2.16-2.14-.03-1.17-.02-2.33,0-3.5.02-.93.58-1.66,1.51-1.98,1.03-.36,2.07-.7,3.11-1.04.29-.09.5-.25.67-.51.64-.99,1.3-1.96,1.94-2.95.48-.74,1.14-1.09,2.02-1.09,1.69,0,3.38,0,5.07,0ZM16.06,11.4c-1.68,0-3.35,0-5.03,0-.41,0-.69.15-.91.49-.62.96-1.26,1.91-1.87,2.87-.36.56-.82.93-1.46,1.13-1.02.31-2.03.67-3.04,1.01-.34.11-.56.32-.56.68-.01,1.14-.02,2.28,0,3.43,0,.43.26.67.69.7.3.02.61,0,.91.01.26.02.35-.08.42-.33.45-1.68,1.94-2.82,3.67-2.85,1.74-.02,3.26,1.1,3.75,2.79.09.31.23.38.52.38,3.38,0,6.75,0,10.13,0,.3,0,.43-.08.52-.39.47-1.61,1.89-2.71,3.54-2.78,1.65-.07,3.15.91,3.77,2.46q.28.71,1.05.7c.67,0,.9-.24.9-.9,0-1.02,0-2.04,0-3.06,0-.67-.17-.86-.83-.96-1.84-.28-3.67-.57-5.51-.83-.77-.11-1.39-.43-1.9-1.02-.92-1.05-1.88-2.07-2.81-3.11-.26-.3-.56-.42-.96-.42-1.66.01-3.33,0-4.99,0ZM29.91,22.42c0-1.33-1.07-2.42-2.4-2.43-1.32,0-2.42,1.08-2.42,2.41,0,1.3,1.11,2.42,2.43,2.41,1.32,0,2.39-1.08,2.39-2.39ZM8.93,24.81c1.32,0,2.42-1.11,2.41-2.42-.02-1.32-1.12-2.41-2.43-2.39-1.32.02-2.37,1.08-2.38,2.4,0,1.31,1.1,2.42,2.41,2.41Z"/>
      <path class="cls-3" d="M16.06,11.4c1.66,0,3.33,0,4.99,0,.4,0,.69.12.96.42.93,1.04,1.89,2.06,2.81,3.11.52.59,1.13.91,1.9,1.02,1.84.26,3.68.55,5.51.83.67.1.83.29.83.96,0,1.02,0,2.04,0,3.06,0,.66-.24.9-.9.9q-.77,0-1.05-.7c-.62-1.56-2.12-2.54-3.77-2.46-1.65.07-3.07,1.17-3.54,2.78-.09.31-.22.39-.52.39-3.38,0-6.75,0-10.13,0-.3,0-.43-.07-.52-.38-.49-1.7-2.01-2.81-3.75-2.79-1.73.02-3.22,1.17-3.67,2.85-.07.25-.16.34-.42.33-.3-.02-.61,0-.91-.01-.43-.03-.68-.27-.69-.7-.02-1.14-.01-2.28,0-3.43,0-.36.22-.57.56-.68,1.02-.33,2.02-.69,3.04-1.01.64-.2,1.1-.57,1.46-1.13.61-.96,1.26-1.91,1.87-2.87.22-.34.5-.49.91-.49,1.68.01,3.35,0,5.03,0Z"/>
      <path class="cls-2" d="M29.91,22.42c0,1.31-1.08,2.38-2.39,2.39-1.31,0-2.43-1.1-2.43-2.41,0-1.32,1.1-2.41,2.42-2.41,1.33,0,2.4,1.09,2.4,2.43Z"/>
      <path class="cls-2" d="M8.93,24.81c-1.32,0-2.42-1.1-2.41-2.41,0-1.32,1.07-2.38,2.38-2.4,1.31-.02,2.42,1.07,2.43,2.39.02,1.31-1.08,2.42-2.41,2.42Z"/>
    </g>
  </g>
</svg>