<?xml version="1.0" encoding="UTF-8"?>
<svg id="Calque_2" data-name="Calque 2" xmlns="http://www.w3.org/2000/svg" viewBox="0 0 45.57 43.54">
  <defs>
    <style>
      .cls-1 {
        fill: #ccc;
        stroke-width: 0px;
      }
    </style>
  </defs>
  <g id="Calque_1-2" data-name="Calque 1">
    <path class="cls-1" d="M4.65,12.11v19.31c0,4.13,3.35,7.47,7.47,7.47h7.32c1.28,0,2.32,1.04,2.32,2.32h0c0,1.28-1.04,2.32-2.32,2.32H7.47c-4.13,0-7.47-3.35-7.47-7.47V9.4C0,4.21,4.21,0,9.4,0h10.05c1.28,0,2.32,1.04,2.32,2.32h0c0,1.29-1.04,2.33-2.32,2.33h-7.33c-4.12,0-7.47,3.34-7.47,7.47Z"/>
    <path class="cls-1" d="M45.57,21.45l-1.9,1.84-13.54,13.54-.1.1-.59.59c-.14.07-.3.11-.48.11-.58,0-1.06-.42-1.16-.98v-6.42h-11.22c-1.29,0-2.33-1.05-2.33-2.33v-11.2c0-1.29,1.05-2.34,2.33-2.34h11.22v-7.96c0-.61.5-1.11,1.11-1.11.29,0,.56.11.76.3.01,0,.02.02.03.03.01.01.02.02.03.03,0,0,.01,0,.01.01l13.94,13.93,1.9,1.87Z"/>
  </g>
</svg>