<?xml version="1.0" encoding="UTF-8"?>
<svg id="Calque_2" data-name="Calque 2" xmlns="http://www.w3.org/2000/svg" viewBox="0 0 45.3 45.3">
  <defs>
    <style>
      .cls-1 {
        fill: #fff;
      }

      .cls-1, .cls-2 {
        stroke-width: 0px;
      }

      .cls-2 {
        fill: red;
      }
    </style>
  </defs>
  <g id="Calque_1-2" data-name="Calque 1">
    <g>
      <rect class="cls-2" x="5.66" y="5.66" width="33.97" height="33.97" rx="3.31" ry="3.31" transform="translate(-9.38 22.65) rotate(-45)"/>
      <path class="cls-1" d="M22.65,35.62c-1.42,0-2.37-.28-2.83-.83s-.7-1.47-.7-2.74c0-.54.05-1.08.17-1.62.11-.54.41-.99.9-1.34.49-.35,1.32-.53,2.5-.53,1.45,0,2.39.27,2.83.81.44.54.66,1.46.66,2.76,0,.54-.05,1.08-.15,1.62s-.39.99-.88,1.34c-.49.35-1.32.53-2.5.53ZM22.65,26.57c-1.1,0-1.89-.15-2.36-.44-.47-.29-.75-.67-.85-1.12-.1-.45-.15-.93-.15-1.42v-10.86c0-.49.05-.97.15-1.44.1-.47.38-.85.85-1.16.47-.31,1.26-.46,2.39-.46s1.92.15,2.37.46c.45.31.73.7.83,1.18.1.48.15.96.15,1.45v10.86c0,.49-.05.96-.15,1.42-.1.45-.38.82-.85,1.1-.47.28-1.26.42-2.39.42Z"/>
    </g>
  </g>
</svg>