<?xml version="1.0" encoding="UTF-8"?>
<svg id="Calque_2" data-name="Calque 2" xmlns="http://www.w3.org/2000/svg" viewBox="0 0 34.67 34.67">
  <defs>
    <style>
      .cls-1 {
        fill: #ccc;
        stroke: #fff;
        stroke-miterlimit: 10;
      }

      .cls-2 {
        fill: #f7ead7;
      }

      .cls-2, .cls-3, .cls-4, .cls-5, .cls-6, .cls-7, .cls-8, .cls-9, .cls-10, .cls-11, .cls-12, .cls-13, .cls-14, .cls-15, .cls-16, .cls-17, .cls-18, .cls-19, .cls-20, .cls-21, .cls-22, .cls-23, .cls-24, .cls-25, .cls-26, .cls-27, .cls-28, .cls-29, .cls-30, .cls-31, .cls-32, .cls-33, .cls-34, .cls-35, .cls-36, .cls-37, .cls-38, .cls-39, .cls-40, .cls-41, .cls-42, .cls-43, .cls-44, .cls-45, .cls-46, .cls-47, .cls-48, .cls-49, .cls-50, .cls-51, .cls-52, .cls-53, .cls-54, .cls-55, .cls-56, .cls-57, .cls-58, .cls-59, .cls-60, .cls-61, .cls-62, .cls-63, .cls-64, .cls-65, .cls-66, .cls-67, .cls-68, .cls-69, .cls-70, .cls-71 {
        stroke-width: 0px;
      }

      .cls-3 {
        fill: #f8c7bd;
      }

      .cls-4 {
        fill: #f8f8f9;
      }

      .cls-5 {
        fill: #48b0ac;
      }

      .cls-6 {
        fill: #727479;
      }

      .cls-7 {
        fill: #7b8187;
      }

      .cls-8 {
        fill: #54e998;
      }

      .cls-9 {
        fill: #570714;
      }

      .cls-10 {
        fill: #595e61;
      }

      .cls-11 {
        fill: #5884ab;
      }

      .cls-12 {
        fill: #710203;
      }

      .cls-13 {
        fill: #87c541;
      }

      .cls-14 {
        fill: #9aabb3;
      }

      .cls-15 {
        fill: #6e471e;
      }

      .cls-16 {
        fill: #6f024d;
      }

      .cls-17 {
        fill: #3b2616;
      }

      .cls-18 {
        fill: #3b152a;
      }

      .cls-19 {
        fill: #350505;
      }

      .cls-20 {
        fill: #35363d;
      }

      .cls-21 {
        fill: #2f241d;
      }

      .cls-22 {
        fill: #5a5e0f;
      }

      .cls-23 {
        fill: #3c454b;
      }

      .cls-24 {
        fill: #0a1410;
      }

      .cls-25 {
        fill: #1b0a14;
      }

      .cls-26 {
        fill: #3e191c;
      }

      .cls-27 {
        fill: #444243;
      }

      .cls-28 {
        fill: #1c1e22;
      }

      .cls-29 {
        fill: #40534b;
      }

      .cls-30 {
        fill: #129f63;
      }

      .cls-31 {
        fill: #16ca7e;
      }

      .cls-32 {
        fill: #c4e554;
      }

      .cls-33 {
        fill: #d1e69b;
      }

      .cls-34 {
        fill: #d51010;
      }

      .cls-35 {
        fill: #d52341;
      }

      .cls-36 {
        fill: #c5a62a;
      }

      .cls-37 {
        fill: #c9cbc3;
      }

      .cls-38 {
        fill: #c9d52f;
      }

      .cls-39 {
        fill: #c4e3e7;
      }

      .cls-40 {
        fill: #d53a89;
      }

      .cls-41 {
        fill: #e1d8b8;
      }

      .cls-42 {
        fill: #deecee;
      }

      .cls-43 {
        fill: #d4cccb;
      }

      .cls-44 {
        fill: #bec1c6;
      }

      .cls-45 {
        fill: #b2136d;
      }

      .cls-46 {
        fill: #d8dbdd;
      }

      .cls-47 {
        fill: #a9cf6c;
      }

      .cls-48 {
        fill: #cf275b;
      }

      .cls-49 {
        fill: #a8cbcb;
      }

      .cls-50 {
        fill: #b9428f;
      }

      .cls-51 {
        fill: #b7b7b0;
      }

      .cls-52 {
        fill: #9da1a5;
      }

      .cls-53 {
        fill: #a00607;
      }

      .cls-54 {
        fill: #9ca49f;
      }

      .cls-55 {
        fill: #8c9294;
      }

      .cls-56 {
        fill: #8e1973;
      }

      .cls-57 {
        fill: #8fcec1;
      }

      .cls-58 {
        fill: #666c6a;
      }

      .cls-59 {
        fill: #97b8bd;
      }

      .cls-60 {
        fill: #929e8b;
      }

      .cls-61 {
        fill: #857f7d;
      }

      .cls-62 {
        fill: #fde51d;
      }

      .cls-63 {
        fill: #7f4037;
      }

      .cls-64 {
        fill: #eedb92;
      }

      .cls-65 {
        fill: #e8e5de;
      }

      .cls-66 {
        fill: #e7c11e;
      }

      .cls-67 {
        fill: #e71a2a;
      }

      .cls-68 {
        fill: #f0ba46;
      }

      .cls-69 {
        fill: #fe880a;
      }

      .cls-70 {
        fill: #031d17;
      }

      .cls-71 {
        fill: #060605;
      }
    </style>
  </defs>
  <g id="Calque_1-2" data-name="Calque 1">
    <circle class="cls-1" cx="17.34" cy="17.34" r="16.84"/>
    <g>
      <path class="cls-28" d="M23.3,10.35v.05c-.4-.08-1.21-.19-1.67-.22-1.6-.15-3.22-.1-4.82-.1-1.2.02-2.38-.02-3.56.1v-.1c2.09-.19,6.93-.22,8.97.07.35.05.71.17,1.08.2Z"/>
      <path class="cls-6" d="M16.8,10.09c0,.18-.53.04-.87.1,0,.06.71-.06.9.07-.07-.01-.06.03-.06.03-.89-.04-1.8-.02-2.69.03-.82.05-2.68.31-2.83.29-.26-.03.01-.11.41-.2.49-.12,1.09-.19,1.59-.23,1.18-.11,2.37-.08,3.55-.09Z"/>
      <path class="cls-7" d="M21.64,10.17c-.06.17.06.15-.12.2-1.56-.1-3.12-.08-4.69-.12-.19-.13-.9-.01-.9-.07.35-.06.88.07.87-.1,1.61-.02,3.23-.06,4.84.09Z"/>
      <path class="cls-14" d="M29.41,14.04c-.3-.02-1.64.03-1.72,0-.29-.1.22-.35.13-.4.17-.03,1.42,0,1.6.03.07.12.08.29-.02.37Z"/>
      <path class="cls-55" d="M23.3,10.41c.38.09.33.15-.04.15-.16,0-1.2-.14-1.73-.17.17-.06.06-.03.12-.2.44.04,1.26.14,1.66.23Z"/>
      <path class="cls-52" d="M23.66,23.55s-.02-.02.02-.03c.12,0,.07.15-.02.03Z"/>
      <g>
        <path class="cls-71" d="M7.42,15.02c-.17.3-.19.2-.44.22-.08.02-.17,0-.25,0-.34.02-1.69.05-1.89-.08-.24-.15-.25-1.2.03-1.4.2-.13,1.6-.17,1.87-.12.57.12.22,1.21.32,1.37.03.03.32-.02.35.02Z"/>
        <path class="cls-44" d="M5.08,13.76c.68.07,2.12-.2,1.78.29-.69-.07-2.16.2-1.78-.29Z"/>
        <g>
          <path class="cls-4" d="M6.68,14.31c.14-.03.04.19.07.33,0,.03.08,0,.09.03.04.17.02.35-.17.26.07-.09-.11-.6.01-.63Z"/>
          <path class="cls-71" d="M6.77,14.78s.02.13,0,.15c-.08.04-.04-.17,0-.15Z"/>
        </g>
      </g>
      <g>
        <path class="cls-71" d="M27.55,15.24c-.17.02-.3-.02-.29.05.1.17,1.01,1.21,1.1,1.23.39.12.66-.32.83.83.12.91.12,2.98.05,3.94-.02.49.02,1.13-.29,1.5-.24.2-.44.24-.52.25h-.13v.89c-.07.54-.27.54-1.55.62-.08-.08-.47-.17-.74-.25-.05-.02-.05-.08-.05-.08v-.93s-.59-.02-.67-.02c0,0-.05-.05-.15-.03-.08.1-.2.17-.3.22q-.46-.03-.91-.07c-4.38.02-8.75,0-13.13,0-.37,0-.83-.05-.86.08-.54-.03-.78-.22-.83-.24-.07,0-.07.02-.07.03-.07,0-.47,0-.49.02-.02.24.02.64-.03.83-.07.25-.29.3-.37.47-.27-.02-1.48-.1-1.58-.12-.27-.05-.39-.2-.44-.39v-.96h-.2s-.13-.1-.17-.13c-.13-.13-.32-.27-.39-.46-.12-.37-.24-3.94-.2-4.52.02-.22.07-.62.12-.84.19-.71.4-.66,1.08-.69.25-.4.62-.71.91-1.08.17-.24.34-.57.49-.78.57-.78,2.6-3.76,3.17-4.08.39-.2,1.48-.39,1.94-.44.12-.02.27-.02.4-.03v.1c-.51.03-1.11.12-1.58.22-.4.1-.67.19-.42.22.15,0,2.01-.25,2.83-.3.89-.05,1.8-.07,2.7-.02-.24.27.54.39.61.15s-.32-.15-.61-.15c0-.02-.02-.05.05-.03,1.57.03,3.14.02,4.69.12.54.03,1.58.17,1.74.17.37,0,.44-.05.05-.15v-.05s.05.02.08.03c.05.02.13,0,.3.12.71.44,2.41,3.1,3.02,3.96.07.08.49.76.54.76.02,0,.24-.2.25-.22.1-.3-.25-1.26.32-1.37.08.05-.42.3-.13.4.08.03,1.42-.02,1.72,0,.1-.08.08-.25.02-.37.67.15.44,1.37.3,1.48-.19.15-1.57.08-1.9.08h-.27Z"/>
        <g>
          <path class="cls-4" d="M28.95,19.7c-1.85.1-3.72-.05-5.56.06-.68-.14-10.48.04-12.23-.03-.08.03-.16.07-.23.09.27-.1-.4-.11-.54-.12-1.63-.06-3.28.12-4.91,0,0-.17,0-.35,0-.52.03,0,.11.04.12.06.01.02-.06.04.01.09,4.57.03,9.15-.03,13.72-.03,2.6,0,5.21.11,7.81.06.22,0,1.59,0,1.66-.03.04-.02.06-.11.04-.13-.06-.07-1.71,0-1.91-.04-.09-.02-.08-.08-.1-.12.06-.04.05,0,.12,0,.21,0,1.71.03,1.78-.03.06-.21.02-.43.03-.64,0,0,0-.02,0-.03,0-.42-.05-1.37.09-1.12.06.11.11,2.18.12,2.49Z"/>
          <path class="cls-28" d="M20.43,18.97c.52,0,1.05,0,1.57,0,.01,0,.09.1.12.12,1.53-.09,3.07.02,4.6-.06l.06.12c-1.99.05-3.98-.02-5.97,0-.11,0-.14.09-.15.09-2.46.02-4.91.06-7.37,0,0,0-.05-.08-.12-.09-.28,0-2.53.11-2.58-.01,0-.02.05-.13.07-.13,2.81.05,5.61.03,8.42.03.44,0,.9-.06,1.34-.06Z"/>
          <path class="cls-26" d="M19.46,18.39c.03.09-.22.05-.23.1.17.09.04.15.06.17.04.05.37-.03.47.04-2.55.01-5.11.05-7.66.03-.08-.18.03-.17-.01-.32h-1.44s0-.02,0-.03c2.94.02,5.88-.03,8.83,0Z"/>
          <path class="cls-4" d="M26.18,14.66c-.92-1.33-1.83-2.65-2.77-3.96.06,0,.07-.04.1-.03.29.08,3.17,4.35,3.6,4.94.48.67.99,1.05.2.76-.35-.59-.75-1.14-1.14-1.7Z"/>
          <path class="cls-20" d="M23.42,10.7c.94,1.31,1.85,2.64,2.77,3.96-.16-.12-.47-.38-.58-.51-.43-.49-1.86-2.66-2.45-3.38.01-.05.21-.07.26-.07Z"/>
          <path class="cls-21" d="M21.73,18.39c.02.11.24.28.13.32-.7,0-1.41,0-2.11,0-.1-.07-.43,0-.47-.04-.02-.03.11-.09-.06-.17.01-.05.27-.01.23-.1.76,0,1.51,0,2.27,0Z"/>
          <path class="cls-6" d="M10.95,11.57c-.58.78-2.04,3.17-2.18,3.31-.13.13-.27.19-.2-.03.1-.34,1.91-2.69,2.24-3.28h.15Z"/>
          <path class="cls-71" d="M26.24,18.56s.02.04.12.07c-.06.02-.12.07-.13.07-.19.05-3.42,0-3.96.03-.01-.03-.07-.11-.07-.12.07,0,.14,0,.2,0,.51-.01,3.66-.09,3.85-.06Z"/>
          <path class="cls-21" d="M12.09,18.74c-.48,0-.96,0-1.44,0-.11-.09-.01-.3-.01-.32h1.44c.05.15-.07.14.01.32Z"/>
          <g>
            <path class="cls-4" d="M11.27,10.79c-.58.72-1.13,1.47-1.6,2.27-.79,1.1-1.55,2.22-2.36,3.31-.14.19-.27.12-.48.13,1.1-1.65,2.32-3.24,3.45-4.88.14-.17.73-.86.89-.89.09-.02.1.06.1.06Z"/>
            <path class="cls-10" d="M10.95,11.57h-.15c.03-.06.11-.14.03-.13-.36.56-.78,1.08-1.17,1.62.47-.8,1.02-1.55,1.6-2.27.07,0,.19-.01.28,0,.09.05-.5.66-.6.79Z"/>
          </g>
          <path class="cls-44" d="M5.59,19.23s-.09-.07-.12-.06c0-.12.09-2.06.22-1.98,0,.31.05,1.82.01,1.94,0,.02-.13,0-.12.1Z"/>
          <g>
            <path class="cls-25" d="M6.3,17.2l1.06.04v1.44c-.7-.02-.84.11-1.02-.36-.02-.04-.08-.04-.09-.06l.04-1.06Z"/>
            <path class="cls-14" d="M7.69,19.15c.06-.22,0-.19,0-.2,0-.04,0-.08,0-.12-.01-.61,0-1.21,0-1.82-.4-.02-.79-.01-1.19-.04-.43-.03-.91,0-.68-.17.07-.06,1.63.12,1.89.03.02,0,0-.07.04-.12.03,0,.07-.01.09.01v2.39s-.09.03-.15.04Z"/>
            <path class="cls-34" d="M5.81,17.2l.42.04c-.02.23.03.96,0,1.05-.07.21-.2-.22-.42.16v-1.25Z"/>
            <path class="cls-53" d="M7.69,18.83s0,.08,0,.12c0,.03.01.08-.01.09-.1.04-1.58-.05-1.91.03-.04-.09-.06-.22.04-.26.09-.03,1.59.08,1.88.03Z"/>
            <path class="cls-4" d="M7.75,16.7s-.02.11-.04.12c-.26.09-1.82-.09-1.89-.03-.23.18.25.14.68.17-.15-.02-.7.02-.74,0-.03-.02-.07-.24-.03-.26.08-.06,1.93-.02,2.02,0Z"/>
            <path class="cls-42" d="M7.69,19.15c-.09.02-1.79.03-1.88,0-.05-.02-.04-.08-.04-.09.33-.08,1.81.01,1.91-.03.03-.01.01-.06.01-.09,0,.01.06-.02,0,.2Z"/>
          </g>
          <path class="cls-67" d="M16.78,10.29c.29.01.67-.08.61.16-.06.24-.85.12-.61-.16Z"/>
          <g>
            <path class="cls-37" d="M18.96,15.19c.16.34.2-.51.17-.54-.02-.03-.24-.02-.29.01,0-.03-.06-.06-.01-.12.78.04,1.33-.26,1.19.79h-1.05s0-.11-.01-.15Z"/>
            <path class="cls-65" d="M18.96,15.19c-.03-.12-.11-.42-.12-.52.05-.04.27-.04.29-.01.02.03-.01.88-.17.54Z"/>
          </g>
          <path class="cls-11" d="M20.77,16c-.1,0-.19,0-.29,0-.14-.44.4-.42.29,0Z"/>
          <path class="cls-27" d="M15.23,15.51c.04.51-.1.37-.17.41-.09-.18.07-.39-.15-.35,0-.02,0-.04,0-.06.1-.01.24.02.32,0Z"/>
          <path class="cls-44" d="M15.23,15.51c-.09.02-.22-.01-.32,0,0-.04-.02-.12.01-.15.1-.07.73.07.31.15Z"/>
          <g>
            <g>
              <path class="cls-54" d="M14.21,14.78c.05.22.09.4.06.64-.66.06-1.33-.03-2,0,.03-.23.06-.47.1-.7.56.13,1.24.02,1.84.06Z"/>
              <path class="cls-4" d="M14.27,15.42c.03-.24-.01-.42-.06-.64-.03-.15-.06-.27-.13-.41l-1.62-.06c.18-.65.24-.43,1.59-.41.28.12.44,1.2.45,1.5-.1.1-.22.01-.23.01Z"/>
              <path class="cls-44" d="M14.21,14.78c-.6-.04-1.28.07-1.84-.06.02-.11.06-.31.09-.41l1.62.06c.07.14.1.26.13.41Z"/>
            </g>
            <path class="cls-65" d="M14.59,16.06s-.19-.03-.45-.03c-.02,0-.01-.06-.01-.06-.13-.24.4-.19.42-.17.04.03-.02.18.04.26Z"/>
            <path class="cls-49" d="M12.46,16c-.1,0-.2-.03-.29-.03.02-.31.36-.29.29.03Z"/>
          </g>
          <path class="cls-10" d="M8.2,19l.51.13c-.63.02-.94.07-.51-.13Z"/>
          <g>
            <path class="cls-34" d="M28.75,18.33s0,.02,0,.03l-.83.03c-.11-.05,0-1.01,0-1.17h.76c.07.05-.07,1.02.07,1.11Z"/>
            <path class="cls-12" d="M28.72,19c-.06.06-1.57.04-1.78.03-.05-.07-.05-.07-.06-.15.25-.09,1.78-.09,1.84-.01,0,0,0,.08,0,.13Z"/>
            <path class="cls-14" d="M28.75,16.82s-.04.17-.04.17c-.08.05-1.57-.04-1.81,0-.03.02-.01.21-.01.26-.14,0,.02-.32-.12-.32,0-.03.03-.14.03-.15l1.95.03Z"/>
            <path class="cls-4" d="M28.75,16.82l-1.95-.03s-.02-.08.04-.12c.24.01,1.81-.02,1.89.03.03.02.01.09.01.12Z"/>
            <path class="cls-43" d="M26.88,17.25c-.02.25-.02,1.41,0,1.63,0,.08,0,.08.06.15-.07,0-.06-.04-.12,0-.08-.13-.09-1.84-.06-2.1.14,0-.02.32.12.32Z"/>
            <path class="cls-15" d="M27.39,17.87c.07.02.1.59-.09.5-.08-.04-.04-.54.09-.5Z"/>
            <path class="cls-17" d="M27.34,17.25c.2-.17.08.8-.04.42,0-.02.03-.41.04-.42Z"/>
          </g>
          <path class="cls-61" d="M15.06,15.91s-.2.3-.15-.35c.21-.04.06.17.15.35Z"/>
          <g>
            <path class="cls-28" d="M27.79,14.81c.07,0,.07-.15.09-.23.28-.63.27.34.23.42-.02.06-.24.06-.28.04-.05-.02-.04-.19-.04-.23Z"/>
            <path class="cls-46" d="M27.87,14.57c-.01.08-.02.24-.09.23,0-.06-.01-.65.15-.42,0,0-.08.02-.09.12,0,0,.04.02.03.07Z"/>
            <path class="cls-4" d="M27.63,14.25c.06,0,.08.31-.03.29-.03-.02-.03-.29.03-.29Z"/>
          </g>
          <g>
            <path class="cls-59" d="M10.92,19.82c-1.04.28-.99.87-1.43,1.75-.14,0-.27-.03-.41-.03.07-.22.04-.53-.22-.61-.2-.07-1.02-.15-1.22-.09-.04.01.02.03.01.06-.19.03-.24.1-.32.12-.14.03-.18.09-.19.09-.17.03-.58-.05-.63.04-.19.42.51.49.54.1.02.01,0,.29.07.47l-1.57.06c-.06-.57-.09-1.49-.09-2.07,1.63.12,3.28-.06,4.91,0,.14,0,.81.02.54.12Z"/>
            <path class="cls-59" d="M9.09,21.54c.14,0,.27.04.41.03-.11.23-.21.47-.33.7h-3.55s-.04-.43-.04-.5l1.57-.06c.07.18.27.31.44.38.11.04.22.07.33.12.09,0,.19-.04.28-.06,0,0,.03.05.13.03.66-.39.07-.62.77-.64Z"/>
            <path class="cls-42" d="M9.09,21.54c-.71.02-.11.25-.77.64-.1.02-.12-.03-.13-.03.86-.55.6-1.45-.52-1.25,0-.02-.05-.05-.01-.06.21-.06,1.02.02,1.22.09.26.09.29.39.22.61Z"/>
            <path class="cls-39" d="M7.34,21.01c-.3.38-.11.81.23,1.08-.17-.07-.36-.2-.44-.38-.07-.17-.05-.46-.07-.47-.03.39-.73.32-.54-.1.04-.09.46-.01.63-.04.01,0,.05-.06.19-.09Z"/>
          </g>
          <g>
            <path class="cls-4" d="M23.94,16c-.07,0-.16-.03-.23-.03.03-.25.06-.83.03-1.05-.1-.62-1.7-.73-2.18-.73.04-.12.05-.26.16-.35l1.75.03c.54.57.46,1.4.48,2.13Z"/>
            <path class="cls-37" d="M23.74,14.92l-2.14-.03-.13-.35c.02-.09.06-.26.09-.35.49,0,2.09.11,2.18.73Z"/>
            <g>
              <path class="cls-60" d="M23.74,14.92c.04.22,0,.8-.03,1.05-.14,0-.26.02-.26-.03.03-.07.08-.38.01-.41h-1.57v.41s0,.06-.03.06c-.17,0-.34,0-.51,0,0-.49.02-.98.12-1.46l.13.35,2.14.03Z"/>
              <path class="cls-71" d="M23.45,15.94c-.52,0-1.05,0-1.57,0v-.41h1.59c.06.03.02.34-.01.41Z"/>
            </g>
          </g>
          <g>
            <path class="cls-4" d="M18.67,16c-.19,0-.17-.03-.17-.03.03-.2.12-.81-.12-.87-.07-.19-.21-.89-.42-.93-.33.05-.67.03-1,.03-.64,0-.69-.12-.84.7-.02.04-.05.08-.06.12l-.09.09c.02-.21.15-1.04.33-1.14,2.23-.09,2.27-.28,2.37,2.04Z"/>
            <path class="cls-54" d="M16.02,15.13l.03.87s-.1,0-.15,0c.04-.3.02-.6.06-.9l.09-.09s-.02.08-.03.12Z"/>
            <path class="cls-71" d="M18.38,15.1c.24.06.14.68.12.87-.82,0-1.63.03-2.45.03l-.03-.87c.37-.02,2.21-.07,2.36-.03Z"/>
            <path class="cls-55" d="M18.38,15.1c-.15-.04-1.99,0-2.36.03,0-.04.02-.08.03-.12.01-.04.04-.08.06-.12.11-.19.63-.56.84-.7.33,0,.67.03,1-.03.21.04.35.74.42.93Z"/>
            <path class="cls-37" d="M16.95,14.19c-.21.14-.74.51-.84.7.15-.82.2-.7.84-.7Z"/>
          </g>
          <g>
            <path class="cls-37" d="M9.13,18.19c.11-.06.28.34-.03.79-.35-.33-.22-.48-.13-.36,0,0-.06.04-.03.09.2.32.32-.31.19-.51Z"/>
            <path class="cls-61" d="M9.45,18.8s.02.05.01.07c-.04.17-.38.37-.01-.07Z"/>
            <path class="cls-63" d="M9.36,18.39s.15.01.13.07c-.03.12-.2-.03-.13-.07Z"/>
            <g>
              <path class="cls-41" d="M8.94,17.6s.05.06.09.09c-.17.12-.03.11-.03.15,0,.04-.04.35-.06.36-.28.23-.15-.63-.15-.68.06,0,.11.05.15.09Z"/>
              <g>
                <path class="cls-33" d="M9.55,15.48s-.06.02-.09.03c-.54.15-1.07.31-1.6.5h-.03c.19-.33.39-.64.63-.93,1.4.06,1.11,0,1.09.41Z"/>
                <path class="cls-33" d="M9.46,15.51c-.5.47-.96.58.09.44-.01.06-.08.06-.12.09-.01.01-.12.05-.28.23l-.31.06c-.38-.04-.41.06-.44.06-.09,0-.18,0-.26,0,0-.15-.18-.28-.29-.38.53-.18,1.06-.35,1.6-.5Z"/>
                <path class="cls-13" d="M9.44,16.03s0,.08,0,.12c-.01.06-.1.16-.06.23-.12.04-.27.29-.38.38,0,0-.01,0-.06.03-.19.15-.57.31-.77.5-.09-.04.19-.33.25-.58.09.01.7-.29.44-.38l.31-.06c.15-.19.26-.22.28-.23Z"/>
                <path class="cls-13" d="M9.55,15.48c-.01.43.03.39.03.41,0,.03-.03.03-.03.06-1.05.14-.59.04-.09-.44.03,0,.05-.04.09-.03Z"/>
                <path class="cls-13" d="M8.85,16.32c.27.09-.35.39-.44.38,0-.03.02-.27,0-.32.02,0,.06-.1.44-.06Z"/>
                <path class="cls-13" d="M7.86,16c.11.1.3.23.29.38-.17,0-.35,0-.52-.01-.04-.04.17-.31.2-.36h.03Z"/>
              </g>
              <path class="cls-36" d="M8.91,18.54c.08-.2.06-.19-.15-.15-.04-.4.46.12.15.15Z"/>
              <path class="cls-22" d="M8.91,18.54c-.07,0-.14-.08-.15-.15.21-.04.22-.06.15.15Z"/>
              <g>
                <path class="cls-35" d="M9.84,17.34c-.1.17-.17.37-.29.52-.18-.02-.44-.3-.61-.26-.04-.03-.09-.09-.15-.09,0-.19-.06-.33,0-.52l1.05.35Z"/>
                <path class="cls-40" d="M9.76,16c.61.52.77.38.45.76l-.77-.61s0-.08,0-.12c.03-.03.1-.03.12-.09,0-.03.02-.03.03-.06.12.04.15.1.17.12Z"/>
                <path class="cls-64" d="M10.57,16.5c-.06-.08-.36.28-.44.38-.07-.17-.72-.44-.76-.5-.04-.07.05-.17.06-.23l.77.61c.32-.37.16-.23-.45-.76.28.15.55.32.82.5Z"/>
                <path class="cls-64" d="M9.87,17.25s0,.03-.03.09l-1.05-.35c.04-.13.09-.08.15-.15l.93.41Z"/>
                <path class="cls-9" d="M9,16.76c.28.21.7.24.93.44-.05.08-.06.05-.06.06l-.93-.41s0-.03,0-.06c.05-.04.06-.03.06-.03Z"/>
                <path class="cls-68" d="M9.96,18.21s0-.01-.03.03l-.93-.41s-.15-.03.03-.15c.29.2.64.32.93.52Z"/>
                <path class="cls-65" d="M10.05,18.48s.13-.12.2-.2l-.04.55c-.17-.25-.15-.33-.16-.35Z"/>
                <path class="cls-48" d="M9.38,16.38c.04.06.69.33.76.5-.05.07-.14.23-.2.32-.24-.2-.66-.23-.93-.44.11-.08.26-.34.38-.38Z"/>
                <path class="cls-19" d="M9.55,17.87s.04.11.16-.09c.01.23.3.37.31.39.02.06-.06.04-.06.04-.29-.2-.64-.32-.93-.52-.04-.03-.06-.06-.09-.09.17-.04.43.24.61.26Z"/>
                <g>
                  <path class="cls-32" d="M10.57,16.5s.06.04.09.06c0,.02-.03.03-.03.12,0,.33-.06,1.03,0,1.31-.08.05-.16.09-.23.15-.06.05-.1.09-.15.15-.08.09-.16.21-.2.2-.11-.2-.2-.07-.12-.23.02-.04.03-.03.03-.03,0,0,.07.02.06-.04,0-.03-.3-.16-.31-.39-.12.2-.15.09-.16.09.13-.16.19-.35.29-.52.04-.06.03-.08.03-.09,0,0,0,.03.06-.06.06-.1.15-.25.2-.32.08-.1.38-.46.44-.38Z"/>
                  <path class="cls-4" d="M10.69,18.04c-.05.06-.1.13-.17.17,0,0-.09-.07-.12-.09.07-.06.15-.1.23-.15,0,0,.04.05.06.06Z"/>
                  <path class="cls-48" d="M10.16,17.92c-.03-.06-.24-.37-.23-.39,0-.02.06-.06.23-.33.03-.05.33-.49.36-.47.03.33.07,1.07-.29,1.22,0,0-.02-.04-.07-.03Z"/>
                  <path class="cls-12" d="M10.16,17.92s.02.08-.13.03c-.52-.18-.07-.49.13-.76-.17.28-.23.31-.23.33,0,.02.2.33.23.39Z"/>
                </g>
              </g>
            </g>
          </g>
          <g>
            <path class="cls-45" d="M10.95,17.66c0,.06-.03.24.04.26.06.02,1.11-.06,1.28-.06,3.02-.03,6.05-.03,9.07,0l.51.03c-.05.09-.01.08-.01.09-.03.07-.18.11-.12.41-.76,0-1.51,0-2.27,0-2.94-.03-5.88.02-8.83,0,0-.01-.1-.16-.12-.17.08-.04.12-.11.17-.17.03-.04.07.09.09-.15.22.06.03-.09.17-.23Z"/>
            <path class="cls-32" d="M23.45,15.94c0,.05.12.02.26.03.07,0,.16.03.23.03.25.01.63-.03.82,0-.02.07-.06.13-.09.2-2.47-.05-4.93.02-7.4.03-2.24.01-4.49,0-6.73,0-.07-.08-.25-.15-.31-.26.65,0,1.29,0,1.94,0,.09,0,.2.03.29.03.55,0,1.11-.03,1.66-.03,0,0,0,.06.01.06.26,0,.41.03.45.03.59,0,1.16-.06,1.31-.06.05,0,.1,0,.15,0,.82,0,1.63-.03,2.45-.03,0,0-.02.03.17.03.6,0,1.2,0,1.81,0,.1,0,.19,0,.29,0,.19,0,.39,0,.58,0,.17,0,.34,0,.51,0,.02,0,.01-.06.01-.06.52,0,1.05,0,1.57,0Z"/>
            <path class="cls-50" d="M17.27,16.23c-.44.1-1.63-.09-1.44.15.66.07,4.46-.06,4.69,0,.22.06.04.12-.07.15-.44.11-3.19.02-3.92.03-.01,0-.03.09-.2.09-.78,0-5.25-.1-5.53,0-.02,0-.01.04-.01.06-.03,0-.06,0-.09,0,0,0,.01-.04-.06-.03,0-.09.03-.1.03-.12,0-.06-.01-.13.03-.16-.06-.05-.1-.11-.15-.16,2.24,0,4.49.01,6.73,0Z"/>
            <path class="cls-45" d="M25.92,18.04c.03.08.24.47.29.38,0,0,.17.14.03.15-.19-.03-3.34.04-3.85.06.08-.03-.03-.18.03-.52.03-.02.22-.06.23-.06,1.09,0,2.18,0,3.26,0Z"/>
            <g>
              <path class="cls-33" d="M26.94,16.23c-.68,0-1.03.31-1.19.96,0,0-.06.01-.06.06-.12-.11-.19-.08-.32-.09v-.03s.02,0,.03,0c.27,0,.22-.41.38-.6l-.76-.79.38-1.06c.53-.44,1.32,1.14,1.6,1.5,0,.02-.06.04-.06.04Z"/>
              <path class="cls-13" d="M26.94,16.23c-.02.06-.56,1.14-.61,1.18-.09.08-.37-.02-.47-.07-.03-.02-.08-.11-.12-.15.16-.66.51-.96,1.19-.96Z"/>
              <path class="cls-47" d="M25.4,17.14c-.31-.2-.44-.65-.47-1.06-.02-.06-.06-.06-.12-.07.24-.26.37-1.13.58-1.31l-.38,1.06.76.79c-.16.19-.1.6-.38.6Z"/>
              <path class="cls-13" d="M24.82,16c.05.01.09.01.12.07.03.41.16.87.47,1.06,0,0-.02,0-.03,0-.14-.01-.69-.3-.79-.47.06,0,.01-.13.03-.23,0-.03.05-.19.06-.23.02-.07.07-.13.09-.2.02,0,.04,0,.06,0Z"/>
            </g>
            <path class="cls-2" d="M25.86,17.34c.09.36.18.74.35,1.08-.05.09-.26-.3-.29-.38,0-.02-.04-.17-.09-.32,0-.02.06-.09-.15-.44v-.03s.06-.05.06-.06c.03.04.09.13.12.15Z"/>
            <path class="cls-45" d="M22.54,17.17c-.21.3.21.37-.44.41q-5.57.01-11.14.03s0,.05-.01.06c-.15.15.05.3-.17.23,0-.08-.02-.65-.03-.79,3.88.04,7.76-.05,11.64,0,0,0,0,.06.16.06Z"/>
            <path class="cls-66" d="M22.11,17.57c.54.02.45.14.48.15.43.06,2.49-.05,3.25,0,.04.15.08.3.09.32-1.09,0-2.18,0-3.26,0-.15.03-.05-.14-.1-.17-.05-.03-1.05,0-1.21,0-3.02-.03-6.05-.03-9.07,0-.18,0-1.22.08-1.28.06-.07-.02-.04-.2-.04-.26,0,0-.01-.05.01-.06q5.57-.01,11.14-.03Z"/>
            <path class="cls-18" d="M10.69,16.7c.02.13.05.28.06.41,0,.14.03.71.03.79-.01.24-.06.11-.09.15-.01,0-.06-.05-.06-.06-.06-.28,0-.98,0-1.31.07-.01.06.03.06.03Z"/>
            <path class="cls-56" d="M22.66,18.04s-.21.04-.23.06l-.58-.12s-.04,0,.01-.09l-.51-.03c.16,0,1.16-.03,1.21,0,.05.03-.05.21.1.17Z"/>
            <path class="cls-50" d="M24.67,16.2s-.05.2-.06.23l-4.17.09c.11-.03.29-.09.07-.15-.23-.06-4.03.07-4.69,0-.19-.24,1-.04,1.44-.15,2.47-.01,4.93-.08,7.4-.03Z"/>
            <path class="cls-3" d="M24.58,16.67c.1.16.64.45.79.47v.03c-.62-.03-1.25.01-1.86,0-.32,0-.64,0-.96,0-.16,0-.15-.06-.16-.06-3.88-.05-7.76.04-11.64,0,0-.13-.04-.28-.06-.41.02,0,.06,0,.09,0l13.81-.03Z"/>
            <path class="cls-45" d="M24.61,16.44c-.02.1.03.23-.03.23l-13.81.03s0-.05.01-.06c.29-.1,4.75,0,5.53,0,.17,0,.19-.09.2-.09.73,0,3.48.08,3.92-.03l4.17-.09Z"/>
            <path class="cls-40" d="M25.37,17.17c.13,0,.2-.02.32.09v.03c-.05,0-.01.08-.04.09-.12.05-2.13-.05-2.53.03-.03-.31.37-.08.39-.23.62.01,1.25-.03,1.86,0Z"/>
            <g>
              <path class="cls-16" d="M22.43,18.1c-.06.34.05.49-.03.52-.07,0-.14,0-.2,0-.15-.08-.29-.23-.47-.23-.06-.3.09-.34.12-.41l.58.12Z"/>
              <path class="cls-56" d="M22.03,18.07c.49-.13.48.51-.07.04.02,0,.06-.04.07-.04Z"/>
            </g>
            <path class="cls-45" d="M23.5,17.17c-.02.16-.42-.08-.39.23.4-.08,2.42.02,2.53-.03.03-.01,0-.08.04-.09.2.34.14.41.15.44-.75-.05-2.82.06-3.25,0-.03,0,.06-.13-.48-.15.65-.04.23-.11.44-.41.32,0,.64,0,.96,0Z"/>
          </g>
          <g>
            <path class="cls-59" d="M28.95,19.7c0,.86-.02,1.71-.07,2.56-1.25-.03-2.5.04-3.74,0-.21-.44-.88-1.99-1.15-2.21-.07-.06-.19-.1-.28-.15-.07-.03-.27-.14-.32-.15,1.84-.11,3.71.04,5.56-.06Z"/>
            <g>
              <path class="cls-28" d="M25.14,22.26c-.05,0-.09,0-.15,0-.08-.26-.21-.51-.32-.76-.17-.4-.34-1.13-.79-1.28.1-.12-.18-.2-.17-.32.09.04.2.08.28.15.27.23.94,1.77,1.15,2.21Z"/>
              <g>
                <path class="cls-39" d="M25.4,21.3s.01.14.03.2c-.19-.02-.38-.04-.57-.03-.17-.38.06-.76.2-.73.03,0,.32.52.33.55Z"/>
                <path class="cls-42" d="M27.32,21.42s-.11,0-.2-.03c0-.14-.02-.23-.09-.35,1.15-.24.52.52.45.52-.07,0-.02-.08-.16-.15Z"/>
              </g>
              <g>
                <path class="cls-4" d="M26.94,20.95c-.55-.12-1.45-.28-1.34.58-.06-.02-.11-.02-.17-.03-.02-.06-.02-.19-.03-.2.22-.65.73-.5,1.3-.52.15.05.16.09.25.17Z"/>
                <path class="cls-4" d="M27.32,21.42c-.13.25-.44.85-.73.73.29-.11.53-.46.52-.76.09.04.19.02.2.03Z"/>
                <g>
                  <path class="cls-71" d="M26.94,20.95s.08.08.09.09c.07.12.09.21.09.35,0,.3-.23.65-.52.76-.43.16-.93-.15-.99-.61-.11-.87.79-.71,1.34-.58Z"/>
                  <path class="cls-34" d="M26.77,21.19c.13.54-.4.63-.82.5-.36-.66.52-.9.82-.5Z"/>
                  <path class="cls-69" d="M25.95,21.68c.42.13.95.04.82-.5.32.44-.48,1.12-.82.5Z"/>
                </g>
              </g>
            </g>
          </g>
          <g>
            <path class="cls-71" d="M8.18,22.15c-.09.01-.19.06-.28.06-.11-.04-.22-.07-.33-.12-.34-.27-.53-.7-.23-1.08.08-.02.13-.08.32-.12,1.12-.19,1.39.7.52,1.25Z"/>
            <path class="cls-34" d="M8.44,21.33c.01.12-.05.25-.12.35-.25-.05-.51.07-.76-.03-.18-.07-.15-.28-.06-.44.44-.2.57-.21.93.12Z"/>
            <path class="cls-62" d="M8.33,21.68c-.22.33-.67.32-.76-.03.25.1.51-.02.76.03Z"/>
            <path class="cls-68" d="M8.44,21.33c-.36-.33-.5-.31-.93-.12.15-.28.9-.25.93.12Z"/>
          </g>
          <g>
            <path class="cls-23" d="M23.39,19.76s.25.11.32.15c0,.13.27.2.17.32-.02,0-.23-.05-.23,0-.2-.09-.29-.07-.48-.12q-6.02.01-12.03.03c-.06.05-.18.03-.25.06l-.09-.06c.12-.11.27-.26.35-.41,1.76.07,11.55-.11,12.23.03Z"/>
            <path class="cls-52" d="M23.88,20.22c.45.15.62.88.79,1.28-.06.12-.12.03-.2,0-.04-.1-.03-.25-.17-.23,0-.02.02-.03.03-.04-.24-.3-.31-.84-.67-1,0-.05.21,0,.23,0Z"/>
            <path class="cls-7" d="M24.67,21.51c.11.25.24.5.32.76-.07,0-.21.02-.26-.01-.07-.24-.18-.45-.26-.68,0-.01,0-.04,0-.06.08.03.14.12.2,0Z"/>
            <path class="cls-44" d="M24.47,21.51s0,.04,0,.06c-.16-.03-.13-.18-.17-.29.14-.02.14.13.17.23Z"/>
            <g>
              <path class="cls-54" d="M20.24,22.76c.25.01,1.48-.08,1.59-.03.03.01.01.06.01.09-.11,0-1.47-.1-1.21.06.06.04,1.31-.04,1.49,0,.06-.04.04-.09.04-.09.22,0,1.69-.05,1.76,0,.06.04.06.16.03.17h-13.52s.05-.14.06-.15c.11-.05,1.04.01,1.28,0,.11,0,.25-.05.36-.06.03,0,0,.09.17.06.26-.14,1.27-.16,1.5-.12.06.01.1.2.31.09.08.11.17.12.17-.03,1.92-.02,3.84.04,5.75,0,.02,0,0-.07.04-.12.06.24.08.11.15.12Z"/>
              <path class="cls-37" d="M22.16,22.79s.02.05-.04.09c-.18-.04-1.42.04-1.49,0-.26-.16,1.1-.05,1.21-.06.31-.01.14-.23-.03-.38-.15-.13-.36-.17-.55-.17-.29-.04-1.04,0-.66-.15.18-.07,1.56,0,1.56.67Z"/>
              <path class="cls-38" d="M21.26,22.26c.19,0,.4.04.55.17-.15.1-.36-.03-.54-.03-.26,0-1.09.03-1.03.35-.07,0-.09.12-.15-.12.03-.03.07-.15.1-.17.2-.18.8-.22,1.06-.2Z"/>
              <path class="cls-38" d="M13.75,22.35s.02,0,.12.06c-.05.13-.24,0-.33,0-.35-.02-1.27-.03-1.21.41-.17.03-.14-.06-.17-.06.17-.65,1.08-.51,1.6-.41Z"/>
              <path class="cls-37" d="M14.3,22.76c0,.15-.1.14-.17.03-.02-.03,0-.19-.26-.38-.09-.07-.08-.04-.12-.06-.41-.19-.84-.14-1.27-.06.34-.41,1.84-.1,1.82.47Z"/>
              <path class="cls-51" d="M10.8,20.14l.09.06c-.1.03-.32.19-.38.28-.05.08-.55,1.48-.77,1.79-.1-.02.72-1.73.71-1.88.11-.18.33-.23.35-.25Z"/>
              <path class="cls-71" d="M21.82,22.44c.17.15.34.37.03.38,0-.03.01-.08-.01-.09-.11-.05-1.34.04-1.59.03-.06-.32.77-.35,1.03-.35.18,0,.39.12.54.03Z"/>
              <path class="cls-71" d="M13.86,22.41c.27.19.24.35.26.38-.21.11-.24-.08-.31-.09-.23-.04-1.24-.02-1.5.12-.06-.44.86-.43,1.21-.41.09,0,.28.13.33,0Z"/>
              <g>
                <path class="cls-31" d="M16.34,20.66c-.09.06-.25.16-.31.03-.11.14-.33-.05-.25.35.01.05-.02.07.03.12.18.17,1.4.09,1.19-.29.02-.08.77-.1.86-.09.04,0,.15.06.16.12-.31.22.43.65.47.61l.04-.52c.05.27-.05.62.07.61,0,.02,0,.04,0,.06-.31,0-.56-.15-.87-.2-.92-.16-.53.31-.06.12-.08.12-.23.15-.36.12-.17-.05,0-.16-.28-.17-.32-.02-.31.16-.12.35.02.02.03.06.03.09-.17,0-1.34.03-1.37-.04l.03-1.19c.04-.07.62-.05.73-.04Z"/>
                <path class="cls-8" d="M18.61,21.59c-.12.01-.02-.34-.07-.61l-.04.52v-.6c-.04-.11-.34-.1-.47-.01-.01-.05-.12-.11-.16-.12-.09-.01-.84,0-.86.09-.01-.02-.18-.13-.23-.17.59,0,1.2-.05,1.79.06.06.05.05.72.04.84Z"/>
                <path class="cls-71" d="M18.49,21.51s-.77-.4-.47-.61c.13-.09.43-.09.47.01v.6Z"/>
                <g>
                  <path class="cls-70" d="M16.78,20.69s.22.15.23.17c.21.38-1.01.46-1.19.29.3.07.06,0,.23-.32.15,0,.21.06.22.06.05-.02-.03-.07,0-.09.1-.04.51.25.39-.06.03-.01.09-.06.12-.06Z"/>
                  <path class="cls-8" d="M16.66,20.75c.12.31-.3.01-.39.06-.03.01.05.07,0,.09-.01,0-.07-.06-.22-.06-.16,0-.25.01-.26.2-.08-.4.13-.21.25-.35.05.13.22.03.31-.03.14,0,.26.09.32.09Z"/>
                  <path class="cls-71" d="M16.05,20.84c-.17.33.06.39-.23.32-.05-.05-.02-.07-.03-.12,0-.19.1-.2.26-.2Z"/>
                </g>
                <g>
                  <path class="cls-30" d="M18.61,21.65c0,.12.03.24-.04.29-.54,0-1.08,0-1.62,0,0-.03-.01-.07-.03-.09.26-.09-.02-.01-.06-.1-.01-.03.05-.16.07-.16.03,0,.33.48.1-.09.27.02.11.13.28.17.14.04.28,0,.36-.12.02-.03.04-.08.06-.12.31.06.57.21.87.2Z"/>
                  <path class="cls-70" d="M17.04,21.51c.22.57-.07.09-.1.09-.03,0-.09.13-.07.16.04.09.32,0,.06.1-.19-.19-.21-.37.12-.35Z"/>
                  <path class="cls-71" d="M18.04,21.56c.34.2.15.4-.06.32-.15-.06.03-.14.06-.32Z"/>
                </g>
                <g>
                  <path class="cls-24" d="M17.74,21.45s-.03.08-.06.12c-.47.19-.86-.28.06-.12Z"/>
                  <path class="cls-29" d="M17.37,21.45c.46,0,.15.14,0,.09-.05-.02-.05-.06,0-.09Z"/>
                </g>
              </g>
            </g>
          </g>
          <g>
            <path class="cls-5" d="M16.75,10.99c-1.54.14-3.94.73-5.27,1.51.55-1.19.48-1.36,1.82-1.54,1.04-.14,2.35-.08,3.41-.06.06.04.04.07.04.09Z"/>
            <path class="cls-5" d="M23.59,12.77c-.23.03-.6-.68-.98-.96-.99-.73-3.76-.42-5.05-.7,0-.05,0-.11,0-.16.11-.2,3.21-.07,3.68-.01,1.82.22,1.51.42,2.34,1.84Z"/>
            <g>
              <path class="cls-57" d="M16.75,10.99c.03.11-.03.63.01.67h.79s0-.46.01-.55c1.29.27,4.06-.03,5.05.7.38.28.75.99.98.96.14.24.95,1.55.96,1.67,0,.05-.13.56-.19.66-.11.03-.06-.45-.33-.95-.11-.19-.24-.36-.42-.48-.1-.04-1.84-.05-1.98-.03-.85.15-.8,1.59-.86,1.67-.01.02-.41.03-.42.01-.16-.11.53-1.18-1.63-.96-.13-.22-.27-.56-.55-.61-.13-.03-1.91,0-2.01.03-.33.11-.51.94-.58,1.25h-.76c-.48-1.69-.54-1.42-2.18-1.43-.67.26-.68,1.35-.82,1.4h-1.08c-.08-.67.44-1.85.74-2.51,1.33-.78,3.73-1.37,5.27-1.51Z"/>
              <g>
                <path class="cls-71" d="M15.42,11.72c.6.06,2.99-.02,3.15,0,.48.08.4.71.17.84-.14.08-3.16.1-3.32.06-.25-.07-.22-.84,0-.9Z"/>
                <g>
                  <path class="cls-28" d="M18.33,11.95c.23,0,.12.4-.03.44-.04.01-.83.02-.86-.01.1-.48.78,0,.84-.26.01-.04-.13-.16.04-.16Z"/>
                  <path class="cls-58" d="M16.03,12.27s.42,0,.44,0c.39.12-.75.11-.44,0Z"/>
                  <g>
                    <path class="cls-10" d="M16.72,12.01s0,.05,0,.06c-.27.31.65.31.67.04.01-.21-.07.1-.22.13-.12.03-.43,0-.45-.17l.06.03s.6.1.41-.03c.06,0,.13.02.12-.06,0,0,.02-.05.16-.03-.08.81-1.29.14-.74.03Z"/>
                    <path class="cls-4" d="M17.3,12.01c.02.08-.06.06-.12.06-.17,0-.37-.03-.41.03l-.06-.03s0-.03,0-.06c.07-.01.44,0,.58,0Z"/>
                    <path class="cls-71" d="M16.72,12.07c.02.18.33.2.45.17.14-.03.23-.34.22-.13-.02.27-.94.27-.67-.04Z"/>
                    <path class="cls-71" d="M17.18,12.07c.19.13-.37.08-.41.03.04-.06.24-.02.41-.03Z"/>
                  </g>
                </g>
              </g>
            </g>
          </g>
        </g>
      </g>
    </g>
  </g>
</svg>