<?xml version="1.0" encoding="UTF-8"?>
<svg id="Calque_2" data-name="Calque 2" xmlns="http://www.w3.org/2000/svg" viewBox="0 0 53.88 53.88">
  <defs>
    <style>
      .cls-1 {
        fill: #fff;
        stroke: #1a1a1a;
      }

      .cls-1, .cls-2 {
        stroke-miterlimit: 10;
      }

      .cls-2 {
        fill: #ccc;
        stroke: #fff;
      }
    </style>
  </defs>
  <g id="Calque_1-2" data-name="Calque 1">
    <rect class="cls-2" x=".5" y=".5" width="52.88" height="52.88" rx="3.67" ry="3.67"/>
    <path class="cls-1" d="M19.73,43.58c-1.43,0-2.44-.21-3.05-.64-.6-.43-.97-.98-1.09-1.67-.13-.68-.19-1.37-.19-2.07V14.63c0-.7.06-1.38.19-2.05.13-.67.49-1.21,1.09-1.64.6-.43,1.63-.64,3.09-.64h9.47c1.21,0,2.51.25,3.9.74,1.4.49,2.72,1.25,3.97,2.26,1.25,1.02,2.28,2.28,3.07,3.81.79,1.52,1.19,3.33,1.19,5.43s-.4,3.86-1.19,5.38c-.79,1.52-1.82,2.78-3.07,3.78-1.25,1-2.58,1.75-3.97,2.24-1.4.49-2.71.74-3.95.74h-5.09v4.57c0,.7-.06,1.38-.19,2.05-.13.67-.49,1.21-1.09,1.64-.6.43-1.64.64-3.09.64ZM24.11,25.96h5.14c.41,0,.89-.1,1.43-.31.54-.21,1.02-.56,1.43-1.07.41-.51.62-1.21.62-2.09,0-.67-.16-1.26-.48-1.78-.32-.52-.74-.94-1.26-1.24-.52-.3-1.12-.45-1.78-.45h-5.09v6.95Z"/>
  </g>
</svg>