<?xml version="1.0" encoding="UTF-8"?>
<svg id="Calque_2" data-name="Calque 2" xmlns="http://www.w3.org/2000/svg" viewBox="0 0 36.6 34.92">
  <defs>
    <style>
      .cls-1 {
        fill: #b3b3b3;
      }

      .cls-1, .cls-2, .cls-3 {
        stroke-width: 0px;
      }

      .cls-2 {
        fill: #333;
      }

      .cls-3 {
        fill: #fff;
      }
    </style>
  </defs>
  <g id="Calque_1-2" data-name="Calque 1">
    <rect class="cls-3" x="-4.35" y="15.67" width="34.92" height="3.58" rx="1.79" ry="1.79" transform="translate(30.57 4.35) rotate(90)"/>
    <rect class="cls-3" x="-14.55" y="15.67" width="34.92" height="3.58" rx="1.79" ry="1.79" transform="translate(20.37 14.55) rotate(90)"/>
    <rect class="cls-3" x="5.86" y="15.67" width="34.92" height="3.58" rx="1.79" ry="1.79" transform="translate(5.86 40.78) rotate(-90)"/>
    <g>
      <circle class="cls-1" cx="23.32" cy="9.27" r="2.91"/>
      <circle class="cls-2" cx="23.32" cy="9.27" r="1.86"/>
    </g>
    <rect class="cls-3" x="16.23" y="15.67" width="34.92" height="3.58" rx="1.79" ry="1.79" transform="translate(51.15 -16.23) rotate(90)"/>
    <g>
      <circle class="cls-1" cx="33.69" cy="21.65" r="2.91"/>
      <circle class="cls-2" cx="33.69" cy="21.65" r="1.86"/>
    </g>
    <circle class="cls-1" cx="13.11" cy="26.95" r="2.91"/>
    <circle class="cls-2" cx="13.11" cy="26.95" r="1.86"/>
    <circle class="cls-1" cx="2.91" cy="14.94" r="2.91"/>
    <circle class="cls-2" cx="2.91" cy="14.94" r="1.86"/>
  </g>
</svg>