<?xml version="1.0" encoding="UTF-8"?>
<svg id="Calque_2" data-name="Calque 2" xmlns="http://www.w3.org/2000/svg" viewBox="0 0 32.82 28.82">
  <defs>
    <style>
      .cls-1, .cls-2 {
        stroke-width: 0px;
      }

      .cls-2 {
        fill: #fff;
      }
    </style>
  </defs>
  <g id="Calque_1-2" data-name="Calque 1">
    <path class="cls-2" d="M32.82,20.29v3.1c-.01,1.41-.9,2.32-2.31,2.29-.61-.02-.91.09-1.18.73-.99,2.4-3.79,3.14-5.85,1.62-.68-.51-1.16-1.17-1.39-2-.07-.25-.17-.35-.44-.35-3.43.01-6.85.02-10.28,0-.3,0-.38.13-.46.38-.86,2.63-3.96,3.61-6.08,1.92-.66-.52-1.11-1.18-1.34-1.99-.06-.23-.16-.32-.4-.3-.3.01-.61.01-.91,0-1.25-.04-2.14-.9-2.16-2.15-.03-1.16-.02-2.33,0-3.49.01-.93.57-1.66,1.5-1.99,1.04-.36,2.07-.7,3.12-1.03.29-.1.5-.26.67-.52.64-.99,1.3-1.96,1.94-2.95.48-.74,1.14-1.09,2.02-1.09,1.69.01,3.37,0,5.06,0s3.33.01,5,0c.81-.01,1.47.27,2.02.89.95,1.07,1.94,2.11,2.9,3.18.25.29.55.44.93.49,1.85.27,3.7.56,5.55.84,1.42.21,2.08.99,2.09,2.42Z"/>
    <circle class="cls-1" cx="25.88" cy="25.24" r="2.36"/>
    <circle class="cls-1" cx="7.12" cy="25.24" r="2.36"/>
    <path class="cls-2" d="M17.37,3.93v1.56c0,.71-.45,1.17-1.16,1.15-.31-.01-.46.05-.59.37-.5,1.21-1.91,1.58-2.94.81-.34-.26-.58-.59-.7-1.01-.04-.13-.09-.18-.22-.18-1.72,0-3.44.01-5.17,0-.15,0-.19.07-.23.19-.43,1.32-1.99,1.81-3.06.97-.33-.26-.56-.59-.67-1-.03-.12-.08-.16-.2-.15-.15,0-.31,0-.46,0-.63-.02-1.08-.45-1.09-1.08-.02-.58-.01-1.17,0-1.75,0-.47.29-.83.75-1,.52-.18,1.04-.35,1.57-.52.15-.05.25-.13.34-.26.32-.5.65-.99.98-1.48C4.76.18,5.09,0,5.53,0,6.38,0,7.23,0,8.08,0S9.75,0,10.59,0c.41,0,.74.14,1.02.45.48.54.98,1.06,1.46,1.6.13.15.28.22.47.25.93.14,1.86.28,2.79.42.71.11,1.05.5,1.05,1.22Z"/>
    <circle class="cls-1" cx="13.88" cy="6.42" r="1.18"/>
    <circle class="cls-1" cx="4.45" cy="6.42" r="1.18"/>
    <path class="cls-2" d="M30.08,7.95v.79c0,.36-.23.59-.59.59-.16,0-.23.02-.3.19-.25.61-.97.8-1.5.41-.17-.13-.3-.3-.36-.51-.02-.06-.04-.09-.11-.09-.88,0-1.75,0-2.63,0-.08,0-.1.03-.12.1-.22.67-1.01.92-1.56.49-.17-.13-.28-.3-.34-.51-.02-.06-.04-.08-.1-.08-.08,0-.16,0-.23,0-.32-.01-.55-.23-.55-.55,0-.3,0-.6,0-.89,0-.24.15-.43.38-.51.27-.09.53-.18.8-.26.07-.03.13-.07.17-.13.16-.25.33-.5.5-.76.12-.19.29-.28.52-.28.43,0,.86,0,1.3,0s.85,0,1.28,0c.21,0,.38.07.52.23.24.27.5.54.74.81.06.07.14.11.24.13.47.07.95.14,1.42.22.36.05.53.25.54.62Z"/>
    <circle class="cls-1" cx="28.3" cy="9.22" r=".6"/>
    <circle class="cls-1" cx="23.5" cy="9.22" r=".6"/>
  </g>
</svg>