<?xml version="1.0" encoding="UTF-8"?>
<svg id="Calque_2" data-name="Calque 2" xmlns="http://www.w3.org/2000/svg" viewBox="0 0 50.23 50.23">
  <defs>
    <style>
      .cls-1 {
        fill: #fff;
        stroke-width: 0px;
      }
    </style>
  </defs>
  <g id="Calque_1-2" data-name="Calque 1">
    <path class="cls-1" d="M33.06,13.78c-.03-.21-.06-.41-.11-.6-.64-3.04-2.15-5.94-4.51-8.3C22.04-1.52,11.74-1.63,5.21,4.56c-.12.1-.23.21-.33.31h0c-.71.72-1.34,1.48-1.89,2.28,0,0-.01,0-.01.01-.68.98-1.25,2.02-1.7,3.09,0,.02-.02.05-.03.07-.04.1-.08.2-.12.3-.06.16-.12.32-.18.49-.09.25-.17.5-.25.76-.09.3-.17.6-.24.91-.09.39-.17.78-.23,1.18-.04.22-.07.43-.09.64-.61,4.92.98,10.06,4.75,13.83,3,3,6.86,4.62,10.8,4.85.6.03,1.19.04,1.79,0,.09,0,.19,0,.28-.02.17,0,.33-.02.5-.03.26-.02.52-.06.78-.09.07,0,.15-.02.22-.04,0,0,.01,0,.01,0,3.37-.53,6.59-2.08,9.19-4.68,3.99-3.99,5.53-9.51,4.62-14.66ZM18.79,30.25s0,0-.01,0c-.05.01-.12.02-.18.03-.22.03-.43.06-.64.08-.14,0-.28.02-.41.03-.07,0-.15.01-.23.01-.49.03-.98.02-1.48,0-3.25-.18-6.44-1.52-8.92-4-3.12-3.12-4.43-7.36-3.92-11.42.01-.18.04-.36.08-.53.05-.32.11-.65.19-.97.06-.25.13-.5.2-.75.06-.21.13-.42.2-.62.05-.14.1-.27.15-.4.03-.09.06-.17.1-.26,0-.01.02-.04.02-.05.37-.89.84-1.75,1.4-2.56h.01c.45-.67.97-1.3,1.56-1.89h0c.09-.1.18-.19.28-.27,5.39-5.11,13.9-5.03,19.18.26,1.95,1.95,3.19,4.34,3.72,6.85.04.16.07.32.09.5.75,4.26-.53,8.82-3.82,12.11-2.14,2.14-4.81,3.43-7.59,3.87Z"/>
    <rect class="cls-1" x="27.24" y="38.13" width="26.12" height="4.33" rx="2.02" ry="2.02" transform="translate(40.3 -16.69) rotate(45)"/>
  </g>
</svg>