<?xml version="1.0" encoding="UTF-8"?>
<svg id="Calque_2" data-name="Calque 2" xmlns="http://www.w3.org/2000/svg" viewBox="0 0 62.85 68.96">
  <defs>
    <style>
      .cls-1, .cls-2 {
        stroke-width: 0px;
      }

      .cls-2 {
        fill: #fff;
      }
    </style>
  </defs>
  <g id="Calque_1-2" data-name="Calque 1">
    <path class="cls-2" d="M19.18,68.93c-.08.01-.14.03-.21.03-6.29,0-12.59,0-18.9,0-.03-.11-.06-.2-.06-.3-.01-.13,0-.26,0-.4,0-22.52,0-45.04,0-67.56,0-.21,0-.42,0-.66C.14.03.23.01.32,0c.12,0,.23,0,.35,0,5.96,0,11.93,0,17.89,0,.2,0,.39,0,.61.01.02.12.03.22.04.31,0,.13,0,.26,0,.4,0,22.5,0,45.01,0,67.51,0,.23.03.46-.04.7ZM15.25,57.62c.04-2.97-2.37-5.65-5.61-5.66-3.06-.02-5.65,2.42-5.66,5.62,0,3.31,2.69,5.66,5.62,5.66,3.13,0,5.67-2.55,5.66-5.62ZM9.58,30.18c1.68,0,3.37,0,5.05,0,.18,0,.37,0,.54-.04.51-.11.86-.54.87-1.06.02-.55-.32-1.01-.84-1.14-.17-.04-.36-.05-.54-.05-3.37,0-6.74,0-10.11,0-.16,0-.33,0-.49.04-.52.11-.9.56-.91,1.09-.01.54.38,1.03.92,1.13.18.03.36.03.54.03,1.65,0,3.3,0,4.95,0ZM9.63,21.47c-1.65,0-3.3,0-4.96,0-.13,0-.26,0-.4,0-.52-.01-1.08.42-1.11,1.11-.03.62.46,1.13,1.1,1.18.1,0,.2,0,.3,0,3.37,0,6.74,0,10.11,0,.12,0,.23,0,.35,0,.61-.07,1.03-.57,1.03-1.19,0-.52-.45-1.08-1.07-1.09-.15,0-.3,0-.45,0-1.64,0-3.27,0-4.91,0ZM9.6,10.91c1.67,0,3.34,0,5,0,.13,0,.26,0,.4,0,.45,0,.97-.39,1.04-.96.08-.57-.22-1.08-.75-1.25-.2-.06-.42-.08-.63-.08-1.49,0-2.97,0-4.46,0-1.87,0-3.73,0-5.6,0-.21,0-.43.01-.63.07-.53.16-.86.69-.79,1.23.08.56.51.95,1.07.99.13,0,.26,0,.4,0,1.65,0,3.3,0,4.96,0ZM9.61,36.58c1.65,0,3.3,0,4.95,0,.15,0,.3,0,.45,0,.43,0,.96-.37,1.04-.96.07-.55-.21-1.04-.71-1.23-.2-.08-.42-.09-.63-.09-3.39,0-6.77,0-10.16,0-.1,0-.2,0-.3,0-.64.06-1.12.59-1.08,1.2.04.66.58,1.11,1.13,1.08.13,0,.26,0,.4,0,1.64,0,3.27,0,4.91,0ZM9.59,17.33c1.67,0,3.34,0,5,0,.13,0,.26,0,.4,0,.59-.04,1.04-.51,1.06-1.1.01-.6-.4-1.1-.99-1.17-.13-.02-.26-.01-.4-.01-3.37,0-6.74,0-10.11,0-.12,0-.23,0-.35,0-.58.05-1.04.55-1.04,1.13,0,.6.47,1.11,1.07,1.15.13,0,.26,0,.4,0,1.65,0,3.3,0,4.96,0Z"/>
    <path class="cls-2" d="M45.82,68.39c-.05-.11-.09-.18-.12-.26-7.64-20.42-15.28-40.85-22.92-61.27,0-.03,0-.06.02-.12.06-.03.13-.07.2-.1,5.59-2.09,11.18-4.18,16.75-6.27.05.03.07.04.08.05.01.01.02.02.03.04.05.12.11.24.15.36,7.61,20.35,15.22,40.69,22.83,61.04.01.03,0,.07,0,.11-.13.15-.34.18-.52.24-3.55,1.33-7.11,2.66-10.66,3.99-1.79.67-3.59,1.34-5.38,2.01-.14.05-.28.1-.46.17ZM50.61,49.63c-2.85-.04-5.44,2.19-5.49,5.36-.05,3.01,2.27,5.52,5.42,5.52,3.39,0,5.43-2.73,5.47-5.33.05-3.05-2.39-5.53-5.4-5.55ZM29.92,15.15c.09-.03.3-.08.5-.15,3-1.12,5.99-2.24,8.99-3.36.12-.05.25-.09.37-.15.56-.28.79-.9.56-1.46-.22-.55-.8-.83-1.38-.66-.13.04-.25.08-.37.13-3,1.12-5.99,2.24-8.99,3.37-.14.05-.28.11-.41.18-.44.27-.64.8-.5,1.29.15.5.59.83,1.23.82ZM32.04,20.9c.08-.02.28-.06.46-.12,3.06-1.14,6.12-2.29,9.17-3.44.12-.05.25-.09.36-.16.48-.3.67-.9.45-1.43-.22-.51-.8-.79-1.35-.64-.11.03-.22.07-.33.11-3.03,1.13-6.06,2.26-9.08,3.4-.12.05-.25.09-.36.16-.44.26-.65.78-.53,1.28.12.49.57.84,1.21.85ZM46.88,27.79c0-.84-.71-1.37-1.43-1.18-.11.03-.22.07-.33.11-3.03,1.13-6.06,2.26-9.08,3.4-.12.05-.25.09-.36.16-.45.26-.67.79-.53,1.27.15.54.58.86,1.13.86.24,0,.45-.09.67-.17,2.98-1.11,5.96-2.23,8.95-3.34.12-.05.25-.09.37-.15.42-.22.62-.57.63-.95ZM34.22,26.65c.08-.02.28-.06.46-.13,3.04-1.14,6.08-2.28,9.13-3.42.12-.05.25-.09.36-.16.49-.29.69-.9.47-1.42-.22-.53-.79-.81-1.34-.67-.11.03-.22.07-.33.11-3.03,1.13-6.05,2.27-9.08,3.4-.12.05-.25.09-.36.16-.47.27-.68.79-.53,1.32.13.48.59.82,1.22.81ZM38.41,38.15c.22.02.43-.08.65-.16,2.73-1.02,5.47-2.05,8.2-3.07.36-.13.72-.25,1.06-.41.6-.26.85-.88.62-1.48-.24-.62-.95-.86-1.42-.66-.08.03-.16.05-.23.08-3.04,1.14-6.09,2.28-9.13,3.42-.12.05-.25.1-.36.16-.44.27-.65.79-.51,1.29.14.5.58.83,1.12.83Z"/>
    <path class="cls-1" d="M15.25,57.62c.01,3.07-2.53,5.63-5.66,5.62-2.93,0-5.63-2.35-5.62-5.66,0-3.2,2.61-5.64,5.66-5.62,3.25.02,5.66,2.69,5.61,5.66ZM12.96,57.58c0-1.83-1.53-3.35-3.36-3.33-1.79.02-3.34,1.41-3.33,3.36.01,2.02,1.64,3.35,3.35,3.33,1.95-.02,3.34-1.6,3.33-3.36Z"/>
    <path class="cls-1" d="M9.58,30.18c-1.65,0-3.3,0-4.95,0-.18,0-.37,0-.54-.03-.54-.1-.93-.59-.92-1.13.01-.53.38-.99.91-1.09.16-.03.33-.04.49-.04,3.37,0,6.74,0,10.11,0,.18,0,.37.01.54.05.52.13.85.59.84,1.14-.02.52-.36.96-.87,1.06-.18.04-.36.04-.54.04-1.68,0-3.37,0-5.05,0Z"/>
    <path class="cls-1" d="M9.63,21.47c1.64,0,3.27,0,4.91,0,.15,0,.3,0,.45,0,.62.01,1.07.57,1.07,1.09,0,.62-.42,1.12-1.03,1.19-.11.01-.23,0-.35,0-3.37,0-6.74,0-10.11,0-.1,0-.2,0-.3,0-.64-.05-1.13-.56-1.1-1.18.03-.69.59-1.12,1.11-1.11.13,0,.26,0,.4,0,1.65,0,3.3,0,4.96,0Z"/>
    <path class="cls-1" d="M9.6,10.91c-1.65,0-3.3,0-4.96,0-.13,0-.26,0-.4,0-.56-.03-.99-.43-1.07-.99-.07-.53.26-1.07.79-1.23.2-.06.42-.07.63-.07,1.87,0,3.73,0,5.6,0,1.49,0,2.97,0,4.46,0,.21,0,.43.02.63.08.53.17.83.68.75,1.25-.08.56-.59.96-1.04.96-.13,0-.26,0-.4,0-1.67,0-3.34,0-5,0Z"/>
    <path class="cls-1" d="M9.61,36.58c-1.64,0-3.27,0-4.91,0-.13,0-.26,0-.4,0-.55.02-1.09-.42-1.13-1.08-.04-.61.44-1.14,1.08-1.2.1,0,.2,0,.3,0,3.39,0,6.77,0,10.16,0,.22,0,.43.01.63.09.49.19.78.69.71,1.23-.08.59-.61.97-1.04.96-.15,0-.3,0-.45,0-1.65,0-3.3,0-4.95,0Z"/>
    <path class="cls-1" d="M9.59,17.33c-1.65,0-3.3,0-4.96,0-.13,0-.26,0-.4,0-.61-.04-1.08-.54-1.07-1.15,0-.58.46-1.08,1.04-1.13.11-.01.23,0,.35,0,3.37,0,6.74,0,10.11,0,.13,0,.27,0,.4.01.59.07,1,.57.99,1.17-.01.6-.46,1.07-1.06,1.1-.13,0-.26,0-.4,0-1.67,0-3.34,0-5,0Z"/>
    <path class="cls-1" d="M50.61,49.63c3.01.02,5.45,2.5,5.4,5.55-.04,2.6-2.07,5.34-5.47,5.33-3.15,0-5.47-2.52-5.42-5.52.05-3.18,2.64-5.4,5.49-5.36ZM50.56,51.92c-1.46-.03-3.14,1.12-3.14,3.15,0,1.98,1.63,3.15,3.15,3.14,1.69,0,3.15-1.36,3.14-3.15-.01-1.96-1.63-3.17-3.15-3.14Z"/>
    <path class="cls-1" d="M29.92,15.15c-.64,0-1.08-.32-1.23-.82-.15-.49.05-1.02.5-1.29.13-.08.27-.13.41-.18,3-1.12,5.99-2.24,8.99-3.37.12-.05.25-.09.37-.13.58-.16,1.16.11,1.38.66.23.57,0,1.18-.56,1.46-.12.06-.24.1-.37.15-3,1.12-5.99,2.24-8.99,3.36-.2.07-.41.12-.5.15Z"/>
    <path class="cls-1" d="M32.04,20.9c-.64,0-1.09-.36-1.21-.85-.13-.51.08-1.02.53-1.28.11-.07.24-.11.36-.16,3.03-1.13,6.05-2.27,9.08-3.4.11-.04.22-.08.33-.11.55-.15,1.13.13,1.35.64.22.53.04,1.13-.45,1.43-.11.07-.24.11-.36.16-3.06,1.15-6.11,2.29-9.17,3.44-.18.07-.38.1-.46.12Z"/>
    <path class="cls-1" d="M46.88,27.79c-.01.37-.21.73-.63.95-.12.06-.24.1-.37.15-2.98,1.12-5.96,2.23-8.95,3.34-.22.08-.43.17-.67.17-.55,0-.98-.32-1.13-.86-.13-.49.08-1.01.53-1.27.11-.07.24-.11.36-.16,3.03-1.13,6.06-2.27,9.08-3.4.11-.04.22-.08.33-.11.72-.19,1.43.35,1.43,1.18Z"/>
    <path class="cls-1" d="M34.22,26.65c-.63,0-1.09-.33-1.22-.81-.14-.53.06-1.05.53-1.32.11-.06.24-.11.36-.16,3.03-1.13,6.05-2.27,9.08-3.4.11-.04.22-.08.33-.11.55-.14,1.12.14,1.34.67.22.52.02,1.13-.47,1.42-.11.07-.24.11-.36.16-3.04,1.14-6.08,2.28-9.13,3.42-.18.07-.38.11-.46.13Z"/>
    <path class="cls-1" d="M38.41,38.15c-.54,0-.98-.34-1.12-.83-.14-.49.07-1.02.51-1.29.11-.07.24-.12.36-.16,3.04-1.14,6.09-2.28,9.13-3.42.08-.03.16-.05.23-.08.47-.19,1.18.04,1.42.66.23.59-.02,1.21-.62,1.48-.35.15-.71.27-1.06.41-2.73,1.02-5.47,2.05-8.2,3.07-.22.08-.43.18-.65.16Z"/>
    <path class="cls-2" d="M12.96,57.58c0,1.75-1.38,3.34-3.33,3.36-1.71.02-3.34-1.31-3.35-3.33,0-1.95,1.54-3.34,3.33-3.36,1.83-.02,3.35,1.5,3.36,3.33Z"/>
    <path class="cls-2" d="M50.56,51.92c1.52-.03,3.14,1.18,3.15,3.14.01,1.79-1.45,3.14-3.14,3.15-1.52,0-3.15-1.16-3.15-3.14,0-2.03,1.68-3.18,3.14-3.15Z"/>
  </g>
</svg>