<?xml version="1.0" encoding="UTF-8"?>
<svg id="Calque_2" data-name="Calque 2" xmlns="http://www.w3.org/2000/svg" viewBox="0 0 37.18 27.25">
  <defs>
    <style>
      .cls-1, .cls-2, .cls-3 {
        stroke-width: 0px;
      }

      .cls-2 {
        fill: #ccc;
      }

      .cls-3 {
        fill: #fff;
      }
    </style>
  </defs>
  <g id="Calque_1-2" data-name="Calque 1">
    <g>
      <path class="cls-1" d="M16.6,10.9c1.66,0,3.33,0,4.99,0,.82,0,1.48.27,2.03.89.95,1.07,1.94,2.11,2.89,3.18.26.29.56.44.94.49,1.85.27,3.7.55,5.55.84,1.42.22,2.08.99,2.08,2.42,0,1.03,0,2.07,0,3.1,0,1.41-.89,2.32-2.31,2.29-.6-.01-.91.09-1.17.74-.99,2.4-3.8,3.13-5.85,1.61-.68-.5-1.16-1.17-1.39-2-.07-.25-.17-.35-.45-.35-3.43.01-6.85.01-10.28,0-.3,0-.38.12-.46.37-.86,2.64-3.95,3.61-6.07,1.92-.66-.52-1.11-1.18-1.34-1.99-.06-.23-.17-.32-.4-.3-.3.02-.61.01-.91,0-1.25-.04-2.14-.9-2.16-2.14-.03-1.17-.02-2.33,0-3.5.02-.93.58-1.66,1.51-1.98,1.03-.36,2.07-.7,3.11-1.04.29-.09.5-.25.67-.51.64-.99,1.3-1.96,1.94-2.95.48-.74,1.14-1.09,2.02-1.09,1.69,0,3.38,0,5.07,0ZM16.61,12.36c-1.68,0-3.35,0-5.03,0-.41,0-.69.15-.91.49-.62.96-1.26,1.91-1.87,2.87-.36.56-.82.93-1.46,1.13-1.02.31-2.03.67-3.04,1.01-.34.11-.56.32-.56.68-.01,1.14-.02,2.28,0,3.43,0,.43.26.67.69.7.3.02.61,0,.91.01.26.02.35-.08.42-.33.45-1.68,1.94-2.82,3.67-2.85,1.74-.02,3.26,1.1,3.75,2.79.09.31.23.38.52.38,3.38,0,6.75,0,10.13,0,.3,0,.43-.08.52-.39.47-1.61,1.89-2.71,3.54-2.78,1.65-.07,3.15.91,3.77,2.46q.28.71,1.05.7c.67,0,.9-.24.9-.9,0-1.02,0-2.04,0-3.06,0-.67-.17-.86-.83-.96-1.84-.28-3.67-.57-5.51-.83-.77-.11-1.39-.43-1.9-1.02-.92-1.05-1.88-2.07-2.81-3.11-.26-.3-.56-.42-.96-.42-1.66.01-3.33,0-4.99,0ZM30.46,23.38c0-1.33-1.07-2.42-2.4-2.43-1.32,0-2.42,1.08-2.42,2.41,0,1.3,1.11,2.42,2.43,2.41,1.32,0,2.39-1.08,2.39-2.39ZM9.48,25.77c1.32,0,2.42-1.11,2.41-2.42-.02-1.32-1.12-2.41-2.43-2.39-1.32.02-2.37,1.08-2.38,2.4,0,1.31,1.1,2.42,2.41,2.41Z"/>
      <path class="cls-3" d="M16.61,12.36c1.66,0,3.33,0,4.99,0,.4,0,.69.12.96.42.93,1.04,1.89,2.06,2.81,3.11.52.59,1.13.91,1.9,1.02,1.84.26,3.68.55,5.51.83.67.1.83.29.83.96,0,1.02,0,2.04,0,3.06,0,.66-.24.9-.9.9q-.77,0-1.05-.7c-.62-1.56-2.12-2.54-3.77-2.46-1.65.07-3.07,1.17-3.54,2.78-.09.31-.22.39-.52.39-3.38,0-6.75,0-10.13,0-.3,0-.43-.07-.52-.38-.49-1.7-2.01-2.81-3.75-2.79-1.73.02-3.22,1.17-3.67,2.85-.07.25-.16.34-.42.33-.3-.02-.61,0-.91-.01-.43-.03-.68-.27-.69-.7-.02-1.14-.01-2.28,0-3.43,0-.36.22-.57.56-.68,1.02-.33,2.02-.69,3.04-1.01.64-.2,1.1-.57,1.46-1.13.61-.96,1.26-1.91,1.87-2.87.22-.34.5-.49.91-.49,1.68.01,3.35,0,5.03,0Z"/>
      <path class="cls-2" d="M30.46,23.38c0,1.31-1.08,2.38-2.39,2.39-1.31,0-2.43-1.1-2.43-2.41,0-1.32,1.1-2.41,2.42-2.41,1.33,0,2.4,1.09,2.4,2.43Z"/>
      <path class="cls-2" d="M9.48,25.77c-1.32,0-2.42-1.1-2.41-2.41,0-1.32,1.07-2.38,2.38-2.4,1.31-.02,2.42,1.07,2.43,2.39.02,1.31-1.08,2.42-2.41,2.42Z"/>
    </g>
    <g>
      <path class="cls-1" d="M8.19,0c.95,0,1.9,0,2.85,0,.47,0,.85.15,1.16.51.54.61,1.11,1.21,1.65,1.82.15.17.32.25.54.28,1.06.15,2.11.32,3.17.48.81.12,1.19.56,1.19,1.39,0,.59,0,1.18,0,1.77,0,.81-.51,1.32-1.32,1.31-.35,0-.52.05-.67.42-.57,1.37-2.17,1.79-3.34.92-.39-.29-.66-.67-.79-1.14-.04-.14-.1-.2-.26-.2-1.96,0-3.92,0-5.87,0-.17,0-.22.07-.27.21-.49,1.51-2.26,2.06-3.47,1.1-.38-.3-.64-.68-.76-1.14-.04-.13-.09-.18-.23-.17-.17.01-.35,0-.52,0-.72-.02-1.22-.51-1.24-1.23-.01-.67-.01-1.33,0-2,0-.53.33-.95.86-1.13.59-.21,1.18-.4,1.78-.59.17-.05.29-.15.38-.29.37-.57.75-1.12,1.11-1.69C4.42.2,4.8,0,5.3,0c.97,0,1.93,0,2.9,0ZM8.2.84c-.96,0-1.92,0-2.87,0-.23,0-.39.08-.52.28-.35.55-.72,1.09-1.07,1.64-.2.32-.47.53-.83.65-.58.18-1.16.38-1.74.57-.19.06-.32.18-.32.39,0,.65,0,1.31,0,1.96,0,.25.15.38.39.4.17.01.35,0,.52,0,.15.01.2-.05.24-.19.26-.96,1.11-1.61,2.1-1.63.99-.01,1.86.63,2.14,1.6.05.18.13.22.3.22,1.93,0,3.86,0,5.79,0,.17,0,.25-.04.3-.22.27-.92,1.08-1.55,2.02-1.59.95-.04,1.8.52,2.16,1.41q.16.41.6.4c.38,0,.52-.14.52-.52,0-.58,0-1.17,0-1.75,0-.38-.09-.49-.48-.55-1.05-.16-2.1-.33-3.15-.47-.44-.06-.79-.25-1.09-.58-.53-.6-1.07-1.18-1.6-1.78-.15-.17-.32-.24-.55-.24-.95,0-1.9,0-2.85,0ZM16.12,7.13c0-.76-.61-1.38-1.37-1.39-.75,0-1.38.62-1.38,1.38,0,.75.64,1.38,1.39,1.38.75,0,1.36-.62,1.37-1.37ZM4.13,8.5c.76,0,1.39-.64,1.38-1.38-.01-.76-.64-1.38-1.39-1.37-.75.01-1.36.62-1.36,1.37,0,.75.63,1.38,1.38,1.38Z"/>
      <path class="cls-3" d="M8.2.84c.95,0,1.9,0,2.85,0,.23,0,.4.07.55.24.53.6,1.08,1.18,1.6,1.78.29.34.65.52,1.09.58,1.05.15,2.1.31,3.15.47.38.06.47.17.48.55,0,.58,0,1.17,0,1.75,0,.38-.14.51-.52.52q-.44,0-.6-.4c-.35-.89-1.21-1.45-2.16-1.41-.94.04-1.76.67-2.02,1.59-.05.18-.13.22-.3.22-1.93,0-3.86,0-5.79,0-.17,0-.25-.04-.3-.22-.28-.97-1.15-1.61-2.14-1.6-.99.01-1.84.67-2.1,1.63-.04.14-.09.2-.24.19-.17-.01-.35,0-.52,0-.25-.02-.39-.15-.39-.4,0-.65,0-1.31,0-1.96,0-.21.13-.32.32-.39.58-.19,1.16-.4,1.74-.57.37-.11.63-.33.83-.65.35-.55.72-1.09,1.07-1.64.13-.2.29-.28.52-.28.96,0,1.92,0,2.87,0Z"/>
      <path class="cls-2" d="M16.12,7.13c0,.75-.62,1.36-1.37,1.37-.75,0-1.39-.63-1.39-1.38,0-.76.63-1.38,1.38-1.38.76,0,1.37.62,1.37,1.39Z"/>
      <path class="cls-2" d="M4.13,8.5c-.75,0-1.38-.63-1.38-1.38,0-.75.61-1.36,1.36-1.37.75-.01,1.38.61,1.39,1.37.01.75-.62,1.38-1.38,1.38Z"/>
    </g>
    <g>
      <path class="cls-1" d="M29.65,4.78c.68,0,1.36,0,2.03,0,.33,0,.6.11.83.36.39.44.79.86,1.18,1.3.11.12.23.18.38.2.75.11,1.51.23,2.26.34.58.09.85.4.85.99,0,.42,0,.84,0,1.26,0,.57-.36.94-.94.93-.25,0-.37.04-.48.3-.41.98-1.55,1.28-2.38.66-.28-.21-.47-.48-.57-.81-.03-.1-.07-.14-.18-.14-1.39,0-2.79,0-4.18,0-.12,0-.16.05-.19.15-.35,1.07-1.61,1.47-2.47.78-.27-.21-.45-.48-.54-.81-.03-.09-.07-.13-.16-.12-.12,0-.25,0-.37,0-.51-.02-.87-.37-.88-.87-.01-.47,0-.95,0-1.42,0-.38.23-.68.61-.81.42-.15.84-.29,1.27-.42.12-.04.21-.1.27-.21.26-.4.53-.8.79-1.2.19-.3.47-.44.82-.44.69,0,1.38,0,2.06,0ZM29.66,5.38c-.68,0-1.37,0-2.05,0-.17,0-.28.06-.37.2-.25.39-.51.78-.76,1.17-.14.23-.33.38-.59.46-.42.13-.83.27-1.24.41-.14.04-.23.13-.23.28,0,.47,0,.93,0,1.4,0,.18.11.27.28.28.12,0,.25,0,.37,0,.1,0,.14-.03.17-.13.18-.68.79-1.15,1.49-1.16.71,0,1.33.45,1.53,1.14.04.13.09.16.21.16,1.38,0,2.75,0,4.13,0,.12,0,.18-.03.21-.16.19-.66.77-1.1,1.44-1.13.67-.03,1.28.37,1.54,1q.11.29.43.28c.27,0,.37-.1.37-.37,0-.42,0-.83,0-1.25,0-.27-.07-.35-.34-.39-.75-.11-1.5-.23-2.25-.34-.32-.04-.57-.18-.78-.42-.37-.43-.77-.84-1.14-1.27-.11-.12-.23-.17-.39-.17-.68,0-1.36,0-2.03,0ZM35.3,9.87c0-.54-.43-.99-.98-.99-.54,0-.98.44-.99.98,0,.53.45.98.99.98.54,0,.97-.44.97-.97ZM26.76,10.84c.54,0,.99-.45.98-.99,0-.54-.46-.98-.99-.98-.54,0-.97.44-.97.98,0,.53.45.99.98.98Z"/>
      <path class="cls-3" d="M29.66,5.38c.68,0,1.36,0,2.03,0,.16,0,.28.05.39.17.38.43.77.84,1.14,1.27.21.24.46.37.78.42.75.1,1.5.22,2.25.34.27.04.34.12.34.39,0,.42,0,.83,0,1.25,0,.27-.1.36-.37.37q-.31,0-.43-.28c-.25-.63-.86-1.03-1.54-1-.67.03-1.25.48-1.44,1.13-.04.13-.09.16-.21.16-1.38,0-2.75,0-4.13,0-.12,0-.18-.03-.21-.16-.2-.69-.82-1.15-1.53-1.14-.7,0-1.31.48-1.49,1.16-.03.1-.07.14-.17.13-.12,0-.25,0-.37,0-.18-.01-.28-.11-.28-.28,0-.46,0-.93,0-1.4,0-.15.09-.23.23-.28.41-.14.82-.28,1.24-.41.26-.08.45-.23.59-.46.25-.39.51-.78.76-1.17.09-.14.2-.2.37-.2.68,0,1.37,0,2.05,0Z"/>
      <path class="cls-2" d="M35.3,9.87c0,.54-.44.97-.97.97-.53,0-.99-.45-.99-.98,0-.54.45-.98.99-.98.54,0,.98.44.98.99Z"/>
      <path class="cls-2" d="M26.76,10.84c-.54,0-.99-.45-.98-.98,0-.54.43-.97.97-.98.53,0,.98.44.99.98,0,.53-.44.98-.98.99Z"/>
    </g>
  </g>
</svg>