<?xml version="1.0" encoding="UTF-8"?>
<svg id="Calque_2" data-name="Calque 2" xmlns="http://www.w3.org/2000/svg" viewBox="0 0 102.92 103.04">
  <defs>
    <style>
      .cls-1 {
        fill: #ccc;
      }

      .cls-1, .cls-2, .cls-3 {
        stroke-width: 0px;
      }

      .cls-2 {
        fill: #333;
      }

      .cls-3 {
        fill: #fff;
      }
    </style>
  </defs>
  <g id="Calque_1-2" data-name="Calque 1">
    <circle class="cls-1" cx="51.46" cy="51.52" r="51.46"/>
    <path class="cls-2" d="M76.89,82.67c-2.11,5-4.27,10.54-6.35,16.63-2.67,1.08-5.45,1.94-8.33,2.56-3.54.78-7.21,1.18-10.98,1.18-11.1,0-21.38-3.51-29.79-9.49,3.26-6,6.51-11.38,9.6-16.18,11.78-18.29,17.33-21.83,18.07-32.19,1.07-15.17-9.68-23.9-17.24-35.1-1.08-1.6-2.1-3.25-3.01-4.98,1.47-.71,2.99-1.36,4.54-1.93,5.56-2.05,11.56-3.17,17.83-3.17,1.72,0,3.42.08,5.09.25,1.91,6.63,5.58,11.61,9.8,15.99,9.37,9.74,21.47,16.49,23.02,31.61,1.07,10.33-3.8,14.78-12.25,34.82Z"/>
    <path class="cls-3" d="M60.02,27.86s1.88-1.51,2.64-1.51,8.85,10.16,9.22,10.92,3.91,6.56-.89,17.72c0,0-6.45-.59-5.88-1.53s3.37-8.66,1.95-13.74-7.04-11.86-7.04-11.86Z"/>
    <path class="cls-3" d="M62.09,58.45s-9.51,17-10.82,19.06c-1.67,2.63-8.52,15.67-8.52,15.67,0,0,6.74,2.26,8.52,2.12,1.97-5.41,7.15-16.52,9.41-20.61s7.34-14.54,7.62-14.96-6.21-1.27-6.21-1.27Z"/>
    <path class="cls-3" d="M56.93,24.66l2.83-1.53S45.81,2.97,45.22,2.85c-.62-.13-1.28.01-2.05.73-.44.4,13.76,21.08,13.76,21.08Z"/>
  </g>
</svg>