<?xml version="1.0" encoding="UTF-8"?>
<svg id="Calque_2" data-name="Calque 2" xmlns="http://www.w3.org/2000/svg" viewBox="0 0 103.93 103.93">
  <defs>
    <style>
      .cls-1 {
        stroke: #fff;
        stroke-miterlimit: 10;
      }

      .cls-1, .cls-2 {
        fill: #ccc;
      }

      .cls-3, .cls-4, .cls-5, .cls-6, .cls-7, .cls-2, .cls-8, .cls-9, .cls-10, .cls-11, .cls-12 {
        stroke-width: 0px;
      }

      .cls-4 {
        fill: #f2f75e;
      }

      .cls-5 {
        fill: #2b3547;
      }

      .cls-6 {
        fill: #464046;
      }

      .cls-7 {
        fill: #121311;
      }

      .cls-8 {
        fill: #d74fbf;
      }

      .cls-9 {
        fill: #d686c1;
      }

      .cls-10 {
        fill: #b273b0;
      }

      .cls-11 {
        fill: #fdfdfd;
      }

      .cls-12 {
        fill: #fff;
      }
    </style>
  </defs>
  <g id="Calque_1-2" data-name="Calque 1">
    <circle class="cls-1" cx="51.96" cy="51.96" r="51.46"/>
    <g>
      <polygon class="cls-12" points="35.57 51.32 31.28 56.63 38.2 62.57 48.19 65.85 59.4 46.94 58.63 35.9 53.86 28.08 35.57 51.32"/>
      <g>
        <path class="cls-7" d="M20.23,59.99c-.11.91-5.25,7.18-6.63,9.13h-3.64c.73-1.33,2.36-3.22,3.3-4.37,1.2-1.44,2.59-2.76,3.77-4.21.08.61,1.03-.08,1.78-.46.39-.21.79-.43,1.17-.62.12.02.25.43.24.54Z"/>
        <path class="cls-4" d="M18.82,60.07c-.75.38-1.69,1.07-1.78.46.47-.56.92-1.43,1.42-2.04.17-.06.31.19.36.32.24.61,0,.69,0,1.25Z"/>
        <path class="cls-11" d="M27.54,56.24c-.07.43-4.34,6.15-4.66,6.33-.59.34-1.19-.1-1.77.16-.38.16-5.64,6.11-6.07,6.39h-1.44c1.38-1.95,6.52-8.22,6.63-9.13.01-.11-.12-.53-.24-.54.53-.27.21-.9,1,.16,2.78-2.66,6.56-6.19,2.19-3.91,2.14-1.67.74-.72.82-1.65.02-.27.45-.35.47-.38-.83,1.38,2.6.51,2.89.79.05.05.22,1.59.17,1.79Z"/>
        <path class="cls-8" d="M20.99,59.6c-.8-1.06-.47-.43-1-.16-.39.19-.79.42-1.17.62,0-.56.24-.64,0-1.25,1.34-1.28,2.94-2.02,4.37-3.12,4.37-2.28.59,1.25-2.19,3.91Z"/>
        <g>
          <path class="cls-10" d="M83.46,60.92q.21,2.47.41,4.94c-.64-.91-5.36-7.37-5.37-7.9,0-.1.6-1.15.65-1.17.22-.05,3.22,2.76,3.65,3.12.11-.06-.45-2.82-.52-3.12.47-1.41,2.79,2.39,4,3.91-.35-.06-2.73-.11-2.83.22Z"/>
          <path class="cls-10" d="M40.82,60.53c.1.18-.48.8-.42,1.09-1.21-.53-2.44-1.14-3.71-1.39-.22-.16-.82-1.68-1.11-2.2.6.16,5.07,2.21,5.25,2.5Z"/>
          <g>
            <path class="cls-7" d="M92.67,69.12h-45.61c-4.31,0-8.61.03-12.91,0h-2.88c-5.42,0-10.83.03-16.23,0,.44-.29,5.7-6.23,6.07-6.39.58-.26,1.17.18,1.77-.16.31-.18,4.58-5.9,4.66-6.33.05-.21-.12-1.75-.17-1.79-.29-.27-3.73.59-2.89-.79.02-.05.07-.1.12-.16,1.25-1.79,2.43-3.69,3.71-5.46,2.03,2.34,3.93,6.71,6.19,7.88.3.75.67,1.46,1.06,2.12.29.51.9,2.04,1.11,2.2,1.27.26,2.5.87,3.71,1.39,1.73.75,3.5,1.41,5.25,2.04,1.17-1.71,7.43-11.57,8.03-12.03.07-.06,1.32-.32,1.71-.71q-1.13-2.42-2.24-4.84c.35-1.49,3.18-4.52,3.18-4.84,0-.1-.68-.8-.71-.95-.16-.72.12-7.76,0-9.69-.07-.14-2.6-.13-2.77-.06-.58.22-7.21,10.17-8.31,11.63-.96,1.27-7.55,10.03-8.08,10.24-.13.05-2.58.21-2.66.08.54-2.84-.12-3.12,1.95-4.29.05,1.51,3.24-2.08,4.66-3.2-.29-1.94,1.85-5.27,3.36-4.78.39-.66,3.07-3.48,3.13-3.83.18-1.12-1.5-3.51,2.89-4.13q2.59-3.75,5.19-7.5c2.37,2.61,3.71,6.59,6.67,8.2-.35,2.92.68,2.53,2.71,5.3,1.9,2.61,2.01,3.85,4.96,5.16.07.9-.11,3.01,0,3.45.19.82,4.58,4.28,5.54,4.53.22,1.67.02,3.4.12,5.08-1.85-1.54-3.83-2.71-5.9-3.61.01-1.04.42-1.23.06-1.71q-2.12-1.63-4.25-3.28-.08.11-.18.24c1.56,1.49,2.88,3.32,4.26,5.08,1.72,2.21,3.36,4.55,5.13,6.71.36-.69.73-1.36,1.11-2.03,1.25-2.12,2.43-4.29,3.83-6.25q1.51,1.76,3.01,3.53c.05.54.11,1.11.24,1.63.07.3.63,3.06.52,3.12-.44-.37-3.44-3.17-3.65-3.12-.05.02-.65,1.07-.65,1.17.01.53,4.73,6.99,5.37,7.9q-.21-2.47-.41-4.94c.1-.34,2.48-.29,2.83-.22,1.08.19,2.81,2.74,3.65,3.91.41.54,2.27,3.09,2.37,3.27.3.61.35.91.35,1.25Z"/>
            <g>
              <g>
                <path class="cls-11" d="M65.17,58.27c0,.45-4.05,2.63-3.88,7.03-.07.22-1.62,2.34-2.77,3.81h-2.75c2.03-3.46,3.87-7.15,5.09-11.25-3.56,2.63-5.93,7.26-8.9,10.78-.12.14-.24.3-.38.46h-3.4v-.06c.05-.45,3.91-5.7,4.49-6.49,1.39-1.91,3.04-4.12,4.48-5.94.7-.88,6.84-8.59,7.26-8.28.02,1.38-.4,8.27-.29,8.68.07.29,1.05,1.01,1.05,1.25Z"/>
                <path class="cls-6" d="M60.87,57.87c-1.22,4.1-3.06,7.79-5.09,11.25h-1.98c-.39-.29-.96-.48-1.83-.46,2.98-3.53,5.35-8.16,8.9-10.78Z"/>
              </g>
              <path class="cls-5" d="M57.16,56.63c-1.45,1.82-3.09,4.03-4.48,5.94l-2.48-.39,3.13-5.39,3.83-.16Z"/>
              <g>
                <path class="cls-10" d="M75.2,57.87c-.39.67-.75,1.35-1.11,2.03-1.77-2.16-3.41-4.5-5.13-6.71-.01-.14.11-.16.11-.32,2.07.9,4.05,2.07,5.9,3.61.02.38.12,1.01.23,1.39Z"/>
                <path class="cls-9" d="M69.07,52.88c0,.15-.13.17-.12.31-1.37-1.76-2.7-3.59-4.25-5.08l.18-.23,4.25,3.28c.36.48-.05.68-.06,1.72Z"/>
              </g>
            </g>
          </g>
        </g>
        <path class="cls-3" d="M26.57,34.92c-3.46-.03-7.1,1.39-5.84-2.2,1.48.1,2.95-.06,4.42.16.25-2.1-.27-4.74,1.9-5.16.07-.02.16,0,.23,0,1.09-.05,1.43.75,1.66.46-.07.43.13.95,0,1.41.53.11.6.38.7.46.41.37.3-.4.59,1.25,1.75-.03,1.91-.19,2.83,1.57.02.05.5.1.59.71.35,2.44-4.14,1.35-7.08,1.33Z"/>
        <path class="cls-7" d="M77.56,44.12l-.7-.16c.67,0,.67.16.7.16Z"/>
        <path class="cls-3" d="M85.35,43.66c-.04.14-.11.29-.23.3-.97-.08-1.89.11-2.83.16l-.83.16c-1.11-.72-2.61-.13-3.9-.16-.04,0-.04-.16-.7-.16h-3.9c-.12-1.36-.42-1.59.82-1.71-.18-3.17.02-2.47,3.19-2.04.18-1.33,1.32-2.4,2.36-2.5,1.06-.1,1.97.3,2.95.87.01.18-.04.43,0,.54.06.22.46,1.63.47,1.71,1.38-.05,3.29.34,2.59,2.82Z"/>
        <path class="cls-2" d="M15.04,69.12h16.23c-5.42,0-10.83.03-16.23,0Z"/>
        <path class="cls-2" d="M34.16,69.12h12.91c-4.31,0-8.61.03-12.91,0Z"/>
      </g>
    </g>
  </g>
</svg>