<?xml version="1.0" encoding="UTF-8"?>
<svg id="Calque_2" data-name="Calque 2" xmlns="http://www.w3.org/2000/svg" viewBox="0 0 103.92 103.92">
  <defs>
    <style>
      .cls-1 {
        fill: #ccc;
        stroke: #fff;
        stroke-miterlimit: 10;
      }

      .cls-2, .cls-3 {
        stroke-width: 0px;
      }

      .cls-3 {
        fill: #fff;
      }
    </style>
  </defs>
  <g id="Calque_1-2" data-name="Calque 1">
    <circle class="cls-1" cx="51.96" cy="51.96" r="51.46"/>
    <g>
      <rect class="cls-3" x="60.45" y="34.43" width="17.44" height="17.44"/>
      <path class="cls-2" d="M50.11,70.52c-8.7,0-17.39,0-26.09,0-4.66,0-7.99-3.31-8-7.99-.01-7.06-.02-14.12,0-21.18.01-4.67,3.34-7.96,8.03-7.96,17.33,0,34.66,0,52,0,4.66,0,8,3.31,8.01,7.98.02,7.06.02,14.12,0,21.18-.01,4.67-3.36,7.96-8.03,7.96-8.64,0-17.27,0-25.91,0ZM50.01,67.38c8.64,0,17.28,0,25.92,0,3.13,0,5.01-1.88,5.01-5.01,0-6.95,0-13.89,0-20.84,0-3.13-1.88-5.01-5.01-5.01-17.25,0-34.5,0-51.75,0-3.2,0-5.04,1.84-5.05,5.05,0,6.92,0,13.83,0,20.75,0,3.21,1.85,5.05,5.05,5.05,8.61,0,17.22,0,25.83,0Z"/>
      <path class="cls-2" d="M87.18,59.46v-14.99c3.21.26,6.07,3.69,6.15,7.34.08,3.72-2.71,7.22-6.15,7.65Z"/>
      <path class="cls-3" d="M50.01,67.38c-8.61,0-17.22,0-25.83,0-3.2,0-5.04-1.84-5.05-5.05,0-6.92,0-13.83,0-20.75,0-3.21,1.85-5.05,5.05-5.05,17.25,0,34.5,0,51.75,0,3.13,0,5.01,1.88,5.01,5.01,0,6.95,0,13.89,0,20.84,0,3.13-1.89,5.01-5.01,5.01-8.64,0-17.28,0-25.92,0ZM65.44,39.6c-.31-.02-.57-.05-.82-.05-12.95,0-25.91,0-38.86,0-2.37,0-3.58,1.25-3.58,3.64,0,5.78,0,11.55,0,17.33,0,2.68,1.15,3.83,3.84,3.83,12.81,0,25.61,0,38.42,0h1v-24.76Z"/>
      <path class="cls-2" d="M65.44,39.6v24.76h-1c-12.81,0-25.61,0-38.42,0-2.69,0-3.84-1.15-3.84-3.83,0-5.78,0-11.55,0-17.33,0-2.4,1.21-3.64,3.58-3.64,12.95,0,25.91,0,38.86,0,.26,0,.51.03.82.05Z"/>
    </g>
  </g>
</svg>