<?xml version="1.0" encoding="UTF-8"?>
<svg id="Calque_2" data-name="Calque 2" xmlns="http://www.w3.org/2000/svg" viewBox="0 0 75.76 37.74">
  <defs>
    <style>
      .cls-1, .cls-2 {
        stroke-width: 0px;
      }

      .cls-2 {
        fill: #ccc;
      }
    </style>
  </defs>
  <g id="Calque_1-2" data-name="Calque 1">
    <path class="cls-1" d="M33.08,0c3.84,0,7.68.02,11.52,0,1.89-.02,3.41.62,4.68,2.05,2.2,2.47,4.47,4.88,6.68,7.34.6.67,1.29,1.01,2.16,1.14,4.27.62,8.54,1.28,12.81,1.93,3.28.5,4.81,2.28,4.81,5.6,0,2.38.01,4.77,0,7.15-.02,3.26-2.07,5.35-5.33,5.28-1.4-.03-2.09.21-2.71,1.7-2.3,5.53-8.76,7.23-13.5,3.73-1.58-1.17-2.68-2.71-3.21-4.61-.16-.57-.4-.8-1.03-.8-7.91.02-15.81.03-23.72,0-.68,0-.88.28-1.07.86-1.97,6.09-9.12,8.34-14.02,4.44-1.51-1.21-2.57-2.73-3.09-4.6-.15-.53-.38-.73-.92-.7-.7.04-1.4.03-2.1,0-2.89-.09-4.93-2.07-5-4.95-.06-2.69-.04-5.38,0-8.08.04-2.14,1.33-3.83,3.48-4.58,2.38-.83,4.78-1.62,7.18-2.39.68-.22,1.16-.59,1.55-1.19,1.48-2.28,3.01-4.53,4.49-6.81C17.84.81,19.38,0,21.39,0c3.9.01,7.79,0,11.69,0ZM33.13,3.38c-3.87,0-7.74.01-11.61,0-.94,0-1.58.34-2.09,1.13-1.42,2.22-2.91,4.4-4.32,6.62-.82,1.29-1.89,2.15-3.37,2.61-2.36.72-4.68,1.55-7.03,2.32-.78.25-1.29.73-1.3,1.56-.03,2.64-.04,5.27,0,7.91.01,1,.6,1.54,1.59,1.61.7.05,1.4-.02,2.1.03.59.04.81-.19.97-.75,1.05-3.88,4.47-6.52,8.47-6.57,4.01-.06,7.53,2.53,8.66,6.44.21.72.52.89,1.21.88,7.8-.02,15.59-.02,23.39,0,.7,0,1-.17,1.21-.89,1.07-3.72,4.36-6.26,8.17-6.43,3.82-.16,7.28,2.09,8.71,5.69q.65,1.64,2.43,1.62c1.54-.02,2.08-.55,2.09-2.08,0-2.36,0-4.71,0-7.07,0-1.54-.38-1.98-1.92-2.21-4.24-.64-8.48-1.32-12.73-1.91-1.79-.25-3.21-1-4.4-2.36-2.12-2.43-4.34-4.77-6.48-7.18-.61-.69-1.29-.98-2.21-.97-3.84.03-7.68.01-11.52.01ZM65.1,28.81c.02-3.08-2.46-5.58-5.53-5.6-3.05-.01-5.58,2.5-5.59,5.56-.01,3.01,2.57,5.58,5.6,5.56,3.04-.02,5.51-2.49,5.53-5.52ZM16.67,34.33c3.05-.01,5.59-2.57,5.55-5.59-.04-3.06-2.59-5.57-5.62-5.53-3.04.04-5.48,2.5-5.5,5.55-.02,3.03,2.53,5.58,5.56,5.57Z"/>
    <path class="cls-2" d="M33.13,3.38c3.84,0,7.68.02,11.52-.01.91,0,1.6.28,2.21.97,2.14,2.41,4.36,4.75,6.48,7.18,1.19,1.36,2.61,2.11,4.4,2.36,4.25.59,8.49,1.27,12.73,1.91,1.54.23,1.92.67,1.92,2.21,0,2.36,0,4.71,0,7.07,0,1.53-.55,2.07-2.09,2.08q-1.78.02-2.43-1.62c-1.43-3.59-4.89-5.85-8.71-5.69-3.81.16-7.09,2.71-8.17,6.43-.21.72-.51.89-1.21.89-7.8-.02-15.59-.02-23.39,0-.69,0-1-.16-1.21-.88-1.13-3.91-4.65-6.5-8.66-6.44-4,.06-7.42,2.7-8.47,6.57-.15.57-.37.8-.97.75-.7-.05-1.4.01-2.1-.03-1-.07-1.58-.61-1.59-1.61-.04-2.64-.03-5.27,0-7.91,0-.83.52-1.31,1.3-1.56,2.34-.77,4.67-1.6,7.03-2.32,1.48-.45,2.55-1.32,3.37-2.61,1.42-2.22,2.9-4.4,4.32-6.62.51-.79,1.15-1.14,2.09-1.13,3.87.02,7.74,0,11.61,0Z"/>
    <path class="cls-2" d="M65.1,28.81c-.02,3.03-2.49,5.5-5.53,5.52-3.03.02-5.61-2.55-5.6-5.56.01-3.06,2.54-5.57,5.59-5.56,3.07.01,5.55,2.52,5.53,5.6Z"/>
    <path class="cls-2" d="M16.67,34.33c-3.04.01-5.59-2.54-5.56-5.57.02-3.05,2.46-5.5,5.5-5.55,3.02-.04,5.57,2.47,5.62,5.53.04,3.02-2.5,5.58-5.55,5.59Z"/>
  </g>
</svg>