<?xml version="1.0" encoding="UTF-8"?>
<svg id="Calque_2" data-name="Calque 2" xmlns="http://www.w3.org/2000/svg" viewBox="0 0 62.26 63.6">
  <defs>
    <style>
      .cls-1 {
        fill: #fff;
        stroke-width: 0px;
      }
    </style>
  </defs>
  <g id="Calque_1-2" data-name="Calque 1">
    <path class="cls-1" d="M52.99,8.84l-21.54,18.88L25.77.78c2.12-.51,4.35-.78,6.63-.78,8.11,0,15.42,3.4,20.59,8.84Z"/>
    <path class="cls-1" d="M27.45,31.72L6.3,50.25c-3.94-4.88-6.3-11.08-6.3-17.84,0-2.46.31-4.84.89-7.11l26.56,6.42Z"/>
    <path class="cls-1" d="M62.26,35.19c0,15.69-12.72,28.41-28.41,28.41-8.93,0-16.9-4.12-22.1-10.57L54.44,15.62c4.85,5.09,7.82,11.98,7.82,19.57Z"/>
    <path class="cls-1" d="M27.45,27.72L.89,21.3C3.51,11.16,11.57,3.22,21.77.78l5.68,26.94Z"/>
  </g>
</svg>