<?xml version="1.0" encoding="UTF-8"?>
<svg id="Calque_2" data-name="Calque 2" xmlns="http://www.w3.org/2000/svg" viewBox="0 0 34.77 34.77">
  <defs>
    <style>
      .cls-1, .cls-2, .cls-3 {
        stroke: #000;
        stroke-linecap: round;
        stroke-linejoin: round;
      }

      .cls-1, .cls-3 {
        fill: #333;
      }

      .cls-2, .cls-4 {
        fill: #e6e6e6;
      }

      .cls-3 {
        stroke-width: .5px;
      }

      .cls-5 {
        fill: #ccc;
        stroke: #fff;
        stroke-miterlimit: 10;
      }

      .cls-4 {
        stroke-width: 0px;
      }
    </style>
  </defs>
  <g id="Calque_1-2" data-name="Calque 1">
    <rect class="cls-5" x=".5" y=".5" width="33.77" height="33.77" rx="3.67" ry="3.67"/>
    <g>
      <polygon class="cls-1" points="27.09 24.88 24.89 27.08 21.88 26.28 21.07 23.27 23.27 21.06 26.28 21.87 27.09 24.88"/>
      <polygon class="cls-2" points="27.09 24.88 24.89 27.08 21.88 26.28 21.07 23.27 23.27 21.06 26.28 21.87 27.09 24.88"/>
      <path class="cls-3" d="M27.82,20.33l-5.11-1.37-.29.29-6.52-6.52.24-.24.3-3.39-3.19-3.42-4.03-.11,2.73,2.73-3.64,3.64-2.73-2.73h-.01l.03.11.11,3.73,3.38,3.22,3.41-.13.24-.25,6.52,6.52-.29.29,1.37,5.12,5.11,1.37,3.74-3.75-1.37-5.11ZM13.83,11.09l-2.67,2.67c-.14.14-.36.14-.5,0l-.08-.08c-.14-.14-.14-.36,0-.5l2.67-2.67c.14-.13.36-.13.49,0l.09.09c.13.13.13.36,0,.49ZM18.87,20.43l-3.83-3.83,1.72-1.72,3.83,3.83-1.72,1.72ZM24.89,27.08l-3.01-.8-.81-3.01,2.2-2.21,3.01.81.81,3.01-2.2,2.2Z"/>
      <path class="cls-1" d="M13.83,11.09l-2.67,2.67c-.14.14-.36.14-.5,0l-.08-.08c-.14-.14-.14-.36,0-.5l2.67-2.67c.14-.13.36-.13.49,0l.09.09c.13.13.13.36,0,.49Z"/>
      <rect class="cls-1" x="16.6" y="14.95" width="2.43" height="5.42" transform="translate(-7.27 17.77) rotate(-45)"/>
      <rect class="cls-4" x="16.6" y="14.95" width="2.43" height="5.42" transform="translate(-7.27 17.77) rotate(-45)"/>
      <path class="cls-4" d="M13.83,11.09l-2.67,2.67c-.14.14-.36.14-.5,0l-.08-.08c-.14-.14-.14-.36,0-.5l2.67-2.67c.14-.13.36-.13.49,0l.09.09c.13.13.13.36,0,.49Z"/>
    </g>
  </g>
</svg>