<?xml version="1.0" encoding="UTF-8"?>
<svg id="Calque_2" data-name="Calque 2" xmlns="http://www.w3.org/2000/svg" viewBox="0 0 45.04 45.04">
  <defs>
    <style>
      .cls-1 {
        fill: #b3b3b3;
      }

      .cls-1, .cls-2 {
        stroke: #fff;
        stroke-miterlimit: 10;
      }

      .cls-2 {
        fill: #ccc;
      }
    </style>
  </defs>
  <g id="Calque_1-2" data-name="Calque 1">
    <rect class="cls-2" x=".5" y=".5" width="44.04" height="44.04" rx="3.67" ry="3.67"/>
    <path class="cls-1" d="M16.51,36.37c-1.19,0-2.04-.18-2.54-.53-.5-.36-.81-.82-.91-1.39-.11-.57-.16-1.14-.16-1.72V12.27c0-.58.05-1.15.16-1.7.11-.56.41-1.01.91-1.37.5-.36,1.36-.54,2.58-.54h7.89c1,0,2.09.21,3.25.61,1.16.41,2.27,1.04,3.31,1.88,1.04.85,1.9,1.9,2.56,3.17.66,1.27.99,2.78.99,4.52s-.33,3.21-.99,4.48c-.66,1.27-1.51,2.32-2.56,3.15-1.04.83-2.15,1.45-3.31,1.86-1.16.41-2.26.61-3.29.61h-4.24v3.81c0,.58-.05,1.15-.16,1.7-.11.56-.41,1.01-.91,1.37-.5.36-1.36.53-2.58.53ZM20.16,21.71h4.28c.34,0,.74-.09,1.19-.26.45-.17.85-.47,1.19-.89.34-.42.52-1,.52-1.74,0-.56-.13-1.05-.4-1.49-.26-.44-.61-.78-1.05-1.03-.44-.25-.93-.38-1.49-.38h-4.24v5.79Z"/>
  </g>
</svg>