<?xml version="1.0" encoding="UTF-8"?>
<svg id="Calque_2" data-name="Calque 2" xmlns="http://www.w3.org/2000/svg" viewBox="0 0 34.67 34.67">
  <defs>
    <style>
      .cls-1, .cls-2, .cls-3 {
        stroke: #000;
        stroke-linecap: round;
        stroke-linejoin: round;
      }

      .cls-1, .cls-3 {
        fill: #333;
      }

      .cls-2, .cls-4 {
        fill: #e6e6e6;
      }

      .cls-3 {
        stroke-width: .5px;
      }

      .cls-5 {
        fill: #ccc;
        stroke: #fff;
        stroke-miterlimit: 10;
      }

      .cls-4 {
        stroke-width: 0px;
      }
    </style>
  </defs>
  <g id="Calque_1-2" data-name="Calque 1">
    <g>
      <circle class="cls-5" cx="17.34" cy="17.34" r="16.84"/>
      <g>
        <polygon class="cls-1" points="26.18 24.17 24.18 26.17 21.44 25.45 20.7 22.7 22.7 20.69 25.45 21.43 26.18 24.17"/>
        <polygon class="cls-2" points="26.18 24.17 24.18 26.17 21.44 25.45 20.7 22.7 22.7 20.69 25.45 21.43 26.18 24.17"/>
        <path class="cls-3" d="M26.85,20.02l-4.66-1.25-.26.26-5.94-5.94.22-.22.27-3.09-2.91-3.12-3.67-.1,2.49,2.49-3.32,3.32-2.49-2.49h0l.03.1.1,3.4,3.08,2.93,3.11-.12.22-.23,5.94,5.94-.26.26,1.25,4.66,4.66,1.25,3.41-3.42-1.25-4.66ZM14.1,11.61l-2.43,2.43c-.13.13-.33.13-.46,0l-.07-.07c-.13-.13-.13-.33,0-.46l2.43-2.43c.13-.12.33-.12.45,0l.08.08c.12.12.12.33,0,.45ZM18.69,20.12l-3.49-3.49,1.57-1.57,3.49,3.49-1.57,1.57ZM24.18,26.17l-2.74-.73-.74-2.74,2-2.01,2.74.74.74,2.74-2,2Z"/>
        <path class="cls-1" d="M14.1,11.61l-2.43,2.43c-.13.13-.33.13-.46,0l-.07-.07c-.13-.13-.13-.33,0-.46l2.43-2.43c.13-.12.33-.12.45,0l.08.08c.12.12.12.33,0,.45Z"/>
        <rect class="cls-1" x="16.63" y="15.12" width="2.22" height="4.93" transform="translate(-7.24 17.69) rotate(-45)"/>
        <rect class="cls-4" x="16.63" y="15.12" width="2.22" height="4.93" transform="translate(-7.24 17.69) rotate(-45)"/>
        <path class="cls-4" d="M14.1,11.61l-2.43,2.43c-.13.13-.33.13-.46,0l-.07-.07c-.13-.13-.13-.33,0-.46l2.43-2.43c.13-.12.33-.12.45,0l.08.08c.12.12.12.33,0,.45Z"/>
      </g>
    </g>
  </g>
</svg>