<?xml version="1.0" encoding="UTF-8"?>
<svg id="Calque_2" data-name="Calque 2" xmlns="http://www.w3.org/2000/svg" viewBox="0 0 34.67 34.67">
  <defs>
    <style>
      .cls-1 {
        fill: #fff;
        stroke: #1a1a1a;
      }

      .cls-1, .cls-2 {
        stroke-miterlimit: 10;
      }

      .cls-2 {
        fill: #ccc;
        stroke: #fff;
      }
    </style>
  </defs>
  <g id="Calque_1-2" data-name="Calque 1">
    <circle class="cls-2" cx="17.34" cy="17.34" r="16.84"/>
    <path class="cls-1" d="M17.32,10.28c-.6,0-1.04-.09-1.31-.27-.27-.18-.44-.42-.51-.72-.07-.3-.11-.63-.11-.99s.04-.69.12-.98c.08-.29.26-.52.53-.69.27-.17.71-.26,1.31-.26s1.03.09,1.3.27.43.42.51.72c.08.3.12.63.12.99s-.04.69-.12.98c-.08.29-.25.52-.51.69-.26.17-.7.26-1.33.26ZM17.32,28c-.56,0-.97-.09-1.22-.26-.25-.17-.41-.39-.47-.66-.06-.27-.09-.58-.09-.92v-11.18c0-.34.03-.65.09-.92.06-.27.22-.49.48-.65.26-.16.67-.24,1.24-.24s.97.08,1.22.24c.25.16.41.38.47.66.06.28.09.6.09.96v11.15c0,.34-.03.65-.09.92-.06.27-.22.49-.47.65-.25.16-.67.24-1.25.24Z"/>
  </g>
</svg>