<?xml version="1.0" encoding="UTF-8"?>
<svg id="Calque_2" data-name="Calque 2" xmlns="http://www.w3.org/2000/svg" viewBox="0 0 36.87 47.55">
  <defs>
    <style>
      .cls-1 {
        fill: #dfb999;
      }

      .cls-1, .cls-2, .cls-3, .cls-4, .cls-5 {
        stroke-width: 0px;
      }

      .cls-2 {
        fill: #ccc;
      }

      .cls-3 {
        fill: #b3b3b3;
      }

      .cls-4 {
        fill: #999;
      }

      .cls-5 {
        fill: #f6cba8;
      }
    </style>
  </defs>
  <g id="Calque_1-2" data-name="Calque 1">
    <rect class="cls-2" x="-10.46" y="21.34" width="47.55" height="4.87" rx="2.43" ry="2.43" transform="translate(37.09 10.46) rotate(90)"/>
    <rect class="cls-2" x="-19.82" y="21.34" width="47.55" height="4.87" rx="2.43" ry="2.43" transform="translate(27.73 19.82) rotate(90)"/>
    <rect class="cls-2" x="-1.11" y="21.34" width="47.55" height="4.87" rx="2.43" ry="2.43" transform="translate(-1.11 46.44) rotate(-90)"/>
    <g>
      <circle class="cls-3" cx="22.67" cy="7.54" r="3.96"/>
      <circle class="cls-4" cx="22.67" cy="7.54" r="2.53"/>
    </g>
    <g>
      <circle class="cls-3" cx="13.31" cy="31.69" r="3.96"/>
      <circle class="cls-4" cx="13.31" cy="31.69" r="2.53"/>
    </g>
    <g>
      <circle class="cls-3" cx="3.96" cy="15.34" r="3.96"/>
      <circle class="cls-4" cx="3.96" cy="15.34" r="2.53"/>
    </g>
    <g>
      <path class="cls-5" d="M34.34,21.54c.77-.1,1.46.03,1.99.66.3.36.48.74.48,1.22,0,2.57.18,5.16-.06,7.7-.22,2.32-.5,4.72-1.96,6.71-1.53,2.08-3.6,3.22-6.19,3.27-1.62.03-3.26.17-4.87-.22-3.18-.77-5.61-3.51-5.91-6.78-.21-2.27-1.18-4.2-2.46-6.02-.62-.88-1.24-1.77-1.85-2.65-.54-.76-1.06-1.53-1.62-2.28-.36-.49-.59-1.01-.58-1.63.28-1.52,1.29-2.22,2.63-1.84.42.12.68.42.97.71.39.38.79.76,1.18,1.14.87,1.13,1.99,2.04,2.9,3.14.46.55.91.86,1.65.78.38-.04.49-.15.48-.51-.02-1.14-.01-2.28-.01-3.43,0-1.96,0-3.92,0-5.88,0-1.31,0-2.61,0-3.92,0-.55.02-1.1.02-1.65,0-1.18.46-1.89,1.39-2.18.9-.28,1.66.05,2.32,1,.17.42.21.86.21,1.31,0,1.44,0,2.89,0,4.33,0,1.34,0,2.69,0,4.03-.74.14-.99.41-.99,1.13,0,1.83,0,3.67,0,5.5,0,.79.34,1.2.97,1.21.64,0,.99-.41.99-1.19,0-1.75-.02-3.51.01-5.26.01-.61-.14-1.07-.64-1.41.28-.78,1.34-1.07,1.98-.93.87.19,1.53,1,1.58,1.93.02.32.01.65.01.97-.74.14-.99.41-.99,1.13,0,1.2,0,2.4,0,3.61,0,.73.36,1.14.97,1.15.62,0,.98-.4.99-1.13,0-1.12-.03-2.24.01-3.36.02-.61-.14-1.07-.64-1.41.67-1.24,2.46-1.29,3.2-.08.2.33.34.69.37,1.08,0,.33,0,.65,0,.98-.55.02-.92.3-.96.83-.06.75-.05,1.51,0,2.26.04.5.39.79.9.83.5.03,1.02-.3,1-.78-.04-1.11.43-2.33-.58-3.26.24-.45.68-.63,1.09-.84Z"/>
      <path class="cls-1" d="M25.39,18.56c.5.34.65.81.64,1.41-.04,1.75-.01,3.51-.01,5.26,0,.78-.35,1.2-.99,1.19-.63,0-.97-.42-.97-1.21,0-1.83,0-3.67,0-5.5,0-.73.24-1,.99-1.13.11,0,.23-.01.34-.02Z"/>
      <path class="cls-1" d="M29.31,20.52c.5.34.66.81.64,1.41-.04,1.12,0,2.24-.01,3.36,0,.73-.37,1.13-.99,1.13-.62,0-.97-.41-.97-1.15,0-1.2,0-2.4,0-3.61,0-.73.25-1,.99-1.13.11,0,.23-.01.34-.02Z"/>
      <path class="cls-1" d="M32.88,22.5c.12-.04.24-.08.36-.12,1.01.94.54,2.16.58,3.26.02.48-.5.81-1,.78-.52-.04-.87-.32-.9-.83-.05-.75-.06-1.51,0-2.26.04-.53.42-.81.96-.83Z"/>
    </g>
  </g>
</svg>