<?xml version="1.0" encoding="UTF-8"?>
<svg id="Calque_2" data-name="Calque 2" xmlns="http://www.w3.org/2000/svg" viewBox="0 0 41.56 47.36">
  <defs>
    <style>
      .cls-1 {
        fill: #dfb999;
      }

      .cls-1, .cls-2, .cls-3, .cls-4, .cls-5 {
        stroke-width: 0px;
      }

      .cls-2 {
        fill: #ccc;
      }

      .cls-3 {
        fill: #b3b3b3;
      }

      .cls-4 {
        fill: #999;
      }

      .cls-5 {
        fill: #f6cba8;
      }
    </style>
  </defs>
  <g id="Calque_1-2" data-name="Calque 1">
    <rect class="cls-2" x="-8.15" y="21.25" width="47.36" height="4.85" rx="2" ry="2" transform="translate(39.21 8.15) rotate(90)"/>
    <rect class="cls-2" x="-19.74" y="21.25" width="47.36" height="4.85" rx="2" ry="2" transform="translate(27.62 19.74) rotate(90)"/>
    <rect class="cls-2" x="3.45" y="21.25" width="47.36" height="4.85" rx="2" ry="2" transform="translate(3.45 50.81) rotate(-90)"/>
    <g>
      <circle class="cls-3" cx="27.13" cy="8.5" r="3.94"/>
      <circle class="cls-4" cx="27.13" cy="8.5" r="2.52"/>
    </g>
    <g>
      <circle class="cls-3" cx="15.53" cy="36.54" r="3.94"/>
      <circle class="cls-4" cx="15.53" cy="36.54" r="2.52"/>
    </g>
    <g>
      <circle class="cls-3" cx="3.94" cy="20.26" r="3.94"/>
      <circle class="cls-4" cx="3.94" cy="20.26" r="2.52"/>
    </g>
    <g>
      <path class="cls-5" d="M38.89,21.1c.81-.1,1.54.03,2.1.7.31.38.51.78.51,1.28,0,2.71.19,5.44-.06,8.13-.23,2.44-.53,4.98-2.07,7.08-1.62,2.2-3.8,3.4-6.53,3.45-1.71.03-3.44.18-5.14-.23-3.35-.81-5.91-3.7-6.23-7.16-.22-2.39-1.25-4.43-2.59-6.36-.65-.93-1.3-1.86-1.96-2.8-.57-.8-1.12-1.62-1.71-2.41-.38-.52-.62-1.07-.61-1.72.3-1.61,1.36-2.34,2.78-1.94.44.12.72.45,1.03.74.41.4.83.8,1.25,1.2.92,1.2,2.1,2.16,3.06,3.31.48.58.96.91,1.74.83.4-.04.51-.15.51-.54-.02-1.21-.01-2.41-.01-3.62,0-2.07,0-4.14,0-6.21,0-1.38,0-2.76,0-4.13,0-.58.02-1.16.02-1.74,0-1.24.48-1.99,1.47-2.3.95-.3,1.75.05,2.45,1.06.18.45.23.91.22,1.38,0,1.52,0,3.05,0,4.57,0,1.42,0,2.84,0,4.26-.79.15-1.04.43-1.04,1.2,0,1.94,0,3.87,0,5.81,0,.83.36,1.27,1.03,1.27.67,0,1.04-.44,1.04-1.26,0-1.85-.02-3.7.01-5.55.01-.64-.15-1.13-.67-1.49.29-.83,1.41-1.12,2.09-.98.92.2,1.62,1.05,1.66,2.04.02.34.01.69.01,1.03-.79.15-1.04.43-1.04,1.2,0,1.27,0,2.54,0,3.81,0,.77.37,1.2,1.02,1.21.66,0,1.04-.42,1.04-1.19,0-1.18-.03-2.37.01-3.55.02-.64-.15-1.13-.67-1.49.71-1.31,2.6-1.36,3.38-.08.21.35.36.73.39,1.14,0,.34,0,.69,0,1.03-.58.02-.97.32-1.02.88-.06.79-.06,1.59,0,2.38.04.53.41.84.95.87.53.04,1.08-.31,1.06-.82-.05-1.17.45-2.45-.62-3.44.25-.47.71-.66,1.15-.89Z"/>
      <path class="cls-1" d="M29.46,17.96c.53.36.69.85.67,1.49-.04,1.85-.01,3.7-.01,5.55,0,.82-.37,1.26-1.04,1.26-.67,0-1.02-.44-1.03-1.27,0-1.94,0-3.87,0-5.81,0-.77.26-1.05,1.04-1.2.12,0,.24-.01.36-.02Z"/>
      <path class="cls-1" d="M33.59,20.03c.53.36.7.85.67,1.49-.05,1.18,0,2.36-.01,3.55,0,.77-.39,1.2-1.04,1.19-.65,0-1.02-.44-1.02-1.21,0-1.27,0-2.54,0-3.81,0-.77.26-1.05,1.04-1.2.12,0,.24-.01.36-.02Z"/>
      <path class="cls-1" d="M37.36,22.12c.13-.04.25-.09.38-.13,1.07.99.57,2.28.62,3.44.02.5-.53.85-1.06.82-.54-.04-.92-.34-.95-.87-.06-.79-.06-1.59,0-2.38.04-.56.44-.86,1.02-.88Z"/>
    </g>
  </g>
</svg>