<?xml version="1.0" encoding="UTF-8"?>
<svg id="Calque_2" data-name="Calque 2" xmlns="http://www.w3.org/2000/svg" viewBox="0 0 33.67 33.67">
  <defs>
    <style>
      .cls-1 {
        fill: #f2e52c;
      }

      .cls-1, .cls-2, .cls-3, .cls-4, .cls-5, .cls-6, .cls-7, .cls-8, .cls-9, .cls-10, .cls-11, .cls-12, .cls-13, .cls-14, .cls-15, .cls-16, .cls-17, .cls-18, .cls-19, .cls-20, .cls-21, .cls-22, .cls-23, .cls-24, .cls-25, .cls-26, .cls-27, .cls-28, .cls-29, .cls-30, .cls-31, .cls-32, .cls-33, .cls-34, .cls-35, .cls-36, .cls-37, .cls-38, .cls-39, .cls-40, .cls-41, .cls-42, .cls-43, .cls-44, .cls-45, .cls-46, .cls-47, .cls-48, .cls-49, .cls-50, .cls-51, .cls-52, .cls-53, .cls-54, .cls-55, .cls-56, .cls-57 {
        stroke-width: 0px;
      }

      .cls-2 {
        fill: #53333d;
      }

      .cls-3 {
        fill: #7ad3c0;
      }

      .cls-4 {
        fill: #2a9376;
      }

      .cls-5 {
        fill: #4b101e;
      }

      .cls-6 {
        fill: #51b91b;
      }

      .cls-7 {
        fill: #96a70e;
      }

      .cls-8 {
        fill: #310e04;
      }

      .cls-9 {
        fill: #58e2d9;
      }

      .cls-10 {
        fill: #82d6da;
      }

      .cls-11 {
        fill: #3be8cf;
      }

      .cls-12 {
        fill: #3db498;
      }

      .cls-13 {
        fill: #10110d;
      }

      .cls-14 {
        fill: #232426;
      }

      .cls-15 {
        fill: #20e4af;
      }

      .cls-16 {
        fill: #171604;
      }

      .cls-17 {
        fill: #247965;
      }

      .cls-18 {
        fill: #c47d0e;
      }

      .cls-19 {
        fill: #d32675;
      }

      .cls-20 {
        fill: #c71f5e;
      }

      .cls-21 {
        fill: #cd1110;
      }

      .cls-22 {
        fill: #c7339b;
      }

      .cls-23 {
        fill: #ccc;
      }

      .cls-24 {
        fill: #d6f6f1;
      }

      .cls-25 {
        fill: #dee5df;
      }

      .cls-26 {
        fill: #deeaf8;
      }

      .cls-27 {
        fill: #d6c212;
      }

      .cls-28 {
        fill: #dca081;
      }

      .cls-29 {
        fill: #d485b0;
      }

      .cls-30 {
        fill: #d9f0fc;
      }

      .cls-31 {
        fill: #a9bbc8;
      }

      .cls-32 {
        fill: #ac4172;
      }

      .cls-33 {
        fill: #a5ebea;
      }

      .cls-34 {
        fill: #a4dde7;
      }

      .cls-35 {
        fill: #bd1d7a;
      }

      .cls-36 {
        fill: #b4edd9;
      }

      .cls-37 {
        fill: #8d6b02;
      }

      .cls-38 {
        fill: #920c46;
      }

      .cls-39 {
        fill: #2fcfaa;
      }

      .cls-40 {
        fill: #baa5b4;
      }

      .cls-41 {
        fill: #6d1f5f;
      }

      .cls-42 {
        fill: #97c6da;
      }

      .cls-43 {
        fill: #8abec5;
      }

      .cls-44 {
        fill: #853d6e;
      }

      .cls-45 {
        fill: #fdf7ca;
      }

      .cls-46 {
        fill: #7e4d13;
      }

      .cls-47 {
        fill: #664e14;
      }

      .cls-48 {
        fill: #edb70d;
      }

      .cls-49 {
        fill: #f2aa0d;
      }

      .cls-50 {
        fill: #fef294;
      }

      .cls-51 {
        fill: #f3d9e6;
      }

      .cls-52 {
        fill: #ede0d7;
      }

      .cls-53 {
        fill: #ecc2d8;
      }

      .cls-54 {
        fill: #f1cc10;
      }

      .cls-55 {
        fill: #f5f6f9;
      }

      .cls-56 {
        fill: #021c0e;
      }

      .cls-57 {
        fill: #02d66a;
      }
    </style>
  </defs>
  <g id="Calque_1-2" data-name="Calque 1">
    <circle class="cls-23" cx="16.84" cy="16.84" r="16.84"/>
    <g>
      <path class="cls-55" d="M13.08,10.79c.09-.06.45.01.31.21-.09.12-.51-.07-.31-.21Z"/>
      <path class="cls-55" d="M27.09,20.27c-.19-.03-.25-.13-.42-.2-.15.99-.93,1.97-1.95,2.11-.31.05-.63.03-.94,0-.69-.06-1.15-.13-1.62-.7-.58-.69-.68-1.73-.49-2.58-.04-.03-.07-.02-.1-.03-.06-.02-.15-.06-.2-.02-.08.07-.11.85-.19.41-.03.25-.01.98-.08,1.01-2.09-.1-6.28.14-8.04,0-.2-.02-.22,0-.23,0-.07.16-.15.38-.29.45.05.05.25.15.26.21-.36.62-.75,1.13-1.49,1.25-.52.08-1.1.04-1.62,0-.27-.02-.52,0-.79-.06-.79-.2-1.28-1.1-1.41-1.85h-.52c-.98-.12-2.65.48-1.85-1.06-.05-.14-.6.19-.57-.63-.95.16-.73-1.17.2-.91.02-.85.51-.32.6-.54.21-.48-.62-.03-.75-.52-.17-.67.64-1.63,1.64-1.51l.55-.58c.29.14.66-.34,1.49-.32q2.16-1.43,4.32-2.86c.24.16.88.1,1.32.1-.27-.26-.17-.37.2-.39-.12,0-.5.01-.54,0-.07-.03-.07-.26,0-.29.27-.12,5.26.09,6.01,0,.22.06,2.21,3.08,2.56,3.47h4.35c.59.2,1.14.51,1.62.91,2.58-.22,1.51,2.74,1.74,3.07.04.06.47-.04.52.07v.88c-.94-.04-.53.14-.96,1.12-.58-.04-1.95.06-2.32,0Z"/>
      <g>
        <path class="cls-33" d="M19.72,11.42c-1.94.03-3.88.01-5.81.02-.27-.26-.17-.37.2-.39.77.03,5.12-.08,5.37,0,.05.01.27.34.24.37Z"/>
        <path class="cls-53" d="M27.16,19.91c0,.09-.07.25-.06.36-.19-.03-.25-.13-.42-.2,0-.04,0-.09,0-.13q.24-.02.49-.03Z"/>
        <path class="cls-14" d="M13.39,11c-.09.12-.51-.07-.31-.21.09-.06.45.01.31.21Z"/>
        <path class="cls-44" d="M29.43,19.2c-.07.24-.1.52-.31.68h-1.96c0-.11,0-.28,0-.39.34-.05,1.8,0,1.93-.03.1-.03.16-.32.34-.26Z"/>
        <path class="cls-29" d="M29.43,19.2c-.18-.06-.24.23-.34.26-.13.04-1.59-.02-1.93.03,0-.08-.05-.23-.06-.32.76-.01,1.53-.06,2.29-.03l.05.06Z"/>
        <path class="cls-51" d="M27.09,19.16c.01.09.06.24.06.32,0,.11,0,.28,0,.39,0,.01,0,.02,0,.03l-.49.03c.03-.3.04-.54,0-.84.11.07.3.07.42.06Z"/>
        <g>
          <path class="cls-34" d="M27.09,19.17c-.13,0-.31,0-.42-.07-.4-2.73-4.36-2.97-5-.2-.04-.03-.07-.02-.1-.03-.15-.2.5-.85-.06-.71.48-.97,1.47-1.65,2.56-1.69,0,.09.49.1.76.2.35.13.73.61.73.16.94.48,1.39,1.33,1.53,2.34Z"/>
          <path class="cls-15" d="M24.72,22.18c-.31.05-.63.03-.94,0,.28-.09-1.21-.49-.73-.58.07-.02.68.34,1.49.23.49-.07.79-.47.18.36Z"/>
          <path class="cls-30" d="M21.57,18.87c-.06-.02-.15-.06-.2-.02-.08.07-.11.85-.19.41.06-.46.12-.69.32-1.1.57-.14-.09.51.06.71Z"/>
          <path class="cls-10" d="M25.57,16.83c0,.44-.38-.04-.73-.16-.28-.1-.75-.1-.76-.19.51-.02,1.04.13,1.49.36Z"/>
          <g>
            <path class="cls-13" d="M26.67,19.94s0,.09,0,.13c-.15.99-.93,1.97-1.95,2.11.61-.83.31-.43-.18-.36-.81.12-1.42-.24-1.49-.23-.48.1,1.01.49.73.58-.69-.06-1.15-.13-1.62-.7-.58-.69-.68-1.73-.49-2.58.64-2.78,4.6-2.53,5,.2.05.3.03.54,0,.84Z"/>
            <path class="cls-9" d="M25.42,20.24c.62-.11.4,1.05-.13.68-.25-.18-.12-.64.13-.68Z"/>
            <path class="cls-31" d="M23.86,17.48c.14-.01.97-.02.83.28-.03.06-1.26.08-1.32.05-.28-.13.38-.31.49-.32Z"/>
            <path class="cls-34" d="M25.45,17.9c.1,0,.39.41.34.67-.07.4-.62-.31-.62-.36,0-.04.26-.31.28-.31Z"/>
            <path class="cls-11" d="M22.08,20.24c.21-.12.49.6.45.62-.32.19-.49-.59-.45-.62Z"/>
            <g>
              <path class="cls-57" d="M23.93,18.58c1.4-.21,1.46,2.04-.13,1.66-.91-.22-.56-1.55.13-1.66Z"/>
              <g>
                <path class="cls-8" d="M23.55,19.33c.02-.15.13-.3.26-.39.9-.37,1.06.96.41,1.04-.46.06-.63-.23-.67-.65Z"/>
                <path class="cls-16" d="M23.55,19.33c.04.42.2.71.67.65.66-.08.5-1.41-.41-1.04.56-.4,1.07.28.81.83-.22.47-1.19.38-1.07-.44Z"/>
                <path class="cls-44" d="M24.09,19.07c.53-.11.45.9-.06.65-.23-.11-.19-.6.06-.65Z"/>
              </g>
            </g>
          </g>
        </g>
        <g>
          <path class="cls-13" d="M30.37,18.27v.88c-.94-.04-.53.14-.96,1.12-.58-.04-1.95.06-2.32,0,0-.11.06-.26.06-.36,0,0,0-.02,0-.03h1.97c.21-.16.24-.44.31-.68t-.05-.07c-.76-.03-1.53.02-2.29.03-.14-1-.59-1.86-1.53-2.34-.45-.23-.99-.37-1.49-.36-1.09.03-2.08.72-2.56,1.69-.21.41-.27.64-.32,1.1-.03.25-.01.98-.08,1.01-2.09-.1-6.28.14-8.04,0-.05-.16,0-.41,0-.68-.01-1.32-.7-2.47-1.98-2.92-1.23-.43-2.37-.13-3.25.81-.12.12-.2.22-.29.36-.5.73-.61,1.33-.55,2.21,0,.08.01.16-.03.23-.98-.12-2.65.48-1.85-1.06-.05-.14-.6.19-.57-.63-.95.16-.73-1.17.2-.91.02-.85.51-.32.6-.54.21-.48-.62-.03-.75-.52-.17-.67.64-1.63,1.64-1.51l.55-.58c.29.14.66-.34,1.49-.32q2.16-1.43,4.32-2.86c.24.16.88.1,1.32.1,1.94,0,3.88.02,5.81-.02.03-.04-.2-.36-.24-.37-.26-.08-4.61.03-5.37,0-.12,0-.5.01-.54,0-.07-.03-.07-.26,0-.29.27-.12,5.26.09,6.01,0,.22.06,2.21,3.08,2.56,3.47h4.35c.59.2,1.14.51,1.62.91,2.58-.22,1.51,2.74,1.74,3.07.04.06.47-.04.52.07Z"/>
          <g>
            <path class="cls-18" d="M15.34,18.29c0,.14.11.95-.02,1.01h-1.85s-.03-.36-.28-1.01h2.14Z"/>
            <g>
              <path class="cls-15" d="M20.73,19.98c-1.69-.09-5.77.12-7.05,0-.05,0-.2.02-.23-.02,0-.01,0-.33.02-.34h7.31c.07.35-.04.34-.05.36Z"/>
              <path class="cls-56" d="M20.73,19.98c-.03.06-.23.22-.24.23-.15.04-2.66,0-3.05,0-.03,0,.03-.06-.1-.06-.02,0,.08.08-.42.06-.02,0,0-.06-.03-.06-.02,0,0,.07-.03.06-.02,0,0-.06-.03-.06-.29-.02-.68,0-.97,0-.03,0,.01.06-.06.06-.03,0,.02-.07-.1-.06-.02,0,0,.06-.03.06-.61.02-1.5.06-2.01-.13l.05-.1c1.28.12,5.36-.09,7.05,0Z"/>
            </g>
            <path class="cls-6" d="M15.37,14.98c-.23.02-.36-.07-.32.03-.08-.03-.58-.04-.68-.03.01-.03-.02-.09-.05-.1-.28-.07-2.76.07-3.09,0-.04,0-.17-.11-.21-.16,0-.03,0-.07,0-.1h4.34s.02.3.02.36Z"/>
            <path class="cls-7" d="M12.68,11.83s.04.05.03.08c-.05.23-3.49,2.17-3.86,2.58-.07,0-.17-.01-.23,0-.04-.06-.02-.08.05-.13.24-.19,2.92-2,3.31-2.24.42-.26.64-.45.7-.29Z"/>
            <path class="cls-15" d="M27.53,18.48c.12-.05,2.42-.05,2.53,0,.07.03.06.36.05.37-.08.11-2.3-.05-2.61.02-.02-.02-.05-.35.03-.39Z"/>
            <path class="cls-11" d="M19.64,11.79c.1.01.22-.02.31.02.13.06,1.42,2.09,1.69,2.34,0,.12-.28.14-.45-.03-.1-.1-1.26-1.93-1.59-2.27l.05-.05Z"/>
            <path class="cls-43" d="M13.07,19.59c-.27-.02-.25.03-.26.03-.02,0-.05-.05-.13-.03,0-.51-.16-.98-.39-1.43.57.8.48,1.19.52,1.25.08.11.2.08.16-.32-.06-.65-.52-1.39-1.02-1.8-.32-.26-1.03-.56-.86-.62,1.28.45,1.97,1.6,1.98,2.92Z"/>
            <path class="cls-15" d="M5.32,19.59c.06-.02,1.18-.02,1.23,0,.07.03.06.36.05.37-.04.05-1.25.04-1.32.02-.16-.05-.11-.35.03-.39Z"/>
            <path class="cls-27" d="M12.29,13.9c.04.13.15.23.21.36-.33.03-1.54-.15-1.48.36,0,.03,0,.07,0,.1-.07-.08-.09.08-.06-.23l.03-.16c.21-.6.8-.38,1.3-.42Z"/>
            <path class="cls-55" d="M29.22,16.83s.33,0,.34.02c.04.05.04,1.31-.02,1.35-.01,0-.33,0-.34-.02-.04-.05-.04-1.31.02-1.35Z"/>
            <g>
              <path class="cls-48" d="M25.28,16.31c.01-.76-.61-1.46-1.35-.84-.67.56.57.21.89.68-1.1-.23-2.21.17-3,.94,0-.65-.07-1.66-.02-2.24.72-.06,2.31.17,1.79-.23.65,0,1.3-.03,1.95.02v1.72c-.07.1-.16-.02-.26-.05Z"/>
              <path class="cls-20" d="M25.28,16.31c-.18-.06-.43-.16-.45-.16-.32-.47-1.56-.12-.89-.68.74-.62,1.36.09,1.35.84Z"/>
              <path class="cls-6" d="M23.59,14.62c.52.4-1.06.17-1.79.23,0-.1-.03-.2.05-.26.58-.03,1.16.03,1.74.03Z"/>
            </g>
            <path class="cls-15" d="M4.35,17.93c.13.02.87-.03.91,0,.02.02.03.3.02.31-.04.05-1.39.13-.93-.31Z"/>
            <path class="cls-39" d="M15.48,11.86s.1.02.11.05c.05.11.07,2.22-.02,2.29-.01,0-.1,0-.11-.02.05-.27-.07-2.25.02-2.32Z"/>
            <path class="cls-22" d="M29.37,16.53c-.05,0-.2.01-.23-.02-.04-.04.04-.42-.52-.96.19.09.73.08.75.97Z"/>
            <path class="cls-51" d="M29.37,16.53c-.02-.9-.56-.89-.75-.97-.04-.02-.16-.1-.16-.11l.05-.05c.77.03,1.17.95,1.06,1.12-.02.03-.15.01-.19.02Z"/>
            <g>
              <path class="cls-17" d="M18.91,13.35c0-.17,0-.35,0-.52,0-.22,0-.43,0-.65.1,0,.21,0,.31,0l.86,1.12-1.17.05Z"/>
              <path class="cls-17" d="M18.94,13.77c0-.11,0-.22,0-.32l1.19-.06.28.37-1.46.02Z"/>
              <path class="cls-4" d="M20.63,14.03c-.34.03-.97-.04-1.22,0-.03,0,.08.18-.5.13-.02-.27.03-.28.03-.29.32.03,1.46-.04,1.58,0,0,0,.09.13.11.16Z"/>
              <path class="cls-12" d="M20.63,14.03c.07.08.14.15.11.16-.61,0-1.22,0-1.83,0v-.03c.59.05.48-.13.5-.13.25-.04.88.03,1.22,0Z"/>
            </g>
            <path class="cls-55" d="M5.82,15.53c-.5.05-.97.97-.45.94-.05.08-.51.27-.36-.34.09-.35.57-.78.94-.71-.03.05-.12.11-.13.11Z"/>
            <path class="cls-22" d="M5.82,15.53c-.49.69-.43.9-.45.94-.51.03-.04-.89.45-.94Z"/>
            <path class="cls-25" d="M5.9,19.16c.12-.01.84-.01.7.18-.03.04-.98.05-1.02.02-.18-.13.14-.18.32-.19Z"/>
            <path class="cls-30" d="M4.96,18.58s.94-.08.73.21c-.02.03-.73.04-.76.02-.03-.02-.04-.2.03-.23Z"/>
            <path class="cls-1" d="M15.37,14.98c0,.06.02.23-.02.26-.15,0-.17-.17-.31-.23-.04-.1.1,0,.32-.03Z"/>
            <g>
              <path class="cls-50" d="M15.76,14.88c-.02.16.03.3.03.45,0,.09-.03.19-.03.29,0,.4.03.8.03,1.2,0,.49-.04,1-.03,1.49,0,.01,0,.02,0,.03h-.06c-.01-.81-.07-2.83,0-3.51.08-.01.06.03.06.03Z"/>
              <path class="cls-28" d="M15.76,18.35c0,.3.05.61.03.91-.03,0-.08.02-.1-.02,0-.3,0-.6,0-.89h.06Z"/>
              <path class="cls-45" d="M15.37,15.66s-.08-.11-.06-.19c.26-.07.31.18.06.19Z"/>
            </g>
            <g>
              <path class="cls-48" d="M12.29,13.9c-.5.04-1.09-.18-1.3.42-.03.08-.03.09-.03.16-.03.3,0,.15.06.23.04.05.17.15.21.16.32.07,2.8-.07,3.09,0,.03,0,.06.06.05.1-.86.07-.62.64-.18.71.82.13,1.06-.21,1.12-.23-.02.09.06.15.06.19.08.52-.02,2.01-.03,2.63h-2.14c-.75-1.98-3.15-2.9-4.92-1.66-.03-.03-.01-.47-.02-.55.03,0,.03-.03.06-.03.46-.07.91-.18,1.36-.24-.07-.93.34-1.39-.84-1.32.37-.41,3.81-2.35,3.86-2.58,0-.03-.02-.05-.03-.08l.45-.02c-.71.35-1.08,1.36-.84,2.09Z"/>
              <path class="cls-49" d="M12.63,17.15h2.63l.02,1.09-2,.02-.65-1.1Z"/>
              <path class="cls-54" d="M11.28,15.63c.46.05,1.8-.02,2.53,0,.35.12,1.18.2,1.45-.06.11.55-.1.3-.65.36-.03,0,0,.06-.03.06-.89.09-2.38.02-3.33.02l.03-.37Z"/>
              <path class="cls-48" d="M13.81,15.63c-.73-.02-2.07.05-2.53,0-.18-.02-.4,0-.24-.26.4.1,2.58-.06,2.7,0,.01,0,.09.22.08.26Z"/>
              <path class="cls-37" d="M10.95,14.49c0-.08,0-.09.03-.16l-.03.16Z"/>
            </g>
            <g>
              <path class="cls-15" d="M18.91,12.18c-.1,0-.2,0-.29,0-.76-.03-1.53.02-2.29,0l-.08.08c0,.24,0,.49,0,.73,0,.02,0,.04,0,.06,0,.25,0,.51,0,.76.05.12,1.79.12,2,.05.36-.11.42-.52.31-.81,0-.01,0-.04,0-.06.07-.01.09-.06.1-.06.11-.04.09-.18.26-.1,0,.17,0,.35,0,.52,0,.07.03.07.03.1,0,.11,0,.22,0,.32,0,.03,0,.07,0,.1,0,.01-.06.03-.03.29v.03c-.97,0-1.94,0-2.91,0l-.02-2.32,2.94-.05c.13.12-.01.23-.02.36Z"/>
              <path class="cls-36" d="M18.55,13.06c.11.29.05.7-.31.81-.21.07-1.95.07-2-.05,0-.25,0-.51,0-.76h2.31Z"/>
              <path class="cls-15" d="M18.91,12.18c0,.22,0,.43,0,.65-.17-.08-.15.06-.26.1l-.03-.75c.1,0,.2,0,.29,0Z"/>
              <g>
                <path class="cls-36" d="M18.62,12.18l.03.75s-.03.05-.1.06c-.25.05-1.79-.04-2.31,0,0-.24,0-.49,0-.73l.08-.08c.76.02,1.53-.03,2.29,0Z"/>
                <path class="cls-3" d="M18.55,12.99s0,.05,0,.06h-2.31s0-.04,0-.06c.52-.04,2.05.05,2.31,0Z"/>
              </g>
            </g>
            <g>
              <path class="cls-19" d="M8.84,14.49c1.18-.08.78.38.84,1.32-.46.07-.91.17-1.36.24.05-.48-.12-1.13.13-1.46.05-.03.11-.09.16-.1.06-.01.15,0,.23,0Z"/>
              <path class="cls-51" d="M8.32,16.05s-.04.03-.06.03c0-.45,0-.9,0-1.35.05-.08.12-.1.19-.15-.25.33-.08.99-.13,1.46Z"/>
              <path class="cls-52" d="M8.92,14.88c.56-.11.65.71.19.78-.57.09-.59-.7-.19-.78Z"/>
            </g>
            <g>
              <path class="cls-55" d="M6.28,15.79c-.05.09-.11.18-.16.28l.05.05h1.61c-.01.1-.28.24-.39.26-.27.05-1.76-.1-1.41.13.05.04,1.11-.03,1.28,0-.03.03-.12.15-.13.16-.06.04-.1.12-.19.1h-1.2s-.05-.04-.03-.15c.1-.46.28-.71.58-1.06v.23Z"/>
              <path class="cls-48" d="M6.93,16.76c-.45.53-.46,1.04-1.23,1.07-.02-.37,0-.71.03-1.07h1.2Z"/>
              <g>
                <path class="cls-18" d="M7.38,17.41c-.32.43-.57.92-.73,1.43l-.83-.05c-.07-.32-.11-.64-.13-.96.78-.03.79-.54,1.23-1.07.09.02.13-.06.19-.1.23.15.14.52.26.75Z"/>
                <path class="cls-48" d="M7.9,16.11c0,.16.08.62.03.76-.18.14-.42.36-.55.54-.12-.23-.03-.6-.26-.75.01,0,.1-.14.13-.16.04-.04.14-.03.13-.13.11-.02.38-.16.39-.26h.13Z"/>
              </g>
              <g>
                <path class="cls-35" d="M7.93,14.78c-.03.43-.02.89-.03,1.33h-1.74l-.05-.05c.06-.09.11-.18.16-.28.13-.24.22-.32.42-.49-.25.15.03.43.15.42.14-.01.88-.84,1.09-.94Z"/>
                <path class="cls-22" d="M7.93,14.72s0,.04,0,.06c-.21.1-.95.93-1.09.94-.11,0-.4-.27-.15-.42.28-.24.89-.62,1.23-.58Z"/>
                <path class="cls-53" d="M7.93,14.72c-.35-.03-.95.35-1.23.58-.2.17-.29.24-.42.49v-.23c.27-.3,1.04-.9,1.41-.97.51-.09.25.11.24.13Z"/>
              </g>
              <path class="cls-5" d="M7.38,16.37c.01.1-.09.09-.13.13-.18-.03-1.23.04-1.28,0-.35-.23,1.14-.08,1.41-.13Z"/>
            </g>
            <g>
              <path class="cls-15" d="M12.64,13.58l.03-.44.13.08c-.07.86.34.75.88.75.39,0,.8-.01,1.17-.18.02-.33-.02-.66-.03-.99,0-.21.01-.43,0-.63-.05-.02-.12.02-.23.02-.4-.03-.9-.05-1.27.16l-.06-.16c.16-.12.35-.19.5-.32l1.38.05v2.27l-2.26.02c-.18-.23-.21-.34-.24-.62Z"/>
              <g>
                <path class="cls-11" d="M13.26,12.18l.06.16c-.26.15-.5.59-.52.88l-.13-.08-.03.44c-.07-.64.11-1.03.62-1.4Z"/>
                <path class="cls-34" d="M14.82,12.8c.02.33.06.66.03.99-.37.17-.77.18-1.17.18.39-.26.62-.36.58-.89.32-.06.46-.26.49-.28,0,0,.04,0,.06,0Z"/>
                <path class="cls-24" d="M14.82,12.8s-.06,0-.06,0c-.1-.46-.41-.52-.16-.62.11,0,.17-.03.23-.02.01.21,0,.43,0,.63Z"/>
                <g>
                  <path class="cls-55" d="M14.59,12.18c-.25.1.07.15.16.62-.02.01-.16.21-.49.28.03.54-.2.63-.58.89-.53,0-.94.12-.88-.75.02-.29.26-.73.52-.88.36-.21.87-.19,1.27-.16Z"/>
                  <path class="cls-21" d="M13.6,12.67c.76-.13.83.94.23,1.01-.68.08-.82-.9-.23-1.01Z"/>
                </g>
              </g>
            </g>
            <g>
              <path class="cls-18" d="M27.22,16.73c.08.24.56.91.58,1.1,0,.06-.06.19-.03.36-.03,0-.31.06-.5.03-.22-.46-.58-.99-.96-1.33.28-.12.32-.24.7-.19.06-.03-.05-.11-.08-.16h.03c.1.05.13.17.26.19Z"/>
              <path class="cls-48" d="M26.64,16.18c.03.16.19.18.19.19,0,0,.08.13.1.16.03.05.14.13.08.16-.38-.05-.41.07-.7.19-.1-.09-.32-.21-.45-.28,0-.12,0-.25,0-.37.11.02.09-.03.1-.03.19-.03.48-.02.68-.03Z"/>
              <path class="cls-55" d="M28.46,15.98c.11.15.19.28.26.45-.01.05-.16,0-.19,0-.02,0-.04,0-.06,0,0,0-.02-.06-.05-.06-.42-.04-1.11.03-1.58,0,0-.01-.16-.03-.19-.19.14-.01.14-.06.15-.06.34-.02,1.38.03,1.51,0,.18-.05-.11-.17.16-.13Z"/>
              <path class="cls-48" d="M28.72,16.44c.24.6.09,1.12.13,1.77-.04.06-.94-.01-1.07-.02-.03-.16.04-.3.03-.36l.97-.02c-.02-.24.06-1.13-.06-1.27-.09-.1-.21,0-.19-.11.03,0,.18.05.19,0Z"/>
              <path class="cls-48" d="M28.52,16.44c-.02.12.1.01.19.11.12.13.04,1.02.06,1.27l-.97.02c-.03-.19-.5-.86-.58-1.1.06.01,1.14.03,1.19,0,.03-.02.05-.27-.05-.23,0,0,.07-.07.1-.06.02,0,.05,0,.06,0Z"/>
              <path class="cls-55" d="M28.36,16.5c.09-.04.08.21.05.23-.05.03-1.13.01-1.19,0-.13-.03-.16-.14-.26-.19.28-.13,1.05.03,1.4-.03Z"/>
              <path class="cls-2" d="M28.46,16.44s-.09.06-.1.06c-.35.06-1.12-.09-1.4.03h-.03s-.09-.16-.1-.16c.47.03,1.15-.04,1.58,0,.03,0,.04.06.05.06Z"/>
              <g>
                <path class="cls-53" d="M28.46,15.98c-.27-.04.02.08-.16.13.06-.1-.19-.32-.29-.42-.4-.43-1.09-.97-1.69-1.01-.06,0-.14,0-.19,0-.07,0-.14.08-.19.1-.01,0-.04,0-.06,0,0-.05,0-.1,0-.15.9-.27,2.09.66,2.6,1.35Z"/>
                <path class="cls-29" d="M25.93,14.78c.12.57-.16,1.19.03,1.43,0,0,.01.05-.1.03-.01-.23-.02-1.31,0-1.46.02,0,.05,0,.06,0Z"/>
                <path class="cls-20" d="M26.38,16.08s.1.05.54-.03c0-.24.75.01.73-.26.16.06.25.09.44.06l-.08-.16c.1.11.35.32.29.42-.13.03-1.17-.02-1.51,0,0,0,0,.05-.15.06-.2.02-.49,0-.68.03-.19-.24.09-.86-.03-1.43.05-.02.13-.09.19-.1v1.45c.32.07.24-.05.26-.05Z"/>
                <path class="cls-22" d="M28,15.69l.08.16c-.19.02-.27,0-.44-.06-.47-.16-.9-.73-1.33-.94,0-.05,0-.11,0-.16.6.04,1.29.58,1.69,1.01Z"/>
                <path class="cls-38" d="M26.32,14.68c0,.05,0,.11,0,.16.03.41.08.82.06,1.23-.02,0,.06.12-.26.05v-1.45c.06,0,.14,0,.19,0Z"/>
                <path class="cls-35" d="M27.65,15.79c.02.27-.72.02-.73.26-.44.09-.51.03-.54.03.01-.41-.03-.82-.06-1.23.44.21.86.78,1.33.94Z"/>
              </g>
            </g>
            <g>
              <path class="cls-18" d="M21.48,17.09c0,.11,0,.23,0,.34-.36.57-.62,1.2-.7,1.87-.87-.04-4.61.06-4.98-.03.01-.3-.03-.61-.03-.91,0-.01,0-.02,0-.03h4.53l.76-1.2s-.05-.1.42-.03Z"/>
              <path class="cls-6" d="M21.48,14.88c-1.09-.06-5.18.09-5.72,0,0,0,.01-.04-.06-.03,0-.05-.02-.2.02-.23h5.75s.01.21.02.26Z"/>
              <path class="cls-49" d="M21.35,15.63c-.34.05-2.5-.06-2.61,0,0,0-.08.19-.08.21-.03.14.06.11.06.11,0,.05-.08.02-.06.08.17.06.44.35.32.5-.18-.86-1.51-.45-1.27.37.18.59.9.33,1.04.31.11-.02.13-.09.15-.1.28-.05,1.61.03,2.16,0l-.76,1.2h-4.53c0-.5.04-1,.03-1.49.37,0,.78-.36.83-.36.02,0,0,.08.21.06.24-.01.54,0,.52-.42-.02-.34-.46-.44-.7-.23l-.89-.26c0-.1.03-.21.03-.29,1.85.06,3.69.15,5.54.16.04.02,0,.1.02.13Z"/>
              <path class="cls-27" d="M21.35,15.63s.12-.05.05.26l-2.68.06s-.1.03-.06-.11c0-.02.07-.21.08-.21.12-.06,2.27.05,2.61,0Z"/>
              <path class="cls-48" d="M17.35,16.11c-.41-.71-1.2.13-.52.42-.22.01-.19-.06-.21-.06-.05,0-.46.35-.83.36,0-.4-.04-.8-.03-1.2l.89.26c.24-.22.68-.11.7.23Z"/>
              <g>
                <path class="cls-20" d="M18.98,16.53c.07.32,0,.45-.23.68-.14.03-.86.28-1.04-.31-.25-.82,1.09-1.23,1.27-.37Z"/>
                <path class="cls-52" d="M18.18,16.37c.56-.13.6.6.26.68-.55.13-.63-.59-.26-.68Z"/>
              </g>
              <g>
                <path class="cls-48" d="M21.48,14.88c.02.28.02,1.9,0,2.21-.48-.07-.4.03-.42.03-.55.03-1.88-.05-2.16,0-.02,0-.04.08-.15.1.22-.24.29-.36.23-.68.12-.15-.15-.45-.32-.5-.02-.06.07-.04.06-.08l2.68-.06c.07-.31-.04-.25-.05-.26-.01-.03.02-.11-.02-.13-1.85,0-3.69-.1-5.54-.16,0-.16-.05-.3-.03-.45.53.09,4.62-.06,5.72,0Z"/>
                <g>
                  <path class="cls-46" d="M20.03,16.14c.72-.11.63.92-.1.65-.34-.13-.23-.6.1-.65Z"/>
                  <path class="cls-55" d="M20.06,16.21c.4-.07.5.48.19.55-.47.12-.54-.49-.19-.55Z"/>
                </g>
              </g>
              <g>
                <path class="cls-47" d="M17.35,16.11c.03.42-.28.41-.52.42-.68-.29.11-1.13.52-.42Z"/>
                <path class="cls-55" d="M16.85,15.92c.39-.12.56.47.23.55-.44.11-.46-.48-.23-.55Z"/>
              </g>
            </g>
          </g>
        </g>
        <g>
          <path class="cls-11" d="M11.72,21.73c-.24.21-.54.22-.41.45-.52.08-1.1.04-1.62,0-.55-.16-.85-.44-.54-.52.16-.04,1.1.8,2.5-.2.45-.32.63-.71.68-.71.37,0-.51.88-.62.97Z"/>
          <path class="cls-34" d="M7.48,20.27h-.52c.05-.07.04-.15.03-.23.07-.02.22-1.83.39-1.54.02.67.13-.03.52-.54,0,0,.05,0,.07,0-.49.67-.63,1.5-.49,2.31Z"/>
          <path class="cls-30" d="M12.84,20.27c-.07.16-.15.38-.29.45-.02-.02-.13-.09-.13-.11.17-.28.26-.7.26-1.02.08-.02.11.03.13.03q-.05.3-.1.6c.13.01.12.05.13.05Z"/>
          <path class="cls-30" d="M13.07,20.27c-.2-.02-.22,0-.23,0,0,0,0-.04-.13-.05q.05-.3.1-.6s0-.05.26-.03c0,.27-.05.52,0,.68Z"/>
          <path class="cls-30" d="M11.08,16.66c-.17.05.54.36.86.62.5.41.96,1.15,1.02,1.8.04.4-.09.43-.16.32-.04-.06.05-.45-.52-1.25-.25-.35-.55-.73-.94-.94-.4-.54-2.01-.38-2.01-.28,0,.03.1,0,.1.05-.4.08-.88.37-1.17.65l-.42-.16c.88-.94,2.02-1.25,3.25-.81Z"/>
          <path class="cls-30" d="M7.9,17.96c-.39.51-.5,1.2-.52.54-.17-.29-.32,1.52-.39,1.54-.06-.88.05-1.48.55-2.21.22,0,.27-.02.36.13Z"/>
          <path class="cls-42" d="M8.26,17.64s-.26.28-.29.32c-.02,0-.06,0-.06,0-.09-.15-.13-.13-.36-.13.1-.14.18-.23.29-.36l.42.16Z"/>
          <g>
            <path class="cls-13" d="M12.81,20.93c-.36.62-.75,1.13-1.49,1.25-.13-.24.17-.24.41-.45.1-.09.99-.97.62-.97-.05,0-.23.39-.68.71-1.4.99-2.34.15-2.5.2-.32.08-.01.36.54.52-.27-.02-.52,0-.79-.06-.79-.2-1.28-1.1-1.41-1.85-.15-.81,0-1.64.49-2.31.03-.04.24-.28.29-.32.29-.28.77-.57,1.17-.65.64-.14,1.34-.09,1.92.23.39.21.69.59.94.94.23.44.39.92.39,1.43,0,.32-.09.74-.26,1.02,0,.03.11.09.13.11.05.05.25.15.26.21Z"/>
            <g>
              <path class="cls-11" d="M8.41,20.11c.2-.01.38.22.37.24,0,.05-.31.16-.32.23-.04.14.33.52.32.55,0,.04-.21.48-.55-.1-.22-.38-.21-.9.18-.93Z"/>
              <path class="cls-30" d="M11.65,19.52c.47-.23-.05,1.4-.32,1.4-.24,0,.16-.43.24-.76.04-.14.03-.61.08-.63Z"/>
              <path class="cls-26" d="M9.7,17.51c.26-.02.25.16.16.23-.03.02-.73.17-.76.15-.19-.18.48-.37.6-.37Z"/>
              <path class="cls-40" d="M11.34,17.22c-.58-.32-1.27-.36-1.92-.23,0-.06-.1-.02-.1-.05,0-.11,1.61-.26,2.01.28Z"/>
              <path class="cls-30" d="M11.3,18.16c.37-.11.59.56.55.58-.25.14-.38-.4-.55-.58Z"/>
              <g>
                <path class="cls-57" d="M10.13,18.55c1.08,0,1.16,1.59.26,1.72-1.47.21-1.43-1.72-.26-1.72Z"/>
                <g>
                  <path class="cls-16" d="M9.95,18.87c-.42.12-.47,1.26.37,1.07.52-.12.37-1.28-.37-1.07.87-.33,1.01,1.09.28,1.17-.66.07-.88-.94-.28-1.17Z"/>
                  <path class="cls-8" d="M9.95,18.87c.74-.21.9.95.37,1.07-.84.19-.79-.95-.37-1.07Z"/>
                  <path class="cls-32" d="M10.43,19.26c-.19.25-.24.39-.52.13,0-.44.42-.43.52-.13Z"/>
                  <path class="cls-41" d="M9.92,19.39c.28.26.33.12.52-.13.16.5-.52.71-.52.13Z"/>
                </g>
              </g>
            </g>
          </g>
        </g>
      </g>
    </g>
  </g>
</svg>