<?xml version="1.0" encoding="UTF-8"?>
<svg id="Calque_2" data-name="Calque 2" xmlns="http://www.w3.org/2000/svg" viewBox="0 0 34.62 34.62">
  <defs>
    <style>
      .cls-1 {
        fill: #333;
        stroke: #000;
        stroke-linecap: round;
        stroke-linejoin: round;
      }

      .cls-2 {
        fill: gray;
      }

      .cls-2, .cls-3, .cls-4 {
        stroke-width: 0px;
      }

      .cls-3 {
        fill: #ccc;
      }

      .cls-4 {
        fill: #999;
      }
    </style>
  </defs>
  <g id="Calque_1-2" data-name="Calque 1">
    <polygon class="cls-1" points="28.3 31.54 31.51 28.32 30.34 23.9 25.94 22.72 22.7 25.94 22.69 25.94 23.87 30.35 23.89 30.35 28.3 31.54"/>
    <polygon class="cls-2" points="28.3 31.54 31.51 28.32 30.34 23.9 25.94 22.72 22.7 25.94 22.69 25.94 23.87 30.35 23.89 30.35 28.3 31.54"/>
    <path class="cls-3" d="M22.69,25.94h.01s1.19,4.41,1.19,4.41h-.01s-1.19-4.41-1.19-4.41Z"/>
    <path class="cls-3" d="M21.63,32.61l-2.01-7.49.42-.43-9.56-9.56-.35.35-4.97.44L.16,11.26l-.16-5.91,4,4,5.33-5.33L5.33.01h0s.16.03.16.03l5.47.16,4.72,4.95-.19,5-.37.35,9.56,9.56.42-.43,7.5,2.01,2.01,7.49-5.5,5.48-7.49-2.01ZM31.52,28.32l-1.17-4.41h-.01s-4.4-1.19-4.4-1.19l-3.24,3.22h-.01s1.19,4.41,1.19,4.41h.01s4.41,1.19,4.41,1.19l3.22-3.22Z"/>
    <path class="cls-2" d="M7.18,13.76l6.11-6.39c.32-.34.32-.86,0-1.2l-.18-.19c-.32-.34-.82-.34-1.14,0l-6.11,6.39c-.3.34-.3.86,0,1.17l.21.22c.3.31.82.31,1.12,0Z"/>
    <rect class="cls-4" x="11.71" y="16.08" width="13.51" height=".4" transform="translate(20.01 40.86) rotate(-135)"/>
    <rect class="cls-4" x="9.46" y="18.34" width="13.51" height=".4" transform="translate(14.57 43.11) rotate(-135)"/>
    <polygon class="cls-3" points="27.74 29.46 29.44 27.76 28.82 25.42 26.49 24.79 24.78 26.5 24.77 26.5 25.4 28.84 25.41 28.84 27.74 29.46"/>
  </g>
</svg>