<?xml version="1.0" encoding="UTF-8"?>
<svg id="Calque_2" data-name="Calque 2" xmlns="http://www.w3.org/2000/svg" viewBox="0 0 33.67 33.67">
  <defs>
    <style>
      .cls-1 {
        fill: #ccc;
      }

      .cls-1, .cls-2, .cls-3, .cls-4 {
        stroke-width: 0px;
      }

      .cls-2 {
        fill: #e0e4e5;
      }

      .cls-3 {
        fill: #ff5f76;
      }

      .cls-4 {
        fill: #fff;
      }
    </style>
  </defs>
  <g id="Calque_1-2" data-name="Calque 1">
    <g>
      <circle class="cls-1" cx="16.84" cy="16.84" r="16.84"/>
      <g>
        <path class="cls-2" d="M28.61,12.94c-.09-.34-.22-.67-.36-.99-.2-.42-.63-1.08-.93-1.44-.2-.24-.5-.6-.72-.77-.3-.24-1.74-.99-2.12-1.14-.63-.25-1.77-.6-2.43-.61h-.14c-.11,0-1.32.24-1.52.31-1.4.45-2.82,1.93-3.36,3.29-.41-1.41-1.63-2.32-2.49-2.85l-.02-.02s-.14-.09-.27-.17c-.13-.06-.22-.13-.31-.19-.08-.06-.17-.11-.25-.16-.13-.06-.25-.13-.36-.17-.05-.02-.11-.05-.16-.06-.17-.05-.34-.08-.5-.11-.2-.03-.35-.03-.35-.03-4.44-.28-8.7,3.86-7.34,8.37.6,1.99,2.82,4.89,4.61,6.63l.03.03c.09.09.41.38.72.66.14.13.27.24.39.33.09.08.22.17.35.27,0-.02.02-.03.02-.05.11.09.24.19.36.28l.36.28.11.09s.03.02.03.02l.06.05c1.6,1.24,3.21,2.51,4.88,3.65h.09c2.52-1.79,5.88-4.58,8.05-6.76.45-.45,1.14-1.13,1.55-1.6,1.02-1.18,2.18-2.89,2.32-4.49.06-.85-.09-1.85-.31-2.67ZM27.73,15.61c-.03.14-.06.28-.11.42-.72,2.54-3.2,4.64-5.1,6.38-.16.14-.31.28-.47.42-1.68,1.52-3.43,2.98-5.22,4.38-.2.03-.17-.05-.19-.05-.5-.13-3.04-2.26-3.65-2.73-.39-.38-1.07-.99-1.55-1.14-.22-.19-.38-.25-.72-.56-.2-.19-.14-.19-.16-.2-.88-.83-1.69-1.69-2.46-2.63-.08-.09-.22-.22-.36-.41-.52-.66-1.16-1.49-1.4-2.27-.02-.02-.09.08-.2-.36-.22-.28-.24-.64-.31-.97,0-.02-.09-.03-.11-.08-.02-.11.06-.14.06-.19-.02-.02-.14-.13-.16-.5-.02-.16,0-.31,0-.47,0-.69.06-.82.2-1.44.08-.33.09-.3.11-.31,0-.03-.02-.09.05-.25.02-.05.03-.11.05-.16.86-2.18,3.51-3.73,5.83-3.61.8.05,1.71.45,2.41.82.77.41,1.35.77,1.8,1.55.11.2.25.5.31.72.06.25.05.33.05.56,0,.02.08,0,0,.27v.05h.25c.17.02.36.02.52,0v-.16c.02-.09.03-.22.06-.31.47-2.18,2.95-3.59,5.08-3.34.31.03.64.2.94.3,1.99.61,3.14,1.35,4.03,3.25.05.11.08.13.16.31.45,1.18.52,1.46.25,2.73Z"/>
        <g>
          <path class="cls-3" d="M12.99,24.44c-.13-.09-.41-.17-.55-.27-.36-.25-.66-.6-1-.88.49.16,1.16.77,1.55,1.14Z"/>
          <path class="cls-3" d="M16.66,12.83h-.22v-.05c.06.03.14.03.22.05Z"/>
          <path class="cls-3" d="M27.73,15.61c-.03.14-.06.28-.11.42-.72,2.54-3.2,4.64-5.1,6.38-.16.14-.31.28-.47.42-1.68,1.52-3.43,2.98-5.22,4.38-.2.03-.17-.05-.19-.05-.5-.13-3.04-2.26-3.65-2.73-.39-.38-1.07-.99-1.55-1.14-.22-.19-.38-.25-.72-.56-.2-.19-.14-.19-.16-.2-.88-.83-1.69-1.69-2.46-2.63-.08-.09-.22-.22-.36-.41-.52-.66-1.16-1.49-1.4-2.27-.02-.02-.09.08-.2-.36-.22-.28-.24-.64-.31-.97,0-.02-.09-.03-.11-.08-.02-.11.06-.14.06-.19-.02-.02-.14-.13-.16-.5-.02-.16,0-.31,0-.47,0-.69.06-.82.2-1.44.08-.33.09-.3.11-.31,0-.03-.02-.09.05-.25.02-.05.03-.11.05-.16.86-2.18,3.51-3.73,5.83-3.61.8.05,1.71.45,2.41.82.77.41,1.35.77,1.8,1.55.11.2.25.5.31.72.06.25.05.33.05.56,0,.02.08,0,0,.27v.05h.25c.17.02.36.02.52,0v-.16c.02-.09.03-.22.06-.31.47-2.18,2.95-3.59,5.08-3.34.31.03.64.2.94.3,1.99.61,3.14,1.35,4.03,3.25.05.11.08.13.16.31.45,1.18.52,1.46.25,2.73Z"/>
        </g>
        <path class="cls-2" d="M11.97,24.75c-.14-.09-.53-.38-.88-.63-.13-.09-.25-.19-.35-.27-.13-.09-.25-.2-.39-.33-.31-.28-.63-.56-.72-.66l2.34,1.88Z"/>
        <path class="cls-2" d="M14.54,8.74l-2.21-.91s.14,0,.35.03c.16.03.33.06.5.11.05.02.11.05.16.06.11.05.24.11.36.17.08.05.17.09.25.16.09.06.19.13.31.19.17.11.28.19.28.19Z"/>
        <path class="cls-4" d="M23.94,11.09c-1.15-.26-2.67.16-2.92,1-.31,1.05,1.33,2.91,2.95,2.69.96-.13,2.03-1,1.96-1.99-.08-1.02-1.33-1.55-1.99-1.7Z"/>
      </g>
    </g>
  </g>
</svg>