<?xml version="1.0" encoding="UTF-8"?>
<svg id="Calque_2" data-name="Calque 2" xmlns="http://www.w3.org/2000/svg" viewBox="0 0 69.21 38.78">
  <defs>
    <style>
      .cls-1 {
        fill: #ccc;
      }

      .cls-1, .cls-2, .cls-3 {
        stroke-width: 0px;
      }

      .cls-2 {
        fill: #666;
      }

      .cls-3 {
        fill: #e6e6e6;
      }
    </style>
  </defs>
  <g id="Calque_1-2" data-name="Calque 1">
    <g>
      <path class="cls-1" d="M34.6,0C16.13-.04,0,19.39,0,19.39c0,0,16.13,19.44,34.6,19.4,18.48.04,34.61-19.4,34.61-19.4C69.21,19.39,53.08-.04,34.6,0ZM34.6,34.48c-14.36.03-26.91-15.09-26.91-15.09,0,0,12.55-15.11,26.91-15.08,14.37-.03,26.92,15.08,26.92,15.08,0,0-12.55,15.12-26.92,15.09Z"/>
      <path class="cls-3" d="M34.61,9.3c-5.58,0-10.1,4.51-10.1,10.1s4.51,10.09,10.1,10.09,10.09-4.51,10.09-10.09-4.51-10.1-10.09-10.1ZM34.61,22.87c-1.92,0-3.48-1.56-3.48-3.48s1.56-3.48,3.48-3.48,3.48,1.56,3.48,3.48-1.57,3.48-3.48,3.48Z"/>
      <circle class="cls-2" cx="34.53" cy="19.39" r="4.74"/>
    </g>
  </g>
</svg>