<?xml version="1.0" encoding="UTF-8"?>
<svg id="Calque_2" data-name="Calque 2" xmlns="http://www.w3.org/2000/svg" viewBox="0 0 50.62 51.56">
  <defs>
    <style>
      .cls-1 {
        fill: #dfb999;
      }

      .cls-1, .cls-2, .cls-3, .cls-4, .cls-5 {
        stroke-width: 0px;
      }

      .cls-2 {
        fill: #ccc;
      }

      .cls-3 {
        fill: #b3b3b3;
      }

      .cls-4 {
        fill: #999;
      }

      .cls-5 {
        fill: #f6cba8;
      }
    </style>
  </defs>
  <g id="Calque_1-2" data-name="Calque 1">
    <rect class="cls-2" x="0" y="11.58" width="50.62" height="5.18" rx="2.59" ry="2.59"/>
    <rect class="cls-2" x="0" y="21.54" width="50.62" height="5.18" rx="2.59" ry="2.59"/>
    <rect class="cls-2" x="0" y="1.62" width="50.62" height="5.18" rx="2.59" ry="2.59" transform="translate(50.62 8.43) rotate(180)"/>
    <g>
      <circle class="cls-3" cx="8.02" cy="4.21" r="4.21"/>
      <circle class="cls-4" cx="8.02" cy="4.21" r="2.7"/>
    </g>
    <g>
      <circle class="cls-3" cx="33.74" cy="14.17" r="4.21"/>
      <circle class="cls-4" cx="33.74" cy="14.17" r="2.7"/>
    </g>
    <g>
      <circle class="cls-3" cx="16.33" cy="24.13" r="4.21"/>
      <circle class="cls-4" cx="16.33" cy="24.13" r="2.7"/>
    </g>
    <g>
      <path class="cls-5" d="M46.36,29.57c.86-.11,1.64.03,2.23.74.33.4.54.83.54,1.36-.01,2.88.21,5.78-.07,8.64-.25,2.6-.56,5.29-2.2,7.52-1.72,2.33-4.04,3.61-6.93,3.67-1.82.04-3.65.19-5.46-.24-3.56-.86-6.28-3.93-6.62-7.6-.23-2.54-1.32-4.71-2.75-6.75-.69-.99-1.38-1.98-2.08-2.97-.6-.85-1.19-1.72-1.81-2.55-.41-.55-.66-1.14-.65-1.83.32-1.71,1.44-2.48,2.95-2.06.47.13.76.47,1.09.79.44.43.88.85,1.32,1.28.98,1.27,2.23,2.29,3.25,3.52.51.62,1.02.96,1.85.88.42-.04.54-.16.54-.57-.02-1.28-.01-2.56-.02-3.84,0-2.2,0-4.4,0-6.6,0-1.46,0-2.93,0-4.39,0-.62.02-1.23.02-1.85,0-1.32.51-2.11,1.56-2.44,1.01-.32,1.86.05,2.6,1.12.19.47.24.96.24,1.47-.01,1.62,0,3.24,0,4.85,0,1.51,0,3.01,0,4.52-.84.15-1.11.46-1.11,1.27,0,2.06,0,4.11,0,6.17,0,.88.38,1.35,1.09,1.35.71,0,1.11-.46,1.11-1.34,0-1.96-.03-3.93.02-5.89.01-.68-.16-1.2-.71-1.58.31-.88,1.5-1.19,2.22-1.04.97.21,1.72,1.12,1.77,2.16.02.36.01.73.02,1.09-.83.15-1.11.46-1.11,1.27,0,1.35,0,2.69,0,4.04,0,.82.4,1.28,1.09,1.28.7,0,1.1-.45,1.11-1.27,0-1.26-.03-2.51.02-3.77.03-.68-.16-1.2-.71-1.58.75-1.39,2.76-1.44,3.59-.09.23.37.38.77.41,1.22,0,.37,0,.73,0,1.1-.61.02-1.04.34-1.08.93-.06.84-.06,1.69,0,2.53.04.56.44.89,1.01.93.56.04,1.15-.33,1.13-.87-.05-1.24.48-2.61-.65-3.66.27-.5.76-.7,1.22-.94Z"/>
      <path class="cls-1" d="M36.33,26.23c.56.38.73.91.71,1.58-.04,1.96-.01,3.93-.02,5.89,0,.87-.39,1.34-1.11,1.34-.71,0-1.09-.47-1.09-1.35,0-2.06,0-4.11,0-6.17,0-.82.27-1.12,1.11-1.27.13,0,.26-.01.39-.02Z"/>
      <path class="cls-1" d="M40.73,28.43c.56.38.74.9.71,1.58-.05,1.25,0,2.51-.02,3.77,0,.82-.41,1.27-1.11,1.27-.69,0-1.09-.46-1.09-1.28,0-1.35,0-2.69,0-4.04,0-.82.27-1.12,1.11-1.27.13,0,.26-.01.39-.02Z"/>
      <path class="cls-1" d="M44.73,30.65c.13-.05.27-.09.4-.14,1.13,1.05.61,2.42.65,3.66.02.54-.56.91-1.13.87-.58-.04-.98-.36-1.01-.93-.06-.84-.06-1.69,0-2.53.05-.59.47-.91,1.08-.93Z"/>
    </g>
  </g>
</svg>