<?xml version="1.0" encoding="UTF-8"?>
<svg id="Calque_2" data-name="Calque 2" xmlns="http://www.w3.org/2000/svg" viewBox="0 0 29.47 29.47">
  <defs>
    <style>
      .cls-1 {
        fill: #333;
        stroke: #000;
        stroke-linecap: round;
        stroke-linejoin: round;
      }

      .cls-2 {
        fill: #ccc;
      }

      .cls-2, .cls-3, .cls-4 {
        stroke-width: 0px;
      }

      .cls-3 {
        fill: #666;
      }

      .cls-4 {
        fill: #999;
      }
    </style>
  </defs>
  <g id="Calque_1-2" data-name="Calque 1">
    <g>
      <g>
        <polygon class="cls-1" points="5.38 26.85 2.65 24.11 3.64 20.35 7.39 19.34 10.14 22.08 10.16 22.08 9.15 25.84 9.13 25.84 5.38 26.85"/>
        <polygon class="cls-4" points="5.38 26.85 2.65 24.11 3.64 20.35 7.39 19.34 10.14 22.08 10.16 22.08 9.15 25.84 9.13 25.84 5.38 26.85"/>
        <path class="cls-2" d="M10.16,22.08h-.01s-1.01,3.76-1.01,3.76h.01s1.01-3.76,1.01-3.76Z"/>
        <path class="cls-3" d="M11.05,27.76l1.71-6.38-.36-.36,8.14-8.14.3.3,4.23.37,4.27-3.98.14-5.03-3.41,3.41-4.54-4.54L24.93.01h0s-.14.02-.14.02l-4.65.14-4.02,4.22.16,4.25.31.3-8.14,8.14-.36-.36-6.39,1.71-1.71,6.38,4.68,4.67,6.38-1.71ZM2.63,24.11l1-3.76h.01s3.74-1.01,3.74-1.01l2.76,2.75h.01s-1.01,3.76-1.01,3.76h-.01s-3.76,1.01-3.76,1.01l-2.75-2.75Z"/>
        <path class="cls-4" d="M23.36,11.72l-5.2-5.44c-.27-.29-.27-.73,0-1.02l.16-.16c.27-.29.7-.29.97,0l5.2,5.44c.25.29.25.73,0,1l-.18.18c-.25.26-.7.26-.95,0Z"/>
        <rect class="cls-4" x="8" y="13.69" width="11.51" height=".34" transform="translate(-5.78 13.78) rotate(-45)"/>
        <rect class="cls-4" x="9.92" y="15.61" width="11.51" height=".34" transform="translate(-6.57 15.7) rotate(-45)"/>
        <polygon class="cls-2" points="5.85 25.08 4.41 23.63 4.93 21.64 6.92 21.11 8.38 22.56 8.38 22.56 7.85 24.55 7.84 24.55 5.85 25.08"/>
      </g>
      <g>
        <polygon class="cls-1" points="24.09 26.85 26.83 24.11 25.83 20.35 22.08 19.34 19.33 22.08 19.31 22.08 20.33 25.84 20.34 25.84 24.09 26.85"/>
        <polygon class="cls-4" points="24.09 26.85 26.83 24.11 25.83 20.35 22.08 19.34 19.33 22.08 19.31 22.08 20.33 25.84 20.34 25.84 24.09 26.85"/>
        <path class="cls-2" d="M19.31,22.08h.01s1.01,3.76,1.01,3.76h-.01s-1.01-3.76-1.01-3.76Z"/>
        <path class="cls-3" d="M18.42,27.76l-1.71-6.38.36-.36-8.14-8.14-.3.3-4.23.37L.14,9.58l-.14-5.03,3.41,3.41L7.95,3.42,4.54.01h0s.14.02.14.02l4.65.14,4.02,4.22-.16,4.25-.31.3,8.14,8.14.36-.36,6.39,1.71,1.71,6.38-4.68,4.67-6.38-1.71ZM26.84,24.11l-1-3.76h-.01s-3.74-1.01-3.74-1.01l-2.76,2.75h-.01s1.01,3.76,1.01,3.76h.01s3.76,1.01,3.76,1.01l2.75-2.75Z"/>
        <path class="cls-4" d="M6.12,11.72l5.2-5.44c.27-.29.27-.73,0-1.02l-.16-.16c-.27-.29-.7-.29-.97,0l-5.2,5.44c-.25.29-.25.73,0,1l.18.18c.25.26.7.26.95,0Z"/>
        <rect class="cls-4" x="9.97" y="13.69" width="11.51" height=".34" transform="translate(17.04 34.78) rotate(-135)"/>
        <rect class="cls-4" x="8.05" y="15.61" width="11.51" height=".34" transform="translate(12.4 36.7) rotate(-135)"/>
        <polygon class="cls-2" points="23.62 25.08 25.07 23.63 24.54 21.64 22.55 21.11 21.09 22.56 21.09 22.56 21.62 24.55 21.63 24.55 23.62 25.08"/>
      </g>
    </g>
  </g>
</svg>