<?xml version="1.0" encoding="UTF-8"?>
<svg id="Calque_2" data-name="Calque 2" xmlns="http://www.w3.org/2000/svg" viewBox="0 0 33.67 33.67">
  <defs>
    <style>
      .cls-1 {
        fill: #fff;
        stroke: #000;
        stroke-miterlimit: 10;
      }

      .cls-2, .cls-3, .cls-4, .cls-5, .cls-6 {
        stroke-width: 0px;
      }

      .cls-3 {
        fill: gray;
      }

      .cls-4 {
        fill: #ccc;
      }

      .cls-5 {
        fill: #666;
      }

      .cls-6 {
        fill: #333;
      }
    </style>
  </defs>
  <g id="Calque_1-2" data-name="Calque 1">
    <circle class="cls-4" cx="16.84" cy="16.84" r="16.84"/>
    <path class="cls-1" d="M25.1,17.56l-10.66,8.94c-.56.47-1.5.14-1.5-.52v-7.09H4.71c-.3,0-.55-.24-.55-.54v-2.63c0-.3.25-.55.55-.55h8.23v-7.09c0-.65.94-.98,1.5-.52l10.66,8.95c.35.29.35.76,0,1.05Z"/>
    <g>
      <path class="cls-6" d="M25.63,17.65c-.24.2-.42.62-.51.92h-5.2c-.08-.04,0-1.08-1.08-1.22.02-.04.21-.03.29-.02.35.03.69.13,1.04.13t.02.02c0,.2.18.13.31.18q2.57,0,5.14-.02Z"/>
      <path class="cls-6" d="M29.07,18.61h-1.2c-.14-1.05-1.4-1.66-2.24-.96q-2.57,0-5.14.02c-.13-.06-.31.01-.31-.18t-.02-.02c-.35,0-.69-.1-1.04-.13-.07,0-.27-.02-.29.02-.28-.04-.52,0-.77.13-.06-.06-.22,0-.3,0-.29.01-.58,0-.88,0,0-.09-.04-.19-.04-.26-.23-.1-.52,0-.44-.18.02-.04.23,0,.67-.54.34-.02.68.02,1.02.02,2.88,0,5.77,0,8.66-.02.14.12.39.2.58.22.01,0,.03-.05.14-.04.31.04.62.1.93.15-.1.12-.36.42-.18.44,0,0,.02.06.02.18-.03.66,0,.84.6.84.06,0,.13,0,.2,0,0,.14,0,.16.02.27,0,.01,0,.03,0,.04Z"/>
      <path class="cls-6" d="M18.06,17.49c-.15.07-.35.23-.46.35-.19.21-.35.55-.4.83-.45,0-.9.02-1.34.02-.05-.03.08-.43.11-.44.4-.01.82.12.89-.41.02-.12.02-.23.02-.35.29,0,.58.01.88,0,.08,0,.24-.06.3,0Z"/>
      <path class="cls-5" d="M26.62,16.1c-.43.02-.86,0-1.29,0h-.35c-1.49,0-2.97.02-4.46-.03q.01-1.02.03-2.04c.81.05,3.91-.06,4.35,0,.03,0,.22.07.26.09.26.15,1.15,1.64,1.47,1.96Z"/>
      <path class="cls-6" d="M16.47,17.99h-.74q0-.23,0-.45c.05-.06.08,0,.09,0,.22-.04.44-.01.66-.02.02.01,0,.1,0,.13,0,.04,0,.34,0,.35Z"/>
      <path class="cls-6" d="M26.12,20.25s.03.01.04.02c0,0,.01,0,.02,0-.02,0-.04-.01-.06-.02ZM29.77,18.22c-.19-.8.26-1-.71-1.06-.06,0-.2-.01-.35-.01-.23,0-.47.03-.49.14,0,0,.02.06.02.18-.03.66,0,.84.6.84.06,0,.13,0,.2,0,0,.14,0,.16.02.27,0,.01,0,.03,0,.04h-1.2c-.14-1.05-1.4-1.66-2.24-.96-.24.2-.42.62-.51.92h-5.2c-.08-.04,0-1.08-1.08-1.22-.28-.04-.52,0-.77.13-.15.07-.35.23-.46.35-.19.21-.35.55-.4.83-.45,0-.9.02-1.34.02-.05-.03.08-.43.11-.44.4-.01.82.12.89-.41.02-.12.02-.23.02-.35,0-.09-.04-.19-.04-.26-.23-.1-.52,0-.44-.18.02-.04.23,0,.67-.54.34-.02.68.02,1.02.02,2.88,0,5.77,0,8.66-.02.14.12.39.2.58.22.01,0,.03-.05.14-.04.31.04.62.1.93.15.08.01.21.04.34.07.23.05.46.11.5.11.39.03.31-.32.15-.42-.06-.03-.22-.07-.43-.11-.56-.11-1.48-.22-1.76-.31-.37-.44-1.33-1.99-1.58-2.26-.11-.12-.23-.2-.36-.25h-.73s-.05.01-.08,0h-7.84c-.11.06-.2.14-.28.25-.28.4-.65,2.45-.72,2.56-.01.02-.26.12-.13.37.15.27.73,0,.59.29-.05.1-.57-.13-.74.26.06.32-.17.84.22,1-.15.88.81.5,1.67.58,0,.02,0,.04.01.06,0-.03,0-.07,0-.1,0-.75.61-1.36,1.36-1.36s1.36.61,1.36,1.36h0q2.57,0,5.14,0s.01.06.01.08c0-.03,0-.06,0-.08,0-.75.61-1.36,1.36-1.36s1.36.61,1.36,1.36c0,.06,0,.12-.01.18.01-.05.02-.09.03-.14.48-.1,1.62.28,1.64-.38,0-.05,0-.1-.01-.16q.15-.11.29-.22ZM20.54,14.04c.81.05,3.91-.06,4.35,0,.03,0,.22.07.26.09.26.15,1.15,1.64,1.47,1.96-.43.02-.86,0-1.29,0h-.35c-1.49,0-2.97.02-4.46-.03q.01-1.02.03-2.04ZM17.07,14.94c.04-.14.08-.27.15-.41.08-.17.15-.36.34-.44v-.04h2.57v2.06h-2.57c-.27,0-.5,0-.53,0-.28-.08-.01-.96.05-1.16ZM15.72,17.53c.05-.06.08,0,.09,0,.22-.04.44-.01.66-.02.02.01,0,.1,0,.13,0,.04,0,.34,0,.35h-.74q0-.23,0-.45ZM17.78,20.03s0,.01,0,.02c.01,0,.02,0,.03,0,0,0-.02-.01-.03-.02Z"/>
      <path class="cls-2" d="M27.64,18.94c0,.05,0,.1-.01.15,0,0,0,0,0,0-.07.25-.2.53-.38.7-.12.11-.26.16-.4.23,0,0,0,0,0,0-.08.03-.17.04-.26.05h0s-.05,0-.07,0c-.08,0-.16,0-.24-.03-.02,0-.04,0-.05-.02-.02,0-.04,0-.06-.02-.12-.04-.22-.09-.32-.17-.15-.11-.27-.25-.35-.42-.06-.13-.1-.27-.11-.42,0,0,0,0,0,0,0-.02,0-.05,0-.07,0-.63.51-1.14,1.14-1.14s1.14.51,1.14,1.14Z"/>
      <path class="cls-3" d="M27.39,18.94s0,.08,0,.12c0,0,0,0,0,0-.05.2-.15.41-.3.54-.09.08-.2.13-.31.18,0,0,0,0,0,0-.06.02-.13.03-.21.04h0s-.04,0-.06,0c-.06,0-.13,0-.19-.02-.01,0-.03,0-.04-.01-.02,0-.03,0-.04-.01-.09-.03-.17-.07-.25-.13-.12-.08-.21-.2-.27-.33-.05-.1-.08-.21-.09-.33,0,0,0,0,0,0,0-.02,0-.04,0-.06,0-.49.4-.89.89-.89s.89.4.89.89Z"/>
      <path class="cls-2" d="M19.77,18.94c0,.05,0,.1-.01.15,0,0,0,0,0,0-.07.25-.2.53-.38.7-.12.11-.26.16-.4.23,0,0,0,0,0,0-.08.03-.17.04-.26.05h0s-.05,0-.07,0c-.08,0-.16,0-.24-.03-.02,0-.04,0-.05-.02-.02,0-.04,0-.06-.02-.12-.04-.22-.09-.32-.17-.15-.11-.27-.25-.35-.42-.06-.13-.1-.27-.11-.42,0,0,0,0,0,0,0-.02,0-.05,0-.07,0-.63.51-1.14,1.14-1.14s1.14.51,1.14,1.14Z"/>
      <path class="cls-3" d="M19.53,18.94s0,.08,0,.12c0,0,0,0,0,0-.05.2-.15.41-.3.54-.09.08-.2.13-.31.18,0,0,0,0,0,0-.06.02-.13.03-.21.04h0s-.04,0-.06,0c-.06,0-.13,0-.19-.02-.01,0-.03,0-.04-.01-.02,0-.03,0-.04-.01-.09-.03-.17-.07-.25-.13-.12-.08-.21-.2-.27-.33-.05-.1-.08-.21-.09-.33,0,0,0,0,0,0,0-.02,0-.04,0-.06,0-.49.4-.89.89-.89s.89.4.89.89Z"/>
      <path class="cls-5" d="M20.13,14.05v2.06h-2.57c-.27,0-.5,0-.53,0-.28-.08-.01-.96.05-1.16.04-.14.08-.27.15-.41.08-.17.15-.36.34-.44v-.04h2.57Z"/>
      <path class="cls-6" d="M29.84,18.18c-.05.11.02.36-.35.42,0-.05,0-.1-.01-.16q.15-.11.29-.22c-.19-.8.26-1-.71-1.06-.06,0-.2-.01-.35-.01-.23,0-.47.03-.49.14-.17-.02.08-.32.18-.44.08.01.21.04.34.07.23.05.46.11.5.11.39.03.31-.32.15-.42-.06-.03-.22-.07-.43-.11t0,0s.57.09.65.18c.08.09.29,1.38.23,1.51Z"/>
      <path class="cls-6" d="M29.25,17.03s-.27-.06-.5-.11c.05-.23.12-.4.21-.42.21.04.37.08.43.11.16.1.25.45-.15.42Z"/>
      <path class="cls-6" d="M29.48,18.44c.01.06.02.11.01.16-.08.01-.17.02-.29.01-.05,0-.1-.02-.14-.04-.09-.05-.16-.14-.22-.26-.14-.3-.17-.78-.13-1.16.15,0,.29,0,.35.01.97.06.51.26.71,1.06q-.15.11-.29.22Z"/>
    </g>
  </g>
</svg>