<?xml version="1.0" encoding="UTF-8"?>
<svg id="Calque_2" data-name="Calque 2" xmlns="http://www.w3.org/2000/svg" viewBox="0 0 57.79 44.01">
  <defs>
    <style>
      .cls-1 {
        fill: #dfb999;
      }

      .cls-1, .cls-2, .cls-3, .cls-4, .cls-5 {
        stroke-width: 0px;
      }

      .cls-2 {
        fill: #ccc;
      }

      .cls-3 {
        fill: #b3b3b3;
      }

      .cls-4 {
        fill: #999;
      }

      .cls-5 {
        fill: #f6cba8;
      }
    </style>
  </defs>
  <g id="Calque_1-2" data-name="Calque 1">
    <rect class="cls-2" x="0" y="3.28" width="57.79" height="5.28" rx="2.64" ry="2.64"/>
    <rect class="cls-2" x="0" y="13.43" width="57.79" height="5.28" rx="2.64" ry="2.64"/>
    <g>
      <circle class="cls-3" cx="41" cy="5.92" r="5.92"/>
      <circle class="cls-4" cx="41" cy="5.92" r="3.79"/>
    </g>
    <g>
      <circle class="cls-3" cx="9.9" cy="16.07" r="5.92"/>
      <circle class="cls-4" cx="9.9" cy="16.07" r="3.79"/>
    </g>
    <path class="cls-5" d="M53.23,21.61c.88-.11,1.67.03,2.27.76.34.41.55.84.55,1.39-.01,2.93.21,5.89-.07,8.8-.25,2.65-.57,5.39-2.24,7.66-1.75,2.38-4.11,3.68-7.07,3.74-1.85.04-3.72.2-5.56-.25-3.63-.88-6.4-4.01-6.75-7.75-.24-2.59-1.35-4.8-2.8-6.88-.71-1.01-1.41-2.02-2.12-3.03-.61-.87-1.21-1.75-1.85-2.6-.41-.56-.67-1.16-.66-1.86.32-1.74,1.47-2.53,3.01-2.1.48.13.78.48,1.11.81.45.44.9.87,1.35,1.3,1,1.29,2.27,2.33,3.31,3.59.52.63,1.04.98,1.88.89.43-.04.55-.17.55-.58-.02-1.3-.01-2.61-.02-3.91,0-2.24,0-4.48,0-6.72,0-1.49,0-2.98,0-4.47,0-.63.02-1.26.02-1.88,0-1.34.52-2.15,1.59-2.49,1.03-.32,1.9.05,2.65,1.15.19.48.25.98.24,1.5-.01,1.65,0,3.3,0,4.95,0,1.54,0,3.07,0,4.61-.85.16-1.13.46-1.13,1.3,0,2.09,0,4.19,0,6.28,0,.9.39,1.37,1.11,1.38.73,0,1.13-.47,1.13-1.36,0-2-.03-4,.02-6,.01-.69-.16-1.22-.73-1.61.32-.9,1.53-1.22,2.27-1.06.99.21,1.75,1.14,1.8,2.2.02.37.01.74.02,1.11-.85.16-1.13.46-1.13,1.3,0,1.37,0,2.75,0,4.12,0,.84.41,1.3,1.11,1.31.71,0,1.12-.46,1.13-1.29,0-1.28-.03-2.56.02-3.84.03-.69-.16-1.22-.73-1.61.77-1.42,2.81-1.47,3.66-.09.23.38.39.79.42,1.24,0,.37,0,.74,0,1.12-.62.02-1.05.34-1.1.95-.07.86-.06,1.72,0,2.58.04.57.44.9,1.03.94.57.04,1.17-.34,1.15-.89-.05-1.27.49-2.66-.67-3.73.27-.51.77-.72,1.25-.96Z"/>
    <path class="cls-1" d="M43.02,18.21c.57.39.74.92.73,1.61-.04,2-.01,4-.02,6,0,.89-.4,1.37-1.13,1.36-.72,0-1.11-.48-1.11-1.38,0-2.09,0-4.19,0-6.28,0-.83.28-1.14,1.13-1.3.13,0,.26-.01.39-.02Z"/>
    <path class="cls-1" d="M47.49,20.44c.57.39.75.92.73,1.61-.05,1.28,0,2.56-.02,3.84,0,.83-.42,1.3-1.13,1.29-.7,0-1.11-.47-1.11-1.31,0-1.37,0-2.75,0-4.12,0-.83.28-1.14,1.13-1.3.13,0,.26-.01.39-.02Z"/>
    <path class="cls-1" d="M51.57,22.71c.14-.05.27-.09.41-.14,1.16,1.07.62,2.46.67,3.73.02.55-.57.92-1.15.89-.59-.04-.99-.37-1.03-.94-.06-.86-.06-1.72,0-2.58.05-.61.48-.93,1.1-.95Z"/>
  </g>
</svg>