<?xml version="1.0" encoding="UTF-8"?>
<svg id="Calque_2" data-name="Calque 2" xmlns="http://www.w3.org/2000/svg" viewBox="0 0 34.77 34.77">
  <defs>
    <style>
      .cls-1 {
        fill: #333;
      }

      .cls-1, .cls-2 {
        stroke-linecap: round;
        stroke-linejoin: round;
      }

      .cls-1, .cls-2, .cls-3 {
        stroke: #000;
      }

      .cls-2 {
        stroke-width: .5px;
      }

      .cls-2, .cls-4 {
        fill: #b3b3b3;
      }

      .cls-3 {
        fill: #fff;
      }

      .cls-3, .cls-5 {
        stroke-miterlimit: 10;
      }

      .cls-5 {
        fill: #ccc;
        stroke: #fff;
      }

      .cls-4 {
        stroke-width: 0px;
      }
    </style>
  </defs>
  <g id="Calque_1-2" data-name="Calque 1">
    <g>
      <rect class="cls-5" x=".5" y=".5" width="33.77" height="33.77" rx="3.67" ry="3.67"/>
      <g>
        <polygon class="cls-1" points="27.1 25.41 24.9 27.61 21.89 26.81 21.08 23.8 23.28 21.59 26.29 22.4 27.1 25.41"/>
        <polygon class="cls-4" points="27.1 25.41 24.9 27.61 21.89 26.81 21.08 23.8 23.28 21.59 26.29 22.4 27.1 25.41"/>
        <path class="cls-3" d="M27.82,20.86l-5.11-1.37-.29.29-6.52-6.52.24-.24.3-3.39-3.19-3.42-4.03-.11,2.73,2.73-3.64,3.64-2.73-2.73h-.01l.03.11.11,3.73,3.38,3.22,3.41-.13.24-.25,6.52,6.52-.29.29,1.37,5.12,5.11,1.37,3.74-3.75-1.37-5.11ZM13.83,11.62l-2.67,2.67c-.14.14-.36.14-.5,0l-.08-.08c-.14-.14-.14-.36,0-.5l2.67-2.67c.14-.13.36-.13.49,0l.09.09c.13.13.13.36,0,.49ZM24.89,27.61l-3.01-.8-.81-3.01,2.2-2.21,3.01.81.81,3.01-2.2,2.2Z"/>
        <path class="cls-1" d="M13.84,11.62l-2.67,2.67c-.14.14-.36.14-.5,0l-.08-.08c-.14-.14-.14-.36,0-.5l2.67-2.67c.14-.13.36-.13.49,0l.09.09c.13.13.13.36,0,.49Z"/>
        <rect class="cls-2" x="16.17" y="15.2" width="2.43" height="5.42" transform="translate(-7.57 17.54) rotate(-45)"/>
        <path class="cls-4" d="M13.84,11.62l-2.67,2.67c-.14.14-.36.14-.5,0l-.08-.08c-.14-.14-.14-.36,0-.5l2.67-2.67c.14-.13.36-.13.49,0l.09.09c.13.13.13.36,0,.49Z"/>
      </g>
    </g>
  </g>
</svg>