<?xml version="1.0" encoding="UTF-8"?>
<svg id="Calque_2" data-name="Calque 2" xmlns="http://www.w3.org/2000/svg" viewBox="0 0 33.73 33.73">
  <defs>
    <style>
      .cls-1 {
        fill: #ccc;
        stroke: #fff;
        stroke-miterlimit: 10;
      }

      .cls-2 {
        fill: #fff;
      }

      .cls-2, .cls-3 {
        stroke-width: 0px;
      }

      .cls-3 {
        fill: red;
      }
    </style>
  </defs>
  <g id="Calque_1-2" data-name="Calque 1">
    <rect class="cls-1" x="4.32" y="4.32" width="25.08" height="25.08" rx="3.31" ry="3.31" transform="translate(-6.99 16.87) rotate(-45)"/>
    <g>
      <rect class="cls-3" x="8.01" y="7.4" width="18.32" height="18.32" rx="3.31" ry="3.31" transform="translate(-6.68 16.99) rotate(-45)"/>
      <path class="cls-2" d="M17.17,23.55c-.77,0-1.28-.15-1.53-.45s-.38-.79-.38-1.48c0-.29.03-.58.09-.87.06-.29.22-.53.49-.72.26-.19.71-.29,1.35-.29.78,0,1.29.15,1.53.44.24.29.36.79.36,1.49,0,.29-.03.58-.08.87s-.21.53-.48.72c-.26.19-.71.29-1.35.29ZM17.17,18.67c-.6,0-1.02-.08-1.27-.24-.25-.16-.4-.36-.46-.61-.05-.24-.08-.5-.08-.76v-5.86c0-.26.03-.52.08-.77.05-.25.21-.46.46-.63.25-.17.68-.25,1.29-.25s1.04.08,1.28.25c.24.17.39.38.45.64.05.26.08.52.08.78v5.86c0,.26-.03.52-.08.76-.05.24-.21.44-.46.6-.25.15-.68.23-1.29.23Z"/>
    </g>
  </g>
</svg>