<?xml version="1.0" encoding="UTF-8"?>
<svg id="Calque_2" data-name="Calque 2" xmlns="http://www.w3.org/2000/svg" viewBox="0 0 34.67 34.67">
  <defs>
    <style>
      .cls-1 {
        fill: #ccc;
        stroke: #fff;
        stroke-miterlimit: 10;
      }

      .cls-2 {
        fill: #f6ed75;
      }

      .cls-2, .cls-3, .cls-4, .cls-5, .cls-6, .cls-7, .cls-8, .cls-9, .cls-10, .cls-11, .cls-12, .cls-13, .cls-14, .cls-15, .cls-16, .cls-17, .cls-18, .cls-19, .cls-20, .cls-21, .cls-22, .cls-23, .cls-24, .cls-25, .cls-26, .cls-27, .cls-28, .cls-29, .cls-30, .cls-31, .cls-32 {
        stroke-width: 0px;
      }

      .cls-3 {
        fill: #7b9b23;
      }

      .cls-4 {
        fill: #2b1102;
      }

      .cls-5 {
        fill: #298d6c;
      }

      .cls-6 {
        fill: #9b969f;
      }

      .cls-7 {
        fill: #868676;
      }

      .cls-8 {
        fill: #95af17;
      }

      .cls-9 {
        fill: #42b6a5;
      }

      .cls-10 {
        fill: #110902;
      }

      .cls-11 {
        fill: #143301;
      }

      .cls-12 {
        fill: #070d09;
      }

      .cls-13 {
        fill: #a89f10;
      }

      .cls-14 {
        fill: #171701;
      }

      .cls-15 {
        fill: #caeae2;
      }

      .cls-16 {
        fill: #e1e3e7;
      }

      .cls-17 {
        fill: #d3c4bb;
      }

      .cls-18 {
        fill: #d4d8d4;
      }

      .cls-19 {
        fill: #aeb2ab;
      }

      .cls-20 {
        fill: #a4adb7;
      }

      .cls-21 {
        fill: #ced428;
      }

      .cls-22 {
        fill: #cecdd0;
      }

      .cls-23 {
        fill: #c2d3c5;
      }

      .cls-24 {
        fill: #b8b8b9;
      }

      .cls-25 {
        fill: #a0c39c;
      }

      .cls-26 {
        fill: #8e8886;
      }

      .cls-27 {
        fill: #978d9f;
      }

      .cls-28 {
        fill: #64c499;
      }

      .cls-29 {
        fill: #ead74d;
      }

      .cls-30 {
        fill: #e8efe4;
      }

      .cls-31 {
        fill: #fefdfa;
      }

      .cls-32 {
        fill: #032408;
      }
    </style>
  </defs>
  <g id="Calque_1-2" data-name="Calque 1">
    <circle class="cls-1" cx="17.34" cy="17.34" r="16.84"/>
    <g>
      <path class="cls-7" d="M7.83,11.91c.08,0,.14-.02.13.06-.11.1-.26.82-.3.85-.04.03-.68.03-.07.15-.21,1.26-.77-1,.24-1.06Z"/>
      <path class="cls-12" d="M21.17,6.72c1.27-.19,2.65,1.05,2.35,1.98-.23.73-1.56.27-2.11.48l.06,1.54c.48.21,3.51-.5,3.89.63.65.07,1.5-.24,1.95.39.54.75,1.04,4.56,1.08,5.67-.88-.08-.38.42-.54.54-.06.04-.96-.07-1.02.06v2.19c.84.12.51,1.06.61,1.13.21.02.65-.03.78,0,.35.09.42,1.38-.15,1.56-.27.08-.67-.02-.72.09.33,2.98-2.33,2.13-2.45,2.3-.09.41.23,1.9-.28,2.02-.42.1-5.71-.09-6.82-.04-.09.11-.27.2-.41.22-.5.08-3.94-.06-4.97,0l-.07-1.19c-1.04.26-1.96-.48-2.48-1.33l-1.65-.06c.09-1-.04-3.81.04-4.37.05-.38.32-.74.63-.96v-1.56l-1.02-.06c-.12-.05,0-.51-.07-.56-.06-.04-.67.07-.72-.06-.05-.73.2-3.07.11-3.48-.05-.23-.67-.54-.3-1.59.46-1.3,1.89-.82,2.95-.91.03-.02-.04-.51.33-.59.32-.07,2.76.07,3.47-.02l-.02-1.61c-.62-.08-2.11.24-2.47-.35-.3-.5.04-1.19.61-1.28h8.45c.12-.39.56-.72.96-.78Z"/>
      <path class="cls-24" d="M14.16,9.13h6.71l.06,1.58-6.8.02.04-1.59Z"/>
      <path class="cls-23" d="M10.9,11.2h13.16c.14.06.09.14.09.28l-13.29.06c-.16-.11-.08-.22.04-.33Z"/>
      <path class="cls-29" d="M26.64,12.39c.33,1.51.55,3.04.74,4.58.4-.09.28-.5.3-.82-.18-.8-.23-1.65-.41-2.45-.03-.15-.32-.7-.15-.76.18.58.69,3.11.67,3.58-.02.3-.18.49-.46.54-3.57.03-7.14-.15-10.71-.11-.02,0-.1.11-.11.11-1.11.01-8.11.05-8.53-.04-.1-.02-.21-.14-.28-.22,0-.08.16.13.32.15.39.06,2.25-.01,2.97.04.81-.9,1.26-2.13,1.43-3.32.04-.29.11-1.08.07-1.32l14.16.04Z"/>
      <g>
        <path class="cls-29" d="M11.48,11.91c.54.58-.1,2.73-.48,3.39-.65,1.15-2.14,1.79-3.04.56.05-.64.21-1.26.3-1.89.02-.14-.04-.19-.04-.22,0-.03.07,0,.07-.04.09-.6.17-1.2.26-1.8.14-.06,2.53,0,2.93,0Z"/>
        <path class="cls-29" d="M12.29,11.91c.01.16.16.29.19.44.04.24-.03,1.03-.07,1.32-.16,1.19-.62,2.41-1.43,3.32-.71-.05-2.57.02-2.97-.04-.15-.02-.31-.23-.32-.15-.26-.31-.19-.65-.15-1.02.04-.34.76-3.57.85-3.74.07-.14.09-.11.15-.13-.09.6-.17,1.2-.26,1.8,0,.03-.07,0-.07.04,0,.03.06.08.04.22-.09.63-.24,1.25-.3,1.89.89,1.23,2.39.59,3.04-.56.38-.66,1.02-2.81.48-3.39.27,0,.54,0,.82,0Z"/>
      </g>
      <path class="cls-2" d="M26.53,11.87c.08.17.08.35.11.52l-14.16-.04c-.03-.16-.17-.28-.19-.44,1.81-.02,13.54-.17,14.24-.04Z"/>
      <path class="cls-29" d="M27.12,12.95c-.17.06.11.61.15.76.18.8.23,1.64.41,2.45-.01.32.1.72-.3.82-.2-1.53-.41-3.07-.74-4.58-.04-.17-.03-.35-.11-.52.37.07.5.76.59,1.08Z"/>
      <g>
        <path class="cls-15" d="M16.83,17.32c.07-.03.66.02.85,0,.21.37-.04,1.05-.33.48.02.29-.47.14-.56.04-.12-.14-.04-.49.04-.52Z"/>
        <path class="cls-30" d="M16.72,17.91c.4.31.84.23,1.04.26.68.12-.97.71-1.04-.26Z"/>
      </g>
      <g>
        <path class="cls-6" d="M11.72,8.09c.54-.14,9.71.12,11.16.04.36.32.02.42-.33.44-1.42-.11-10.31.12-10.82-.04-.15-.05-.27-.37,0-.44Z"/>
        <path class="cls-27" d="M21.39,7.24c.17-.01.23.24.11.3-.32.14-.36-.28-.11-.3Z"/>
        <path class="cls-26" d="M22.25,7.53c.13-.05.19.18.07.22-.13.05-.19-.18-.07-.22Z"/>
      </g>
      <g>
        <path class="cls-15" d="M21.04,17.39c.15.12.12.16.11.41-.07.04-.26.11-.28.11-.36.01-.31-.8.17-.52Z"/>
        <path class="cls-31" d="M20.71,18.28c.1-.01.3.01.41-.22.19.04-.16.34-.24.37-.38.14-.72-.04-.91-.37.18-.05.18.31.74.22Z"/>
        <path class="cls-5" d="M21.15,17.95s-.03.1-.04.11c-.11.23-.31.21-.41.22v-.04c.16-.04.25-.04.22-.22.08-.02.15-.04.22-.07Z"/>
        <g>
          <path class="cls-32" d="M21.04,17.39c-.48-.28-.53.53-.17.52.01,0,.21-.07.28-.11,0,.05,0,.11,0,.15-.08.03-.15.05-.22.07-.14.04-.26-.12-.22.22v.04c-.56.08-.56-.27-.74-.22-.02-.04-.04-.09-.07-.11,0-.01,0-.02,0-.04,0,0,.07.01.07-.02.04-.51-.09-.3-.11-.32-.19-.09-1.44-.12-1.5-.07-.03.02-.04.21.02.22-.1.14-.17-.21-.06-.26.08-.04,1.34.03,1.63,0-.01-.26.58-.11,1.08-.15.03.01.01.07.02.07Z"/>
          <path class="cls-15" d="M20.06,17.36h.56c-.03.1,0,.48-.02.5-.05.07-.45-.04-.54.06v-.56Z"/>
          <path class="cls-28" d="M20.28,18.02c.15-.04.39,0,.28.2-.04.07-.33-.09-.28-.2Z"/>
          <path class="cls-9" d="M20.93,18.02c.03.19-.06.19-.22.22-.04-.34.09-.18.22-.22Z"/>
        </g>
      </g>
      <g>
        <path class="cls-16" d="M17.15,18.62c-.09.32-.32.42-.33.44l-.57-.33-.06.06c-.03.47-.05,1.04.52.54.27.17,1.4.21,1.65,0,.36-.3.18-.83.02-1.19h1.52c.04.15.36.4.52.44-.06.27-1.08.37-.61.74.14.11,1.55.1,1.78.04.62-.17.34-.81.46-1.26.23,0,.47,0,.7,0,.08.16.32.55.44.63v1.52c-1.54,0-7.84-.07-8.51,0-1.42.15-1.26,1.2-1.32,1.28-.02.02-.32.03-.35.02-.17-.08-.2-2,1.72-2.06.16-.13-.2-1.73.33-1.33.14.1-.36,1.48.48,1,.22-.49-.58-1.02.91-1.24.12.3.35.62.69.7Z"/>
        <path class="cls-16" d="M15.02,20.66h4.45l.02,1.91-4.43.02-.04-1.93Z"/>
        <path class="cls-24" d="M8.71,23.44h4c.08.05-.46.95-.78,1.04h-3.23v-1.04Z"/>
        <g>
          <path class="cls-6" d="M26.38,19.69c-.54-.1-2.92-.79-3.19-.96-.12-.08-.36-.47-.44-.63,1.19-.02,2.39.01,3.58,0,.09.04.06,1.4.06,1.59Z"/>
          <path class="cls-22" d="M26.38,19.69c0,.09.02.53-.02.56-1.06,0-2.11,0-3.17,0v-1.52c.27.18,2.65.86,3.19.96Z"/>
        </g>
        <path class="cls-16" d="M12.79,21.92c.18-.04,1.49.04,1.93,0v.7c-.26.05-1.63,0-1.71.04-.06.03-.22.5-.26.52-.5-.05-3.46.07-3.63,0-.13-.05-.11-.35-.07-.37.06-.05,1.49-.03,1.56,0,.04.02.2.59.59-.04,1.17-.02.68.04.69.17.01.17.96.2.78-.33-.03-.08-.2-.16-.28-.09-.1-.24.18-.55.41-.59Z"/>
        <path class="cls-22" d="M9.55,22.44c.08-.63-.13-1.77.04-2.34,1.4-.05.81.85.93,2.32-.03.04-.84.02-.96.02Z"/>
        <path class="cls-31" d="M12.14,22.07c-.19.37-.14.58-.17.59l-.87-.02c-.04-.58.06-1.76,0-2.17l.93-.02c.03.41.11.85.11,1.26,0,.12-.13.24,0,.35Z"/>
        <path class="cls-23" d="M8.94,17.43l7.21.06c-.32.06-.62.24-.95.28-.28.03-5.39.03-5.67,0-.27-.03-.47-.06-.59-.33Z"/>
        <path class="cls-22" d="M10.7,18.95s-.06.04.15.04c.6,0,1.22.03,1.82.04.15,0,.14-.04.15-.04.39,0,1.03.03.89.15-.17.07-.63.45-.74.59-.05,0-.03-.04-.04-.04l.13-.33c-.95.03-1.19-.26-1.5.78-.19,0-.39.09-.59,0-.07-.08-.13-.12-.2-.19-1.39-.51,1.18.16.89-.59h-1.59c-.06.07-.11.15-.17.22l-.15-.07s.07-.09.02-.15c-.37.09-.32.07-.35-.15.16.04.06-.13.24-.19.08-.02.64,0,.85,0,.03-.04.16-.07.2-.07Z"/>
        <path class="cls-24" d="M22.04,18.1c-.12.45.16,1.09-.46,1.26-.23.06-1.64.07-1.78-.04-.47-.37.55-.47.61-.74.45.12.75-.07.91-.48.24,0,.48,0,.72,0Z"/>
        <path class="cls-16" d="M9.88,19.58s-.29.49-.3.52c-.16.57.05,1.71-.04,2.34-.21,0-.7.04-.74-.06v-1.85c.07-.36.81-.79.93-1.02l.15.07Z"/>
        <path class="cls-16" d="M12.66,19.03c-.6,0-1.22-.04-1.82-.04l.02-.93h1.82l-.02.96Z"/>
        <path class="cls-16" d="M13.7,19.14c.14-.12-.49-.14-.89-.15l.06-.93h1.63l.02.95c-.03.08-.32-.07-.82.13Z"/>
        <path class="cls-16" d="M12.92,19.69s0,.04.04.04c-.4.51-.58,1.24-.41,1.87-.01.04-.25.15-.41.46-.13-.11,0-.23,0-.35,0-.41-.08-.85-.11-1.26l-.93.02c-.02-.12-.07-.24-.15-.33.2.09.4,0,.59,0,.13,0,.84.03.87,0,.03-.02.03-.27.02-.28-.01-.02-.53-.07-.24-.17.03-.01.68-.01.72,0Z"/>
        <path class="cls-16" d="M10.7,18.95s-.17.03-.2.07c-.21,0-.77-.02-.85,0-.18.05-.08.22-.24.19-.02-.12-.03-1.12.02-1.15h1.26l.02.89Z"/>
        <path class="cls-19" d="M21.87,17.47c.21-.15,4.46.1,5.06.02l-.5.24c-.55-.1-4.37.13-4.56,0-.03-.02-.03-.24,0-.26Z"/>
        <path class="cls-16" d="M10.49,24.77c.2.02.63-.03.74,0,.06.02.27.43,1.08.41.4,1.03-1.18.71-1.82-.41Z"/>
        <path class="cls-22" d="M27.05,22.44v-.7c.27,0,.53,0,.8,0l.06.65c-.05.12-.61.02-.85.06Z"/>
        <path class="cls-18" d="M19.89,17.91s0,.02,0,.04c0,.05,0,.15,0,.19h-1.52s-.04-.09-.07-.11l.06-.11h1.54Z"/>
        <path class="cls-25" d="M19.85,17.58c.11.28-.91.1-1.48.15-.06,0-.05-.2-.02-.22.06-.04,1.31-.02,1.5.07Z"/>
        <path class="cls-17" d="M14.42,20.95l.02.72c-1.25,0-.44.23-.02-.72Z"/>
        <g>
          <path class="cls-22" d="M21.97,26.18s.03.03.15.04c-.07.35-.27.48-.19.56-.46,0-.91.02-1.37,0,.08-.21.05-.54.26-.59.09-.02.27-.03.37-.04.26-.03.52.02.78.04Z"/>
          <path class="cls-24" d="M24.38,25.92c0,.12.02.83-.02.85-.44,0-.88,0-1.32,0,.09-.19.24-.34.3-.56.78.03.5-.06.52-.15.02-.07.03-.11.04-.19l.48.04Z"/>
          <path class="cls-20" d="M22.6,26.77c-.22,0-.44,0-.67,0-.08-.07.12-.2.19-.56.12.01.33.02.44-.04,0,.2-.01.4.04.59Z"/>
          <path class="cls-32" d="M21.15,25.59s.07.31.04.56c-.1,0-.28.01-.37.04-.22,0-.07-.46-.07-.59h.41Z"/>
          <path class="cls-21" d="M21.15,25.59h-.41s-.21-.4.02-.48c.64-.25.39.44.39.48Z"/>
          <path class="cls-11" d="M22.52,25.66c.02.18.03.33.04.52-.11.05-.32.05-.44.04.03-.14.03-.4.04-.56.09.02.26-.01.37,0Z"/>
          <path class="cls-29" d="M23.86,25.66h-.48c.04-.23,0-.62.35-.52.26.08.13.49.13.52Z"/>
          <path class="cls-11" d="M23.86,25.66s.05-.03.04.22c0,.08-.02.12-.04.19h-.52c.01-.05,0-.23.04-.41h.48Z"/>
          <path class="cls-29" d="M22.52,25.66c-.11-.01-.28.02-.37,0-.1-.02-.12-.03-.11-.15.05-.2.07-.43.35-.33.21.07.13.46.13.48Z"/>
          <path class="cls-8" d="M23.86,26.07c-.02.09.26.18-.52.15,0,0-.03-.01,0-.15h.52Z"/>
          <path class="cls-3" d="M22.15,25.66c-.01.15-.01.42-.04.56-.11-.01-.13-.04-.15-.04.04-.19.03-.5.07-.67-.01.12.01.12.11.15Z"/>
          <g>
            <path class="cls-16" d="M24.38,25.92l-.48-.04c.02-.25-.04-.21-.04-.22,0-.03.13-.44-.13-.52-.36-.1-.31.28-.35.52-.03.18-.03.35-.04.41-.03.14,0,.14,0,.15-.06.22-.2.36-.3.56-.15,0-.3,0-.44,0-.05-.2-.03-.39-.04-.59,0-.18-.01-.33-.04-.52,0-.03.08-.41-.13-.48-.28-.1-.3.14-.35.33-.04.16-.03.48-.07.67-.26-.02-.52-.06-.78-.04.03-.25-.04-.53-.04-.56,0-.04.25-.73-.39-.48-.23.09-.02.46-.02.48,0,.13-.15.59.07.59-.21.06-.18.38-.26.59-.1,0-.6.02-.63-.02l.02-6.1,4.43.02c-.03,1.75.04,3.5,0,5.25Z"/>
            <g>
              <path class="cls-12" d="M22.1,22.47c.58-.13.55.67,0,.56-.27-.06-.27-.49,0-.56Z"/>
              <path class="cls-10" d="M21.1,21.32c.55-.11.43.83-.07.56-.21-.12-.15-.51.07-.56Z"/>
              <path class="cls-12" d="M23.47,23.14c.58-.12.39.78-.07.56-.23-.11-.16-.51.07-.56Z"/>
              <path class="cls-4" d="M22.8,21.36c.45-.13.49.48.22.56-.41.12-.51-.47-.22-.56Z"/>
              <path class="cls-12" d="M22.1,23.7c.45-.12.51.45.19.52-.43.09-.47-.44-.19-.52Z"/>
              <path class="cls-12" d="M20.8,23.18c.46-.16.52.63.04.52-.23-.05-.2-.46-.04-.52Z"/>
              <path class="cls-14" d="M23.71,24.73c.08.4-.38.38-.33,0,.18.16.17,0,.33,0Z"/>
              <path class="cls-13" d="M23.71,24.73c-.17,0-.16.16-.33,0,.03-.27.29-.2.33,0Z"/>
              <path class="cls-10" d="M20.73,24.62c.17.11.1.64-.02.43-.01-.02,0-.35.02-.43Z"/>
            </g>
          </g>
        </g>
        <g>
          <path class="cls-24" d="M26.82,23.77c-.15.81-.81,1.06-1.56,1.04l.22-.54c.28,0,.21-.08.22-.09.05-.04.11-.03.11-.04.24.31.77-.09,1-.37Z"/>
          <g>
            <path class="cls-16" d="M27.05,21.73v.7c-.68.1-.07.48-.22,1.33-.23.28-.76.68-1,.37.25-.34-.16-.56-.43-.44-.15.06-.07.65.32.48-.01.01.06.08-.22.09l-.22.54c-.21,0-.42.04-.48-.06v-4.08l2.02-.02v.78c-.2.06-1.38-.16-1.28.2.05.16,1.1.08,1.52.09Z"/>
            <path class="cls-12" d="M25.47,22.62s.83-.13.61.35c-.04.08-.55.07-.57.06-.09-.04-.06-.39-.04-.41Z"/>
            <path class="cls-12" d="M25.82,24.14s-.06,0-.11.04c-.38.17-.46-.42-.32-.48.27-.12.68.11.43.44Z"/>
          </g>
        </g>
        <g>
          <path class="cls-24" d="M18.13,25.33l1.35.02-.02,1.43-1.35-.02.02-1.43Z"/>
          <g>
            <path class="cls-31" d="M17.95,22.99l1.54.06-.02,1.87-1.35-.02c.04-.65-.03-1.27-.17-1.91Z"/>
            <path class="cls-12" d="M18.8,23.73c.42-.06.36.66-.07.52-.2-.06-.18-.48.07-.52Z"/>
          </g>
        </g>
        <path class="cls-12" d="M12.92,19.69s-.69-.01-.72,0c-.29.1.23.15.24.17,0,.01,0,.26-.02.28-.04.03-.74,0-.87,0,.31-1.04.55-.74,1.5-.78l-.13.33Z"/>
        <g>
          <path class="cls-24" d="M18.37,18.14c.16.35.34.88-.02,1.19-.25.21-1.38.17-1.65,0,.23-.2.1-.25.11-.26.02-.02.24-.12.33-.44.48.12.95-.15,1.15-.59.03.02.06.08.07.11Z"/>
          <g>
            <path class="cls-12" d="M16.81,19.06s.11.06-.11.26c-.57.51-.55-.06-.52-.54l.06-.06.57.33Z"/>
            <path class="cls-31" d="M16.31,19.06c.12-.09.14.16.04.15-.09-.01-.07-.12-.04-.15Z"/>
          </g>
        </g>
        <g>
          <path class="cls-24" d="M14.48,25.51c.03.11.1.16.2.19.1.03,1.97.02,2.08,0,.22-.04.57-.26.78-.37.07.31-.06.66.09.63-.02.37.07,1.02-.39,1.11-.39.08-3.23.03-3.87,0,.05-.63-.11-1.42.11-2,.08.44.63.6,1,.44Z"/>
          <path class="cls-16" d="M17.63,24.81c-.15.03-.03-.25-.09-.3-.04-.03-.42.31-.43-.54-.21-.09-.18-.02-.19-.02-.05,0-.2.09-.39,0-.08-.04-.91-1.3-1.09.32-.07.06-.14.04-.22.06.13-.04.23-.51.22-.54-.02-.05-.46-.22-.56-.17-.05-.2-.3-.21-.46-.19-.23.04-.85.83-.91,1.06-.03.13-.06.45-.04.57-.22.58-.07,1.37-.11,2-.03,0-.38.12-.52-.02l-.04-2.63c.1-.41.52-1.04.87-1.24.45-.25,2.62-.26,3.11-.11.92.28.81,1.01.83,1.74Z"/>
          <path class="cls-16" d="M17.63,24.81c.01.36.02.79,0,1.15-.15.03-.03-.32-.09-.63-.21.11-.55.33-.78.37-.1.02-1.98.03-2.08,0-.11-.03-.17-.08-.2-.19.41-.18.55-.82.26-1.15.12-.05.24-.02.41-.04.07.17.29.02.35.04.03,0,.1.17.19.22.6.32,1.29.11,1.24-.63,0,0-.03-.08.19.02,0,.84.39.51.43.54.06.04-.05.33.09.3Z"/>
          <path class="cls-16" d="M15.22,24.33s-.05,0-.07,0c-.17.02-.29-.01-.41.04-.1-.12-.51-.21-.52-.28,0-.07.36-.41.65.13.03-.02.03-.53.02-.59.1-.05.54.12.56.17.01.03-.09.5-.22.54Z"/>
          <g>
            <path class="cls-12" d="M16.93,23.96c.05.74-.64.96-1.24.63-.09-.05-.15-.21-.19-.22-.06-.02-.28.13-.35-.04.02,0,.05,0,.07,0,.08-.01.15,0,.22-.06.19-1.61,1.01-.35,1.09-.32.19.09.34,0,.39,0Z"/>
            <path class="cls-16" d="M15.94,23.88c.16-.02.24.16.33.22.03.02.31,0,.28.17,0,.03-.21.16-.24.17-.57.11-.68-.52-.37-.56Z"/>
          </g>
          <g>
            <path class="cls-12" d="M14.89,23.62c.01.06,0,.58-.02.59-.29-.54-.65-.2-.65-.13,0,.07.42.16.52.28.29.33.15.97-.26,1.15-.37.16-.92,0-1-.44-.02-.12,0-.45.04-.57.06-.22.68-1.02.91-1.06.16-.03.41-.02.46.19Z"/>
            <g>
              <path class="cls-16" d="M14.05,24.44c.78-.16.71.84.22.93-.73.13-.68-.83-.22-.93Z"/>
              <path class="cls-12" d="M14.09,24.62c.53-.12.46.53.15.59-.52.11-.48-.52-.15-.59Z"/>
            </g>
          </g>
        </g>
      </g>
    </g>
  </g>
</svg>