<?xml version="1.0" encoding="UTF-8"?>
<svg id="Calque_2" data-name="Calque 2" xmlns="http://www.w3.org/2000/svg" viewBox="0 0 12.44 23.91">
  <defs>
    <style>
      .cls-1 {
        fill: #fff;
        stroke-width: 0px;
      }
    </style>
  </defs>
  <g id="Calque_1-2" data-name="Calque 1">
    <path class="cls-1" d="M4.59,21c-1.19-.27-2.11-.65-2.88-1.07-.07-.02-.12-.07-.15-.1-1.09-.67-1.37-2.09-.7-3.13.74-1.07,2.06-1.42,3.15-.72.7.37,1.44.67,2.06.67.7,0,1.39-.27,1.39-.99,0-.79-.97-1.19-2.26-1.69-2.21-.92-5.21-2.11-5.21-5.54C0,5.59,1.96,3.58,4.59,2.98v-1.44c0-.87.67-1.54,1.49-1.54s1.51.67,1.51,1.54v1.34c.72.02,1.61.27,2.63.72,1.14.67,1.51,1.99.97,3.13-.67,1.14-1.99,1.56-3.13.97-.6-.27-1.19-.42-1.79-.42s-1.27.22-1.27.92c0,.99,1.07,1.34,2.41,1.89,2.21.87,5.02,1.81,5.02,5.19,0,2.68-1.71,5.14-4.84,5.74v1.42c0,.79-.7,1.49-1.51,1.49s-1.49-.7-1.49-1.49v-1.42Z"/>
  </g>
</svg>