<?xml version="1.0" encoding="UTF-8"?>
<svg id="Calque_2" data-name="Calque 2" xmlns="http://www.w3.org/2000/svg" viewBox="0 0 59.25 33.2">
  <defs>
    <style>
      .cls-1 {
        fill: #ccc;
      }

      .cls-1, .cls-2, .cls-3 {
        stroke-width: 0px;
      }

      .cls-2 {
        fill: #666;
      }

      .cls-3 {
        fill: #e6e6e6;
      }
    </style>
  </defs>
  <g id="Calque_1-2" data-name="Calque 1">
    <g>
      <path class="cls-1" d="M29.62,0C13.81-.04,0,16.6,0,16.6c0,0,13.81,16.64,29.62,16.6,15.82.04,29.63-16.6,29.63-16.6C59.25,16.6,45.44-.04,29.62,0ZM29.62,29.52c-12.29.03-23.04-12.92-23.04-12.92,0,0,10.74-12.94,23.04-12.91,12.3-.03,23.04,12.91,23.04,12.91,0,0-10.74,12.95-23.04,12.92Z"/>
      <path class="cls-3" d="M29.63,7.96c-4.78,0-8.64,3.86-8.64,8.64s3.86,8.64,8.64,8.64,8.64-3.86,8.64-8.64-3.86-8.64-8.64-8.64ZM29.63,19.58c-1.64,0-2.98-1.33-2.98-2.98s1.33-2.98,2.98-2.98,2.98,1.33,2.98,2.98-1.34,2.98-2.98,2.98Z"/>
      <circle class="cls-2" cx="29.56" cy="16.6" r="4.06"/>
    </g>
  </g>
</svg>