<?xml version="1.0" encoding="UTF-8"?>
<svg id="Calque_2" data-name="Calque 2" xmlns="http://www.w3.org/2000/svg" viewBox="0 0 34.24 33.68">
  <defs>
    <style>
      .cls-1 {
        fill: #333;
      }

      .cls-1, .cls-2 {
        stroke-width: 0px;
      }

      .cls-2 {
        fill: #fff;
      }
    </style>
  </defs>
  <g id="Calque_1-2" data-name="Calque 1">
    <path class="cls-1" d="M33.64,15.69L16.6,1.39c-.9-.74-2.42-.21-2.42.84v11.45H.89c-.24,0-.47.1-.64.27C1.62,6.03,8.53,0,16.84,0c8.91,0,16.21,6.93,16.8,15.69Z"/>
    <path class="cls-1" d="M33.66,17.67c-.43,8.91-7.8,16.01-16.82,16.01C8.39,33.68,1.39,27.45.18,19.33c.16.21.42.35.71.35h13.29v11.45c0,1.07,1.52,1.6,2.42.84l17.06-14.3Z"/>
    <path class="cls-2" d="M33.68,16.84c0,.28-.01.55-.02.83l-17.06,14.3c-.9.76-2.42.23-2.42-.84v-11.45H.89c-.29,0-.55-.14-.71-.35-.12-.81-.18-1.64-.18-2.49,0-.99.08-1.95.25-2.89.17-.17.4-.27.64-.27h13.29V2.23c0-1.05,1.52-1.58,2.42-.84l17.04,14.3c.03.38.04.76.04,1.15Z"/>
    <path class="cls-2" d="M0,18.81v-1.97c0,.85.06,1.68.18,2.49-.11-.14-.18-.32-.18-.52Z"/>
    <path class="cls-2" d="M.25,13.95c-.17.94-.25,1.9-.25,2.89v-2.28c0-.24.1-.45.25-.61Z"/>
    <path class="cls-2" d="M33.82,17.54l-.16.13c.01-.28.02-.55.02-.83,0-.39-.01-.77-.04-1.15l.18.15c.56.47.56,1.23,0,1.7Z"/>
  </g>
</svg>