<?xml version="1.0" encoding="UTF-8"?>
<svg id="Calque_2" data-name="Calque 2" xmlns="http://www.w3.org/2000/svg" viewBox="0 0 39.69 25.21">
  <defs>
    <style>
      .cls-1 {
        fill: #080a08;
      }

      .cls-1, .cls-2, .cls-3, .cls-4, .cls-5, .cls-6 {
        stroke-width: 0px;
      }

      .cls-2 {
        fill: #ccc;
      }

      .cls-3 {
        fill: #666;
      }

      .cls-4 {
        fill: #333;
      }

      .cls-5 {
        fill: #999;
      }

      .cls-6 {
        fill: #fbfbfb;
      }
    </style>
  </defs>
  <g id="Calque_1-2" data-name="Calque 1">
    <path class="cls-6" d="M4.28,6.66c-.41-.03-2.6.16-2.67-.15-.08-.35.64-.58.89-.61.6-.08,1.99-.15,1.77.76Z"/>
    <path class="cls-6" d="M38.08,6.6c-.33.05-2.61.11-2.74.03-.03-.03-.12-.6.23-.69.26-.07,2.84-.2,2.51.66Z"/>
    <path class="cls-3" d="M39.69,12.07c-.18-1.48-3.56-2.93-3.9-3.59-.61-1.12,1.77-.58,2.87-.7.35-2.38-.35-2.61-2.51-2.53h-.05c-.26.01-.53.09-.8.05-1.07.45-.28,1.65-.87,1.46-.77-1.14-2.51-4.94-3.02-5.63-.43-.58-1.11-.88-1.82-.99-.58-.08-5.91-.12-7.18-.14-4.15-.03-8.3.08-12.46.09-.5.09-1.04.28-1.42.64-.53.5-2.65,4.94-3.26,5.99-.6.15-.07-.41-.53-1.08-.37-.54-2.18-.46-2.79-.34-1.27.26-1.03,1.48-.92,2.48.38.07,2.83-.08,2.95,0,.03.01.04.51.01.57C3.82,8.99.07,10.68,0,11.99c.11,1.98-.08,11.18.04,12.04.08.53.53,1.02,1.04,1.12.65.15,3.83-.08,4.88,0,.04-1.18.87-1.12.93-1.3.05-.14-.08-.69.07-.76.72.08,5.23-.12,5.49,0,.14.05.01.41.08.45h14.72c.07-.04-.03-.41.04-.45.22-.16,4.73.11,5.39,0q.03.42.07.84c.96.26.6.66,1.03,1.27,1.07-.14,4.62.18,5.28-.23.26-.15.54-.62.58-.89.12-.85-.08-10.01.04-12.02ZM35.57,5.94c.26-.07,2.84-.2,2.51.66-.33.05-2.61.11-2.74.03-.03-.03-.12-.6.23-.69ZM30.36,1.68c.33.42,2.97,5.61,3.33,6.56q-.56-.04-1.12-.07c-.91-2.38-2.21-4.66-3.2-6.98.38-.03.76.19.99.49ZM6.59,6.95c.39-.85,2.23-4.66,2.52-5.08.16-.23.51-.6.76-.68.51-.14,7.34.01,8.7-.08.04.03.03.54.03.64.8.15,1.64-.03,2.44,0q.03-.33.07-.64c2.36.07,4.74-.04,7.1.04.28.01.57-.01.85,0,1.22,2.29,2.37,4.71,3.36,7.08-.73,0-1.45-.01-2.18,0h-12.83c-3.01,0-6.01.01-9.02,0h-1.38c-.34-.01-.68.03-1.02-.03-.07-.08.53-1.11.61-1.26ZM1.61,6.51c-.08-.35.64-.58.89-.61.6-.08,1.99-.15,1.77.76-.41-.03-2.6.16-2.67-.15ZM4.54,9.11c.19-.08.28-.11.53-.08,4.32-.07,8.64-.04,12.96-.05h2.86c4.69,0,9.37-.04,14.07.05.33.05,2.37,1.58,2.89,1.86,0,.04-.31.14-.37.16-1.82.96-5.42,2.37-7.46,2.71q-.07-.57-.12-1.15c-.75-.05-1.5-.05-2.25-.08-1.06-.04-2.13-.03-3.18-.05-.85-.01-1.72-.09-2.57-.09-1.06,0-2.22-.03-3.26.09-.04.01-.09,0-.14,0,.05-.07-.68-.18-.8-.18-.72-.05-2.71-.03-3.2.46h-.19c-1.1-.01-2.21-.03-3.31.04-.65.46-1-.42-.95.87-1.35.08-7.22-2.11-8.07-2.61-.01,0-.11-.01-.18-.07.43-.27,2.57-1.8,2.74-1.87ZM13.82,22.35c-2.49-.16-7.17.11-9.2-.04-.2-.01-2.67-.42-2.8-.46-.65-.2-1.17-.81-1-1.52q1.56.01,3.12.04c.09.08-.04.45-.01.79,0,.05-.01.14,0,.18.15.8,1.53,1.02,1.88.28.11-.24.09-.41.09-.66.05-.12,2.37.09,2.68.11,1.76.05,3.54.01,5.3.05.08.15-.03.51-.03.54,0,.12.14.62-.03.69ZM24.76,22.41c-.6.11-8.05-.09-9.66,0q-.12-.11-.24-.22c.11-1.08-.34-2.51.47-2.68,1.46.07,9.02-.11,9.48,0,.11.03.41.27.43.39-.15.66.39,2.33-.49,2.51ZM38.86,20.74c-.08.49-.54.93-.99,1.11-1.96.77-9.36.33-11.96.5-.04-.03-.01-.54-.01-.64s-.03-.57.01-.6q4.1-.08,8.2-.15c.16.16.01.39.01.42.24.69,1.34.92,1.84.41.18-.16.2-.38.23-.6.03-.16-.03-.79.03-.83q1.33-.03,2.67-.04c.05.03-.01.34-.03.41ZM37.42,17.99c-.6.09-6.65.38-7.82.41-1.54.04-3.09-.01-4.62,0-4.13.05-8.25.07-12.38,0-1.92-.03-9.56-.08-10.82-.41-1.03-.27-1.14-1.3-1.02-2.21.6.47,1.25.92,2.03,1.06.27.04,3.44.28,4.04.33,1.6.07,3.2-.01,4.78.08.05.04.09.12.16.14.14.04.23.2,1.02.23,4.19-.14,8.37.04,12.56-.04.96-.01,1.91-.05,2.87-.04q.2-.12.42-.23c1.9-.12,3.81-.09,5.7-.23,1.83-.14,3.26-.12,4.65-1.48.15,1.37-.14,2.17-1.57,2.4Z"/>
    <path class="cls-1" d="M4.28,6.66c-.41-.03-2.6.16-2.67-.15-.08-.35.64-.58.89-.61.6-.08,1.99-.15,1.77.76Z"/>
    <path class="cls-1" d="M38.08,6.6c-.33.05-2.61.11-2.74.03-.03-.03-.12-.6.23-.69.26-.07,2.84-.2,2.51.66Z"/>
    <path class="cls-2" d="M33.69,8.24q-.56-.04-1.12-.07c-.91-2.38-2.21-4.66-3.2-6.98.38-.03.76.19.99.49.33.42,2.97,5.61,3.33,6.56Z"/>
    <path class="cls-2" d="M4.28,6.66c-.41-.03-2.6.16-2.67-.15-.08-.35.64-.58.89-.61.6-.08,1.99-.15,1.77.76Z"/>
    <path class="cls-2" d="M38.08,6.6c-.33.05-2.61.11-2.74.03-.03-.03-.12-.6.23-.69.26-.07,2.84-.2,2.51.66Z"/>
    <path class="cls-2" d="M32.4,8.24c-.73,0-1.45-.01-2.18,0h-12.83c-3.01,0-6.01.01-9.02,0h-1.38c-.34-.01-.68.03-1.02-.03-.07-.08.53-1.11.61-1.26.39-.85,2.23-4.66,2.52-5.08.16-.23.51-.6.76-.68.51-.14,7.34.01,8.7-.08.04.03.03.54.03.64v.04c-.51.05-1.77-.05-2.07,0-.45.09-.54.81-.3,1.02.19.16,1.8.09,2.18.09.98.01,1.96.01,2.95,0,.85-.01,2.09.14,2.21-.26.3-1.08-.89-.69-2.17-.76-.34-.01-.34-.14-.37-.14q.03-.33.07-.64c2.36.07,4.74-.04,7.1.04.28.01.57-.01.85,0,1.22,2.29,2.37,4.71,3.36,7.08Z"/>
    <path class="cls-4" d="M23.56,2.65c-.12.39-1.35.24-2.21.26-.99.01-1.98.01-2.95,0-.38,0-1.99.07-2.18-.09-.24-.2-.15-.92.3-1.02.3-.05,1.56.05,2.07,0v-.04c.8.15,1.64-.03,2.44,0,.03,0,.03.12.37.14,1.27.07,2.47-.33,2.17.76Z"/>
    <path class="cls-5" d="M37.85,10.88s-.31.14-.37.16c-1.82.96-5.42,2.37-7.46,2.71q-.07-.57-.12-1.15c-.75-.05-1.5-.05-2.25-.08-1.06-.04-2.13-.03-3.18-.05-.85-.01-1.72-.09-2.57-.09-1.06,0-2.22-.03-3.26.09-.04.01-.09,0-.14,0,.05-.07-.68-.18-.8-.18-.72-.05-2.71-.03-3.2.46h-.19c-1.1-.01-2.21-.03-3.31.04-.65.46-1-.42-.95.87-1.35.08-7.22-2.11-8.07-2.61-.01,0-.11-.01-.18-.07.43-.27,2.57-1.8,2.74-1.87.19-.08.28-.11.53-.08,4.32-.07,8.64-.04,12.96-.05h2.86c4.69,0,9.37-.04,14.07.05.33.05,2.37,1.58,2.89,1.86Z"/>
    <path class="cls-5" d="M38.86,20.74c-.08.49-.54.93-.99,1.11-1.96.77-9.36.33-11.96.5-.04-.03-.01-.54-.01-.64s-.03-.57.01-.6q4.1-.08,8.2-.15c.16.16.01.39.01.42.24.69,1.34.92,1.84.41.18-.16.2-.38.23-.6.03-.16-.03-.79.03-.83q1.33-.03,2.67-.04c.05.03-.01.34-.03.41Z"/>
    <path class="cls-5" d="M13.85,21.66c0,.12.14.62-.03.69-2.49-.16-7.17.11-9.2-.04-.2-.01-2.67-.42-2.8-.46-.65-.2-1.17-.81-1-1.52q1.56.01,3.12.04c.09.08-.04.45-.01.79,0,.05-.01.14,0,.18.15.8,1.53,1.02,1.88.28.11-.24.09-.41.09-.66.05-.12,2.37.09,2.68.11,1.76.05,3.54.01,5.3.05.08.15-.03.51-.03.54Z"/>
    <path class="cls-5" d="M37.42,17.99c-.6.09-6.65.38-7.82.41-1.54.04-3.09-.01-4.62,0-4.13.05-8.25.07-12.38,0-1.92-.03-9.56-.08-10.82-.41-1.03-.27-1.14-1.3-1.02-2.21.6.47,1.25.92,2.03,1.06.27.04,3.44.28,4.04.33,1.6.07,3.2-.01,4.78.08.05.04.09.12.16.14.14.04.23.2,1.02.23,4.19-.14,8.37.04,12.56-.04.96-.01,1.91-.05,2.87-.04q.2-.12.42-.23c1.9-.12,3.81-.09,5.7-.23,1.83-.14,3.26-.12,4.65-1.48.15,1.37-.14,2.17-1.57,2.4Z"/>
    <path class="cls-2" d="M24.76,22.41c-.6.11-8.05-.09-9.66,0q-.12-.11-.24-.22c.11-1.08-.34-2.51.47-2.68,1.46.07,9.02-.11,9.48,0,.11.03.41.27.43.39-.15.66.39,2.33-.49,2.51Z"/>
    <path class="cls-5" d="M7.77,12.95c-.03-.49,1.47-1.1,1.84-1.24,1.12-.45,2.08-.46,2.34-.47,5.6-.1,8.4-.14,8.7-.13,3.01.08,6.84.11,10.81,1.43.41.14.89.31.88.53-.02.82-7.02,1.41-12.71,1.4-5.2,0-11.8-.5-11.86-1.51Z"/>
  </g>
</svg>