<?xml version="1.0" encoding="UTF-8"?>
<svg id="Calque_2" data-name="Calque 2" xmlns="http://www.w3.org/2000/svg" viewBox="0 0 33.67 33.67">
  <defs>
    <style>
      .cls-1 {
        fill: #fff;
      }

      .cls-1, .cls-2 {
        stroke-width: 0px;
      }

      .cls-2 {
        fill: red;
      }
    </style>
  </defs>
  <g id="Calque_1-2" data-name="Calque 1">
    <path class="cls-2" d="M16.84,0C7.54,0,0,7.54,0,16.84s7.54,16.83,16.84,16.83,16.83-7.54,16.83-16.83S26.14,0,16.84,0ZM25.63,23.12l-2.51,2.51-6.28-6.29-6.29,6.29-2.5-2.51,6.28-6.28-6.28-6.29,2.5-2.5,6.29,6.28,6.28-6.28,2.51,2.5-6.29,6.29,6.29,6.28Z"/>
    <polygon class="cls-1" points="19.34 16.84 25.63 23.12 23.12 25.63 16.84 19.34 10.55 25.63 8.05 23.12 14.33 16.84 8.05 10.55 10.55 8.05 16.84 14.33 23.12 8.05 25.63 10.55 19.34 16.84"/>
  </g>
</svg>