<?xml version="1.0" encoding="UTF-8"?>
<svg id="Calque_2" data-name="Calque 2" xmlns="http://www.w3.org/2000/svg" viewBox="0 0 34.67 34.67">
  <defs>
    <style>
      .cls-1 {
        fill: #fff;
        stroke: #1a1a1a;
      }

      .cls-1, .cls-2 {
        stroke-miterlimit: 10;
      }

      .cls-2 {
        fill: red;
        stroke: #fff;
      }
    </style>
  </defs>
  <g id="Calque_1-2" data-name="Calque 1">
    <rect class="cls-2" x=".5" y=".5" width="33.67" height="33.67" rx="3.31" ry="3.31"/>
    <path class="cls-1" d="M17.34,28.6c-1.22,0-2.03-.24-2.43-.71s-.6-1.26-.6-2.35c0-.46.05-.92.14-1.39.09-.46.35-.85.77-1.15.42-.3,1.13-.46,2.14-.46,1.24,0,2.05.23,2.43.69.38.46.57,1.25.57,2.37,0,.46-.04.93-.13,1.39s-.34.85-.76,1.15c-.42.3-1.13.46-2.14.46ZM17.34,20.84c-.95,0-1.62-.13-2.02-.38-.4-.25-.64-.57-.73-.96-.08-.39-.13-.79-.13-1.21v-9.3c0-.42.04-.83.13-1.23.08-.4.33-.73.73-.99.4-.26,1.08-.39,2.05-.39s1.64.13,2.03.39c.39.26.63.6.71,1.01.08.41.13.83.13,1.25v9.3c0,.42-.04.83-.13,1.21-.08.39-.33.7-.73.95-.4.24-1.08.36-2.05.36Z"/>
  </g>
</svg>