<?xml version="1.0" encoding="UTF-8"?>
<svg id="Calque_2" data-name="Calque 2" xmlns="http://www.w3.org/2000/svg" viewBox="0 0 54.94 54.28">
  <defs>
    <style>
      .cls-1 {
        fill: #f6ed75;
      }

      .cls-1, .cls-2, .cls-3, .cls-4, .cls-5, .cls-6, .cls-7, .cls-8, .cls-9, .cls-10, .cls-11, .cls-12, .cls-13, .cls-14, .cls-15, .cls-16, .cls-17, .cls-18, .cls-19, .cls-20, .cls-21, .cls-22, .cls-23, .cls-24, .cls-25, .cls-26, .cls-27, .cls-28, .cls-29, .cls-30, .cls-31, .cls-32, .cls-33, .cls-34, .cls-35, .cls-36, .cls-37 {
        stroke-width: 0px;
      }

      .cls-2 {
        fill: #7b9b23;
      }

      .cls-3 {
        fill: #2b1102;
      }

      .cls-4 {
        fill: #298d6c;
      }

      .cls-5 {
        fill: #9b969f;
      }

      .cls-6 {
        fill: #868676;
      }

      .cls-7 {
        fill: #95af17;
      }

      .cls-8 {
        fill: #42b6a5;
      }

      .cls-9 {
        fill: #110902;
      }

      .cls-10 {
        fill: #143301;
      }

      .cls-11 {
        fill: #070d09;
      }

      .cls-12 {
        fill: #a89f10;
      }

      .cls-13 {
        fill: #1da96c;
      }

      .cls-14 {
        fill: #171701;
      }

      .cls-15 {
        fill: #149851;
      }

      .cls-16 {
        fill: #15894c;
      }

      .cls-17 {
        fill: #caeae2;
      }

      .cls-18 {
        fill: #e1e3e7;
      }

      .cls-19 {
        fill: #d3c4bb;
      }

      .cls-20 {
        fill: #d4d8d4;
      }

      .cls-21 {
        fill: #dabb2d;
      }

      .cls-22 {
        fill: #aeb2ab;
      }

      .cls-23 {
        fill: #a4adb7;
      }

      .cls-24 {
        fill: #ced428;
      }

      .cls-25 {
        fill: #cecdd0;
      }

      .cls-26 {
        fill: #c2d3c5;
      }

      .cls-27 {
        fill: #b8b8b9;
      }

      .cls-28 {
        fill: #a0c39c;
      }

      .cls-29 {
        fill: #8e8886;
      }

      .cls-30 {
        fill: #978d9f;
      }

      .cls-31 {
        fill: #64c499;
      }

      .cls-32 {
        fill: #fff;
      }

      .cls-33 {
        fill: #ead74d;
      }

      .cls-34 {
        fill: #e8efe4;
      }

      .cls-35 {
        fill: #fefdfa;
      }

      .cls-36 {
        fill: red;
      }

      .cls-37 {
        fill: #032408;
      }
    </style>
  </defs>
  <g id="Calque_1-2" data-name="Calque 1">
    <g>
      <g>
        <path class="cls-11" d="M24.44,4.71c1.69-.12,3.34.36,4.59,1.53l19.01,19.01c2.16,2.27,2.38,5.21.51,7.76-1.53,2.08-16.4,16.37-19.42,19.52-2.12,2.1-5.42,2.36-7.81.56L2.01,33.92c-2.28-2.28-2.74-5.38-.77-8.01,6.41-6.7,13.06-13.17,19.67-19.67,1-.84,2.21-1.44,3.52-1.53Z"/>
        <path class="cls-11" d="M32.99,12.31c4.48,4.44,8.86,8.98,13.37,13.4,2.05,1.92,2.55,4.43.71,6.71l-19.47,19.39c-.36.28-.72.51-1.15.66-1.25.45-2.83.35-3.93-.46-.26-.19-1.02-1.08-1.38-1.43-4.64-4.48-9.14-9.09-13.73-13.62-1-.99-4.19-3.95-4.69-4.62-.47-.62-.91-1.5-1.02-2.27-.24-1.6.3-2.56,1.28-3.75L21.99,7.31c.18-.09.32-.25.48-.36,1.38-.92,3.27-.98,4.72-.15,1.02.58,4.65,4.38,5.79,5.51Z"/>
        <g>
          <g>
            <path class="cls-16" d="M22.58,6.09c.05.29-.14.18-.15.23.79.41.2.22.05.64-.17.11-.31.26-.48.36L2.98,26.32c-.98,1.19-1.51,2.15-1.28,3.75-.21-.02-.12-.61-.15-.89,0-.05-.14,0-.15-.05-.06-.31.23-.64.2-.82-.02-.16-.36-.67-.71-.03.24-1.11.76-1.79,1.48-2.63,3.06-2.79,17.46-17.81,19.26-19.06.27-.19.64-.36.94-.51Z"/>
            <path class="cls-16" d="M46.46,34.1c-5.64,6.09-11.82,11.73-17.58,17.71-.82.75-1.71,1.43-2.83,1.63.09-.21.73-.14.2-.28.07-.3-.2-.3-.2-.36.14-.16.46-.18.41-.33.43-.16.79-.39,1.15-.66l19.47-19.39c-.15.42.37-.13.31.48-.03.33-.89.93-.92,1.2Z"/>
            <path class="cls-13" d="M32.58,10.83c4.96,4.87,9.85,9.79,14.75,14.72,1.95,2,2.43,4.42.77,6.79-.45.64-1.11,1.19-1.63,1.76.03-.27.89-.87.92-1.2.06-.61-.46-.07-.31-.48,1.83-2.28,1.34-4.79-.71-6.71-4.51-4.41-8.89-8.96-13.37-13.4-.11-.27-1.46-1.5-1.48-1.61-.03-.21.33-1,.74.03l.05-.1.28.2Z"/>
            <path class="cls-13" d="M21.15,50.58l-.54-.36c.12.31-.28.4-.38.66-4.62-4.51-9.18-9.09-13.78-13.62.17,0,.78.74.84.71.03-.01.33-.41.33-.43.05-.3-.32-.47-.2-.59,4.58,4.53,9.09,9.15,13.73,13.62Z"/>
            <path class="cls-15" d="M1.71,30.07c.11.77.55,1.65,1.02,2.27.5.67,3.7,3.63,4.69,4.62-.12.11.25.29.2.59,0,.03-.31.42-.33.43-.06.03-.67-.71-.84-.71C3.54,34.4.04,32.2.89,28.28c.36-.64.69-.13.71.03.02.17-.26.51-.2.82,0,.05.15,0,.15.05.03.28-.06.87.15.89Z"/>
            <path class="cls-13" d="M32.58,10.83l-.28-.2-.05.1c-.41-1.03-.77-.23-.74-.03.02.11,1.37,1.33,1.48,1.61-1.14-1.13-4.77-4.93-5.79-5.51-1.45-.83-3.34-.76-4.72.15.15-.42.74-.23-.05-.64.01-.05.2.06.15-.23,4.55-2.19,7.04,1.84,10,4.75Z"/>
            <path class="cls-15" d="M26.46,52.47c.05.15-.27.17-.41.33,0,.06.27.06.2.36.53.14-.11.07-.2.28-1.41.26-2.85-.06-4.03-.87-.15-.39.18-.41.51-.56,1.1.8,2.68.91,3.93.46Z"/>
            <path class="cls-16" d="M21.15,50.58c.36.34,1.12,1.24,1.38,1.43-.33.15-.66.17-.51.56-.73-.5-1.17-1.08-1.79-1.68.11-.26.51-.36.38-.66l.54.36Z"/>
          </g>
          <g>
            <path class="cls-27" d="M24.75,7c.66-.02,1.48.22,2.04.56,1.44.88,16.62,16.57,19.42,19.16,1.39,1.46,1.7,3.17.46,4.85-1.34,1.82-15.78,15.7-18.55,18.7-1.67,1.78-3.71,2.38-5.66.61L3.8,32.39c-1.34-1.45-1.91-3.18-.77-4.95.78-1.2,16.97-16.78,19.47-19.52.63-.51,1.42-.9,2.25-.92Z"/>
            <g>
              <path class="cls-11" d="M30,14.66c1.75-.26,3.64,1.44,3.24,2.73-.32,1.01-2.15.37-2.91.66l.08,2.12c.66.29,4.83-.69,5.36.87.9.1,2.06-.33,2.68.54.74,1.03,1.43,6.28,1.48,7.81-1.21-.12-.52.58-.74.74-.09.06-1.33-.1-1.4.08v3.01c1.16.16.71,1.46.84,1.56.29.03.9-.04,1.07,0,.48.12.58,1.9-.2,2.14-.37.11-.92-.03-1,.13.46,4.11-3.2,2.93-3.37,3.16-.13.56.32,2.62-.38,2.78-.58.13-7.86-.12-9.39-.05-.13.15-.38.28-.56.31-.69.12-5.42-.09-6.84,0l-.1-1.63c-1.43.36-2.7-.66-3.42-1.84l-2.27-.08c.13-1.37-.06-5.24.05-6.02.07-.52.45-1.02.87-1.33v-2.14l-1.4-.08c-.17-.07,0-.7-.1-.77-.08-.06-.92.09-1-.08-.07-1.01.28-4.23.15-4.8-.07-.32-.92-.74-.41-2.19.63-1.79,2.6-1.13,4.06-1.25.04-.03-.05-.7.46-.82.44-.1,3.79.09,4.77-.03l-.03-2.22c-.86-.12-2.9.34-3.39-.48-.41-.69.05-1.64.84-1.76h11.63c.16-.54.77-.99,1.33-1.07Z"/>
              <g>
                <path class="cls-27" d="M20.36,17.98h9.24l.08,2.17-9.36.03.05-2.19Z"/>
                <g>
                  <g>
                    <path class="cls-26" d="M15.87,20.83h18.12c.19.08.12.19.13.38l-18.29.08c-.22-.16-.11-.31.05-.46Z"/>
                    <g>
                      <path class="cls-33" d="M37.53,22.47c.45,2.08.75,4.19,1.02,6.3.55-.13.39-.68.41-1.12-.24-1.11-.31-2.26-.56-3.37-.05-.2-.44-.97-.2-1.05.25.8.95,4.28.92,4.92-.02.41-.25.67-.64.74-4.92.05-9.83-.21-14.75-.15-.02,0-.13.15-.15.15-1.53.01-11.16.07-11.74-.05-.14-.03-.29-.2-.38-.31.01-.11.22.17.43.2.54.08,3.1-.02,4.08.05,1.11-1.24,1.74-2.93,1.96-4.57.05-.4.15-1.49.1-1.81l19.49.05Z"/>
                      <g>
                        <path class="cls-35" d="M16.66,21.8c.74.8-.14,3.76-.66,4.67-.9,1.58-2.95,2.46-4.18.77.07-.88.28-1.74.41-2.6.03-.19-.06-.26-.05-.31,0-.04.1-.01.1-.05.13-.82.23-1.65.36-2.47.19-.08,3.48,0,4.03,0Z"/>
                        <path class="cls-33" d="M17.78,21.8c.02.22.22.39.26.61.05.33-.05,1.42-.1,1.81-.23,1.64-.86,3.32-1.96,4.57-.98-.07-3.54.03-4.08-.05-.21-.03-.42-.31-.43-.2-.36-.43-.26-.89-.2-1.4.05-.47,1.05-4.91,1.17-5.15.1-.2.13-.15.2-.18-.13.82-.23,1.65-.36,2.47,0,.04-.1.01-.1.05,0,.04.08.12.05.31-.13.87-.33,1.73-.41,2.6,1.23,1.69,3.28.82,4.18-.77.52-.91,1.41-3.87.66-4.67.38,0,.75,0,1.12,0Z"/>
                      </g>
                      <path class="cls-1" d="M37.38,21.75c.12.23.1.49.15.71l-19.49-.05c-.04-.22-.24-.39-.26-.61,2.49-.02,18.63-.23,19.6-.05Z"/>
                      <path class="cls-21" d="M38.19,23.23c-.23.08.16.84.2,1.05.25,1.1.32,2.26.56,3.37-.02.44.14.99-.41,1.12-.27-2.11-.57-4.22-1.02-6.3-.05-.23-.04-.48-.15-.71.5.1.68,1.05.82,1.48Z"/>
                    </g>
                    <path class="cls-6" d="M11.63,21.8c.11,0,.2-.02.18.08-.16.14-.36,1.13-.41,1.17-.05.04-.93.05-.1.2-.29,1.74-1.06-1.38.33-1.45Z"/>
                  </g>
                  <g>
                    <path class="cls-17" d="M24.03,29.25c.1-.04.9.03,1.17,0,.28.51-.06,1.45-.46.66.03.4-.65.19-.77.05-.16-.2-.05-.67.05-.71Z"/>
                    <path class="cls-34" d="M23.88,30.07c.55.43,1.15.31,1.43.36.94.16-1.34.98-1.43-.36Z"/>
                  </g>
                  <g>
                    <path class="cls-5" d="M16.99,16.55c.74-.2,13.36.17,15.36.05.49.44.03.58-.46.61-1.95-.15-14.19.16-14.9-.05-.21-.06-.38-.51,0-.61Z"/>
                    <path class="cls-30" d="M30.31,15.37c.23-.01.32.33.15.41-.44.2-.49-.39-.15-.41Z"/>
                    <path class="cls-29" d="M31.48,15.78c.18-.07.26.24.1.31-.18.07-.26-.24-.1-.31Z"/>
                  </g>
                  <g>
                    <path class="cls-17" d="M29.82,29.35c.21.16.16.22.15.56-.09.05-.36.15-.38.15-.5.02-.42-1.1.23-.71Z"/>
                    <path class="cls-35" d="M29.36,30.58c.13-.02.41.02.56-.31.26.06-.22.47-.33.51-.52.19-.99-.06-1.25-.51.25-.07.24.42,1.02.31Z"/>
                    <path class="cls-4" d="M29.98,30.12s-.05.14-.05.15c-.15.32-.43.29-.56.31v-.05c.22-.05.35-.05.31-.31.11-.03.2-.06.31-.1Z"/>
                    <g>
                      <path class="cls-37" d="M29.82,29.35c-.65-.38-.73.73-.23.71.02,0,.29-.1.38-.15,0,.07.01.15,0,.2-.1.05-.2.07-.31.1-.19.06-.36-.16-.31.31v.05c-.78.12-.77-.38-1.02-.31-.03-.05-.05-.13-.1-.15,0-.02,0-.03,0-.05,0,0,.1.02.1-.03.06-.7-.12-.42-.15-.43-.26-.13-1.98-.16-2.07-.1-.04.03-.06.29.03.31-.14.19-.24-.29-.08-.36.11-.05,1.85.04,2.25,0-.02-.36.8-.15,1.48-.2.05.02.02.1.03.1Z"/>
                      <path class="cls-17" d="M28.47,29.3h.77c-.04.14,0,.66-.03.69-.07.09-.62-.05-.74.08v-.77Z"/>
                      <path class="cls-31" d="M28.78,30.22c.21-.05.53.01.38.28-.06.1-.46-.13-.38-.28Z"/>
                      <path class="cls-8" d="M29.67,30.22c.04.26-.09.26-.31.31-.05-.47.12-.25.31-.31Z"/>
                    </g>
                  </g>
                  <g>
                    <path class="cls-18" d="M24.47,31.04c-.13.44-.44.58-.46.61l-.79-.46-.08.08c-.04.65-.07,1.44.71.74.37.24,1.93.29,2.27,0,.49-.42.24-1.15.03-1.63h2.09c.05.21.5.56.71.61-.08.37-1.48.51-.84,1.02.19.15,2.14.14,2.45.05.86-.24.47-1.12.64-1.73.32,0,.65,0,.97,0,.11.22.44.76.61.87v2.09c-2.13,0-10.79-.1-11.71,0-1.96.21-1.73,1.65-1.81,1.76-.02.03-.44.04-.48.03-.24-.11-.27-2.76,2.37-2.83.22-.18-.27-2.37.46-1.84.2.14-.5,2.03.66,1.38.3-.68-.8-1.41,1.25-1.71.17.41.48.86.94.97Z"/>
                    <path class="cls-18" d="M21.53,33.85h6.12l.03,2.63-6.1.03-.05-2.65Z"/>
                    <path class="cls-27" d="M12.86,37.67h5.51c.11.07-.63,1.3-1.07,1.43h-4.44v-1.43Z"/>
                    <g>
                      <path class="cls-5" d="M37.17,32.52c-.75-.14-4.02-1.08-4.39-1.33-.17-.11-.5-.65-.61-.87,1.64-.02,3.28.02,4.92,0,.12.05.09,1.93.08,2.19Z"/>
                      <path class="cls-25" d="M37.17,32.52c0,.12.03.73-.03.77-1.45,0-2.91,0-4.36,0v-2.09c.37.24,3.64,1.19,4.39,1.33Z"/>
                    </g>
                    <path class="cls-18" d="M18.47,35.58c.25-.05,2.05.05,2.65,0v.97c-.36.07-2.24,0-2.35.05-.08.03-.3.69-.36.71-.69-.07-4.77.09-5,0-.17-.07-.15-.48-.1-.51.09-.06,2.04-.04,2.14,0,.05.02.28.82.82-.05,1.61-.03.93.06.94.23.02.24,1.33.27,1.07-.46-.04-.11-.28-.22-.38-.13-.14-.33.25-.76.56-.82Z"/>
                    <path class="cls-25" d="M14,36.29c.11-.87-.17-2.43.05-3.21,1.93-.07,1.11,1.18,1.28,3.19-.04.05-1.16.03-1.33.03Z"/>
                    <path class="cls-35" d="M17.58,35.78c-.26.52-.19.79-.23.82l-1.2-.03c-.06-.79.08-2.43,0-2.99l1.28-.03c.04.57.15,1.17.15,1.73,0,.17-.18.33,0,.48Z"/>
                    <path class="cls-26" d="M13.16,29.41l9.93.08c-.44.08-.85.33-1.3.38-.39.05-7.42.05-7.81,0-.37-.04-.64-.09-.82-.46Z"/>
                    <path class="cls-25" d="M15.59,31.5s-.08.05.2.05c.82,0,1.67.05,2.5.05.21,0,.19-.05.2-.05.54,0,1.41.04,1.22.2-.23.09-.86.62-1.02.82-.06,0-.05-.05-.05-.05l.18-.46c-1.3.05-1.63-.36-2.07,1.07-.27,0-.54.13-.82,0-.09-.11-.17-.17-.28-.26-1.92-.71,1.62.22,1.22-.82h-2.19c-.08.1-.15.2-.23.31l-.2-.1c.03-.06.09-.13.03-.2-.51.13-.44.09-.48-.2.22.05.09-.18.33-.26.11-.03.88.01,1.17,0,.04-.05.22-.1.28-.1Z"/>
                    <path class="cls-27" d="M31.2,30.32c-.16.62.22,1.5-.64,1.73-.31.09-2.25.1-2.45-.05-.64-.51.76-.65.84-1.02.62.16,1.03-.1,1.25-.66.33,0,.66,0,1,0Z"/>
                    <path class="cls-18" d="M14.46,32.37s-.4.67-.41.71c-.22.78.06,2.35-.05,3.21-.28,0-.96.06-1.02-.08v-2.55c.1-.5,1.12-1.09,1.28-1.4l.2.1Z"/>
                    <path class="cls-18" d="M18.29,31.6c-.83,0-1.68-.06-2.5-.05l.03-1.28h2.5l-.03,1.33Z"/>
                    <path class="cls-18" d="M19.72,31.75c.19-.16-.68-.2-1.22-.2l.08-1.28h2.25l.03,1.3c-.04.11-.43-.09-1.12.18Z"/>
                    <path class="cls-18" d="M18.65,32.52s-.01.06.05.05c-.56.7-.8,1.71-.56,2.58-.01.06-.34.21-.56.64-.18-.16,0-.32,0-.48,0-.57-.11-1.17-.15-1.73l-1.28.03c-.02-.17-.1-.33-.2-.46.27.13.55,0,.82,0,.18,0,1.15.03,1.2,0,.04-.03.04-.37.03-.38-.02-.02-.73-.09-.33-.23.05-.02.94-.01,1,0Z"/>
                    <path class="cls-18" d="M15.59,31.5c-.06,0-.24.05-.28.1-.29.01-1.07-.03-1.17,0-.24.07-.11.31-.33.26-.02-.16-.04-1.54.03-1.58h1.73l.03,1.22Z"/>
                    <path class="cls-22" d="M30.97,29.46c.28-.2,6.13.14,6.97.03l-.69.33c-.76-.14-6.02.18-6.28,0-.04-.03-.04-.33,0-.36Z"/>
                    <path class="cls-18" d="M15.31,39.51c.27.03.87-.04,1.02,0,.08.02.37.59,1.48.56.55,1.41-1.62.98-2.5-.56Z"/>
                    <path class="cls-25" d="M38.09,36.29v-.97c.37,0,.73,0,1.1,0l.08.89c-.07.17-.84.03-1.17.08Z"/>
                    <path class="cls-20" d="M28.24,30.07s0,.03,0,.05c0,.08-.01.21,0,.26h-2.09s-.06-.13-.1-.15l.08-.15h2.12Z"/>
                    <path class="cls-28" d="M28.19,29.61c.16.38-1.25.13-2.04.2-.08-.01-.06-.28-.03-.31.09-.06,1.8-.03,2.07.1Z"/>
                    <path class="cls-19" d="M20.71,34.25l.03,1c-1.72.01-.6.32-.03-1Z"/>
                    <g>
                      <path class="cls-25" d="M31.1,41.45s.05.04.2.05c-.09.48-.37.67-.26.77-.63,0-1.26.02-1.89,0,.11-.29.06-.74.36-.82.12-.03.37-.04.51-.05.36-.03.71.02,1.07.05Z"/>
                      <path class="cls-27" d="M34.42,41.09c0,.16.03,1.14-.03,1.17-.6,0-1.21,0-1.81,0,.13-.27.33-.47.41-.77,1.07.05.69-.09.71-.2.02-.1.04-.15.05-.26l.66.05Z"/>
                      <path class="cls-23" d="M31.97,42.27c-.31,0-.61,0-.92,0-.12-.1.16-.28.26-.77.17.02.46.02.61-.05,0,.27-.02.55.05.82Z"/>
                      <path class="cls-37" d="M29.98,40.63s.1.43.05.77c-.14.01-.39.02-.51.05-.31-.01-.1-.63-.1-.82h.56Z"/>
                      <path class="cls-24" d="M29.98,40.63h-.56s-.28-.54.03-.66c.88-.34.54.6.54.66Z"/>
                      <path class="cls-10" d="M31.86,40.73c.03.25.05.46.05.71-.16.07-.44.07-.61.05.04-.19.04-.55.05-.77.12.03.36-.02.51,0Z"/>
                      <path class="cls-33" d="M33.7,40.73h-.66c.05-.32-.01-.86.48-.71.36.11.18.67.18.71Z"/>
                      <path class="cls-10" d="M33.7,40.73s.07-.04.05.31c0,.11-.03.16-.05.26h-.71c.01-.08,0-.32.05-.56h.66Z"/>
                      <path class="cls-33" d="M31.86,40.73c-.15-.02-.39.03-.51,0-.14-.03-.17-.04-.15-.2.07-.27.09-.59.48-.46.29.1.17.63.18.66Z"/>
                      <path class="cls-7" d="M33.7,41.3c-.03.12.36.25-.71.2,0,0-.04-.01,0-.2h.71Z"/>
                      <path class="cls-2" d="M31.35,40.73c-.02.21-.01.58-.05.77-.16-.02-.18-.05-.2-.05.06-.26.04-.69.1-.92-.02.16.01.17.15.2Z"/>
                      <g>
                        <path class="cls-18" d="M34.42,41.09l-.66-.05c.02-.35-.05-.29-.05-.31,0-.04.19-.61-.18-.71-.5-.14-.43.39-.48.71-.04.25-.04.49-.05.56-.04.19,0,.19,0,.2-.08.3-.28.5-.41.77-.2,0-.41,0-.61,0-.07-.27-.05-.54-.05-.82,0-.25-.02-.46-.05-.71,0-.04.11-.56-.18-.66-.39-.14-.41.19-.48.46-.06.22-.04.66-.1.92-.36-.03-.71-.09-1.07-.05.05-.34-.05-.73-.05-.77,0-.06.34-1-.54-.66-.31.12-.03.63-.03.66,0,.18-.2.81.1.82-.29.08-.24.53-.36.82-.13,0-.83.03-.87-.03l.03-8.39,6.1.03c-.04,2.41.06,4.82,0,7.22Z"/>
                        <g>
                          <path class="cls-11" d="M31.28,36.35c.79-.18.75.92,0,.77-.38-.08-.38-.68,0-.77Z"/>
                          <path class="cls-9" d="M29.9,34.76c.75-.15.59,1.15-.1.77-.29-.16-.21-.71.1-.77Z"/>
                          <path class="cls-11" d="M33.17,37.26c.8-.17.54,1.07-.1.77-.32-.15-.22-.7.1-.77Z"/>
                          <path class="cls-3" d="M32.25,34.81c.63-.18.67.66.31.77-.57.16-.7-.65-.31-.77Z"/>
                          <path class="cls-11" d="M31.28,38.03c.62-.16.7.62.26.71-.59.12-.65-.61-.26-.71Z"/>
                          <path class="cls-11" d="M29.49,37.32c.63-.22.71.87.05.71-.32-.08-.27-.64-.05-.71Z"/>
                          <path class="cls-14" d="M33.5,39.46c.11.54-.52.53-.46,0,.24.23.23-.01.46,0Z"/>
                          <path class="cls-12" d="M33.5,39.46c-.23-.01-.22.23-.46,0,.05-.37.41-.27.46,0Z"/>
                          <path class="cls-9" d="M29.39,39.31c.24.15.14.88-.03.59-.02-.03,0-.49.03-.59Z"/>
                        </g>
                      </g>
                    </g>
                    <g>
                      <path class="cls-27" d="M37.78,38.13c-.2,1.12-1.11,1.45-2.14,1.43l.31-.74c.39-.01.29-.11.31-.13.07-.06.15-.04.15-.05.33.43,1.06-.13,1.38-.51Z"/>
                      <g>
                        <path class="cls-18" d="M38.09,35.33v.97c-.93.13-.09.65-.31,1.84-.32.38-1.05.94-1.38.51.35-.46-.22-.77-.59-.61-.2.09-.09.89.43.66-.02.01.09.11-.31.13l-.31.74c-.28,0-.57.05-.66-.08v-5.61l2.78-.03v1.07c-.28.08-1.91-.22-1.76.28.06.22,1.52.11,2.09.13Z"/>
                        <path class="cls-11" d="M35.92,36.55c.05-.04,1.14-.18.84.48-.05.11-.75.09-.79.08-.12-.05-.09-.54-.05-.56Z"/>
                        <path class="cls-11" d="M36.41,38.64s-.09,0-.15.05c-.53.23-.63-.57-.43-.66.37-.16.94.15.59.61Z"/>
                      </g>
                    </g>
                    <g>
                      <path class="cls-27" d="M25.82,40.27l1.86.03-.03,1.96-1.86-.03.03-1.96Z"/>
                      <g>
                        <path class="cls-35" d="M25.56,37.06l2.12.08-.03,2.58-1.86-.03c.06-.9-.04-1.75-.23-2.63Z"/>
                        <path class="cls-11" d="M26.74,38.08c.58-.08.5.91-.1.71-.27-.09-.25-.67.1-.71Z"/>
                      </g>
                    </g>
                    <path class="cls-11" d="M18.65,32.52c-.06-.01-.95-.02-1,0-.4.14.32.21.33.23.01.02.01.36-.03.38-.05.03-1.02,0-1.2,0,.43-1.43.76-1.02,2.07-1.07l-.18.46Z"/>
                    <g>
                      <path class="cls-27" d="M26.15,30.38c.22.49.47,1.22-.03,1.63-.34.29-1.9.24-2.27,0,.31-.28.14-.34.15-.36.02-.03.33-.17.46-.61.67.16,1.31-.2,1.58-.82.04.02.08.11.1.15Z"/>
                      <g>
                        <path class="cls-11" d="M24.01,31.65s.16.08-.15.36c-.79.7-.76-.09-.71-.74l.08-.08.79.46Z"/>
                        <path class="cls-35" d="M23.32,31.65c.16-.13.2.22.05.2-.12-.02-.1-.17-.05-.2Z"/>
                      </g>
                    </g>
                    <g>
                      <path class="cls-27" d="M20.79,40.53c.05.15.13.22.28.26.14.03,2.72.02,2.86,0,.31-.05.78-.36,1.07-.51.09.43-.08.91.13.87-.02.51.09,1.4-.54,1.53-.54.11-4.45.05-5.33,0,.06-.87-.15-1.95.15-2.76.11.61.86.83,1.38.61Z"/>
                      <path class="cls-18" d="M25.13,39.56c-.2.04-.04-.35-.13-.41-.05-.04-.58.42-.59-.74-.29-.13-.24-.03-.26-.03-.06,0-.27.12-.54,0-.12-.05-1.25-1.78-1.51.43-.09.08-.2.06-.31.08.18-.05.32-.7.31-.74-.03-.07-.63-.3-.77-.23-.07-.28-.41-.3-.64-.26-.31.06-1.17,1.15-1.25,1.45-.05.17-.08.62-.05.79-.3.8-.09,1.88-.15,2.76-.04,0-.52.16-.71-.03l-.05-3.62c.13-.56.71-1.44,1.2-1.71.62-.35,3.61-.36,4.29-.15,1.27.38,1.12,1.39,1.15,2.4Z"/>
                      <path class="cls-18" d="M25.13,39.56c.01.5.02,1.09,0,1.58-.21.04-.04-.44-.13-.87-.29.15-.76.46-1.07.51-.14.02-2.72.03-2.86,0-.15-.04-.23-.1-.28-.26.56-.24.75-1.13.36-1.58.17-.07.33-.02.56-.05.09.23.4.03.48.05.05.01.13.24.26.31.83.45,1.78.15,1.71-.87.01,0-.04-.1.26.03.01,1.16.54.7.59.74.09.06-.07.45.13.41Z"/>
                      <path class="cls-18" d="M21.81,38.9s-.07,0-.1,0c-.23.03-.39-.02-.56.05-.14-.16-.71-.28-.71-.38,0-.09.49-.56.89.18.03-.02.05-.74.03-.82.13-.07.74.16.77.23.01.04-.12.69-.31.74Z"/>
                      <g>
                        <path class="cls-11" d="M24.16,38.39c.07,1.01-.88,1.31-1.71.87-.12-.07-.21-.29-.26-.31-.09-.02-.39.18-.48-.05.03,0,.07,0,.1,0,.11-.02.21,0,.31-.08.26-2.22,1.39-.49,1.51-.43.27.12.47,0,.54,0Z"/>
                        <path class="cls-18" d="M22.81,38.28c.21-.03.33.22.46.31.04.03.43-.01.38.23,0,.04-.29.22-.33.23-.79.15-.94-.71-.51-.77Z"/>
                      </g>
                      <g>
                        <path class="cls-11" d="M21.35,37.93c.02.08,0,.79-.03.82-.4-.74-.9-.27-.89-.18,0,.1.57.22.71.38.39.46.21,1.34-.36,1.58-.51.22-1.27,0-1.38-.61-.03-.17,0-.62.05-.79.08-.31.94-1.4,1.25-1.45.23-.04.57-.02.64.26Z"/>
                        <g>
                          <path class="cls-18" d="M20.2,39.05c1.07-.22.97,1.16.31,1.28-1,.18-.94-1.14-.31-1.28Z"/>
                          <path class="cls-11" d="M20.26,39.31c.73-.16.63.73.2.82-.71.15-.66-.72-.2-.82Z"/>
                        </g>
                      </g>
                    </g>
                  </g>
                </g>
              </g>
            </g>
          </g>
        </g>
      </g>
      <g>
        <rect class="cls-36" x="27.72" y="3.53" width="23.68" height="23.68" rx="3.31" ry="3.31" transform="translate(.72 32.48) rotate(-45)"/>
        <path class="cls-32" d="M39.56,24.42c-.99,0-1.65-.19-1.98-.58s-.49-1.02-.49-1.91c0-.38.04-.75.12-1.13.08-.38.29-.69.63-.94.34-.25.92-.37,1.74-.37,1.01,0,1.67.19,1.98.56.31.38.46,1.02.46,1.92,0,.38-.03.75-.1,1.13s-.27.69-.62.94c-.34.25-.92.37-1.74.37ZM39.56,18.1c-.77,0-1.32-.1-1.64-.31-.33-.21-.52-.47-.59-.78-.07-.32-.1-.65-.1-.99v-7.57c0-.34.03-.68.1-1,.07-.32.26-.59.59-.81.32-.21.88-.32,1.67-.32s1.34.11,1.65.32c.32.21.51.49.58.82.07.33.1.67.1,1.01v7.57c0,.34-.03.67-.1.99-.07.32-.27.57-.59.77-.33.2-.88.3-1.67.3Z"/>
      </g>
    </g>
  </g>
</svg>