<?xml version="1.0" encoding="UTF-8"?>
<svg id="Calque_2" data-name="Calque 2" xmlns="http://www.w3.org/2000/svg" viewBox="0 0 54.3 34.49">
  <defs>
    <style>
      .cls-1 {
        fill: #080a08;
      }

      .cls-1, .cls-2, .cls-3, .cls-4, .cls-5 {
        stroke-width: 0px;
      }

      .cls-2 {
        fill: #ccc;
      }

      .cls-3 {
        fill: #999;
      }

      .cls-4 {
        fill: #fff;
      }

      .cls-5 {
        fill: #fbfbfb;
      }
    </style>
  </defs>
  <g id="Calque_1-2" data-name="Calque 1">
    <path class="cls-5" d="M5.86,9.11c-.56-.04-3.56.22-3.65-.2-.11-.48.87-.8,1.22-.83.82-.11,2.72-.2,2.43,1.04Z"/>
    <path class="cls-5" d="M52.1,9.03c-.44.07-3.58.15-3.74.04-.04-.04-.17-.82.31-.95.35-.09,3.89-.28,3.43.91Z"/>
    <path class="cls-3" d="M54.3,16.52c-.24-2.02-4.87-4-5.34-4.91-.83-1.54,2.43-.8,3.93-.96.48-3.26-.48-3.58-3.43-3.47h-.07c-.35.02-.72.13-1.09.07-1.46.61-.39,2.26-1.19,2-1.06-1.56-3.43-6.76-4.13-7.71-.59-.8-1.52-1.2-2.48-1.35-.8-.11-8.08-.17-9.82-.19-5.67-.04-11.36.11-17.05.13-.69.13-1.43.39-1.95.87-.72.69-3.63,6.76-4.47,8.19-.82.2-.09-.56-.72-1.48-.5-.74-2.98-.63-3.82-.46-1.74.35-1.41,2.02-1.26,3.39.52.09,3.87-.11,4.04,0,.04.02.06.7.02.78C5.23,12.29.1,14.61,0,16.41c.15,2.71-.11,15.29.06,16.48.11.72.72,1.39,1.43,1.54.89.2,5.24-.11,6.67,0,.06-1.61,1.19-1.54,1.28-1.78.07-.19-.11-.95.09-1.04.98.11,7.15-.17,7.51,0,.19.07.02.56.11.61h20.14c.09-.06-.04-.56.06-.61.3-.22,6.47.15,7.38,0q.04.57.09,1.15c1.32.35.82.91,1.41,1.74,1.46-.19,6.32.24,7.23-.32.35-.2.74-.85.8-1.22.17-1.17-.11-13.7.06-16.44ZM48.67,8.12c.35-.09,3.89-.28,3.43.91-.44.07-3.58.15-3.74.04-.04-.04-.17-.82.31-.95ZM41.53,2.3c.44.57,4.06,7.67,4.56,8.97q-.76-.06-1.54-.09c-1.24-3.26-3.02-6.38-4.37-9.54.52-.04,1.04.26,1.35.67ZM9.01,9.51c.54-1.17,3.06-6.38,3.45-6.95.22-.32.7-.82,1.04-.93.7-.19,10.04.02,11.9-.11.06.04.04.74.04.87,1.09.2,2.24-.04,3.34,0q.04-.44.09-.87c3.22.09,6.49-.06,9.71.06.39.02.78-.02,1.17,0,1.67,3.13,3.24,6.45,4.6,9.69-1,0-1.98-.02-2.98,0h-17.55c-4.11,0-8.23.02-12.34,0h-1.89c-.46-.02-.93.04-1.39-.04-.09-.11.72-1.52.83-1.72ZM2.21,8.9c-.11-.48.87-.8,1.22-.83.82-.11,2.72-.2,2.43,1.04-.56-.04-3.56.22-3.65-.2ZM6.21,12.46c.26-.11.39-.15.72-.11,5.91-.09,11.82-.06,17.74-.07h3.91c6.41,0,12.82-.06,19.25.07.44.07,3.24,2.17,3.95,2.54,0,.06-.43.19-.5.22-2.48,1.32-7.41,3.24-10.21,3.71q-.09-.78-.17-1.58c-1.02-.07-2.06-.07-3.08-.11-1.45-.06-2.91-.04-4.36-.07-1.17-.02-2.35-.13-3.52-.13-1.45,0-3.04-.04-4.47.13-.06.02-.13,0-.19,0,.07-.09-.93-.24-1.09-.24-.98-.07-3.71-.04-4.37.63h-.26c-1.5-.02-3.02-.04-4.52.06-.89.63-1.37-.57-1.3,1.19-1.85.11-9.88-2.89-11.05-3.58-.02,0-.15-.02-.24-.09.59-.37,3.52-2.46,3.74-2.56ZM18.91,30.58c-3.41-.22-9.8.15-12.58-.06-.28-.02-3.65-.57-3.84-.63-.89-.28-1.59-1.11-1.37-2.08q2.13.02,4.26.06c.13.11-.06.61-.02,1.07,0,.07-.02.19,0,.24.2,1.09,2.09,1.39,2.58.39.15-.33.13-.56.13-.91.07-.17,3.24.13,3.67.15,2.41.07,4.84.02,7.25.07.11.2-.04.7-.04.74,0,.17.19.85-.04.95ZM33.88,30.66c-.82.15-11.01-.13-13.21,0q-.17-.15-.33-.3c.15-1.48-.46-3.43.65-3.67,2,.09,12.34-.15,12.97,0,.15.04.56.37.59.54-.2.91.54,3.19-.67,3.43ZM53.17,28.38c-.11.67-.74,1.28-1.35,1.52-2.69,1.06-12.81.44-16.36.69-.06-.04-.02-.74-.02-.87s-.04-.78.02-.82q5.62-.11,11.21-.2c.22.22.02.54.02.57.33.95,1.83,1.26,2.52.56.24-.22.28-.52.32-.82.04-.22-.04-1.07.04-1.13q1.82-.04,3.65-.06c.07.04-.02.46-.04.56ZM51.19,24.62c-.82.13-9.1.52-10.69.56-2.11.06-4.23-.02-6.32,0-5.65.07-11.29.09-16.94,0-2.63-.04-13.08-.11-14.81-.56-1.41-.37-1.56-1.78-1.39-3.02.82.65,1.7,1.26,2.78,1.45.37.06,4.71.39,5.52.44,2.19.09,4.37-.02,6.54.11.07.06.13.17.22.19.19.06.32.28,1.39.32,5.73-.19,11.45.06,17.18-.06,1.32-.02,2.61-.07,3.93-.06q.28-.17.57-.32c2.59-.17,5.21-.13,7.8-.32,2.5-.19,4.47-.17,6.36-2.02.2,1.87-.19,2.97-2.15,3.28Z"/>
    <path class="cls-1" d="M5.86,9.11c-.56-.04-3.56.22-3.65-.2-.11-.48.87-.8,1.22-.83.82-.11,2.72-.2,2.43,1.04Z"/>
    <path class="cls-1" d="M52.1,9.03c-.44.07-3.58.15-3.74.04-.04-.04-.17-.82.31-.95.35-.09,3.89-.28,3.43.91Z"/>
    <path class="cls-2" d="M46.09,11.27q-.76-.06-1.54-.09c-1.24-3.26-3.02-6.38-4.37-9.54.52-.04,1.04.26,1.35.67.44.57,4.06,7.67,4.56,8.97Z"/>
    <path class="cls-2" d="M5.86,9.11c-.56-.04-3.56.22-3.65-.2-.11-.48.87-.8,1.22-.83.82-.11,2.72-.2,2.43,1.04Z"/>
    <path class="cls-2" d="M52.1,9.03c-.44.07-3.58.15-3.74.04-.04-.04-.17-.82.31-.95.35-.09,3.89-.28,3.43.91Z"/>
    <path class="cls-2" d="M44.33,11.27c-1,0-1.98-.02-2.98,0h-17.55c-4.11,0-8.23.02-12.34,0h-1.89c-.46-.02-.93.04-1.39-.04-.09-.11.72-1.52.83-1.72.54-1.17,3.06-6.38,3.45-6.95.22-.32.7-.82,1.04-.93.7-.19,10.04.02,11.9-.11.06.04.04.74.04.87v.06c-.7.07-2.43-.07-2.84,0-.61.13-.74,1.11-.41,1.39.26.22,2.46.13,2.98.13,1.33.02,2.69.02,4.04,0,1.17-.02,2.85.19,3.02-.35.41-1.48-1.22-.95-2.97-1.04-.46-.02-.46-.19-.5-.19q.04-.44.09-.87c3.22.09,6.49-.06,9.71.06.39.02.78-.02,1.17,0,1.67,3.13,3.24,6.45,4.6,9.69Z"/>
    <path class="cls-3" d="M32.23,3.62c-.17.54-1.85.33-3.02.35-1.35.02-2.71.02-4.04,0-.52,0-2.72.09-2.98-.13-.33-.28-.2-1.26.41-1.39.41-.07,2.13.07,2.84,0v-.06c1.09.2,2.24-.04,3.34,0,.04,0,.04.17.5.19,1.74.09,3.37-.44,2.97,1.04Z"/>
    <path class="cls-2" d="M51.78,14.89c0,.06-.43.19-.5.22-2.48,1.32-7.41,3.24-10.21,3.71q-.09-.78-.17-1.58c-1.02-.07-2.06-.07-3.08-.11-1.45-.06-2.91-.04-4.36-.07-1.17-.02-2.35-.13-3.52-.13-1.45,0-3.04-.04-4.47.13-.06.02-.13,0-.19,0,.07-.09-.93-.24-1.09-.24-.98-.07-3.71-.04-4.37.63h-.26c-1.5-.02-3.02-.04-4.52.06-.89.63-1.37-.57-1.3,1.19-1.85.11-9.88-2.89-11.05-3.58-.02,0-.15-.02-.24-.09.59-.37,3.52-2.46,3.74-2.56.26-.11.39-.15.72-.11,5.91-.09,11.82-.06,17.74-.07h3.91c6.41,0,12.82-.06,19.25.07.44.07,3.24,2.17,3.95,2.54Z"/>
    <path class="cls-2" d="M53.17,28.38c-.11.67-.74,1.28-1.35,1.52-2.69,1.06-12.81.44-16.36.69-.06-.04-.02-.74-.02-.87s-.04-.78.02-.82q5.62-.11,11.21-.2c.22.22.02.54.02.57.33.95,1.83,1.26,2.52.56.24-.22.28-.52.32-.82.04-.22-.04-1.07.04-1.13q1.82-.04,3.65-.06c.07.04-.02.46-.04.56Z"/>
    <path class="cls-2" d="M18.94,29.64c0,.17.19.85-.04.95-3.41-.22-9.8.15-12.58-.06-.28-.02-3.65-.57-3.84-.63-.89-.28-1.59-1.11-1.37-2.08q2.13.02,4.26.06c.13.11-.06.61-.02,1.07,0,.07-.02.19,0,.24.2,1.09,2.09,1.39,2.58.39.15-.33.13-.56.13-.91.07-.17,3.24.13,3.67.15,2.41.07,4.84.02,7.25.07.11.2-.04.7-.04.74Z"/>
    <path class="cls-2" d="M51.19,24.62c-.82.13-9.1.52-10.69.56-2.11.06-4.23-.02-6.32,0-5.65.07-11.29.09-16.94,0-2.63-.04-13.08-.11-14.81-.56-1.41-.37-1.56-1.78-1.39-3.02.82.65,1.7,1.26,2.78,1.45.37.06,4.71.39,5.52.44,2.19.09,4.37-.02,6.54.11.07.06.13.17.22.19.19.06.32.28,1.39.32,5.73-.19,11.45.06,17.18-.06,1.32-.02,2.61-.07,3.93-.06q.28-.17.57-.32c2.59-.17,5.21-.13,7.8-.32,2.5-.19,4.47-.17,6.36-2.02.2,1.87-.19,2.97-2.15,3.28Z"/>
    <path class="cls-2" d="M33.88,30.66c-.82.15-11.01-.13-13.21,0q-.17-.15-.33-.3c.15-1.48-.46-3.43.65-3.67,2,.09,12.34-.15,12.97,0,.15.04.56.37.59.54-.2.91.54,3.19-.67,3.43Z"/>
    <path class="cls-2" d="M10.63,17.72c-.04-.68,2.02-1.5,2.52-1.7,1.53-.61,2.85-.64,3.19-.64,7.66-.13,11.49-.2,11.91-.18,4.12.11,9.35.15,14.79,1.96.56.19,1.21.42,1.21.72-.02,1.12-9.6,1.92-17.39,1.92-7.12,0-16.14-.68-16.23-2.07Z"/>
    <path class="cls-4" d="M2.98,17.53c-.37.05-.72.35-.81.7-.17.61.47,1.22.72,1.46,1.54,1.49,4.41,1.37,4.59.79.07-.23-.28-.53-.6-.81-.78-.67-1.24-.47-2.18-1.02-.99-.58-1.14-1.18-1.72-1.11Z"/>
    <path class="cls-4" d="M51.66,17.53c.37.05.72.35.81.7.17.61-.47,1.22-.72,1.46-1.54,1.49-4.41,1.37-4.59.79-.07-.23.28-.53.6-.81.78-.67,1.24-.47,2.18-1.02.99-.58,1.14-1.18,1.72-1.11Z"/>
  </g>
</svg>