<?xml version="1.0" encoding="UTF-8"?>
<svg id="Calque_2" data-name="Calque 2" xmlns="http://www.w3.org/2000/svg" viewBox="0 0 44.38 52.46">
  <defs>
    <style>
      .cls-1 {
        fill: #ccc;
        stroke-width: 0px;
      }
    </style>
  </defs>
  <g id="Calque_1-2" data-name="Calque 1">
    <path class="cls-1" d="M44.38,49.68c-.01,1.54-1.52,2.79-3.38,2.79H3.38C1.5,52.46,0,51.21,0,49.66c0-4.7.94-14.19,7.82-19.82,1.32-1.08,3.48-1.13,4.8-.04,2.45,2.02,5.84,3.27,9.57,3.27s7.14-1.26,9.59-3.29c1.32-1.09,3.49-1.05,4.83.03,6.95,5.63,7.81,15.16,7.77,19.86Z"/>
    <path class="cls-1" d="M22.19,0c-7.48,0-13.55,6.07-13.55,13.55,0,2.68.78,5.18,2.13,7.28,2.4,3.77,6.63,6.27,11.43,6.27s9.04-2.51,11.45-6.3c1.33-2.1,2.1-4.59,2.1-7.25,0-7.48-6.07-13.55-13.55-13.55ZM30.59,18.87c-1.77,2.79-4.87,4.63-8.41,4.63s-6.62-1.83-8.39-4.6c-.99-1.54-1.56-3.37-1.56-5.34,0-5.5,4.46-9.95,9.95-9.95s9.95,4.45,9.95,9.95c0,1.96-.56,3.78-1.54,5.32Z"/>
  </g>
</svg>