<?xml version="1.0" encoding="UTF-8"?>
<svg id="Calque_2" data-name="Calque 2" xmlns="http://www.w3.org/2000/svg" viewBox="0 0 34.77 34.77">
  <defs>
    <style>
      .cls-1 {
        fill: #fff;
        stroke: #1a1a1a;
      }

      .cls-1, .cls-2 {
        stroke-miterlimit: 10;
      }

      .cls-2 {
        fill: #ccc;
        stroke: #fff;
      }
    </style>
  </defs>
  <g id="Calque_1-2" data-name="Calque 1">
    <rect class="cls-2" x=".5" y=".5" width="33.77" height="33.77" rx="3.67" ry="3.67"/>
    <path class="cls-1" d="M12.66,27.69c-.88,0-1.5-.13-1.87-.39-.37-.26-.59-.6-.67-1.02-.08-.42-.12-.84-.12-1.27v-15.08c0-.43.04-.85.12-1.26.08-.41.3-.75.67-1.01.37-.26,1-.39,1.9-.39h5.81c.74,0,1.54.15,2.4.45.86.3,1.67.76,2.44,1.39.77.62,1.4,1.4,1.88,2.34.49.93.73,2.05.73,3.33s-.24,2.37-.73,3.3c-.49.93-1.12,1.71-1.88,2.32-.77.61-1.58,1.07-2.44,1.37-.86.3-1.67.45-2.43.45h-3.13v2.8c0,.43-.04.85-.12,1.26-.08.41-.3.75-.67,1.01-.37.26-1,.39-1.9.39ZM15.34,16.88h3.16c.25,0,.55-.06.88-.19.33-.13.62-.35.88-.66.25-.31.38-.74.38-1.29,0-.41-.1-.77-.29-1.1-.2-.32-.45-.57-.77-.76-.32-.18-.69-.28-1.1-.28h-3.13v4.27Z"/>
  </g>
</svg>