<?xml version="1.0" encoding="UTF-8"?>
<svg id="Calque_2" data-name="Calque 2" xmlns="http://www.w3.org/2000/svg" viewBox="0 0 307.2 206.52">
  <defs>
    <style>
      .cls-1 {
        opacity: .09;
      }

      .cls-1, .cls-2, .cls-3, .cls-4, .cls-5, .cls-6, .cls-7, .cls-8, .cls-9, .cls-10, .cls-11, .cls-12, .cls-13, .cls-14, .cls-15, .cls-16, .cls-17, .cls-18, .cls-19, .cls-20 {
        stroke-width: 0px;
      }

      .cls-21 {
        font-family: Fredoka-Medium, Fredoka;
        font-size: 60px;
        font-variation-settings: 'wght' 500, 'wdth' 100;
        font-weight: 500;
      }

      .cls-21, .cls-16 {
        fill: #fff;
      }

      .cls-3 {
        fill: #467323;
      }

      .cls-4 {
        fill: #181334;
      }

      .cls-5 {
        fill: #091510;
      }

      .cls-6 {
        fill: #0a1a0d;
      }

      .cls-7 {
        fill: #0c141b;
      }

      .cls-8 {
        fill: #101529;
      }

      .cls-9 {
        fill: #ccc;
      }

      .cls-10 {
        fill: #dee24b;
      }

      .cls-11 {
        fill: #b1e0d3;
      }

      .cls-12 {
        fill: #cf9fab;
      }

      .cls-13 {
        fill: #666;
      }

      .cls-14 {
        fill: #333;
      }

      .cls-15 {
        fill: #999;
      }

      .cls-17 {
        fill: #ff0;
      }

      .cls-18 {
        fill: #ecafb7;
      }

      .cls-19 {
        fill: #e6efd6;
      }

      .cls-20 {
        fill: #022210;
      }
    </style>
  </defs>
  <g id="Calque_1-2" data-name="Calque 1">
    <path class="cls-12" d="M196.72,52.23c-15.22.02-30.39,1.75-45.62,1.07v-.97c15.41.25,30.41-.19,45.62-.1Z"/>
    <path class="cls-10" d="M151.1,52.33v.97c-3.65-.16-7.34-.35-11-.47-.11-.19-.25-.37-.42-.55.42-.01.88-.01,1.42-.02,3.66-.03,6.35.01,10,.07Z"/>
    <path class="cls-11" d="M140.1,52.83c-3.21-.11-5.33-.08-8.48-.54-.66.82-1.28.84-4.05,1.01-2.29.15-3.23-1.06-5.44-1.06,2.21,0,3.76.05,6.06.09,1.7.03,3.76-.12,5.29,0,2.94,0,3.5-.03,6.2-.05.17.18.31.36.42.55Z"/>
    <path class="cls-2" d="M249.11,68.24c-3.49-3.05-6.24-4.68-10.66-5.87-.25-1.25-.43-1.9-.68-3.15,1.33.05,0,0,1.33.02.17,0,.34.01.51.01h.1l-.84-3.52c-.15-.24-.3-.55-.45-.93-1.03-2.49-2.22-7.65-3.15-11.55-.01-.01-.01-.03-.01-.04-.47-2.02-.88-3.69-1.16-4.47-1.8-5.08-5.16-13.43-7.5-18.25C217.67,2.06,209.77,2.39,181.85.74c-18.82-1.11-80.33-2.12-94.75,6-10.52,5.94-14.14,24.8-16,36-.87,5.3-1.32,10.68-2,16-.02.17.03.34,0,.5-.09.65.06,1.35,0,2-2.48.17-12.73,4.37-14.75,6-11.19,9.08-9.64,43.86-6.29,57.34.01.05.03.11.04.16.2-.05.38-.1.54-.16.49-.18.79-.4.98-.71.05-.07.09-.14.13-.23.01-.03.03-.07.05-.11.04-.1.07-.21.1-.33.02-.06.04-.13.05-.2.05-.22.1-.48.15-.76.34-1.81-.07-8.09,0-11.5.67-29.71-3.06-43.31,27.5-47.5.17-.02.34.03.5,0,21.97-2.91,51.06-2.15,73.5-2,.31,6.99-.27,13.83-1,20.75-.87,1.27-2.95.63-5,.75,6.34,3.65,6.86,2.75,13.25.5.39-.13.25-.67.25-1-1.26-.13-2.64.49-3.5-.75-.42-.92,1.59-17.31,1.5-20.25-.01-.24,0-.5.02-.76-.01.26-.02.52-.01.76,18.61.64,55.92-1.04,71.99,2h.01c3.87.74,6.5,1.67,9.99,3.5h.01c2.32,1.23,4.44,2.82,6.33,4.67.11.1.21.21.32.32.1.1.21.2.31.31,1.85,1.92,3.47,4.09,4.83,6.43.3.51.59,1.04.87,1.57.27.53.54,1.07.79,1.62.25.54.49,1.09.71,1.65.23.55.44,1.11.63,1.67.25.71.47,1.41.67,2.12.1.35.2.71.28,1.07.1.36.18.72.26,1.07.06-1.32,2.48-2.3,3.49-2.99h0s.01-.01.01-.01c.02,0-.02-.19.05-.33.02-.03.04-.05.06-.07.08-.08.19-.12.38-.1h.01c-1.58-5.68-5.55-13.59-10-17.5ZM157.1,58.74h.01c.02.05.02.12.03.21-.01-.09-.02-.16-.04-.21ZM230.35,53.24c-.74.03-1.5-.04-2.25,0-5.48.34-21.95-.93-29.5-1-.63,0-1.25,0-1.88,0-15.21-.09-30.21.35-45.62.1-3.65-.06-6.34-.1-10-.07-.54.01-1,.01-1.42.02-2.7.02-3.26.05-6.2.05-1.53-.12-3.59.03-5.29,0-2.3-.04-3.85-.1-6.06-.09h-.03c-3.72,4.29-16.58,1.9-19.75,3-.38.14-.25.66-.25,1-7.41.28-15.13.68-22.5,1.5,1.52-3.17-1.99-2.51-3.5-4-1.59-1.56-.66-.66-.5-2.5.29-3.11,5.17-24.04,6.5-28,2.63-7.77,3.39-11.28,16.75-14,16.95-3.44,105.07-3.49,118.25,3,4.95,2.44,6.94,11.16,8.5,16.25.93,3.01,6.23,23.99,4.75,24.75Z"/>
    <path class="cls-9" d="M228.1,53.24c-5.48.34-21.95-.93-29.5-1-.63,0-1.25,0-1.88,0-15.21-.09-30.21.35-45.62.1-3.65-.06-6.34-.1-10-.07-.54.01-1,.01-1.42.02-2.7.02-3.26.05-6.2.05-1.53-.12-3.59.03-5.29,0-2.3-.04-3.85-.1-6.06-.09h-.03c-8.54.04-13.84-1.1-24.5-.5-7.19.41-14.22,2.44-21.5,2-1.59-1.56-.66-.66-.5-2.5.29-3.11,5.17-24.04,6.5-28,8.09-12.87,25.86-10.35,39-11,9.99-.49,20.01-.89,30-1,16.15-.17,32.36.04,48.5.5.35,1.81,7.17,1.49,10.25,2.5,14.5,4.78,16.5,26.14,18.25,39Z"/>
    <path class="cls-1" d="M179.92,53.12c-10.09.09-20.19.23-30.47.06-3.65-.06-6.34-.1-10-.07-.54.01-1,.01-1.42.02-2.7.02-3.26.05-6.2.05-1.53-.12-3.59.03-5.29,0-2.3-.04-3.85-.1-6.06-.09h-.03c-8.54.04-13.84-1.1-24.5-.5-7.19.41-14.22,2.44-21.5,2-1.59-1.56-.66-.66-.5-2.5.29-3.11,5.17-24.04,6.5-28,2.36-3.75,5.54-6.19,9.19-7.79,10.17,7.02,22.07,14.04,35.79,20.21,19.07,8.58,37.57,13.7,54.49,16.61Z"/>
    <path class="cls-19" d="M260.66,92.37c.06.42.1.85.14,1.28l-1.2-7.4c.07.29.14.58.21.88.12.56.24,1.14.34,1.74.06.3.11.61.16.92.05.31.1.61.14.93.05.32.09.64.13.96.03.23.06.46.08.69Z"/>
    <path class="cls-19" d="M260.81,93.69c.06.64.11,1.28.15,1.94-.04-.67-.1-1.33-.16-1.98,0,.01,0,.03,0,.04Z"/>
    <path class="cls-8" d="M259.1,126.75c-2.03.69,1.28-10.01,1-10.75-.13-.36-1.37,1-4-1.75.43-3.61.1-7.82,0-11.5h.01c1.09.14,1.91-.14,2.51-.74,2.92-2.87.79-12.81-.02-15.75h0s-.04-.28.12-.41c.08-.08.19-.12.38-.1.2.71.5.47.5.5.07.29.14.58.21.88.12.56.24,1.15.34,1.74.06.3.11.61.16.92.05.31.1.61.14.93.05.32.09.64.13.96.03.23.06.46.08.69.06.42.1.85.14,1.28,0,.01.01.03.01.04.02.25.04.49.06.74.04.4.07.79.09,1.2.02.15.03.3.03.46.05.65.09,1.3.11,1.96.04.7.06,1.4.07,2.11.21,9.17-.77,19.21-2.07,26.59Z"/>
    <path class="cls-14" d="M150.6,82c-.87,1.27-2.95.63-5,.75-5.57.35-19.89.06-25.5-.5-2.57-.25-5.15-.59-7.75-.5-11.01-13.52-18.36-15.45-35.25-13.5-.16.02-.33-.02-.5,0h-.02c-.2.06-.4.12-.6.19-.22.07-.44.14-.66.23-.21.08-.42.16-.64.26-.18.07-.36.15-.54.23-2.15.99-4.37,2.49-6.43,4.26-.61.52-1.2,1.06-1.77,1.63-.19.19-.38.37-.57.57-.75.76-1.45,1.55-2.11,2.36-.33.4-.64.8-.93,1.2-1.19,1.63-2.14,3.27-2.73,4.82-2.38,6.28-1.72,16.1-4,15.75.49,5.3,2.76,10.36,6.5,14.25-4.59,1.9-8.43,4.85-12,8.25.34-1.81-.07-8.09,0-11.5.67-29.71-3.06-43.31,27.5-47.5.17-.02.34.03.5,0,21.97-2.91,51.06-2.15,73.5-2,.31,6.99-.27,13.83-1,20.75Z"/>
    <g>
      <path class="cls-14" d="M237.1,128.25v1.5c-7.33.05-14.66.01-22,0l1-1c5.56.09,15.3-.22,21-.5Z"/>
      <path class="cls-14" d="M251.85,126.75c-4.87,1.2-9.78,1.26-14.75,1.5-5.7.28-15.44.59-21,.5-21.97-.33-19.77-.3-5.25-10,12.77-.16,32.17-3.32,41,8Z"/>
    </g>
    <path class="cls-8" d="M193.1,86.25c-16.3-.82-32.68-.61-49-.5-4.23.03-29.82-.63-31.25,0-1.23.55-.62,2.92-.75,4-.85-.37-.82-4.02.25-4.5,2.94.39,6.03-.3,7.75-3,5.61.56,19.93.85,25.5.5,6.34,3.65,6.86,2.75,13.25.5.39-.13.25-.67.25-1,7.52.77,20.92-.57,29.5,0,.19,3.81,3.64,2.18,4.5,4Z"/>
    <path class="cls-18" d="M239.11,66.75c-.19.33-.41.61-.66.84.24-.23.46-.51.65-.84h.01Z"/>
    <path class="cls-7" d="M195.1,94.25c-.56.02-.96-.93-1.25-1-2.62-.58-46.46.44-53.75.5-3.73.03-26.01-.57-27.25,0-1.19.56-.48,1.78-.75,2.5-.26.74-.23,2.04-1,2.5.63-2.32,1.58-6.9,1.5-9,1.74.38,26.7.03,32.5,0,16.01-.07,32-1.16,48,0-.89,5.63-.66.51,2,4.5Z"/>
    <path class="cls-12" d="M193.1,89.75c-16-1.16-31.99-.07-48,0-5.8.03-30.76.38-32.5,0-.17-.03-.37.06-.5,0,.13-1.08-.48-3.45.75-4,1.43-.63,27.02.03,31.25,0,16.32-.11,32.7-.32,49,.5,1.11,2.34.12,2.76,0,3.5Z"/>
    <path class="cls-4" d="M258.62,102.01c-.6.6-1.42.88-2.51.74-.02-.57-.03-1.14-.04-1.7-.04-2.27-.07-4.51-.25-6.75-.13-1.68-.34-3.36-.71-5.05.06-1.32,2.48-2.3,3.49-2.99h0s.01-.01.01-.01c.8,2.94,2.95,12.93.01,15.76Z"/>
    <g>
      <path class="cls-14" d="M256.1,114.25c-1.18,9.9-2.04,3.29-14-.25-.42-1.27,10.27-7.25,7.5-24.75-1.89-11.95-13.88-20.53-25.5-21-25.75,2.02-30.37,13.08-35.5,14-8.58-.57-21.98.77-29.5,0-1.26-.13-2.64.49-3.5-.75-.42-.92,1.59-17.31,1.5-20.25h.01c18.61.64,55.92-1.04,71.99,2h.01c3.87.74,6.5,1.67,9.99,3.5-.19.33-.41.61-.65.84.25-.23.47-.51.66-.84,2.32,1.23,4.44,2.82,6.33,4.67.11.1.21.21.32.32.1.1.21.2.31.31,1.85,1.92,3.47,4.09,4.83,6.43.3.51.59,1.04.87,1.57.27.53.54,1.07.79,1.62.25.54.49,1.09.71,1.65.22.55.43,1.11.63,1.67.25.71.47,1.41.67,2.12.1.35.2.71.28,1.07.09.36.18.72.25,1.07.37,1.69.58,3.37.72,5.05.18,2.24.21,4.48.25,6.75,0,.56.02,1.13.03,1.7.1,3.68.43,7.89,0,11.5Z"/>
      <path class="cls-14" d="M239.11,66.75c-.19.33-.41.61-.66.84.24-.23.46-.51.65-.84h.01Z"/>
    </g>
    <path class="cls-13" d="M199.85,105.25h-91.5c-.31-.16,1.83-3.07,2.75-6.5.77-.46.74-1.76,1-2.5.27-.72-.44-1.94.75-2.5,1.24-.57,23.52.03,27.25,0,7.29-.06,51.13-1.08,53.75-.5.29.07.69,1.02,1.25,1,.08.12-.07.38,0,.5,1.83,3.18,2.9,7.27,4.75,10.5Z"/>
    <path class="cls-7" d="M79.85,117.25c-9.41.03-19.44,2.51-26.75,8.75.24,2.86,44.77,1.56,48.5.5-7.23-7.42-11.19-9.28-21.75-9.25ZM90.85,70.75c-19.36-3.51-34,10.72-25.25,29.75.56,1.21,2.65,2.15,3.25,5.75.67-2.6,3.25.89,5.75,1.5-4.92-6.56-6.83-9.87-5.5-18.75,1.82-12.14,14.89-15.92,24.5-10.25.65.38.96.47,1,.5h.5c8.04,6.58,8.57,14.19,6.5,24,11.18-11.1,4.47-29.73-10.75-32.5ZM194.6,121.5c-11.47-.54-83.46-1.73-87.75-.75-3.99.92-.74,6.19,1.25,7,.04.02.1.03.17.05.01,0,.02,0,.03.01.12.03.28.06.47.08.01.01.02.01.03,0,6.72.97,53.5,1.25,56.05.36.39-.13.26-.65.25-1,3.86-.04,25.5.48,26.75,0,.85-.32,2.19-3.92,2.25-5,.01-.04.65.15.5-.75ZM204.35,113.75c-8.69-3.22-58.49-3.64-71-3.5-11.36.13-24.74-.74-34.25,5,5.33,1.77,3.24,2.53,7.5,3.5,4.93,1.13,85.18,1.14,89.5,0,2.03-2.36,6.52-3.09,9.5-3q.25-.37.5-.75c-.09-.26-1.45-1.14-1.75-1.25ZM239.1,81c-11.99-17.16-55.31-4.19-33,20.75,1.42,1.59,2.13,3.24,4,4.5,12.25,8.28,26.31-1.79,27-10,.16-1.9-.15-3.64-.5-5.5,1.87,2.5,2.96,4.97,3.25,5,1.65.17,4.66-7.01-.75-14.75Z"/>
    <path class="cls-7" d="M276.35,125.75c-3.44-.29-6.82.41-10.25.5-2.37.07-4.62.67-7,.5-2.03.69,1.28-10.01,1-10.75-.13-.36-1.37,1-4-1.75-1.18,9.9-2.04,3.29-14-.25-.42-1.27,10.27-7.25,7.5-24.75-1.89-11.95-13.88-20.53-25.5-21-25.75,2.02-30.37,13.08-35.5,14,.19,3.81,3.64,2.18,4.5,4,1.11,2.34.12,2.76,0,3.5-.89,5.63-.66.51,2,4.5.08.12-.07.38,0,.5,1.83,3.18,2.9,7.27,4.75,10.5h-91.5c-.31-.16,1.83-3.07,2.75-6.5.63-2.32,1.58-6.9,1.5-9-.17-.03-.37.06-.5,0-.85-.37-.82-4.02.25-4.5,2.94.39,6.03-.3,7.75-3-2.57-.25-5.15-.59-7.75-.5-11.01-13.52-18.36-15.45-35.25-13.5-.16.02-.33-.02-.5,0h-.02c-.2.06-.4.12-.6.19-.22.07-.44.14-.66.23-.21.08-.42.16-.64.26-.18.07-.36.15-.54.23-2.15.99-4.37,2.49-6.43,4.26-.61.52-1.2,1.06-1.77,1.63-.19.19-.38.37-.57.57-.75.76-1.45,1.55-2.11,2.36-.33.4-.64.8-.93,1.2-1.19,1.63-2.14,3.27-2.73,4.82-2.38,6.28-1.72,16.1-4,15.75.49,5.3,2.76,10.36,6.5,14.25-4.59,1.9-8.43,4.85-12,8.25-.27,1.49-.38,2.11-2,2.5-2.04.51-9.73-.36-13.25,0-.59.32,2.16,4.2,2.25,4.5,22.4.48,44.77-2.48,67,1,17.15-.01,34.34-.48,51.5-.5,12.26-.01,24.49-.49,36.75-.5.18,0,1.52,1.65,2,2,5.33-1.37,14.64-1.5,20.75-1.5l1-1c-21.97-.33-19.77-.3-5.25-10,12.77-.16,32.17-3.32,41,8-4.87,1.2-9.78,1.26-14.75,1.5v1.5c12.98-.07,26.19-.66,39,.5-.03-.22,1.16-.92.25-4.5ZM90.85,70.75c15.22,2.77,21.93,21.4,10.75,32.5.16-.77.31-1.52.43-2.26.11-.65.21-1.28.29-1.91.02-.09.03-.18.04-.27h0c.02-.12.03-.24.04-.35.03-.26.06-.52.08-.77v-.02c.28-2.94.17-5.66-.48-8.21-.08-.29-.16-.57-.24-.85-.38-1.22-.89-2.4-1.56-3.55-.27-.47-.57-.93-.89-1.39-1.09-1.53-2.47-3-4.21-4.42h-.5c3.49,2.7,5.58,8.03,5.55,12.47h0c-.01.35-.02.7-.05,1.03-.48,5.6-7.77,15.87-10,11.5-.06.08-1.06.58-1.5,1.25.93.41.95.14,1,1.25-5.79,2.67-8.9,2.49-15,1-.13-.03-.26-.07-.39-.12-.12-.04-.25-.09-.38-.15h0c-.39-.18-.78-.4-1.16-.64-.14-.09-.29-.18-.43-.27-.75-.49-1.45-.99-2.02-1.18-.06-.02-.12-.04-.17-.05-.04-.01-.07-.02-.1-.02-.51-.09-.89.14-1.09.93-.6-3.6-2.69-4.54-3.25-5.75-8.75-19.03,5.89-33.26,25.25-29.75ZM53.1,126c7.31-6.24,17.34-8.72,26.75-8.75,10.56-.03,14.52,1.83,21.75,9.25-3.73,1.06-48.26,2.36-48.5-.5ZM194.1,122.25c-.06,1.08-1.4,4.68-2.25,5-1.25.48-22.89-.04-26.75,0,.01.35.14.87-.25,1-2.55.89-49.33.61-56.05-.36-.01.01-.02.01-.03,0-.19-.02-.35-.05-.47-.08-.01-.01-.02-.01-.03-.01-.07-.02-.13-.03-.17-.05-1.99-.81-5.24-6.08-1.25-7,4.29-.98,76.28.21,87.75.75.15.9-.49.71-.5.75ZM205.6,115.75c-2.98-.09-7.47.64-9.5,3-4.32,1.14-84.57,1.13-89.5,0-4.26-.97-2.17-1.73-7.5-3.5,9.51-5.74,22.89-4.87,34.25-5,12.51-.14,62.31.28,71,3.5.3.11,1.66.99,1.75,1.25q-.25.38-.5.75ZM239.85,95.75c-.11-.01-.33-.37-.66-.93v-.02c-.11-.19-.23-.39-.37-.62-.55-.94-1.29-2.18-2.22-3.43.35,1.86.66,3.6.5,5.5-.69,8.21-14.75,18.28-27,10-1.87-1.26-2.58-2.91-4-4.5-.46-.52-.9-1.03-1.3-1.54-.13-.16-.26-.33-.39-.49h-.01c-.81-1.06-1.5-2.08-2.08-3.07-.14-.24-.28-.49-.41-.74-.12-.22-.24-.44-.35-.67-.13-.26-.25-.52-.36-.78-.11-.24-.21-.48-.3-.71-.32-.82-.57-1.62-.75-2.4-.05-.22-.1-.44-.13-.66-.06-.35-.11-.7-.14-1.04-.03-.2-.04-.41-.05-.61-.19-3.82,1.38-7.06,4.01-9.6.2-.2.42-.4.64-.59s.45-.38.68-.56c.47-.37.96-.71,1.47-1.04.76-.49,1.57-.94,2.42-1.35.86-.41,1.74-.77,2.66-1.09,5.03-1.75,10.94-2.15,16.2-.9.82.19,1.63.43,2.42.71.79.27,1.56.59,2.29.96,1.11.54,2.16,1.18,3.12,1.92,1.28.99,2.42,2.15,3.36,3.5,5.41,7.74,2.4,14.92.75,14.75Z"/>
    <path class="cls-9" d="M205.6,115.75c-2.98-.09-7.47.64-9.5,3h-89.5c-4.26-.97-2.17-1.73-7.5-3.5,4.48-1.35,9.09-2.94,13.75-3.5,4.39-.52,69.63.03,76.5.5,4.24.3,12.7,1.52,16.25,3.5Z"/>
    <path class="cls-14" d="M194.1,122.25c-.06,1.08-1.4,4.68-2.25,5-1.25.48-22.89-.04-26.75,0-7.01.09-49.81,1.39-56.3.64-.01.01-.02.01-.03,0-.19-.03-.35-.05-.47-.08-.01-.01-.02-.01-.03-.01-.07-.02-.13-.03-.17-.05-.41-.16-3.41-5.56-1.75-6q43.88.25,87.75.5Z"/>
    <path class="cls-5" d="M206.1,115q-.25.38-.5.75c-3.55-1.98-12.01-3.2-16.25-3.5-6.87-.47-72.11-1.02-76.5-.5-4.66.56-9.27,2.15-13.75,3.5,9.51-5.74,22.89-4.87,34.25-5,12.51-.14,62.31.28,71,3.5.3.11,1.66.99,1.75,1.25Z"/>
    <path class="cls-14" d="M194.1,122.25q-43.87-.25-87.75-.5c-1.66.44,1.34,5.84,1.75,6-1.99-.81-5.24-6.08-1.25-7,4.29-.98,76.28.21,87.75.75.15.9-.49.71-.5.75Z"/>
    <path class="cls-6" d="M196.1,118.75c-4.32,1.14-84.57,1.13-89.5,0h89.5Z"/>
    <path class="cls-20" d="M164.85,128.25c-2.55.89-49.33.61-56.05-.36,6.49.75,49.29-.55,56.3-.64.01.35.14.87-.25,1Z"/>
    <path class="cls-14" d="M101.6,126.5c-3.73,1.06-48.26,2.36-48.5-.5,7.31-6.24,17.34-8.72,26.75-8.75,10.56-.03,14.52,1.83,21.75,9.25Z"/>
    <g>
      <path class="cls-11" d="M100.1,92.75c-.48,5.6-7.77,15.87-10,11.5-.06.08-1.06.58-1.5,1.25.93.41.95.14,1,1.25-5.79,2.67-8.9,2.49-15,1-4.92-6.56-6.83-9.87-5.5-18.75,1.82-12.14,14.89-15.92,24.5-10.25.65.38.96.47,1,.5,3.77,2.91,5.9,8.89,5.5,13.5Z"/>
      <path class="cls-3" d="M95.1,79.25h-.5s-.35-.12-1-.5c.03-.93.82-.05,1.5.5Z"/>
    </g>
    <path class="cls-13" d="M71.1,42.75c-.87,5.3-1.32,10.68-2,16-3.66.72-4.75.01-5,0,1.95-13.7-24.57,4.73-8-16.5,3.79-.89,8.21-.78,12,0,.38.08,1.04.79,3,.5Z"/>
    <path class="cls-8" d="M64.1,58.75c-3.5-.06-9.75.15-15.2.1h0c-5.28,0-6.78.09-7.11-1.02-.23-.73,1.46-2.08,1.65-2.24.58-.48.87-.81,1.2-1.06h.01c.31-.49.62-1.01.94-1.56h0c.08-.15.16-.29.24-.43.16-.28.33-.58.49-.87,2.12-3.78,4.68-8.2,9.78-9.42-16.57,21.23,9.95,2.8,8,16.5Z"/>
    <path class="cls-13" d="M235.26,43.21c.87,5.3,1.83,10.7,2.51,16.02,3.66.72,4.99.05,5.24.04-1.95-13.7,24.57,4.73,8-16.5-3.79-.89-8.21-.78-12,0-.38.08-1.79.74-3.75.45Z"/>
    <path class="cls-8" d="M243,59.26c3.5-.06,9.75.15,15.2.1h0c5.28,0,6.78.09,7.11-1.02.23-.73-1.46-2.08-1.65-2.24-.58-.48-.87-.81-1.2-1.06h-.01c-.31-.49-.62-1.01-.94-1.56h0c-.08-.15-.16-.29-.24-.43-.16-.28-.33-.58-.49-.87-2.12-3.78-4.68-8.2-9.78-9.42,16.57,21.23-9.95,2.8-8,16.5Z"/>
    <path class="cls-19" d="M217.1,12.24c-5.83.14-11.66-.33-17.5-.5-16.14-.46-32.35-.67-48.5-.5-9.99.11-20.01.51-30,1-13.14.65-30.91-1.87-39,11,2.63-7.77,3.39-11.28,16.75-14,16.95-3.44,105.07-3.49,118.25,3Z"/>
    <path class="cls-8" d="M122.1,52.24c-3.72,4.29-16.58,1.9-19.75,3-.38.14-.25.66-.25,1-7.41.28-15.13.68-22.5,1.5,1.52-3.17-1.99-2.51-3.5-4,7.28.44,14.31-1.59,21.5-2,10.66-.6,15.96.54,24.5.5Z"/>
    <path class="cls-9" d="M230.35,53.24c-.74.03-1.5-.04-2.25,0-1.75-12.86-3.75-34.22-18.25-39-3.08-1.01-9.9-.69-10.25-2.5,5.84.17,11.67.64,17.5.5,4.95,2.44,6.94,11.16,8.5,16.25.93,3.01,6.23,23.99,4.75,24.75Z"/>
    <circle class="cls-2" cx="85.09" cy="93.65" r="17.84"/>
    <circle class="cls-2" cx="221.35" cy="94.12" r="17.84"/>
    <path class="cls-17" d="M234.29,93.73c-.09,2.16-.83,4.15-2,5.85-2.32,3.37-6.36,5.61-10.54,5.72-.12.01-.23.01-.35.01-3.49,0-6.93-1.49-9.39-3.9-2.22-2.19-3.65-5.13-3.6-8.43.03-2.32.79-4.44,2.02-6.24,1.82-2.64,4.68-4.57,7.77-5.34.8-.21,1.62-.33,2.44-.37,4.09-.2,8.15,1.7,10.76,4.75,1.89,2.18,3.02,4.95,2.89,7.95Z"/>
    <path class="cls-17" d="M98.02,92.21c-.09,2.16-.83,4.15-2,5.85-2.32,3.37-6.36,5.61-10.54,5.72-.12.01-.23.01-.35.01-3.49,0-6.93-1.49-9.39-3.9-2.22-2.19-3.65-5.13-3.6-8.43.03-2.32.79-4.44,2.02-6.24,1.82-2.64,4.68-4.57,7.77-5.34.8-.21,1.62-.33,2.44-.37,4.09-.2,8.15,1.7,10.76,4.75,1.89,2.18,3.02,4.95,2.89,7.95Z"/>
    <path class="cls-15" d="M101.79,92.61c-.38,6.75-5.6,12.28-11.93,14.14s-13.29-.29-17.66-5.2c-4.71-5.29-5.07-13.11-.67-18.72,4.03-5.14,10.96-7.72,17.33-6.13,7.23,1.8,13.17,8.25,12.94,15.91-.04,1.45,2.21,1.45,2.25,0,.23-7.7-5.03-14.4-12-17.23s-15.41-1.06-20.82,4.4-6.76,14.27-2.45,20.97c4.07,6.33,11.82,9.83,19.25,8.71,8.38-1.27,15.53-8.24,16.01-16.85.08-1.45-2.17-1.44-2.25,0Z"/>
    <path class="cls-15" d="M238.06,93.95c-.38,6.75-5.6,12.28-11.93,14.14s-13.29-.29-17.66-5.2c-4.71-5.29-5.07-13.11-.67-18.72,4.03-5.14,10.96-7.72,17.33-6.13,7.23,1.8,13.17,8.25,12.94,15.91-.04,1.45,2.21,1.45,2.25,0,.23-7.7-5.03-14.4-12-17.23s-15.41-1.06-20.82,4.4-6.76,14.27-2.45,20.97c4.07,6.33,11.82,9.83,19.25,8.71,8.38-1.27,15.53-8.24,16.01-16.85.08-1.45-2.17-1.44-2.25,0Z"/>
    <rect class="cls-8" x="28.54" y="124.58" width="250.12" height="8.59" rx="2.9" ry="2.9"/>
    <path class="cls-16" d="M89.64,82.65c-1.6-.33-3.48.23-3.53.85-.06.72,2.45.73,4.8,2.96,1.61,1.53,1.93,2.95,2.33,2.82.53-.17.61-2.83-.78-4.73-.26-.36-1.17-1.56-2.82-1.91Z"/>
    <path class="cls-16" d="M225.6,84.43c-1.6-.33-3.48.23-3.53.85-.06.72,2.45.73,4.8,2.96,1.61,1.53,1.93,2.95,2.33,2.82.53-.17.61-2.83-.78-4.73-.26-.36-1.17-1.56-2.82-1.91Z"/>
    <path class="cls-16" d="M218.9,29.06c1.02-.64.08-5.19-2.68-8.33-1.67-1.9-4.02-3.29-9.32-4.52-6.98-1.62-12.61-1.46-14.68-1.41-14.67.35-24.27-.59-24.28-.28-.01.33,11.11.75,27.11,3.39,7.4,1.22,11.49,2.2,15.81,5.08,4.62,3.09,7.03,6.71,8.05,6.07Z"/>
    <text class="cls-21" transform="translate(7.5 191.4)"><tspan x="0" y="0">backdriver</tspan></text>
  </g>
</svg>