<?xml version="1.0" encoding="UTF-8"?>
<svg id="Calque_2" data-name="Calque 2" xmlns="http://www.w3.org/2000/svg" viewBox="0 0 287.64 43.56">
  <defs>
    <style>
      .cls-1 {
        fill: #fff;
        stroke-width: 0px;
      }
    </style>
  </defs>
  <g id="Calque_1-2" data-name="Calque 1">
    <g>
      <path class="cls-1" d="M3.6,43.14c-1.12,0-1.93-.17-2.43-.51-.5-.34-.82-.78-.96-1.32-.14-.54-.21-1.15-.21-1.83V3.78c0-.72.07-1.35.21-1.89.14-.54.46-.97.96-1.29C1.67.28,2.48.12,3.6.12s1.92.16,2.4.48c.48.32.78.76.9,1.32.12.56.18,1.18.18,1.86v36.9c-.16.88-.49,1.51-.99,1.89-.5.38-1.33.57-2.49.57ZM15.66,43.08c-1.96,0-3.71-.39-5.25-1.17-1.54-.78-2.84-1.85-3.9-3.21-1.06-1.36-1.86-2.93-2.4-4.71-.54-1.78-.81-3.69-.81-5.73.04-2.04.34-3.95.9-5.73.56-1.78,1.37-3.34,2.43-4.68,1.06-1.34,2.34-2.39,3.84-3.15,1.5-.76,3.23-1.14,5.19-1.14,1.8,0,3.52.38,5.16,1.14,1.64.76,3.09,1.81,4.35,3.15,1.26,1.34,2.25,2.9,2.97,4.68.72,1.78,1.08,3.67,1.08,5.67s-.36,4.03-1.08,5.85c-.72,1.82-1.71,3.4-2.97,4.74-1.26,1.34-2.7,2.39-4.32,3.15s-3.35,1.14-5.19,1.14ZM14.64,36.06c1.4,0,2.66-.33,3.78-.99,1.12-.66,2.01-1.57,2.67-2.73.66-1.16.99-2.48.99-3.96s-.32-2.86-.96-4.02c-.64-1.16-1.52-2.07-2.64-2.73-1.12-.66-2.38-.99-3.78-.99s-2.6.33-3.72.99c-1.12.66-2.01,1.57-2.67,2.73-.66,1.16-.99,2.5-.99,4.02s.33,2.8.99,3.96c.66,1.16,1.55,2.07,2.67,2.73,1.12.66,2.34.99,3.66.99Z"/>
      <path class="cls-1" d="M59.16,43.02c-1.2,0-2.07-.22-2.61-.66-.54-.44-.83-1.04-.87-1.8l.42-1.98c-.32.52-.86,1.13-1.62,1.83-.76.7-1.75,1.32-2.97,1.86s-2.71.81-4.47.81c-1.88,0-3.65-.39-5.31-1.17-1.66-.78-3.13-1.86-4.41-3.24-1.28-1.38-2.28-2.96-3-4.74-.72-1.78-1.08-3.69-1.08-5.73s.36-3.81,1.08-5.55c.72-1.74,1.73-3.29,3.03-4.65,1.3-1.36,2.77-2.43,4.41-3.21,1.64-.78,3.4-1.17,5.28-1.17,1.6,0,2.97.22,4.11.66,1.14.44,2.11.99,2.91,1.65.8.66,1.46,1.35,1.98,2.07l-.3-1.74c-.04-.88.22-1.55.78-2.01.56-.46,1.46-.69,2.7-.69,1.08,0,1.87.17,2.37.51.5.34.81.81.93,1.41s.18,1.26.18,1.98v21.9c0,.68-.06,1.3-.18,1.86-.12.56-.43,1-.93,1.32s-1.31.48-2.43.48ZM48.12,36.06c1.32,0,2.53-.34,3.63-1.02,1.1-.68,1.97-1.61,2.61-2.79.64-1.18.96-2.49.96-3.93,0-1.52-.33-2.86-.99-4.02-.66-1.16-1.55-2.08-2.67-2.76-1.12-.68-2.34-1.02-3.66-1.02-1.48,0-2.8.35-3.96,1.05-1.16.7-2.07,1.64-2.73,2.82-.66,1.18-.99,2.51-.99,3.99s.34,2.74,1.02,3.9c.68,1.16,1.61,2.08,2.79,2.76,1.18.68,2.51,1.02,3.99,1.02Z"/>
      <path class="cls-1" d="M82.86,43.32c-1.88,0-3.73-.34-5.55-1.02s-3.47-1.66-4.95-2.94c-1.48-1.28-2.64-2.85-3.48-4.71-.84-1.86-1.26-3.97-1.26-6.33s.42-4.46,1.26-6.3c.84-1.84,1.99-3.4,3.45-4.68,1.46-1.28,3.09-2.26,4.89-2.94,1.8-.68,3.64-1.02,5.52-1.02,1.44,0,2.78.2,4.02.6,1.24.4,2.32.88,3.24,1.44.92.56,1.58,1.12,1.98,1.68.56.48,1.02.94,1.38,1.38.36.44.48.98.36,1.62-.12.4-.3.77-.54,1.11-.24.34-.54.69-.9,1.05-.96,1.12-1.92,1.54-2.88,1.26-.52-.28-1.04-.59-1.56-.93-.52-.34-1.04-.66-1.56-.96-.52-.3-1.07-.55-1.65-.75-.58-.2-1.21-.3-1.89-.3-1.48,0-2.81.33-3.99.99-1.18.66-2.1,1.57-2.76,2.73-.66,1.16-.99,2.5-.99,4.02s.33,2.87.99,4.05c.66,1.18,1.57,2.1,2.73,2.76,1.16.66,2.46.99,3.9.99.76,0,1.46-.09,2.1-.27.64-.18,1.22-.42,1.74-.72.52-.3.94-.61,1.26-.93.44-.28.84-.54,1.2-.78.36-.24.76-.36,1.2-.36s.9.17,1.38.51c.48.34,1,.87,1.56,1.59.52.6.81,1.18.87,1.74.06.56-.07,1.1-.39,1.62-.32.52-.82,1.02-1.5,1.5-.48.44-1.18.92-2.1,1.44-.92.52-1.99.96-3.21,1.32-1.22.36-2.51.54-3.87.54Z"/>
      <path class="cls-1" d="M122.52,36.66c1.04.88,1.59,1.7,1.65,2.46.06.76-.35,1.64-1.23,2.64-.68.76-1.29,1.26-1.83,1.5-.54.24-1.07.25-1.59.03-.52-.22-1.12-.63-1.8-1.23l-11.46-9.6v7.08c0,.64-.07,1.24-.21,1.8-.14.56-.46,1-.96,1.32-.5.32-1.31.48-2.43.48s-1.94-.17-2.46-.51-.84-.79-.96-1.35c-.12-.56-.18-1.16-.18-1.8V3.66c0-.68.07-1.29.21-1.83.14-.54.47-.98.99-1.32.52-.34,1.34-.51,2.46-.51s1.92.17,2.4.51c.48.34.79.79.93,1.35.14.56.21,1.18.21,1.86v19.68l8.28-7.98c.6-.64,1.19-1.07,1.77-1.29.58-.22,1.14-.24,1.68-.06.54.18,1.11.61,1.71,1.29,1,1.12,1.48,2.03,1.44,2.73-.04.7-.54,1.51-1.5,2.43l-8.1,7.5,10.98,8.64Z"/>
      <path class="cls-1" d="M141.48,43.08c-1.8,0-3.52-.38-5.16-1.14-1.64-.76-3.09-1.81-4.35-3.15-1.26-1.34-2.25-2.92-2.97-4.74-.72-1.82-1.08-3.77-1.08-5.85s.36-3.89,1.08-5.67c.72-1.78,1.71-3.34,2.97-4.68,1.26-1.34,2.71-2.39,4.35-3.15,1.64-.76,3.36-1.14,5.16-1.14,1.96,0,3.7.38,5.22,1.14,1.52.76,2.81,1.81,3.87,3.15,1.06,1.34,1.87,2.9,2.43,4.68.56,1.78.84,3.69.84,5.73.04,2.04-.22,3.95-.78,5.73-.56,1.78-1.37,3.35-2.43,4.71-1.06,1.36-2.35,2.43-3.87,3.21-1.52.78-3.28,1.17-5.28,1.17ZM142.5,36.06c1.36,0,2.59-.33,3.69-.99,1.1-.66,1.98-1.57,2.64-2.73.66-1.16.99-2.48.99-3.96s-.32-2.86-.96-4.02c-.64-1.16-1.52-2.07-2.64-2.73-1.12-.66-2.38-.99-3.78-.99s-2.6.33-3.72.99c-1.12.66-2.01,1.57-2.67,2.73-.66,1.16-.99,2.5-.99,4.02s.33,2.8.99,3.96c.66,1.16,1.56,2.07,2.7,2.73,1.14.66,2.39.99,3.75.99ZM153.6,43.08c-1.12,0-1.95-.19-2.49-.57-.54-.38-.87-.99-.99-1.83V3.78c0-.68.05-1.3.15-1.86.1-.56.39-1.01.87-1.35.48-.34,1.28-.51,2.4-.51s1.93.16,2.43.48c.5.32.82.76.96,1.32.14.56.21,1.18.21,1.86v35.7c0,.68-.07,1.3-.21,1.86-.14.56-.45,1-.93,1.32-.48.32-1.28.48-2.4.48Z"/>
      <path class="cls-1" d="M166.86,43.14c-1.12,0-1.93-.17-2.43-.51-.5-.34-.81-.79-.93-1.35-.12-.56-.18-1.18-.18-1.86v-22.26c0-.68.07-1.3.21-1.86.14-.56.46-.99.96-1.29.5-.3,1.31-.45,2.43-.45s1.87.14,2.37.42c.5.28.82.64.96,1.08.14.44.21.84.21,1.2l-.48,1.08c.2-.32.48-.71.84-1.17.36-.46.84-.92,1.44-1.38.6-.46,1.32-.84,2.16-1.14.84-.3,1.84-.45,3-.45.48,0,.99.05,1.53.15.54.1,1.08.24,1.62.42s1.03.41,1.47.69c.44.28.78.61,1.02.99.24.38.36.81.36,1.29,0,1.28-.32,2.36-.96,3.24-.64.88-1.4,1.32-2.28,1.32-.6,0-1.04-.06-1.32-.18-.28-.12-.51-.25-.69-.39-.18-.14-.44-.27-.78-.39-.34-.12-.87-.18-1.59-.18-.6,0-1.21.1-1.83.3-.62.2-1.19.5-1.71.9-.52.4-.94.9-1.26,1.5-.32.6-.48,1.3-.48,2.1v14.58c0,.68-.06,1.29-.18,1.83-.12.54-.44.97-.96,1.29-.52.32-1.36.48-2.52.48Z"/>
      <path class="cls-1" d="M192.06,7.86c-1.2,0-2.07-.18-2.61-.54-.54-.36-.88-.84-1.02-1.44-.14-.6-.21-1.26-.21-1.98s.08-1.37.24-1.95c.16-.58.51-1.04,1.05-1.38.54-.34,1.41-.51,2.61-.51s2.06.18,2.58.54c.52.36.86.84,1.02,1.44.16.6.24,1.26.24,1.98s-.08,1.37-.24,1.95c-.16.58-.5,1.04-1.02,1.38-.52.34-1.4.51-2.64.51ZM192.06,43.14c-1.12,0-1.93-.17-2.43-.51-.5-.34-.81-.78-.93-1.32s-.18-1.15-.18-1.83v-22.26c0-.68.06-1.29.18-1.83s.44-.97.96-1.29c.52-.32,1.34-.48,2.46-.48s1.93.16,2.43.48c.5.32.81.76.93,1.32.12.56.18,1.2.18,1.92v22.2c0,.68-.06,1.29-.18,1.83s-.43.97-.93,1.29c-.5.32-1.33.48-2.49.48Z"/>
      <path class="cls-1" d="M215.58,43.32c-.84,0-1.54-.15-2.1-.45-.56-.3-1-.77-1.32-1.41l-10.98-22.8c-.56-1.2-.71-2.17-.45-2.91.26-.74.99-1.39,2.19-1.95,1.2-.6,2.16-.8,2.88-.6.72.2,1.36.94,1.92,2.22l7.86,18.42,7.68-18.06c.6-1.32,1.26-2.15,1.98-2.49.72-.34,1.76-.17,3.12.51,1.36.68,2.08,1.44,2.16,2.28s-.14,1.78-.66,2.82l-10.86,22.56c-.32.6-.76,1.06-1.32,1.38-.56.32-1.26.48-2.1.48Z"/>
      <path class="cls-1" d="M249.54,43.56c-2.6,0-4.88-.43-6.84-1.29s-3.58-2.02-4.86-3.48c-1.28-1.46-2.25-3.1-2.91-4.92-.66-1.82-.99-3.71-.99-5.67,0-2.88.66-5.44,1.98-7.68,1.32-2.24,3.15-4,5.49-5.28,2.34-1.28,5.03-1.92,8.07-1.92,2.16,0,4.06.34,5.7,1.02,1.64.68,3.01,1.57,4.11,2.67,1.1,1.1,1.94,2.31,2.52,3.63.58,1.32.87,2.6.87,3.84,0,2.12-.51,3.66-1.53,4.62s-2.29,1.44-3.81,1.44h-15.84c.04,1.36.47,2.54,1.29,3.54.82,1,1.86,1.77,3.12,2.31s2.55.81,3.87.81c1,0,1.88-.06,2.64-.18s1.42-.27,1.98-.45c.56-.18,1.06-.37,1.5-.57.44-.2.83-.38,1.17-.54.34-.16.67-.26.99-.3.48-.04.94.06,1.38.3.44.24.8.66,1.08,1.26.24.4.41.77.51,1.11.1.34.15.67.15.99,0,.8-.48,1.56-1.44,2.28-.96.72-2.31,1.31-4.05,1.77s-3.79.69-6.15.69ZM241.5,26.28h12.3c.68,0,1.19-.11,1.53-.33.34-.22.51-.69.51-1.41,0-.92-.28-1.74-.84-2.46-.56-.72-1.32-1.3-2.28-1.74-.96-.44-2.06-.66-3.3-.66-1.48,0-2.82.3-4.02.9s-2.15,1.4-2.85,2.4c-.7,1-1.05,2.1-1.05,3.3Z"/>
      <path class="cls-1" d="M271.08,43.14c-1.12,0-1.93-.17-2.43-.51-.5-.34-.81-.79-.93-1.35-.12-.56-.18-1.18-.18-1.86v-22.26c0-.68.07-1.3.21-1.86.14-.56.46-.99.96-1.29.5-.3,1.31-.45,2.43-.45s1.87.14,2.37.42c.5.28.82.64.96,1.08.14.44.21.84.21,1.2l-.48,1.08c.2-.32.48-.71.84-1.17.36-.46.84-.92,1.44-1.38.6-.46,1.32-.84,2.16-1.14.84-.3,1.84-.45,3-.45.48,0,.99.05,1.53.15.54.1,1.08.24,1.62.42s1.03.41,1.47.69c.44.28.78.61,1.02.99.24.38.36.81.36,1.29,0,1.28-.32,2.36-.96,3.24-.64.88-1.4,1.32-2.28,1.32-.6,0-1.04-.06-1.32-.18-.28-.12-.51-.25-.69-.39-.18-.14-.44-.27-.78-.39-.34-.12-.87-.18-1.59-.18-.6,0-1.21.1-1.83.3-.62.2-1.19.5-1.71.9-.52.4-.94.9-1.26,1.5-.32.6-.48,1.3-.48,2.1v14.58c0,.68-.06,1.29-.18,1.83-.12.54-.44.97-.96,1.29-.52.32-1.36.48-2.52.48Z"/>
    </g>
  </g>
</svg>