<?xml version="1.0" encoding="UTF-8"?>
<svg id="Calque_2" data-name="Calque 2" xmlns="http://www.w3.org/2000/svg" viewBox="0 0 72.58 87.81">
  <defs>
    <style>
      .cls-1 {
        fill: #0c141b;
        stroke-width: 0px;
      }
    </style>
  </defs>
  <g id="Calque_1-2" data-name="Calque 1">
    <path class="cls-1" d="M72.58,82.29c-.02,3.05-2.49,5.52-5.53,5.52H5.53C2.46,87.81,0,85.32,0,82.26c0-9.3,1.53-28.11,12.79-39.25,2.16-2.14,5.7-2.23,7.85-.08,4.01,4,9.55,6.48,15.65,6.48s11.67-2.49,15.68-6.51c2.16-2.17,5.71-2.09,7.9.05,11.37,11.15,12.77,30.03,12.71,39.34Z"/>
    <path class="cls-1" d="M58.45,22.16c0,4.36-1.26,8.43-3.44,11.86-3.93,6.2-10.84,10.31-18.72,10.31s-14.76-4.09-18.69-10.26c-2.21-3.44-3.48-7.52-3.48-11.91C14.12,9.92,24.05,0,36.29,0s22.16,9.92,22.16,22.16Z"/>
  </g>
</svg>